<svg width="32" height="30" viewBox="0 0 32 30" fill="none" xmlns="http://www.w3.org/2000/svg">
<path d="M24.0988 29.8497H7.56553C5.64754 29.8478 3.80866 29.0851 2.45244 27.7288C1.09622 26.3726 0.333458 24.5337 0.331543 22.6158V6.07768C0.333777 4.7082 0.879038 3.3955 1.84775 2.42747C2.81646 1.45943 4.12953 0.915093 5.49901 0.913818H9.63204C10.4339 0.915863 11.2244 1.10349 11.9416 1.462C12.6588 1.82052 13.2834 2.34019 13.7663 2.98033L15.0057 4.63329C15.1022 4.76145 15.2271 4.86549 15.3706 4.93724C15.5141 5.009 15.6723 5.04651 15.8328 5.04683H24.1C26.018 5.04875 27.8569 5.81151 29.2131 7.16773C30.5693 8.52395 31.3321 10.3628 31.334 12.2808V22.6158C31.3321 24.534 30.5691 26.373 29.2126 27.7293C27.8562 29.0855 26.017 29.8482 24.0988 29.8497ZM5.2398 10.9859C4.96586 10.9863 4.70323 11.0952 4.50953 11.2889C4.31583 11.4826 4.20687 11.7452 4.20655 12.0192C4.20655 12.2933 4.31537 12.5563 4.50911 12.7502C4.70285 12.9442 4.96565 13.0533 5.2398 13.0536H11.9565C12.2307 13.0533 12.4935 12.9442 12.6872 12.7502C12.881 12.5563 12.9898 12.2933 12.9898 12.0192C12.9895 11.7452 12.8805 11.4826 12.6868 11.2889C12.4931 11.0952 12.2305 10.9863 11.9565 10.9859H5.2398Z" fill="#686868"/>
</svg>
