<svg width="37" height="37" viewBox="0 0 37 37" fill="none" xmlns="http://www.w3.org/2000/svg">
<path fill-rule="evenodd" clip-rule="evenodd" d="M29.5002 1.57475C29.3753 1.02521 28.8867 0.635254 28.3232 0.635254C27.7596 0.635254 27.271 1.02521 27.1461 1.57475L26.4781 4.51199C26.1692 5.87056 25.1084 6.9314 23.7498 7.24031L20.8125 7.90823C20.2631 8.03317 19.8731 8.52177 19.8731 9.08533C19.8731 9.64889 20.2631 10.1375 20.8125 10.2624L23.7498 10.9303C25.1084 11.2393 26.1692 12.3001 26.4781 13.6587L27.1461 16.5959C27.271 17.1454 27.7596 17.5354 28.3232 17.5354C28.8867 17.5354 29.3753 17.1454 29.5002 16.5959L30.1682 13.6587C30.4771 12.3001 31.5379 11.2393 32.8965 10.9303L35.8338 10.2624C36.3833 10.1375 36.7732 9.64889 36.7732 9.08533C36.7732 8.52177 36.3833 8.03317 35.8338 7.90823L32.8965 7.24031C31.5379 6.9314 30.4771 5.87056 30.1682 4.51199L29.5002 1.57475ZM30.3902 18.5272C29.8452 19.0393 29.1137 19.3462 28.3231 19.3462C26.9142 19.3462 25.6927 18.3713 25.3804 16.9974L24.7125 14.0602C24.558 13.3809 24.0276 12.8505 23.3483 12.696L20.4111 12.0281C19.0372 11.7158 18.0623 10.4943 18.0623 9.08537C18.0623 8.2948 18.3692 7.56333 18.8813 7.0183C17.8397 6.79087 16.7579 6.67106 15.648 6.67106C7.31437 6.67106 0.558594 13.4268 0.558594 21.7605C0.558594 30.0941 7.31437 36.8499 15.648 36.8499C23.9817 36.8499 30.7374 30.0941 30.7374 21.7605C30.7374 20.6506 30.6176 19.5688 30.3902 18.5272Z" fill="url(#paint0_linear_211_117)"/>
<path fill-rule="evenodd" clip-rule="evenodd" d="M15.6479 13.8704C14.7887 13.8704 14.0922 14.5669 14.0922 15.4261V20.2048H9.31355C8.45432 20.2048 7.75781 20.9013 7.75781 21.7605C7.75781 22.6197 8.45432 23.3162 9.31355 23.3162H14.0922V28.0949C14.0922 28.9541 14.7887 29.6506 15.6479 29.6506C16.5072 29.6506 17.2037 28.9541 17.2037 28.0949V23.3162H21.9824C22.8416 23.3162 23.5381 22.6197 23.5381 21.7605C23.5381 20.9013 22.8416 20.2048 21.9824 20.2048H17.2037V15.4261C17.2037 14.5669 16.5072 13.8704 15.6479 13.8704Z" fill="#131313"/>
<defs>
<linearGradient id="paint0_linear_211_117" x1="2.77275" y1="7.48454" x2="44.0309" y2="38.4264" gradientUnits="userSpaceOnUse">
<stop stop-color="#FFE53B"/>
<stop offset="1" stop-color="#FF2525"/>
</linearGradient>
</defs>
</svg>
