<svg width="45" height="45" viewBox="0 0 45 45" fill="none" xmlns="http://www.w3.org/2000/svg">
<path d="M22.5 0C18.0499 0 13.6998 1.3196 9.99968 3.79193C6.29957 6.26426 3.41569 9.77828 1.71272 13.8896C0.00974897 18.001 -0.435826 22.525 0.432341 26.8895C1.30051 31.2541 3.44343 35.2632 6.59011 38.4099C9.73679 41.5566 13.7459 43.6995 18.1105 44.5677C22.475 45.4358 26.999 44.9903 31.1104 43.2873C35.2217 41.5843 38.7357 38.7004 41.2081 35.0003C43.6804 31.3002 45 26.9501 45 22.5C44.993 16.5348 42.6202 10.8159 38.4021 6.59787C34.1841 2.37983 28.4652 0.00703733 22.5 0ZM31.1768 28.2866C31.3722 28.4753 31.528 28.701 31.6352 28.9505C31.7424 29.2001 31.7988 29.4685 31.8012 29.7401C31.8036 30.0117 31.7518 30.281 31.649 30.5324C31.5461 30.7838 31.3942 31.0122 31.2022 31.2042C31.0101 31.3963 30.7817 31.5481 30.5304 31.651C30.279 31.7538 30.0096 31.8056 29.738 31.8032C29.4665 31.8009 29.198 31.7445 28.9485 31.6372C28.6989 31.53 28.4732 31.3742 28.2845 31.1789L22.5 25.3923L16.7155 31.1789C16.3297 31.5515 15.813 31.7576 15.2767 31.753C14.7404 31.7483 14.2273 31.5332 13.8481 31.1539C13.4689 30.7747 13.2537 30.2617 13.2491 29.7254C13.2444 29.1891 13.4506 28.6724 13.8232 28.2866L19.6077 22.5L13.8232 16.7134C13.6278 16.5247 13.472 16.299 13.3648 16.0495C13.2576 15.7999 13.2012 15.5315 13.1988 15.2599C13.1965 14.9883 13.2482 14.719 13.3511 14.4676C13.4539 14.2162 13.6058 13.9878 13.7978 13.7958C13.9899 13.6037 14.2183 13.4518 14.4696 13.349C14.721 13.2462 14.9904 13.1944 15.262 13.1968C15.5336 13.1991 15.802 13.2555 16.0515 13.3627C16.3011 13.4699 16.5268 13.6258 16.7155 13.8211L22.5 19.6077L28.2845 13.8211C28.4732 13.6258 28.6989 13.4699 28.9485 13.3627C29.198 13.2555 29.4665 13.1991 29.738 13.1968C30.0096 13.1944 30.279 13.2462 30.5304 13.349C30.7817 13.4518 31.0101 13.6037 31.2022 13.7958C31.3942 13.9878 31.5461 14.2162 31.649 14.4676C31.7518 14.719 31.8036 14.9883 31.8012 15.2599C31.7988 15.5315 31.7424 15.7999 31.6352 16.0495C31.528 16.299 31.3722 16.5247 31.1768 16.7134L25.3923 22.5L31.1768 28.2866Z" fill="white"/>
</svg>
