<svg width="15" height="17" viewBox="0 0 15 17" fill="none" xmlns="http://www.w3.org/2000/svg">
<path d="M11.7079 10.4177L8.5113 8.66862C8.33198 8.56864 8.18577 8.41827 8.09055 8.23636L6.34149 5.05102C6.2665 4.91454 6.12327 4.82983 5.96755 4.82983C5.81182 4.82983 5.6684 4.91454 5.59361 5.05102L3.84175 8.23636C3.74475 8.41411 3.59854 8.56031 3.4208 8.65732L0.221389 10.4177C0.0849065 10.4925 0 10.6359 0 10.7916C0 10.9474 0.0849065 11.0906 0.221389 11.1656L3.4208 12.9146C3.59834 13.0119 3.74435 13.1579 3.84175 13.3354L5.59077 16.5347C5.59079 16.5348 5.59076 16.5348 5.59071 16.5348C5.59067 16.5348 5.59064 16.5349 5.59066 16.5349C5.66566 16.6713 5.80906 16.7562 5.96456 16.7562C6.12028 16.7562 6.2637 16.6713 6.33869 16.5348L8.08771 13.3355C8.08773 13.3355 8.0877 13.3354 8.08765 13.3354C8.08761 13.3354 8.08758 13.3354 8.0876 13.3353C8.18481 13.1578 8.33079 13.0116 8.50851 12.9146L11.7079 11.1656C11.8444 11.0906 11.9293 10.9474 11.9293 10.7916C11.9293 10.6359 11.8444 10.4925 11.7079 10.4177Z" fill="#A9A9A9"/>
<path d="M14.6289 3.49592L13.1329 2.67682C13.0889 2.65083 13.0524 2.61354 13.0278 2.5687L12.2087 1.07275C12.1339 0.936271 11.9905 0.851562 11.8348 0.851562C11.679 0.851562 11.5356 0.936271 11.4608 1.07275L10.6389 2.5715C10.6133 2.61673 10.576 2.65422 10.5308 2.67961L9.03487 3.49871C8.89838 3.5737 8.81348 3.71693 8.81348 3.87265C8.81348 4.02838 8.89838 4.1718 9.03487 4.24659L10.5336 5.06569C10.578 5.09009 10.6146 5.12659 10.6389 5.17103L11.458 6.66685C11.458 6.66687 11.458 6.66689 11.4579 6.66688C11.4579 6.66686 11.4579 6.66688 11.4579 6.6669C11.5329 6.80331 11.6763 6.88817 11.832 6.88817C11.9877 6.88817 12.1309 6.80326 12.2059 6.66678L13.025 5.17091C13.025 5.17089 13.025 5.1709 13.025 5.17093C13.025 5.17095 13.0251 5.17096 13.0251 5.17094C13.0497 5.12515 13.0873 5.08769 13.1329 5.06291L14.6289 4.25514C14.7713 4.18213 14.861 4.03554 14.861 3.87564C14.861 3.71555 14.7713 3.56892 14.6289 3.49592Z" fill="#A9A9A9"/>
</svg>
