<svg width="138" height="114" viewBox="0 0 138 114" fill="none" xmlns="http://www.w3.org/2000/svg">
<path d="M21.6816 8.55711C21.4476 8.34267 21.3441 8.1894 21.2281 8.60401C21.2281 8.60401 21.2281 8.60395 21.228 8.60388C21.394 8.90459 21.5335 9.22384 21.7299 9.50317C25.8164 15.3176 31.251 19.0632 38.3258 20.2602C39.6258 20.4801 40.9414 20.6077 42.3033 20.7849C24.4044 37.1914 23.5565 59.3236 29.1496 73.5552C29.2542 73.4753 29.3598 73.4097 29.4475 73.3254C32.8846 70.0205 37.0064 68.1206 41.6653 67.2479C42.7755 67.04 43.9164 67.0997 45.0007 66.7606C44.8544 66.7481 44.708 66.7356 44.5616 66.7231C44.5663 66.6778 44.5709 66.6325 44.5755 66.5872C46.8689 66.5872 49.1631 66.5556 51.455 66.6144C51.9013 66.6259 51.484 66.7387 51.3972 66.7851C51.397 66.7851 51.3968 66.7851 51.3967 66.7851C53.232 67.0348 55.0817 67.1149 56.9283 67.1405C61.0155 67.197 65.0369 66.8334 68.6644 64.6954C71.0961 63.2623 72.9786 61.3456 73.6995 58.5063C74.1982 56.5422 74.0396 54.5676 73.7117 52.6056C73.2982 50.131 72.549 47.7167 72.306 45.2118C71.8314 40.3177 72.3343 35.5503 74.3071 31.0005C74.5216 30.506 74.4254 30.303 73.9432 30.117C72.8279 29.6871 71.7544 29.1618 70.7506 28.507C67.8042 26.585 65.5642 23.9631 63.5032 21.1664C62.597 19.9367 62.5983 19.9148 64.0316 19.5913C67.3284 18.8474 70.6514 18.4665 74.0315 18.9148C74.6903 19.0022 75.3571 19.0298 76.0173 19.0847C76.0263 18.9746 76.0412 18.9374 76.0293 18.9137C75.9736 18.8025 75.9156 18.6919 75.8494 18.5868C73.1907 14.3649 69.4125 11.5113 64.8734 9.57656C64.1875 9.28426 63.5554 9.32533 62.8759 9.58167C60.4647 10.4914 58.0526 11.4002 55.6238 12.2611C51.4461 13.742 47.2383 15.1197 42.7958 15.5836C42.7615 15.8704 42.5589 15.9164 42.3222 15.9166C40.6334 15.918 38.9446 15.92 37.2558 15.9216C37.0214 15.9218 36.8132 15.8837 36.7854 15.5904C34.4328 15.3581 32.1911 14.7063 30.0124 13.8101C27.4424 12.7528 25.189 11.1914 23.0442 9.45495C22.3201 9.5731 22.0813 8.9234 21.6816 8.55711Z" fill="#F1A632"/>
<path d="M17.0087 98.7681C18.6832 97.1792 20.2748 95.4243 22.7295 94.9768C24.0282 94.7401 25.3229 94.5724 26.6485 94.5137C29.1479 94.4032 31.6536 94.4565 34.1426 94.0119C39.9572 92.9732 44.2591 89.9689 46.8185 84.5841C46.9491 84.3092 47.0488 84.0372 47.4402 83.9569C48.8491 83.6678 50.2419 83.2997 51.6518 83.0161C56.6187 82.017 61.601 82.4366 66.5822 82.893C70.5632 83.2578 74.5341 83.4505 78.471 82.4601C80.165 82.0338 80.151 82.0958 79.1643 80.6916C77.8485 78.819 76.7086 76.8511 76.0871 74.4715C76.3206 74.6574 76.458 74.7375 76.558 74.8508C78.1945 76.7037 80.1014 78.2269 82.2055 79.5134C84.6678 81.0188 87.3452 81.6843 90.2119 81.4352C92.4616 81.2396 94.636 80.6247 96.8186 80.0608C100.004 79.2377 103.212 78.4825 106.514 78.3286C109.455 78.1914 112.332 78.6663 115.163 79.4468C115.296 79.3757 115.51 79.4546 115.563 79.2325C111.984 77.4584 108.224 76.3474 104.231 75.9903C101.341 75.7318 98.4438 75.7913 95.5517 75.6609C93.3263 75.5605 91.089 75.5042 89.0251 74.5048C88.4566 74.2295 87.8607 73.954 87.5854 73.1245C88.1111 73.3586 88.5143 73.5125 88.893 73.7126C89.5189 74.0431 89.835 73.9658 90.1133 73.2105C91.5541 69.2994 91.3071 65.3748 90.3107 61.4411C89.4185 57.9187 87.7604 54.6844 86.3964 51.3413C85.1664 48.3265 84.1106 45.2781 84.1718 41.9736C84.1861 41.199 84.0246 40.6011 83.5376 39.9964C82.6031 38.8359 82.1226 37.467 82.202 36.531C84.1962 38.5795 86.6617 39.2829 89.4158 38.9759C91.8956 38.6996 94.3293 38.4977 96.7302 39.488C98.3947 40.1745 99.2923 39.7543 100.235 38.1537C100.463 37.7656 100.496 37.5802 100.072 37.2566C97.6213 35.3829 95.2412 33.4238 93.1615 31.1262C91.4964 29.2867 89.6226 27.7263 87.2321 26.9021C86.8403 26.767 86.6454 26.5885 86.6123 26.1104C86.5496 25.2072 86.4006 24.3023 86.2018 23.4174C84.6444 16.4865 81.2128 10.704 75.5722 6.31889C71.7447 3.34327 67.4514 1.4463 62.5801 1.01911C56.1492 0.45511 50.3937 2.19028 45.3304 6.1925C44.4503 6.88816 43.5914 7.61922 42.8878 8.50204C62.3532 -3.79499 81.4185 9.4466 83.921 26.5701C79.9315 24.0262 75.6516 22.7503 70.7773 23.1095C74.0681 25.8109 78.035 27.065 81.2084 29.5802C80.2668 30.8796 79.4514 32.2054 78.8913 33.6812C77.0689 38.483 77.1988 43.3611 78.2284 48.2987C78.8987 51.5135 79.6925 54.7088 79.3104 58.0635C78.8464 62.1364 77.1023 65.472 73.8987 68.007C69.8377 71.2202 65.0412 72.3081 60.0126 72.5484C56.3691 72.7226 52.731 72.29 49.0865 72.2358C45.9305 72.1889 42.8202 72.3493 39.7796 73.3411C35.073 74.8761 31.7427 77.7971 30.3777 82.6384C29.3507 86.2813 27.0554 88.656 23.6272 90.0801C21.4029 91.0041 19.1011 91.5596 16.7006 91.6885C16.251 91.7127 16.0048 91.8243 15.7583 92.2487C12.2095 98.3608 7.91568 103.957 3.68051 109.593C2.64152 110.975 1.56096 112.326 0.499512 113.692C0.873675 113.483 1.16648 113.209 1.47535 112.954C6.89544 108.491 11.9206 103.596 17.0087 98.7681ZM92.6894 35.001C91.7982 34.4226 90.8704 34.2486 89.9531 34.0591C88.0504 33.6661 87.0456 32.378 86.4021 30.6353C90.1531 30.6629 91.9845 31.9205 92.6894 35.001Z" fill="#FDFCFC"/>
<path d="M88.3235 12.2087C88.1368 12.0705 87.8074 12.0558 87.6137 12.2309C87.3714 12.4498 87.7026 12.6138 87.7745 12.7864C88.0468 13.4398 88.3211 14.1028 88.6948 14.6994C88.9189 15.0574 88.9382 15.3875 88.9139 15.7611L88.9138 15.761C88.9138 15.7611 88.9139 15.7611 88.9139 15.7612C89.7929 17.8787 90.5881 20.0212 90.9429 22.3024C91.0468 22.9706 90.9423 23.6935 91.4719 24.2559C93.153 26.0414 94.8251 27.8353 96.5016 29.6252C98.6342 31.902 100.954 33.9627 103.507 35.7626C103.781 35.9557 104.327 36.0677 104.102 36.6659C103.504 38.2608 102.871 39.8482 101.676 41.0979C100.126 42.7192 98.1403 43.2833 96.0647 42.5829C93.9044 41.854 91.8992 41.9547 89.8243 42.7257C89.3536 42.9007 89.2494 43.0912 89.3324 43.5372C89.5628 44.7742 89.8737 45.9886 90.2919 47.1746C91.8373 51.5586 94.1665 55.6269 95.4941 60.0977C95.5814 60.3915 95.6981 60.5033 96.0083 60.4963C96.9199 60.4759 97.8337 60.5208 98.7438 60.4785C102.439 60.3069 106.074 60.6796 109.667 61.5521C112.174 62.1608 114.616 62.9606 116.999 63.9383C117.68 64.2176 117.93 64.0394 118.031 63.3249C118.677 58.7154 118.652 54.0969 117.979 49.5092C117.156 43.8993 115.333 38.5925 112.583 33.6244C108.448 26.1576 102.768 20.1388 95.54 15.5985C93.6844 14.4329 91.812 13.283 89.7445 12.5076C89.24 12.558 88.7658 12.5363 88.3235 12.2087Z" fill="#F1A432"/>
<path d="M106.861 82.7802C106.316 82.7664 105.931 82.9156 105.547 83.3073C102.002 86.9223 98.0001 89.9228 93.4818 92.2274C87.3497 95.3549 80.8563 97.0561 73.9676 97.1983C72.0268 97.2384 70.0852 97.223 68.1493 97.0411C65.4283 97.2578 62.702 97.2665 59.9752 97.2414C56.6455 97.2108 53.363 96.7677 50.1068 96.0978C49.9891 96.0736 49.8588 96.1111 49.7339 96.1193C51.5125 97.3067 53.4149 98.2683 55.3864 99.0766C61.5667 101.611 67.9592 102.852 74.6822 102.529C79.3337 102.305 83.838 101.496 88.1889 99.9162C96.4395 96.9207 103.447 92.0592 109.303 85.5252C110.047 84.6945 110.783 83.8618 111.517 82.7932C109.859 82.7933 108.359 82.8181 106.861 82.7802Z" fill="#FCFBFB"/>
<path d="M97.3989 65.8917C96.9602 65.905 96.5654 65.8706 96.6072 66.5804C96.6734 67.7052 96.7302 68.8458 96.4895 69.9657C96.3745 70.5007 96.6343 70.5625 97.0959 70.5704C98.4749 70.594 99.8532 70.6229 101.233 70.6911C106.339 70.9432 111.052 72.4214 115.336 75.1532C122.218 79.5409 128.493 84.7618 134.991 89.6755C135.971 90.4162 136.921 91.195 137.885 91.9562C137.924 91.9126 137.962 91.869 138 91.8253C137.964 91.7566 137.935 91.6822 137.89 91.6201C134.082 86.4026 129.833 81.5832 125.128 77.1475C119.891 72.2094 114.038 68.4379 106.924 66.834C103.782 66.1258 100.614 65.7941 97.3989 65.8917Z" fill="#FBFBFB"/>
<path d="M94.2359 85.3257C93.1912 85.5999 92.1726 85.9225 91.1306 86.1255C90.0546 86.3352 88.8753 86.7216 87.8706 86.3609C85.4291 85.4847 83.4084 86.6329 81.2367 87.3138C75.735 89.0389 70.113 88.5715 64.5084 88.0035C61.6936 87.7183 58.8763 87.6874 55.7891 87.59C67.0196 94.3579 85.1186 92.7449 94.2359 85.3257Z" fill="#EEA73B"/>
<path d="M50.5954 95.9142C55.0035 96.7324 59.45 96.983 63.9257 96.8459C65.3363 96.8027 66.735 97.1042 68.149 97.041C65.2874 96.667 62.4864 96.0309 59.7296 95.1732C56.326 94.1143 53.1422 92.5846 50.0661 90.8068C49.7454 90.6214 49.4612 90.2991 49.0411 90.8094C48.1689 91.8688 47.2045 92.8524 46.252 93.8956C47.4317 94.6201 48.4888 95.5128 49.7332 96.1192C49.7333 96.1192 49.7335 96.1192 49.7336 96.1192C49.7333 96.119 49.7329 96.1188 49.7326 96.1186C49.9649 95.8175 50.2821 95.856 50.5954 95.9142Z" fill="#ECA438"/>
<path d="M50.1062 96.0976C53.3625 96.7675 56.645 97.2106 59.9747 97.2412C62.7015 97.2663 65.4277 97.2576 68.1487 97.0409C66.7347 97.1041 65.336 96.8026 63.9255 96.8458C59.4498 96.9829 55.0033 96.7323 50.5951 95.9141C50.2819 95.8559 49.9646 95.8174 49.7324 96.1185C49.7327 96.1187 49.7331 96.1189 49.7333 96.1191C49.8583 96.1109 49.9886 96.0734 50.1062 96.0976Z" fill="#ECA438"/>
<path d="M21.6308 79.3387C22.3825 79.8478 23.1672 80.2955 24.1002 80.3739C25.4301 80.4857 25.4211 80.4699 26.2216 78.5695C26.5693 77.7441 25.8393 77.5328 25.4576 77.1881C21.357 73.4853 15.6669 74.8032 11.9941 77.498C15.3816 76.7448 18.8017 77.423 21.6308 79.3387Z" fill="#FBFAFB"/>
<path d="M87.566 12.8063C87.4815 12.5896 87.1879 12.4216 87.3967 12.1441C87.6262 11.8392 87.9769 11.8816 88.2577 11.9826C88.7523 12.1604 89.2229 12.4055 89.7451 12.5077C88.6883 11.8476 87.5028 11.4966 86.2905 10.9604C87.209 12.641 88.0617 14.2011 88.9144 15.7611C88.6199 14.7057 87.9602 13.8168 87.566 12.8063Z" fill="#CFA460"/>
<path d="M87.3963 12.1438C87.1875 12.4214 87.481 12.5893 87.5656 12.8061C87.9598 13.8165 88.6195 14.7054 88.914 15.7609L88.914 15.761C88.9383 15.3875 88.9191 15.0573 88.6949 14.6993C88.3212 14.1027 88.0469 13.4397 87.7747 12.7863C87.7028 12.6137 87.3715 12.4497 87.6138 12.2308C87.8076 12.0557 88.137 12.0704 88.3236 12.2086C88.766 12.5362 89.2401 12.5579 89.7446 12.5075C89.2224 12.4052 88.7519 12.1602 88.2572 11.9823C87.9765 11.8813 87.6258 11.8389 87.3963 12.1438Z" fill="#CFA460"/>
<path d="M21.2276 8.60377C21.1494 8.11346 21.292 7.99998 21.6899 8.33583C22.1374 8.71355 22.4266 9.28269 23.0439 9.45493C22.0421 8.34716 20.8962 7.37182 19.98 6.16138C20.3049 7.0269 20.642 7.87681 21.2277 8.60386C21.2277 8.6038 21.2276 8.60377 21.2276 8.60377Z" fill="#CDB176"/>
<path d="M21.6904 8.33555C21.2925 7.9997 21.1499 8.11318 21.2281 8.60349L21.2282 8.60355L21.2283 8.60368C21.3443 8.18907 21.4478 8.34237 21.6818 8.55678C22.0815 8.92307 22.3203 9.57277 23.0444 9.45465C22.4271 9.28241 22.1379 8.71327 21.6904 8.33555Z" fill="#CDB176"/>
<path d="M37.8671 15.8263C39.5093 15.7328 41.1721 16.0563 42.7956 15.5837C40.7924 15.7283 38.7891 15.8213 36.7852 15.5905C36.7853 15.5905 36.7854 15.5906 36.7854 15.5906C37.1212 15.7827 37.4868 15.848 37.8671 15.8263Z" fill="#D2A578"/>
<path d="M37.2556 15.9217C38.9444 15.9201 40.6332 15.9181 42.322 15.9168C42.5587 15.9166 42.7613 15.8706 42.7956 15.5837C41.1721 16.0563 39.5093 15.7329 37.8671 15.8263C37.4868 15.848 37.1212 15.7827 36.7854 15.5906C36.7854 15.5906 36.7853 15.5905 36.7852 15.5905C36.8131 15.8839 37.0212 15.922 37.2556 15.9217Z" fill="#D2A578"/>
<path d="M48.9356 66.6793C47.6243 66.6834 46.3078 66.5489 45.0005 66.7606C47.1322 66.7687 49.264 66.7769 51.3964 66.7851C51.3963 66.7851 51.3963 66.7851 51.3962 66.785C50.5869 66.5216 49.754 66.6767 48.9356 66.6793Z" fill="#CBB486"/>
<path d="M51.4549 66.6145C49.163 66.5558 46.8688 66.5873 44.5754 66.5873C44.5708 66.6326 44.5662 66.6779 44.5615 66.7232C44.7079 66.7357 44.8543 66.7482 45.0006 66.7607C46.308 66.549 47.6244 66.6835 48.9357 66.6794C49.7541 66.6769 50.587 66.5217 51.3963 66.7852C51.3963 66.7852 51.3965 66.7852 51.3965 66.7852C51.3967 66.7852 51.3969 66.7852 51.3971 66.7852C51.4839 66.7388 51.9011 66.626 51.4549 66.6145Z" fill="#CBB486"/>
<path d="M115.163 79.4467C115.812 79.822 116.534 79.9656 117.256 80.1197C116.727 79.7493 116.192 79.4 115.564 79.2324C115.587 79.5966 115.374 79.5206 115.163 79.4467Z" fill="#90A3B0"/>
<path d="M115.163 79.4467C115.374 79.5206 115.587 79.5966 115.564 79.2324C115.511 79.4546 115.297 79.3757 115.163 79.4467Z" fill="#90A3B0"/>
</svg>
