<svg width="84" height="84" viewBox="0 0 84 84" fill="none" xmlns="http://www.w3.org/2000/svg">
<path d="M68 0.000244141H16C7.16344 0.000244141 0 7.16369 0 16.0002V68.0002C0 76.8368 7.16344 84.0002 16 84.0002H68C76.8366 84.0002 84 76.8368 84 68.0002V16.0002C84 7.16369 76.8366 0.000244141 68 0.000244141Z" fill="#300056"/>
<path style="mix-blend-mode:multiply" d="M42.0002 71.3772C58.4696 71.3772 71.8207 70.1792 71.8207 68.7014C71.8207 67.2236 58.4696 66.0256 42.0002 66.0256C25.5308 66.0256 12.1797 67.2236 12.1797 68.7014C12.1797 70.1792 25.5308 71.3772 42.0002 71.3772Z" fill="url(#paint0_radial_380_752)"/>
<path d="M32.251 58.9133L41.1053 50.0616L56.4958 34.6711C58.0458 33.1212 59.8705 32.0167 61.8154 31.3604C64.2564 30.5334 66.8815 30.4107 69.3759 30.9923C71.8009 31.5525 74.1032 32.7797 75.9946 34.6711L67.3937 43.2694L66.4973 44.1658L57.7497 52.9134L53.7106 56.9525L51.7498 58.9133C46.3662 64.2996 37.6372 64.2996 32.251 58.9133Z" fill="url(#paint1_linear_380_752)"/>
<path d="M61.1007 39.956C61.5943 37.1202 62.0104 34.2229 61.8157 31.3604C64.2567 30.5334 66.8818 30.4107 69.3762 30.9923C71.8012 31.5525 74.1035 32.7797 75.995 34.6711L67.394 43.2694L57.75 52.9134C59.3507 48.7464 60.3297 44.3579 61.1007 39.956Z" fill="url(#paint2_linear_380_752)"/>
<path style="mix-blend-mode:color-dodge" d="M32.251 58.9138L41.1053 50.0621L42.2738 48.8936C44.3787 48.9603 46.4863 48.8536 48.5938 48.6268C51.5524 48.3147 54.5003 47.7731 57.4082 47.1568C58.1765 46.9941 58.9422 46.8234 59.7078 46.634C61.5886 46.1724 63.4427 45.6095 65.2035 44.8092C65.641 44.6091 66.0731 44.3957 66.4973 44.1663L57.7497 52.9139L53.7106 56.953L51.7498 58.9138C46.3662 64.3 37.6372 64.3 32.251 58.9138Z" fill="url(#paint3_linear_380_752)"/>
<path style="mix-blend-mode:multiply" d="M32.251 58.9134L41.1053 50.0617L47.4653 43.7017C47.6521 45.3797 48.0363 47.0337 48.5938 48.6264C48.7112 48.9652 48.8393 49.3013 48.9726 49.6348C50.0744 52.364 51.6938 54.7783 53.6893 56.9285C53.6973 56.9365 53.7053 56.9445 53.7106 56.9525L51.7498 58.9134C46.3662 64.2996 37.6372 64.2996 32.251 58.9134Z" fill="url(#paint4_linear_380_752)"/>
<path d="M8.00391 34.6714C9.85001 32.8253 12.091 31.6115 14.4546 31.0325C14.596 30.9979 14.7374 30.9658 14.8788 30.9365C15.9592 30.7044 17.0584 30.6057 18.1575 30.6377C18.7577 30.6564 19.358 30.7124 19.9529 30.8084C21.4682 31.0512 22.9488 31.5501 24.3307 32.2997C25.4699 32.9187 26.5397 33.7083 27.5027 34.6714L28.7513 35.9199L44.9847 52.1507L46.5694 53.7354L46.7481 53.9141L49.3519 56.5179L50.6218 57.7878L51.7476 58.9136C51.0326 59.6259 50.2616 60.2475 49.4453 60.7703C48.6129 61.3066 47.7352 61.7441 46.8282 62.0829C45.7397 62.4884 44.6112 62.7525 43.4694 62.8726C42.9412 62.9286 42.4077 62.9552 41.8768 62.9526C39.1103 62.9286 36.3518 62.0775 34.0015 60.3995C33.3852 59.962 32.801 59.4658 32.2487 58.9136L24.0853 50.7501L21.8337 48.5012L8.00391 34.6714Z" fill="url(#paint5_linear_380_752)"/>
<path d="M21.834 48.5012C23.9976 49.5897 26.2385 50.5207 28.5408 51.2597C30.2108 51.8013 31.9155 52.2388 33.6443 52.5669C37.3525 53.2712 41.1354 53.4633 44.9023 53.6527C45.4572 53.6794 46.0148 53.7087 46.5697 53.7354L46.7484 53.9142L49.3522 56.5179L50.622 57.7878L51.7479 58.9136C51.0329 59.6259 50.2619 60.2475 49.4456 60.7704C48.6132 61.3066 47.7355 61.7441 46.8285 62.0829C45.74 62.4884 44.6115 62.7525 43.4697 62.8726C42.9415 62.9286 42.4079 62.9553 41.877 62.9526C39.1106 62.9286 36.3521 62.0776 34.0017 60.3995C33.3855 59.962 32.8012 59.4658 32.249 58.9136L24.0856 50.7502L21.834 48.5012Z" fill="url(#paint6_linear_380_752)"/>
<path style="mix-blend-mode:color-dodge" d="M8.00391 34.6714C9.85001 32.8253 12.091 31.6115 14.4546 31.0325C14.596 30.9979 14.7374 30.9658 14.8788 30.9365C15.9592 30.7044 17.0584 30.6057 18.1575 30.6377C18.7577 30.6564 19.358 30.7124 19.9529 30.8084C21.4682 31.0512 22.9488 31.5501 24.3307 32.2997C24.3894 38.8411 25.726 45.3719 28.5405 51.2597C28.6472 51.4891 28.7566 51.7159 28.8713 51.9426C30.1599 54.5197 31.7258 56.9474 33.2865 59.3724C33.4892 59.6872 33.7347 60.034 34.0015 60.3995C33.3852 59.962 32.801 59.4658 32.2487 58.9136L24.0853 50.7501L21.8337 48.5012L8.00391 34.6714Z" fill="url(#paint7_linear_380_752)"/>
<path d="M26.9587 27.9484C26.9587 27.5429 27.1135 27.1374 27.4203 26.8306C28.7862 25.4647 30.2935 24.3336 31.8968 23.4292C32.3023 23.1998 32.7131 22.9864 33.1293 22.7889C34.7967 21.9966 36.5467 21.439 38.3288 21.1189C39.5427 20.9002 40.7698 20.7908 41.997 20.7908C43.4643 20.7908 44.9316 20.9482 46.3695 21.2603C46.655 21.3217 46.9431 21.391 47.2259 21.4631C49.072 21.9459 50.8674 22.6902 52.5481 23.6933C53.9834 24.547 55.3359 25.5954 56.5738 26.8333C57.1901 27.4522 57.1901 28.4526 56.5738 29.0716L51.9745 33.6708L44.318 41.3247L43.555 42.0877L41.997 43.6457L41.9063 43.555L36.6028 38.2541L36.5707 38.2194L32.7585 34.4071L27.4176 29.0689C27.1081 28.7594 26.9561 28.3539 26.9561 27.9484H26.9587Z" fill="url(#paint8_linear_380_752)"/>
<path d="M41.908 43.555L36.6045 38.2541C39.9259 37.5205 43.0792 36.0265 45.715 33.8763C49.2418 31.0004 50.7811 27.5616 52.5498 23.6907C53.9851 24.5444 55.3377 25.5928 56.5755 26.8307C57.1918 27.4496 57.1918 28.45 56.5755 29.0689L43.5567 42.0877L41.9988 43.6457L41.908 43.555Z" fill="url(#paint9_linear_380_752)"/>
<path style="mix-blend-mode:color-dodge" d="M26.9587 27.9487C26.9587 27.5432 27.1135 27.1377 27.4203 26.8309C28.7862 25.465 30.2935 24.3338 31.8968 23.4294C33.9216 22.2903 36.0986 21.5193 38.3288 21.1191C37.0776 25.0915 37.1443 29.4853 38.5903 33.3963C39.4733 35.784 40.8632 37.9742 42.6106 39.8203C43.1442 40.3805 43.7204 40.8687 44.318 41.3249L43.555 42.0879L41.997 43.6459L41.9063 43.5552L36.6028 38.2543L36.5707 38.2196L27.4176 29.0691C27.1081 28.7597 26.9561 28.3542 26.9561 27.9487H26.9587Z" fill="url(#paint10_linear_380_752)"/>
<path style="mix-blend-mode:overlay" d="M26.9587 27.9483C26.9587 27.5428 27.1135 27.1373 27.4203 26.8305C28.7862 25.4646 30.2935 24.3335 31.8968 23.4291C32.3023 23.1997 32.7131 22.9862 33.1293 22.7888C31.8808 25.9421 31.5847 29.4663 32.313 32.7797C32.433 33.3266 32.5824 33.8708 32.7585 34.407L27.4176 29.0688C27.1081 28.7593 26.9561 28.3538 26.9561 27.9483H26.9587Z" fill="url(#paint11_linear_380_752)"/>
<defs>
<radialGradient id="paint0_radial_380_752" cx="0" cy="0" r="1" gradientUnits="userSpaceOnUse" gradientTransform="translate(42.0002 68.5044) rotate(180) scale(29.5457 2.0682)">
<stop stop-color="#525252"/>
<stop offset="1" stop-color="white" stop-opacity="0"/>
</radialGradient>
<linearGradient id="paint1_linear_380_752" x1="66.9855" y1="34.4871" x2="46.561" y2="54.0259" gradientUnits="userSpaceOnUse">
<stop stop-color="#71EFB5"/>
<stop offset="1" stop-color="#3782B0"/>
</linearGradient>
<linearGradient id="paint2_linear_380_752" x1="64.038" y1="54.5755" x2="69.0507" y2="32.3688" gradientUnits="userSpaceOnUse">
<stop stop-color="#71EFB5"/>
<stop offset="1" stop-color="#3782B0"/>
</linearGradient>
<linearGradient id="paint3_linear_380_752" x1="83.4778" y1="41.5492" x2="50.5013" y2="53.3594" gradientUnits="userSpaceOnUse">
<stop stop-color="#B3B3B3"/>
<stop offset="1"/>
</linearGradient>
<linearGradient id="paint4_linear_380_752" x1="53.3078" y1="61.0316" x2="38.4029" y2="50.3845" gradientUnits="userSpaceOnUse">
<stop stop-color="white" stop-opacity="0"/>
<stop offset="1"/>
</linearGradient>
<linearGradient id="paint5_linear_380_752" x1="44.9127" y1="62.3283" x2="23.3037" y2="40.0016" gradientUnits="userSpaceOnUse">
<stop stop-color="#C928F6"/>
<stop offset="1" stop-color="#5D00A4"/>
</linearGradient>
<linearGradient id="paint6_linear_380_752" x1="21.0043" y1="52.4122" x2="46.6737" y2="59.2177" gradientUnits="userSpaceOnUse">
<stop stop-color="#C928F6"/>
<stop offset="1" stop-color="#5D00A4"/>
</linearGradient>
<linearGradient id="paint7_linear_380_752" x1="32.2167" y1="58.8122" x2="13.8304" y2="29.7974" gradientUnits="userSpaceOnUse">
<stop stop-color="#B3B3B3"/>
<stop offset="1"/>
</linearGradient>
<linearGradient id="paint8_linear_380_752" x1="41.9997" y1="41.6475" x2="41.9997" y2="18.267" gradientUnits="userSpaceOnUse">
<stop stop-color="#F1AF40"/>
<stop offset="1" stop-color="#EF4762"/>
</linearGradient>
<linearGradient id="paint9_linear_380_752" x1="36.271" y1="40.3937" x2="54.604" y2="29.189" gradientUnits="userSpaceOnUse">
<stop stop-color="#F1AF40"/>
<stop offset="1" stop-color="#EF4762"/>
</linearGradient>
<linearGradient id="paint10_linear_380_752" x1="47.0792" y1="52.4976" x2="32.0569" y2="23.5975" gradientUnits="userSpaceOnUse">
<stop stop-color="#B3B3B3"/>
<stop offset="1"/>
</linearGradient>
<linearGradient id="paint11_linear_380_752" x1="36.4961" y1="22.5034" x2="30.2588" y2="30.3973" gradientUnits="userSpaceOnUse">
<stop stop-color="white" stop-opacity="0"/>
<stop offset="1"/>
</linearGradient>
</defs>
</svg>
