<svg width="25" height="24" viewBox="0 0 25 24" fill="none" xmlns="http://www.w3.org/2000/svg">
<path fill-rule="evenodd" clip-rule="evenodd" d="M2.75622 17.3918C2.08328 17.2783 1.45707 16.9584 0.968242 16.4695C0.348287 15.8496 0 15.0087 0 14.132V12.1174C0 11.2406 0.348287 10.3998 0.968242 9.77983C1.5882 9.15988 2.42906 8.81154 3.30581 8.81154H3.52587C3.87761 4.37185 7.59213 0.878418 12.1226 0.878418C16.653 0.878418 20.3675 4.37185 20.7193 8.81154H20.9393C21.8161 8.81154 22.6569 9.15988 23.2769 9.77983C23.8968 10.3998 24.2451 11.2406 24.2451 12.1174V14.132C24.2451 15.0087 23.8968 15.8496 23.2769 16.4695C22.6569 17.0895 21.8161 17.4378 20.9393 17.4378H19.9638C19.5592 17.4378 19.2312 17.1098 19.2312 16.7053V9.50239C19.2312 5.57638 16.0486 2.39374 12.1226 2.39374C8.19656 2.39374 5.01391 5.57638 5.01391 9.50239V16.7053C5.01391 16.9909 4.8504 17.2384 4.61183 17.3592C3.95513 17.5871 2.93669 17.4223 2.75622 17.3918Z" fill="white"/>
<path fill-rule="evenodd" clip-rule="evenodd" d="M14.5685 22.2108C14.5685 21.3729 13.8892 20.6935 13.0512 20.6935H11.1932C10.7908 20.6935 10.4049 20.8534 10.1203 21.138C9.83579 21.4225 9.67592 21.8084 9.67592 22.2108C9.67592 23.0488 10.3553 23.7282 11.1932 23.7282H13.0512C13.8892 23.7282 14.5685 23.0488 14.5685 22.2108ZM3.18945 18.2983C3.44289 18.3177 3.74951 18.3288 4.05749 18.3108C4.22158 19.1429 4.6292 19.9147 5.23764 20.5232C6.0454 21.3309 7.14093 21.7847 8.28325 21.7847H8.8622C8.83667 21.9244 8.82355 22.0669 8.82355 22.2108C8.82355 22.3564 8.83667 22.4989 8.86182 22.637H8.28325C6.91487 22.637 5.60251 22.0935 4.63493 21.1259C3.86301 20.3539 3.36092 19.3626 3.18945 18.2983Z" fill="#A9A9A9"/>
</svg>
