<svg width="37" height="37" viewBox="0 0 37 37" fill="none" xmlns="http://www.w3.org/2000/svg">
<path fill-rule="evenodd" clip-rule="evenodd" d="M29.5007 1.57475C29.3758 1.02521 28.8872 0.635254 28.3236 0.635254C27.7601 0.635254 27.2715 1.02521 27.1465 1.57475L26.4786 4.51199C26.1697 5.87056 25.1089 6.9314 23.7503 7.24031L20.813 7.90823C20.2635 8.03317 19.8736 8.52177 19.8736 9.08533C19.8736 9.64889 20.2635 10.1375 20.813 10.2624L23.7503 10.9303C25.1089 11.2393 26.1697 12.3001 26.4786 13.6587L27.1465 16.5959C27.2715 17.1454 27.7601 17.5354 28.3236 17.5354C28.8872 17.5354 29.3758 17.1454 29.5007 16.5959L30.1687 13.6587C30.4776 12.3001 31.5384 11.2393 32.897 10.9303L35.8342 10.2624C36.3837 10.1375 36.7737 9.64889 36.7737 9.08533C36.7737 8.52177 36.3837 8.03317 35.8342 7.90823L32.897 7.24031C31.5384 6.9314 30.4776 5.87056 30.1687 4.51199L29.5007 1.57475ZM30.3907 18.5272C29.8456 19.0393 29.1142 19.3462 28.3236 19.3462C26.9147 19.3462 25.6932 18.3713 25.3809 16.9974L24.713 14.0602C24.5585 13.3809 24.0281 12.8505 23.3488 12.696L20.4116 12.0281C19.0377 11.7158 18.0628 10.4943 18.0628 9.08537C18.0628 8.2948 18.3697 7.56333 18.8818 7.0183C17.8402 6.79087 16.7584 6.67106 15.6485 6.67106C7.31486 6.67106 0.559082 13.4268 0.559082 21.7605C0.559082 30.0941 7.31486 36.8499 15.6485 36.8499C23.9821 36.8499 30.7379 30.0941 30.7379 21.7605C30.7379 20.6506 30.6181 19.5688 30.3907 18.5272Z" fill="#686868"/>
<path fill-rule="evenodd" clip-rule="evenodd" d="M15.6484 13.8704C14.7892 13.8704 14.0927 14.5669 14.0927 15.4261V20.2048H9.31403C8.45481 20.2048 7.7583 20.9013 7.7583 21.7605C7.7583 22.6197 8.45481 23.3162 9.31403 23.3162H14.0927V28.0949C14.0927 28.9541 14.7892 29.6506 15.6484 29.6506C16.5077 29.6506 17.2042 28.9541 17.2042 28.0949V23.3162H21.9828C22.8421 23.3162 23.5386 22.6197 23.5386 21.7605C23.5386 20.9013 22.8421 20.2048 21.9828 20.2048H17.2042V15.4261C17.2042 14.5669 16.5077 13.8704 15.6484 13.8704Z" fill="#272728"/>
</svg>
