<svg width="19" height="26" viewBox="0 0 19 26" fill="none" xmlns="http://www.w3.org/2000/svg">
<path d="M8.0681 24.0783L9.10111 16.1363H1.9821C1.84198 16.1362 1.70438 16.0989 1.58343 16.0281C1.46249 15.9574 1.36254 15.8557 1.29384 15.7336C1.22514 15.6114 1.19016 15.4732 1.19249 15.3331C1.19482 15.193 1.23438 15.056 1.30711 14.9363L9.47711 1.50925C9.57133 1.35465 9.7158 1.23709 9.88633 1.17628C10.0569 1.11546 10.2431 1.11506 10.4139 1.17515C10.5847 1.23525 10.7297 1.35218 10.8245 1.50639C10.9194 1.66059 10.9585 1.84271 10.9351 2.02225L9.90211 9.96925H17.0211C17.1612 9.9693 17.2988 10.0066 17.4198 10.0774C17.5407 10.1482 17.6407 10.2498 17.7094 10.3719C17.7781 10.4941 17.813 10.6323 17.8107 10.7724C17.8084 10.9125 17.7688 11.0495 17.6961 11.1693L9.5261 24.5943C9.43186 24.7493 9.2871 24.8672 9.11615 24.9281C8.94521 24.989 8.7585 24.9892 8.58743 24.9287C8.41636 24.8682 8.27134 24.7506 8.17677 24.5957C8.08219 24.4408 8.04382 24.2581 8.0681 24.0783Z" fill="#F1B253"/>
<path d="M8.85784 25.7622C8.67664 25.762 8.49677 25.7313 8.32583 25.6712C7.98268 25.553 7.69115 25.3194 7.50095 25.0103C7.31075 24.7013 7.23366 24.3357 7.28284 23.9762L8.19984 16.9232H1.97983C1.69958 16.9231 1.42439 16.8484 1.18249 16.7069C0.940599 16.5654 0.740701 16.362 0.603301 16.1178C0.465902 15.8735 0.395947 15.5971 0.400609 15.3169C0.405272 15.0367 0.484386 14.7627 0.629835 14.5232L8.80383 1.09416C8.99227 0.785103 9.28111 0.550116 9.62204 0.428507C9.96298 0.306897 10.3353 0.306039 10.6768 0.426076C11.0183 0.546113 11.3082 0.779766 11.4981 1.08795C11.6879 1.39614 11.7662 1.76017 11.7198 2.11916L10.8038 9.17516H17.0238C17.3041 9.17526 17.5793 9.2499 17.8212 9.39143C18.0631 9.53296 18.263 9.73628 18.4004 9.98055C18.5378 10.2248 18.6077 10.5012 18.6031 10.7814C18.5984 11.0617 18.5193 11.3356 18.3738 11.5752L10.2038 25.0012C10.0644 25.2336 9.86715 25.4259 9.63124 25.5592C9.39532 25.6926 9.12885 25.7625 8.85784 25.7622ZM8.84983 24.1792C8.84943 24.1842 8.84943 24.1892 8.84983 24.1942L17.0208 10.7542H9.90384C9.79143 10.7542 9.68029 10.7303 9.57786 10.684C9.47542 10.6378 9.38405 10.5701 9.30984 10.4857C9.23563 10.4013 9.1803 10.302 9.14753 10.1944C9.11476 10.0869 9.10532 9.97363 9.11983 9.86216L10.1528 1.91516L1.98284 15.3422H9.10383C9.21624 15.3421 9.32738 15.366 9.42981 15.4123C9.53224 15.4586 9.62362 15.5262 9.69783 15.6106C9.77204 15.6951 9.82737 15.7944 9.86014 15.9019C9.89291 16.0094 9.90235 16.1227 9.88783 16.2342L8.84983 24.1792Z" fill="#1F1F1F"/>
</svg>
