<svg width="14" height="15" viewBox="0 0 14 15" fill="none" xmlns="http://www.w3.org/2000/svg">
<path d="M7 0.249512C5.61553 0.249512 4.26215 0.660054 3.11101 1.42922C1.95987 2.19839 1.06266 3.29165 0.532846 4.57073C0.00303302 5.84981 -0.13559 7.25728 0.134506 8.61514C0.404603 9.97301 1.07129 11.2203 2.05026 12.1993C3.02922 13.1782 4.2765 13.8449 5.63437 14.115C6.99224 14.3851 8.3997 14.2465 9.67878 13.7167C10.9579 13.1869 12.0511 12.2896 12.8203 11.1385C13.5895 9.98736 14 8.63398 14 7.24951C14 5.393 13.2625 3.61252 11.9497 2.29976C10.637 0.98701 8.85652 0.249512 7 0.249512ZM9.77439 8.27406H6.86082C6.63987 8.27406 6.42797 8.18629 6.27173 8.03005C6.1155 7.87381 6.02772 7.66191 6.02772 7.44096V2.96509C6.02772 2.74414 6.1155 2.53224 6.27173 2.376C6.42797 2.21976 6.63987 2.13199 6.86082 2.13199C7.08178 2.13199 7.29368 2.21976 7.44992 2.376C7.60615 2.53224 7.69392 2.74414 7.69392 2.96509V6.60786H9.77439C9.99534 6.60786 10.2072 6.69563 10.3635 6.85187C10.5197 7.00811 10.6075 7.22001 10.6075 7.44096C10.6075 7.66191 10.5197 7.87381 10.3635 8.03005C10.2072 8.18629 9.99534 8.27406 9.77439 8.27406Z" fill="#686868"/>
</svg>
