<svg width="84" height="84" viewBox="0 0 84 84" fill="none" xmlns="http://www.w3.org/2000/svg">
<path d="M68 0H16C7.16344 0 0 7.16344 0 16V68C0 76.8366 7.16344 84 16 84H68C76.8366 84 84 76.8366 84 68V16C84 7.16344 76.8366 0 68 0Z" fill="#353233"/>
<path d="M25.5305 47.5981L18.8896 55.3237V50.8799L25.5305 47.5981Z" fill="#00C6E2"/>
<path d="M25.8606 44.0041L18.8896 47.4489V40.3738L25.8606 44.0041Z" fill="white"/>
<path d="M26.0004 40.6094L18.8896 36.9026V33.1144C18.8896 31.0936 19.1475 29.1317 19.6355 27.2646L26.0004 40.6094Z" fill="#DB5D5D"/>
<path d="M39.0016 73.9982H18.8896V66.9097L39.0016 73.9982Z" fill="#DB5D5D"/>
<path d="M39.7802 22.6221L25.3008 17.1293C28.7363 13.5489 33.3111 11.0675 38.4372 10.2764L39.7802 22.6221Z" fill="#FFDA64"/>
<path d="M40.6474 71.3175L18.8896 63.6461V60.0481L29.4225 47.7881L40.6474 71.3175Z" fill="#FFDA64"/>
<path d="M41.2716 36.3825L30.0425 41.9383L21.1143 23.2095C21.711 21.9485 22.4207 20.755 23.2253 19.6338L40.1504 26.0529L41.2716 36.3825Z" fill="#00C6E2"/>
<path d="M32.6572 44.0743L41.6266 39.6418L42.6756 49.2941L32.6572 44.0743Z" fill="white"/>
<path d="M43.0753 52.9693L45.3577 73.9993H45.3333L32.7344 47.5833L43.0753 52.9693Z" fill="#DB5D5D"/>
<path d="M44.2086 34.9322L43.375 27.2793L52.606 30.7795L44.2086 34.9322Z" fill="#FFDA64"/>
<path d="M54.6388 28.2591L43.0028 23.8473L41.502 10.0095V10.0007H41.9992C43.5046 10.0007 44.9736 10.1452 46.3976 10.4211L54.6388 28.2591Z" fill="#DB5D5D"/>
<path d="M63.7424 25.2756L57.9649 28.1329L50.3027 11.5378C53.3452 12.7086 56.0756 14.5034 58.3403 16.7681C60.7184 19.1504 62.5808 22.0434 63.7424 25.2756Z" fill="#FFDA64"/>
<path d="M65.09 32.2232L60.3027 30.4061L64.6016 28.2859C64.8733 29.5608 65.0404 30.8765 65.09 32.2232Z" fill="#00C6E2"/>
<path d="M65.1065 35.5236V43.5885L60.5859 33.8057L65.1065 35.5236Z" fill="white"/>
<path d="M65.1073 50.9253V60.979L45.9536 51.0022L44.5615 38.1908L56.4957 32.2915L65.1073 50.9253Z" fill="white"/>
<path d="M65.1091 64.4458V73.9981H48.4553L46.3535 54.6819L65.1091 64.4458Z" fill="#00C6E2"/>
</svg>
