<svg width="18" height="14" viewBox="0 0 18 14" fill="none" xmlns="http://www.w3.org/2000/svg">
<path d="M16.3776 3.82257L13.6776 4.49657C13.6203 4.51123 13.5599 4.50892 13.5038 4.48993C13.4477 4.47093 13.3983 4.43607 13.3616 4.38958L10.4006 0.689574C10.2271 0.488227 10.0123 0.326671 9.77067 0.215925C9.52906 0.10518 9.26641 0.0478516 9.00063 0.0478516C8.73486 0.0478516 8.47221 0.10518 8.2306 0.215925C7.989 0.326671 7.77412 0.488227 7.60063 0.689574L4.63863 4.38958C4.60092 4.43502 4.55125 4.46902 4.49524 4.48775C4.43923 4.50648 4.3791 4.50919 4.32163 4.49557L1.62163 3.82157C1.40952 3.76841 1.18725 3.7711 0.976477 3.82937C0.765707 3.88765 0.573625 3.99953 0.418946 4.1541C0.264267 4.30868 0.152266 4.50069 0.093853 4.71142C0.0354404 4.92215 0.0326086 5.14442 0.0856342 5.35657L1.77664 12.1176C1.87263 12.5057 2.09604 12.8505 2.41113 13.0967C2.72621 13.3429 3.11477 13.4763 3.51464 13.4756H14.4836C14.8835 13.4763 15.2721 13.3429 15.5871 13.0967C15.9022 12.8505 16.1256 12.5057 16.2216 12.1176L17.9126 5.35657C17.9656 5.14452 17.9627 4.92238 17.9044 4.71175C17.846 4.50113 17.7341 4.30921 17.5795 4.15466C17.425 4.00011 17.2331 3.88821 17.0225 3.82984C16.8118 3.77147 16.5897 3.76862 16.3776 3.82157V3.82257Z" fill="white"/>
</svg>
