<svg width="35" height="26" viewBox="0 0 35 26" fill="none" xmlns="http://www.w3.org/2000/svg">
<path d="M31.9253 7.30897L26.6467 8.61403C26.5345 8.6424 26.4164 8.63793 26.3068 8.60116C26.1971 8.56438 26.1006 8.49688 26.0289 8.40684L20.24 1.24256C19.9009 0.852696 19.4808 0.539875 19.0084 0.32544C18.5361 0.111004 18.0226 0 17.503 0C16.9834 0 16.4699 0.111004 15.9976 0.32544C15.5252 0.539875 15.1051 0.852696 14.7659 1.24256L8.97514 8.40684C8.9014 8.49484 8.8043 8.56068 8.6948 8.59694C8.5853 8.6332 8.46774 8.63845 8.35539 8.61209L3.0768 7.30703C2.6621 7.20409 2.22756 7.20929 1.81549 7.32213C1.40343 7.43497 1.02791 7.65159 0.725503 7.9509C0.4231 8.25021 0.204133 8.622 0.0899343 9.03003C-0.0242642 9.43807 -0.0298005 9.86845 0.0738664 10.2792L3.37983 23.3705C3.5675 24.1221 4.00428 24.7897 4.62028 25.2664C5.23629 25.7431 5.99593 26.0014 6.77768 26H28.2224C29.0042 26.0014 29.7638 25.7431 30.3798 25.2664C30.9959 24.7897 31.4326 24.1221 31.6203 23.3705L34.9263 10.2792C35.0298 9.86865 35.0242 9.43851 34.9101 9.03068C34.796 8.62285 34.5772 8.25123 34.2751 7.95198C33.9729 7.65274 33.5977 7.43606 33.1859 7.32304C32.7742 7.21002 32.3398 7.2045 31.9253 7.30703V7.30897Z" fill="white"/>
</svg>
