<svg width="26" height="29" viewBox="0 0 26 29" fill="none" xmlns="http://www.w3.org/2000/svg">
<path d="M22.7261 5.16633L15.4732 0.978355C14.7084 0.584113 13.8604 0.378418 13 0.378418C12.1395 0.378418 11.2915 0.584113 10.5267 0.978355L3.21353 5.20278C0.314056 7.16568 0.141602 7.46432 0.141602 10.5923V18.2055C0.141602 21.3336 0.314056 21.635 3.27382 23.6315L10.5267 27.8195C11.286 28.2284 12.1377 28.4351 13 28.4196C13.8621 28.4341 14.7136 28.2275 15.4732 27.8195L22.7864 23.5951C25.6859 21.6322 25.8583 21.3336 25.8583 18.2055V10.5923C25.8583 7.46432 25.6859 7.16287 22.7261 5.16633ZM13 18.9557C12.0987 18.9557 11.2177 18.6884 10.4684 18.1877C9.71903 17.687 9.13498 16.9753 8.7901 16.1427C8.44521 15.3101 8.35497 14.3939 8.53079 13.51C8.70662 12.626 9.1406 11.8141 9.77787 11.1769C10.4151 10.5396 11.2271 10.1056 12.111 9.92978C12.9949 9.75395 13.9111 9.84419 14.7437 10.1891C15.5764 10.534 16.288 11.118 16.7887 11.8674C17.2894 12.6167 17.5567 13.4977 17.5567 14.3989C17.5552 15.607 17.0746 16.7652 16.2204 17.6194C15.3662 18.4736 14.208 18.9542 13 18.9557Z" fill="url(#paint0_linear_343_29)"/>
<defs>
<linearGradient id="paint0_linear_343_29" x1="1.71392" y1="5.68201" x2="29.4233" y2="36.5041" gradientUnits="userSpaceOnUse">
<stop stop-color="#FFE53B"/>
<stop offset="1" stop-color="#FF2525"/>
</linearGradient>
</defs>
</svg>
