<svg width="26" height="25" viewBox="0 0 26 25" fill="none" xmlns="http://www.w3.org/2000/svg">
<path d="M21.1051 7.01238L16.8982 6.40108L15.0169 2.5891C14.2905 1.11707 12.1892 1.11652 11.4625 2.58905L9.58115 6.40108L5.37432 7.01238C3.74989 7.24838 3.10017 9.24651 4.27599 10.3928L7.32009 13.36L6.60149 17.5498C6.32399 19.1676 8.02336 20.403 9.47704 19.6391L13.2397 17.6608L17.0024 19.6391C18.4578 20.404 20.1548 19.1639 19.8778 17.5498L19.1592 13.36L22.2034 10.3928C23.3788 9.24691 22.7301 7.24853 21.1051 7.01238Z" fill="white"/>
<path d="M7.20565 1.90934L6.18984 0.511257C5.91407 0.131826 5.3829 0.0476682 5.00347 0.323432C4.62399 0.599147 4.53988 1.13032 4.8156 1.5098L5.83141 2.90788C6.10732 3.28751 6.63855 3.37137 7.01778 3.09571C7.39726 2.82004 7.48137 2.28882 7.20565 1.90934Z" fill="#A9A9A9"/>
<path d="M3.83429 14.4392C3.68931 13.9931 3.21025 13.7488 2.76403 13.8939L1.0871 14.4388C0.640976 14.5837 0.396864 15.0629 0.541788 15.5091C0.687011 15.956 1.16707 16.1992 1.61205 16.0544L3.28903 15.5095C3.73515 15.3646 3.97926 14.8854 3.83429 14.4392Z" fill="#A9A9A9"/>
<path d="M21.4787 0.324423C21.0993 0.048659 20.5681 0.132767 20.2924 0.512247L19.2766 1.91033C19.0008 2.28981 19.0849 2.82103 19.4644 3.0967C19.8441 3.37251 20.3751 3.2882 20.6508 2.90887L21.6666 1.51079C21.9424 1.13131 21.8582 0.600138 21.4787 0.324423Z" fill="#A9A9A9"/>
<path d="M25.3935 14.4389L23.7166 13.894C23.2704 13.7487 22.7913 13.9931 22.6463 14.4393C22.5013 14.8854 22.7454 15.3645 23.1916 15.5095L24.8686 16.0544C25.3138 16.1993 25.7937 15.9558 25.9389 15.5091C26.0838 15.063 25.8397 14.5838 25.3935 14.4389Z" fill="#A9A9A9"/>
<path d="M13.2419 21.0234C12.7729 21.0234 12.3926 21.4037 12.3926 21.8728V23.5966C12.3926 24.0657 12.7729 24.446 13.2419 24.446C13.711 24.446 14.0913 24.0657 14.0913 23.5966V21.8728C14.0913 21.4037 13.711 21.0234 13.2419 21.0234Z" fill="#A9A9A9"/>
</svg>
