<svg width="15" height="17" viewBox="0 0 15 17" fill="none" xmlns="http://www.w3.org/2000/svg">
<path d="M11.7079 10.4174L8.5113 8.66838C8.33198 8.5684 8.18577 8.41803 8.09055 8.23612L6.34149 5.05078C6.2665 4.9143 6.12327 4.82959 5.96755 4.82959C5.81182 4.82959 5.6684 4.9143 5.59361 5.05078L3.84175 8.23612C3.74475 8.41387 3.59854 8.56007 3.4208 8.65708L0.221389 10.4175C0.0849065 10.4923 0 10.6357 0 10.7914C0 10.9471 0.0849065 11.0904 0.221389 11.1653L3.4208 12.9144C3.59834 13.0116 3.74435 13.1576 3.84175 13.3352L5.59077 16.5345C5.59079 16.5345 5.59076 16.5346 5.59071 16.5346C5.59067 16.5346 5.59064 16.5346 5.59066 16.5347C5.66566 16.6711 5.80906 16.756 5.96456 16.756C6.12028 16.756 6.2637 16.6711 6.33869 16.5346L8.08771 13.3352C8.08773 13.3352 8.0877 13.3352 8.08765 13.3352C8.08761 13.3352 8.08758 13.3351 8.0876 13.3351C8.18481 13.1576 8.33079 13.0114 8.50851 12.9144L11.7079 11.1653C11.8444 11.0904 11.9293 10.9471 11.9293 10.7914C11.9293 10.6357 11.8444 10.4922 11.7079 10.4174Z" fill="url(#paint0_linear_243_28607)"/>
<path d="M14.6284 3.49567L13.1325 2.67658C13.0884 2.65059 13.0519 2.61329 13.0273 2.56846L12.2082 1.07251C12.1334 0.936026 11.99 0.851318 11.8343 0.851318C11.6786 0.851318 11.5351 0.936026 11.4603 1.07251L10.6384 2.57125C10.6129 2.61648 10.5756 2.65398 10.5303 2.67937L9.03438 3.49847C8.89789 3.57345 8.81299 3.71668 8.81299 3.87241C8.81299 4.02813 8.89789 4.17156 9.03438 4.24635L10.5331 5.06544C10.5776 5.08985 10.6141 5.12635 10.6385 5.17078L11.4575 6.66661C11.4575 6.66663 11.4575 6.66665 11.4575 6.66663C11.4574 6.66662 11.4574 6.66664 11.4574 6.66666C11.5324 6.80307 11.6758 6.88792 11.8315 6.88792C11.9872 6.88792 12.1304 6.80302 12.2054 6.66653L13.0245 5.17067C13.0245 5.17065 13.0245 5.17066 13.0245 5.17068C13.0245 5.17071 13.0246 5.17072 13.0246 5.17069C13.0492 5.12491 13.0869 5.08745 13.1325 5.06267L14.6284 4.25489C14.7708 4.18189 14.8605 4.03529 14.8605 3.8754C14.8605 3.71531 14.7708 3.56868 14.6284 3.49567Z" fill="url(#paint1_linear_243_28607)"/>
<defs>
<linearGradient id="paint0_linear_243_28607" x1="0" y1="4.82959" x2="19.6594" y2="9.69966" gradientUnits="userSpaceOnUse">
<stop stop-color="#FFE53B"/>
<stop offset="1" stop-color="#FF2525"/>
</linearGradient>
<linearGradient id="paint1_linear_243_28607" x1="8.81299" y1="0.851318" x2="18.7775" y2="3.32359" gradientUnits="userSpaceOnUse">
<stop stop-color="#FFE53B"/>
<stop offset="1" stop-color="#FF2525"/>
</linearGradient>
</defs>
</svg>
