<svg width="19" height="22" viewBox="0 0 19 22" fill="none" xmlns="http://www.w3.org/2000/svg">
<path d="M11.7764 21.2935H3.94238C2.13305 21.2935 0.661133 19.8215 0.661133 18.0122V6.89697C0.661133 5.08764 2.13305 3.61572 3.94238 3.61572H11.7764C13.5857 3.61572 15.0576 5.08764 15.0576 6.89697V18.0122C15.0576 19.8215 13.5857 21.2935 11.7764 21.2935ZM3.94238 5.25635C3.0378 5.25635 2.30176 5.99239 2.30176 6.89697V18.0122C2.30176 18.9168 3.0378 19.6528 3.94238 19.6528H11.7764C12.681 19.6528 13.417 18.9168 13.417 18.0122V6.89697C13.417 5.99239 12.681 5.25635 11.7764 5.25635H3.94238ZM18.3389 15.9614V3.57471C18.3389 1.76537 16.867 0.293457 15.0576 0.293457H5.95215C5.49905 0.293457 5.13184 0.660675 5.13184 1.11377C5.13184 1.56686 5.49905 1.93408 5.95215 1.93408H15.0576C15.9622 1.93408 16.6982 2.67012 16.6982 3.57471V15.9614C16.6982 16.4145 17.0655 16.7817 17.5186 16.7817C17.9716 16.7817 18.3389 16.4145 18.3389 15.9614Z" fill="#686868"/>
</svg>
