<svg width="34" height="42" viewBox="0 0 34 42" fill="none" xmlns="http://www.w3.org/2000/svg">
<path d="M21.3782 42H6.3109C2.83097 42 0 39.0562 0 35.4375V13.207C0 9.58836 2.83097 6.64453 6.3109 6.64453H21.3782C24.8581 6.64453 27.6891 9.58836 27.6891 13.207V35.4375C27.6891 39.0562 24.8581 42 21.3782 42ZM6.3109 9.92578C4.57109 9.92578 3.15545 11.3979 3.15545 13.207V35.4375C3.15545 37.2467 4.57109 38.7188 6.3109 38.7188H21.3782C23.118 38.7188 24.5336 37.2467 24.5336 35.4375V13.207C24.5336 11.3979 23.118 9.92578 21.3782 9.92578H6.3109ZM34 31.3359V6.5625C34 2.94383 31.169 0 27.6891 0H10.1763C9.30489 0 8.59861 0.734436 8.59861 1.64062C8.59861 2.54681 9.30489 3.28125 10.1763 3.28125H27.6891C29.4289 3.28125 30.8445 4.75333 30.8445 6.5625V31.3359C30.8445 32.2421 31.5508 32.9766 32.4223 32.9766C33.2937 32.9766 34 32.2421 34 31.3359Z" fill="#686868"/>
</svg>
