<svg width="33" height="33" viewBox="0 0 33 33" fill="none" xmlns="http://www.w3.org/2000/svg">
<path fill-rule="evenodd" clip-rule="evenodd" d="M5.91949 21.772C5.5643 21.4168 5.5643 20.841 5.91949 20.4858L7.63447 18.7708C7.98966 18.4156 8.56553 18.4156 8.92071 18.7708C9.2759 19.126 9.2759 19.7019 8.92071 20.057L7.20573 21.772C6.85054 22.1272 6.27467 22.1272 5.91949 21.772Z" fill="#A9A9A9"/>
<path fill-rule="evenodd" clip-rule="evenodd" d="M11.4927 26.4883C11.1376 26.1332 11.1375 25.5573 11.4927 25.2021L12.3502 24.3446C12.7054 23.9894 13.2813 23.9894 13.6365 24.3446C13.9916 24.6998 13.9916 25.2757 13.6365 25.6308L12.779 26.4883C12.4238 26.8435 11.8479 26.8435 11.4927 26.4883Z" fill="#A9A9A9"/>
<path fill-rule="evenodd" clip-rule="evenodd" d="M7.20562 25.6304C6.85045 25.2753 6.85044 24.6994 7.20562 24.3442L8.92061 22.6292C9.27579 22.274 9.85167 22.274 10.2068 22.6292C10.562 22.9844 10.562 23.5603 10.2068 23.9154L8.49186 25.6304C8.13668 25.9856 7.56079 25.9856 7.20562 25.6304Z" fill="#A9A9A9"/>
<path fill-rule="evenodd" clip-rule="evenodd" d="M7.04325 13.1637C7.11214 11.5872 8.06076 10.0563 9.85427 9.51516L21.3194 6.056C24.5829 5.07145 27.7854 8.27805 26.7955 11.5401L23.323 22.9841C22.7792 24.7762 21.2472 25.7224 19.6707 25.7891C18.103 25.8555 16.454 25.0625 15.5628 23.4096L13.4649 19.5187C13.437 19.4668 13.3943 19.424 13.3423 19.3959L9.41844 17.275C7.76598 16.3818 6.97475 14.7316 7.04325 13.1637Z" fill="white"/>
</svg>
