<svg width="24" height="21" viewBox="0 0 24 21" fill="none" xmlns="http://www.w3.org/2000/svg">
<path d="M18.079 3.84707V16.7607C18.079 17.7392 17.6903 18.6777 16.9984 19.3696C16.3064 20.0616 15.368 20.4503 14.3894 20.4503H9.59292C8.61438 20.4503 7.67592 20.0616 6.98398 19.3696C6.29205 18.6777 5.90332 17.7392 5.90332 16.7607V3.84707C5.90332 2.86853 6.29205 1.93007 6.98398 1.23813C7.67592 0.546196 8.61438 0.157471 9.59292 0.157471H14.3894C15.368 0.157471 16.3064 0.546196 16.9984 1.23813C17.6903 1.93007 18.079 2.86853 18.079 3.84707Z" fill="white"/>
<path d="M0.922401 7.53645C0.677765 7.53645 0.443149 7.63363 0.270165 7.80662C0.0971812 7.9796 0 8.21422 0 8.45885V12.1485C0 12.3931 0.0971812 12.6277 0.270165 12.8007C0.443149 12.9737 0.677765 13.0709 0.922401 13.0709C1.16704 13.0709 1.40165 12.9737 1.57464 12.8007C1.74762 12.6277 1.8448 12.3931 1.8448 12.1485V8.45885C1.8448 8.21422 1.74762 7.9796 1.57464 7.80662C1.40165 7.63363 1.16704 7.53645 0.922401 7.53645ZM3.87408 5.69165C3.62945 5.69165 3.39483 5.78883 3.22185 5.96182C3.04886 6.1348 2.95168 6.36942 2.95168 6.61405V13.9933C2.95168 14.1144 2.97554 14.2343 3.0219 14.3462C3.06825 14.4582 3.13619 14.5598 3.22185 14.6455C3.3075 14.7311 3.40919 14.7991 3.5211 14.8454C3.63301 14.8918 3.75295 14.9157 3.87408 14.9157C3.99521 14.9157 4.11516 14.8918 4.22707 14.8454C4.33898 14.7991 4.44067 14.7311 4.52632 14.6455C4.61197 14.5598 4.67992 14.4582 4.72627 14.3462C4.77263 14.2343 4.79648 14.1144 4.79648 13.9933V6.61405C4.79648 6.36942 4.6993 6.1348 4.52632 5.96182C4.35334 5.78883 4.11872 5.69165 3.87408 5.69165ZM23.06 7.53645C22.8154 7.53645 22.5808 7.63363 22.4078 7.80662C22.2348 7.9796 22.1376 8.21422 22.1376 8.45885V12.1485C22.1376 12.3931 22.2348 12.6277 22.4078 12.8007C22.5808 12.9737 22.8154 13.0709 23.06 13.0709C23.3047 13.0709 23.5393 12.9737 23.7123 12.8007C23.8852 12.6277 23.9824 12.3931 23.9824 12.1485V8.45885C23.9824 8.21422 23.8852 7.9796 23.7123 7.80662C23.5393 7.63363 23.3047 7.53645 23.06 7.53645ZM20.1083 5.69165C19.8637 5.69165 19.6291 5.78883 19.4561 5.96182C19.2831 6.1348 19.1859 6.36942 19.1859 6.61405V13.9933C19.1859 14.2379 19.2831 14.4725 19.4561 14.6455C19.6291 14.8185 19.8637 14.9157 20.1083 14.9157C20.353 14.9157 20.5876 14.8185 20.7606 14.6455C20.9336 14.4725 21.0307 14.2379 21.0307 13.9933V6.61405C21.0307 6.36942 20.9336 6.1348 20.7606 5.96182C20.5876 5.78883 20.353 5.69165 20.1083 5.69165Z" fill="#A9A9A9"/>
</svg>
