<svg width="28" height="30" viewBox="0 0 28 30" fill="none" xmlns="http://www.w3.org/2000/svg">
<path d="M15.7409 15.3646V15.7267L15.997 15.4706L18.9951 12.4725C19.6749 11.7927 20.777 11.7927 21.4568 12.4725C22.1365 13.1522 22.1365 14.2544 21.4568 14.9342L15.2311 21.1599C14.9047 21.4863 14.4619 21.6697 14.0002 21.6697C13.5386 21.6697 13.0958 21.4863 12.7694 21.1599L6.54362 14.9341L6.54362 14.934C5.86385 14.2544 5.86384 13.1522 6.54363 12.4723C7.22341 11.7926 8.32552 11.7926 9.00529 12.4725L9.0053 12.4725L12.0035 15.4706L12.2596 15.7267V15.3646V2.15678C12.2596 1.19544 13.0388 0.416113 14.0002 0.416113C14.9616 0.416113 15.7409 1.19544 15.7409 2.15678V15.3646Z" fill="white" stroke="#2A2A2B" stroke-width="0.3"/>
<path d="M0.537695 27.4915C0.537695 26.5302 1.31703 25.7508 2.27836 25.7508H25.7226C26.6839 25.7508 27.4633 26.5302 27.4633 27.4915C27.4633 28.4529 26.6839 29.2322 25.7226 29.2322H2.27836C1.31702 29.2322 0.537695 28.4529 0.537695 27.4915Z" fill="white" stroke="#2A2A2B" stroke-width="0.3"/>
</svg>
