<svg width="84" height="84" viewBox="0 0 84 84" fill="none" xmlns="http://www.w3.org/2000/svg">
<rect width="84" height="84" rx="16" fill="#373739"/>
<path d="M42 22.0039C30.9743 22.0039 22.0039 30.9743 22.0039 42C22.0039 53.0257 30.9743 61.9961 42 61.9961C53.0257 61.9961 61.9961 53.0257 61.9961 42C61.9961 30.9743 53.0257 22.0039 42 22.0039ZM42 56.9971C33.7309 56.9971 27.0029 50.2691 27.0029 42C27.0029 38.8439 27.9598 35.8603 29.7791 33.3144L50.6856 54.2209C48.1397 56.0402 45.1561 56.9971 42 56.9971ZM54.2209 50.6856L33.3144 29.7791C35.8603 27.9598 38.8439 27.0029 42 27.0029C50.2691 27.0029 56.9971 33.7309 56.9971 42C56.9971 45.1561 56.0402 48.1397 54.2209 50.6856Z" fill="white" fill-opacity="0.3"/>
</svg>
