<svg width="33" height="32" viewBox="0 0 33 32" fill="none" xmlns="http://www.w3.org/2000/svg">
<path fill-rule="evenodd" clip-rule="evenodd" d="M11.6523 29.1325C12.2763 29.479 12.5088 30.2591 12.1808 30.8907L12.1625 30.9237C11.9227 31.355 11.4757 31.5999 11.0109 31.5999C10.7959 31.5999 10.578 31.5473 10.3724 31.4346C4.24835 28.0315 0.780273 22.3623 0.780273 15.8812C0.780273 7.21422 7.8321 0.162392 16.4991 0.162392C17.2515 0.162392 18.0076 0.216169 18.743 0.322155L18.744 0.322303C19.4624 0.424811 19.9617 1.09201 19.8583 1.81026L19.8582 1.81051C19.7539 2.53665 19.0883 3.03389 18.3735 2.92619L18.3694 2.92559C17.755 2.83657 17.1255 2.7931 16.4977 2.7931H16.4975C9.28321 2.79455 3.41235 8.66393 3.41235 15.8812C3.41235 21.415 6.44871 26.2427 11.6523 29.1325L11.6523 29.1325ZM30.569 12.5221L30.569 12.5221L30.5747 12.5213C31.289 12.4136 31.955 12.9118 32.0594 13.6371C32.1654 14.374 32.2192 15.1288 32.2192 15.8812C32.2192 21.5222 27.6282 26.1132 21.9872 26.1132C16.6707 26.1132 12.1872 21.9614 11.7846 16.6672L11.7846 16.667C11.7293 15.9424 12.2725 15.3096 12.9973 15.2543L12.9977 15.2543C13.7141 15.1992 14.3531 15.7439 14.4086 16.4666C14.7068 20.4045 18.0342 23.4811 21.9858 23.4811C26.1771 23.4811 29.5857 20.0724 29.5857 15.8812C29.5857 15.2547 29.5423 14.6252 29.4533 14.0097C29.3501 13.2911 29.8498 12.6247 30.569 12.5221ZM19.9022 13.768H18.6479V12.5137C18.6479 11.1341 19.1954 9.81116 20.1714 8.83513L28.1382 0.86836C29.1381 -0.131602 30.796 -0.0698961 31.7158 1.05473C32.485 1.99575 32.356 3.46928 31.42 4.40529L23.5808 12.2445C22.606 13.2192 21.2816 13.768 19.9022 13.768Z" fill="url(#paint0_linear_209_257)"/>
<defs>
<linearGradient id="paint0_linear_209_257" x1="2.70245" y1="6.10796" x2="32.0898" y2="37.0006" gradientUnits="userSpaceOnUse">
<stop stop-color="#FFE53B"/>
<stop offset="1" stop-color="#FF2525"/>
</linearGradient>
</defs>
</svg>
