<svg width="10" height="17" viewBox="0 0 10 17" fill="none" xmlns="http://www.w3.org/2000/svg">
<path d="M2.02639 16.2423C2.17629 16.2432 2.32488 16.2145 2.46365 16.1578C2.60241 16.1011 2.72863 16.0176 2.83505 15.912L9.6688 9.07829C9.88093 8.86489 10 8.57622 10 8.27533C10 7.97443 9.88093 7.68576 9.6688 7.47236L2.83505 0.638617C2.61717 0.452025 2.3369 0.354524 2.05025 0.365596C1.7636 0.376667 1.49169 0.495497 1.28885 0.698339C1.08601 0.901181 0.967175 1.1731 0.956102 1.45974C0.94503 1.74639 1.04253 2.02666 1.22912 2.24455L7.25421 8.26963L1.22912 14.2947C1.06919 14.4533 0.959883 14.6558 0.915025 14.8766C0.870167 15.0973 0.891772 15.3264 0.977109 15.5349C1.06245 15.7433 1.20768 15.9218 1.39445 16.0478C1.58122 16.1737 1.80114 16.2414 2.02639 16.2423Z" fill="#686868"/>
</svg>
