<svg width="84" height="84" viewBox="0 0 84 84" fill="none" xmlns="http://www.w3.org/2000/svg">
<path d="M68 0.000244141H16C7.16344 0.000244141 0 7.16369 0 16.0002V68.0002C0 76.8368 7.16344 84.0002 16 84.0002H68C76.8366 84.0002 84 76.8368 84 68.0002V16.0002C84 7.16369 76.8366 0.000244141 68 0.000244141Z" fill="#DDD0CC"/>
<path d="M56.9525 69.5668C53.9249 65.289 50.6999 62.39 47.413 60.5322C41.7657 65.364 34.8056 68.6744 26.0156 70.2228C27.864 71.2377 29.826 72.069 31.8767 72.6923C34.7282 73.5611 37.7641 74.0281 40.9193 74.0281C46.7871 74.0283 52.274 72.3982 56.9525 69.5668Z" fill="#2C272E"/>
<path d="M66.7168 25.7849C66.6207 26.0335 66.5302 26.2938 66.4478 26.5698C62.3817 40.2028 57.1954 51.2903 49.084 59.025C52.3846 61.0545 55.6246 64.0962 58.683 68.4398C60.1729 67.3968 61.5674 66.2267 62.8498 64.9443C68.463 59.3324 71.9336 51.5787 71.9336 43.0144C71.9336 39.5734 71.3786 36.2717 70.3523 33.1941C69.4707 30.5493 68.2406 28.0615 66.7168 25.7849Z" fill="#2C272E"/>
<path d="M17.4748 64.8869L17.4746 64.8871C17.417 64.9375 17.3558 64.9802 17.2915 65.0155C15.0857 66.5665 13.3036 68.0624 12.0967 69.1464C26.899 69.4187 37.5035 65.9838 45.4052 59.5264C35.0048 54.9776 24.2797 60.1439 17.4748 64.8869Z" fill="#2C272E"/>
<path d="M43.814 12.1335C43.7543 12.1278 43.6944 12.1226 43.6344 12.1174C42.7423 12.0402 41.8372 12.0007 40.9209 12.0007C32.3566 12.0007 24.6032 15.4725 18.9911 21.085C14.6073 25.4685 11.5296 31.1586 10.3926 37.5211C29.9819 40.8021 33.5267 32.0532 36.9944 23.4861C38.7015 19.2665 40.3929 15.0886 43.814 12.1335Z" fill="#2C272E"/>
<path d="M56.9755 15.6699C58.0418 15.6699 58.9063 16.5342 58.9063 17.6005C58.9063 18.6668 58.0418 19.5311 56.9755 19.5311C55.9092 19.5311 55.0447 18.6668 55.0447 17.6005C55.0447 16.5344 55.9092 15.6699 56.9755 15.6699ZM47.1031 12.2832C47.0577 12.3165 47.0096 12.3462 46.9592 12.3717C46.7987 12.4718 46.6398 12.5749 46.483 12.6813C46.1348 12.9178 45.7884 13.176 45.4444 13.4561C42.2179 16.0833 40.571 20.152 38.9075 24.2623C35.357 33.0348 31.7318 41.9826 13.6788 40.0629C20.7289 44.5287 37.8945 52.1605 54.3597 34.5041C54.7478 34.0868 55.401 34.0632 55.818 34.4515C56.2351 34.8398 56.2586 35.4932 55.8706 35.9103C35.8755 57.3528 14.872 43.7047 10.0452 40.057C9.95303 41.0307 9.90527 42.0175 9.90527 43.0152C9.90527 46.8571 10.601 50.5308 11.8727 53.9168V53.9208C13.0834 57.1446 14.8168 60.1145 16.9702 62.7273C24.4448 57.6614 36.0326 52.423 47.1859 57.9775C55.2656 50.517 60.4161 39.5597 64.4667 25.9803C66.3286 19.7382 71.03 19.0957 74.0921 19.4096C70.157 14.6025 65.1643 11.6112 60.1839 10.483C55.5034 9.42341 50.8402 10.0092 47.1031 12.2832Z" fill="#2C272E"/>
</svg>
