<svg width="132" height="83" viewBox="0 0 132 83" fill="none" xmlns="http://www.w3.org/2000/svg">
<path d="M48.5946 13.5574L51.3458 15.186L50.4803 12.1083L50.9735 11.7292L53.1898 14.6132L52.8095 14.9056L51.9465 13.7824L51.0505 12.5428L51.8984 15.6057L51.6073 15.8294L48.8723 14.2261L49.837 15.4035L50.7 16.5267L50.3197 16.8189L48.1035 13.9349L48.5946 13.5574Z" fill="white"/>
<path d="M59.4702 9.50791L58.0118 10.1061L58.501 11.2988L60.1951 10.6039L60.3439 10.9668L58.2059 11.8437L56.8257 8.47845L58.9404 7.61108L59.0893 7.9739L57.4183 8.65931L57.8629 9.74328L59.3213 9.14509L59.4702 9.50791Z" fill="white"/>
<path d="M66.5073 7.15231L67.1746 5.64967L67.7335 5.57031L66.8493 7.51755L68.2719 9.16762L67.708 9.24763L66.623 7.96851L65.9321 9.49972L65.3707 9.57946L66.2804 7.59831L64.8867 5.97449L65.4433 5.89541L66.5073 7.15231Z" fill="white"/>
<path d="M74.2603 9.17724L73.7822 9.13869L74.0746 5.51318L74.5527 5.55174L74.2603 9.17724Z" fill="white"/>
<path d="M82.858 9.88559C82.699 10.2387 82.474 10.4788 82.1831 10.6059C81.8922 10.733 81.5577 10.7366 81.18 10.6169C80.7703 10.4871 80.4885 10.2362 80.3347 9.86439C80.1809 9.49242 80.1821 9.06042 80.3381 8.56819L80.4437 8.23478C80.5457 7.91248 80.6931 7.64732 80.8857 7.4393C81.0782 7.23128 81.3009 7.09525 81.5536 7.0312C81.8062 6.96715 82.0714 6.9791 82.3493 7.06715C82.7176 7.18385 82.9803 7.3802 83.1375 7.65619C83.2945 7.93227 83.3337 8.25775 83.255 8.63299L82.7954 8.48734C82.8436 8.19762 82.8211 7.96971 82.7278 7.80352C82.6345 7.63724 82.469 7.51651 82.2308 7.44098C81.9386 7.34845 81.6754 7.38393 81.441 7.54751C81.2066 7.71109 81.0263 7.99221 80.8999 8.39098L80.7933 8.7271C80.674 9.10365 80.6578 9.4281 80.7443 9.70035C80.8311 9.97261 81.0156 10.1535 81.2982 10.243C81.5523 10.3236 81.7654 10.3278 81.9375 10.2556C82.1098 10.1835 82.2634 10.0116 82.3984 9.73993L82.858 9.88559Z" fill="white"/>
<path d="M89.7342 13.6127L88.4457 12.7993L87.6483 13.4215L87.23 13.1574L90.3459 10.823L90.7009 11.0471L89.936 14.8656L89.5199 14.6028L89.7342 13.6127ZM88.7775 12.545L89.8232 13.205L90.2073 11.4358L88.7775 12.545Z" fill="white"/>
<path d="M95.9631 20.368L95.6349 20.015L96.4405 16.7654L94.3879 18.6741L94.0596 18.3211L96.7232 15.8442L97.0515 16.1973L96.24 19.4592L98.3018 17.542L98.6267 17.8915L95.9631 20.368Z" fill="white"/>
<path d="M57.3286 73.2983C57.1189 73.6239 56.8607 73.8279 56.5542 73.9104C56.2475 73.9928 55.9163 73.9468 55.5605 73.7724C55.1746 73.5832 54.9333 73.2933 54.8364 72.9027C54.7395 72.512 54.8048 72.085 55.032 71.6214L55.186 71.3073C55.3348 71.0038 55.5198 70.7635 55.7412 70.5863C55.9625 70.4092 56.2029 70.3077 56.4622 70.2819C56.7216 70.256 56.9821 70.3073 57.2438 70.4355C57.5906 70.6057 57.8213 70.8388 57.9357 71.1352C58.0501 71.4314 58.0406 71.7592 57.907 72.1185L57.4741 71.9062C57.5647 71.6269 57.5762 71.3981 57.5087 71.2199C57.4412 71.0417 57.2954 70.8976 57.071 70.7877C56.7959 70.6527 56.5303 70.6487 56.2742 70.7757C56.0181 70.9027 55.7981 71.1538 55.6139 71.5296L55.4586 71.8461C55.2847 72.2008 55.2203 72.5191 55.2657 72.8012C55.311 73.0834 55.4667 73.2897 55.7329 73.4201C55.9721 73.5374 56.1823 73.5732 56.3632 73.5275C56.5443 73.4818 56.7217 73.3346 56.8955 73.086L57.3286 73.2983Z" fill="white"/>
<path d="M66.0616 73.3232L65.5591 75.7447C65.4877 76.0803 65.3251 76.3332 65.0713 76.5034C64.8175 76.6735 64.5084 76.7344 64.1443 76.6861L64.0185 76.665C63.6288 76.5841 63.3399 76.4145 63.1521 76.1561C62.9641 75.8977 62.9068 75.5839 62.98 75.2147L63.4834 72.7883L63.9482 72.8847L63.4478 75.2965C63.3943 75.5542 63.4237 75.7691 63.536 75.9411C63.6482 76.1133 63.8356 76.2265 64.0982 76.281C64.364 76.3362 64.5821 76.3074 64.7527 76.1949C64.9231 76.0822 65.0351 75.8972 65.0886 75.6396L65.5895 73.2253L66.0616 73.3232Z" fill="white"/>
<path d="M72.1659 77.3601L71.6865 77.3678L71.6274 73.7311L72.1069 73.7234L72.1659 77.3601Z" fill="white"/>
<path d="M79.2662 74.8418C78.8387 74.8206 78.5141 74.7476 78.2923 74.6226C78.0704 74.4976 77.9307 74.3119 77.8728 74.0654C77.8074 73.7866 77.8648 73.5297 78.045 73.295C78.2251 73.0603 78.4935 72.9011 78.8501 72.8174C79.0934 72.7603 79.3213 72.7565 79.5339 72.8058C79.7465 72.8552 79.9244 72.9503 80.0678 73.091C80.2111 73.2319 80.3059 73.4004 80.3519 73.5966L79.8826 73.7067C79.8322 73.4918 79.7245 73.3391 79.5594 73.2482C79.3945 73.1573 79.1878 73.141 78.9398 73.1991C78.7095 73.2532 78.5419 73.3461 78.4368 73.4778C78.3317 73.6097 78.3003 73.7657 78.3427 73.9459C78.3766 74.0905 78.4664 74.1983 78.6123 74.2696C78.7582 74.3407 78.988 74.3832 79.3018 74.3969C79.6156 74.4107 79.8671 74.448 80.0568 74.5087C80.2463 74.5695 80.3969 74.6569 80.5083 74.7709C80.6198 74.885 80.6967 75.0321 80.7389 75.2121C80.8063 75.4991 80.7483 75.7552 80.5651 75.9803C80.3818 76.2055 80.103 76.3621 79.7284 76.45C79.4852 76.507 79.2472 76.5136 79.0146 76.4698C78.7819 76.4261 78.5895 76.3366 78.4371 76.2012C78.2847 76.0659 78.1844 75.8954 78.1362 75.6895L78.6055 75.5793C78.6558 75.7934 78.7744 75.9438 78.9616 76.0307C79.1488 76.1178 79.3746 76.1302 79.6389 76.0682C79.8853 76.0104 80.0624 75.9158 80.1702 75.7844C80.2779 75.6531 80.3114 75.5006 80.2708 75.3271C80.23 75.1537 80.1378 75.0338 79.994 74.9674C79.8497 74.9011 79.6072 74.8593 79.2662 74.8418Z" fill="white"/>
<path d="M87.2332 73.711L86.801 73.9192L85.2231 70.642L85.6552 70.4338L87.2332 73.711Z" fill="white"/>
<path d="M94.9769 68.6205L94.6003 68.9215L91.42 67.8753L93.1699 70.0648L92.7933 70.3657L90.5225 67.5246L90.899 67.2236L94.0911 68.2765L92.3333 66.0771L92.706 65.7793L94.9769 68.6205Z" fill="white"/>
<path d="M99.401 61.2733L98.4471 62.5284L99.4734 63.3083L100.581 61.8504L100.894 62.0878L99.4955 63.9275L96.5996 61.7265L97.9827 59.9067L98.2949 60.144L97.202 61.5819L98.1348 62.2909L99.0887 61.036L99.401 61.2733Z" fill="white"/>
<path d="M25.4136 21.8695C24.6831 21.7346 23.9338 21.7822 23.2111 21.9254C22.4866 22.0674 21.7812 22.2949 21.0968 22.5694C19.725 23.1151 18.4306 23.843 17.2065 24.6664C15.9831 25.4924 14.8198 26.4071 13.7243 27.3968C12.6328 28.3909 11.5996 29.4499 10.6479 30.5785C9.6887 31.6998 8.79043 32.8771 7.98991 34.1164C7.18855 35.3535 6.52023 36.6742 5.94556 38.0332C5.38172 39.3971 4.93329 40.8103 4.61911 42.2541C4.31361 43.6964 4.13099 45.1819 4.2885 46.6593C4.17216 45.9261 4.16553 45.1791 4.20633 44.438L4.24611 43.882L4.31156 43.3284C4.33005 43.1433 4.36179 42.9602 4.39185 42.7768C4.42304 42.5936 4.44871 42.4092 4.48447 42.2269C4.77335 40.768 5.20171 39.3376 5.74594 37.9523C6.2941 36.5682 6.97632 35.2368 7.77563 33.9785C8.57671 32.7231 9.47331 31.5325 10.4352 30.3969C11.4011 29.2647 12.4486 28.2033 13.5543 27.2078C14.1122 26.7158 14.6774 26.2314 15.2689 25.7796C15.8572 25.3242 16.4614 24.8885 17.0884 24.4875C18.3368 23.6793 19.6533 22.9663 21.0479 22.4421C21.746 22.1847 22.4639 21.9753 23.1982 21.8529L23.3356 21.8287L23.4742 21.8122L23.7513 21.7795C23.8437 21.7686 23.937 21.7677 24.0298 21.7614C24.1227 21.7585 24.2152 21.7464 24.3084 21.7515C24.6805 21.7491 25.0517 21.7897 25.4136 21.8695Z" fill="#C4C4C4"/>
<path d="M42.743 24.2864C42.0099 24.2213 41.2822 24.3937 40.6028 24.6499C40.5175 24.6818 40.4312 24.7116 40.3466 24.7452L40.0979 24.8594L39.8494 24.9735C39.7662 25.0108 39.6833 25.0489 39.6044 25.0948C39.2846 25.2708 38.9601 25.4375 38.656 25.6403C37.4205 26.4181 36.2794 27.3374 35.1902 28.3096L34.3833 29.051C34.119 29.3031 33.8616 29.5627 33.6004 29.8181L33.2101 30.2027C33.0808 30.3317 32.957 30.4663 32.8302 30.5978L32.0713 31.389C31.9432 31.5192 31.8201 31.6544 31.6976 31.7901L31.3288 32.1957L30.5909 33.0068L29.1564 34.6665L29.1777 34.6313C28.3623 36.6519 27.5442 38.6714 26.7041 40.6816L24.189 46.7142L21.6459 52.7348L19.0879 58.7494C19.4828 57.7341 19.8843 56.7214 20.2879 55.7096C20.6922 54.698 21.0926 53.6848 21.5041 52.6762L23.9679 46.6225L28.9367 34.5338L28.9451 34.5133L28.958 34.4985L30.4042 32.8407L31.1483 32.0302L31.5203 31.625C31.6439 31.4895 31.7679 31.3544 31.8972 31.2242L32.6654 30.4362C32.7945 30.3059 32.9206 30.1727 33.0522 30.045L33.4497 29.6642C33.7156 29.4114 33.9776 29.1545 34.2465 28.905L35.0676 28.1714L35.2728 27.988L35.4848 27.8122L35.9093 27.4615C36.0512 27.3451 36.1914 27.2266 36.3348 27.1121L36.7743 26.78L37.2138 26.448C37.3627 26.3407 37.5163 26.2394 37.668 26.136L38.1247 25.8278L38.5977 25.5446C38.9081 25.3476 39.2395 25.1868 39.5652 25.0172C39.6457 24.9729 39.7301 24.9364 39.8149 24.9007L40.068 24.7915L40.321 24.6823C40.4071 24.6503 40.4949 24.6222 40.5816 24.592C41.2714 24.3469 42.0127 24.1987 42.743 24.2864Z" fill="#C4C4C4"/>
<path d="M53.1825 58.3074C53.4351 59.0682 53.4542 59.8946 53.3343 60.6878C53.2146 61.4844 52.9381 62.2566 52.5435 62.9617C52.445 63.1383 52.3369 63.3097 52.228 63.4774C52.121 63.6473 52.0074 63.8127 51.894 63.9785C51.7814 64.1448 51.661 64.3056 51.544 64.469C51.4215 64.6282 51.3022 64.7901 51.1739 64.9448C50.9236 65.2594 50.6578 65.5616 50.3864 65.8585C50.1103 66.1511 49.827 66.4374 49.5295 66.7087C48.3491 67.8027 46.9863 68.7113 45.4978 69.3318C44.7543 69.6421 43.9785 69.8748 43.188 70.0207C42.3968 70.1621 41.5915 70.2193 40.7935 70.1732C42.3927 70.1449 43.9623 69.7625 45.4062 69.1188C46.8536 68.4769 48.175 67.5725 49.3439 66.5064C49.929 65.9732 50.4755 65.3975 50.9848 64.7899C51.4925 64.1827 51.9703 63.5412 52.3894 62.8728C52.5906 62.5339 52.7652 62.1783 52.9057 61.8092C53.0474 61.4406 53.16 61.0598 53.2339 60.6706C53.3815 59.8941 53.3914 59.0799 53.1825 58.3074Z" fill="#C4C4C4"/>
<path d="M46.0609 26.6074C46.1782 27.2921 46.1784 27.9933 46.1205 28.6855C46.0608 29.3784 45.9468 30.0657 45.8047 30.7461C45.6647 31.4271 45.4928 32.1008 45.3072 32.7702C45.1215 33.4396 44.9215 34.1047 44.7138 34.7673C44.2959 36.0916 43.8502 37.4066 43.3772 38.7113C42.9075 40.0173 42.4226 41.3175 41.9305 42.6148L40.4411 46.4992C39.9477 47.7944 39.4665 49.0942 39.0047 50.4008C38.5383 51.7057 38.0805 53.0139 37.6631 54.3353C37.4551 54.9962 37.2457 55.6568 37.0512 56.3221C36.8589 56.9878 36.6748 57.6562 36.5024 58.3281C37.0604 55.608 37.8929 52.9513 38.7796 50.3222C39.2328 49.0101 39.7052 47.7049 40.1899 46.4045C40.6698 45.1019 41.1855 43.8138 41.6825 42.52C42.181 41.2263 42.6722 39.9299 43.1481 38.6282C43.6211 37.3256 44.0936 36.0227 44.5303 34.708C44.9659 33.3932 45.3695 32.0672 45.6887 30.7205C45.8476 30.0472 45.9785 29.3669 46.0558 28.6793C46.1286 27.9922 46.1539 27.2958 46.0609 26.6074Z" fill="#C4C4C4"/>
<path d="M13.5491 39.4487C13.761 39.8142 13.9186 40.2115 14.031 40.6204C14.1449 41.0291 14.2194 41.4486 14.2663 41.871C14.3542 42.717 14.3221 43.5727 14.213 44.4152C14.1586 44.8369 14.0837 45.2557 13.9909 45.6706C13.945 45.8781 13.8887 46.0845 13.835 46.291L13.7406 46.597L13.6934 46.7502L13.6386 46.9007L13.5284 47.202L13.4026 47.4971L13.3394 47.6445C13.3172 47.6932 13.2926 47.7408 13.2694 47.7889L13.1279 48.0772C12.9239 48.4536 12.7043 48.8225 12.4497 49.1681C12.1923 49.511 11.9156 49.8404 11.6079 50.14C11.3 50.4388 10.9708 50.7162 10.6189 50.9622C9.91008 51.4449 9.12272 51.82 8.28766 52.0204C7.45539 52.2229 6.57952 52.2635 5.74016 52.0957C4.90154 51.925 4.11736 51.5325 3.4751 50.9855C3.81514 51.2355 4.18207 51.4452 4.56552 51.6142C4.95019 51.7802 5.35279 51.8984 5.76462 51.9606C6.58755 52.0919 7.43298 52.0223 8.23322 51.8087C9.03393 51.5903 9.79067 51.2236 10.4665 50.7451C10.8026 50.5028 11.1203 50.2358 11.4156 49.9452C11.7112 49.6546 11.9764 49.3346 12.224 49.0025C12.4718 48.6699 12.6861 48.3137 12.8859 47.9498L13.0246 47.6708C13.0474 47.6242 13.0715 47.5781 13.0933 47.5311L13.1554 47.3881L13.2791 47.102L13.3899 46.8104C13.686 46.0329 13.8589 45.2091 13.9973 44.3843C14.0596 43.9708 14.1089 43.5547 14.1304 43.1368C14.1544 42.7193 14.1595 42.2998 14.13 41.8822C14.0798 41.0487 13.9182 40.2102 13.5491 39.4487Z" fill="#C4C4C4"/>
<path d="M56.3765 38.3902C55.9674 38.3884 55.5678 38.4843 55.1885 38.6229C54.809 38.7642 54.4488 38.9532 54.1033 39.1632C53.4112 39.5838 52.7759 40.0924 52.1743 40.6343C51.8755 40.9078 51.5858 41.1913 51.3024 41.4809C51.0215 41.773 50.7487 42.0728 50.4841 42.3797C50.2218 42.6887 49.9635 43.001 49.7166 43.3222C49.471 43.6445 49.2321 43.9717 49.0052 44.3071C48.7781 44.6422 48.5576 44.982 48.3518 45.3304C48.1475 45.6794 47.952 46.0339 47.7707 46.3963C47.4023 47.1179 47.0783 47.863 46.7924 48.6221C46.5095 49.3823 46.2637 50.1575 46.0813 50.9486C45.8905 51.7378 45.7858 52.5485 45.8024 53.3648C45.7654 52.9588 45.7561 52.5478 45.7903 52.1395C45.7942 52.037 45.806 51.9353 45.8172 51.8335L45.8504 51.5279C45.883 51.3259 45.9073 51.1219 45.9468 50.9208C46.0988 50.115 46.3186 49.3228 46.5868 48.548C47.1246 47.0006 47.845 45.5069 48.7739 44.1496C49.7037 42.7962 50.7876 41.5464 52.0301 40.4713C52.6523 39.9363 53.3154 39.4438 54.0352 39.0451C54.3969 38.8499 54.7722 38.6769 55.1646 38.5532C55.5557 38.4296 55.9686 38.3582 56.3765 38.3902Z" fill="#C4C4C4"/>
<path d="M53.8748 53.1655C53.2783 53.9572 52.6285 54.7119 51.9107 55.4028C51.1947 56.0939 50.4091 56.7252 49.5303 57.2173C49.088 57.4564 48.625 57.6641 48.1385 57.8053C47.8956 57.8764 47.6465 57.9266 47.3962 57.9657C47.145 58.0005 46.8912 58.0155 46.6379 58.0117C46.3846 58.0036 46.1322 57.9793 45.8839 57.9331C45.6363 57.8832 45.3934 57.8154 45.1567 57.7319C44.685 57.5584 44.2435 57.3005 43.8818 56.9602C44.2828 57.252 44.7301 57.4686 45.1993 57.6011C45.4345 57.667 45.6728 57.7187 45.9133 57.7518C46.1543 57.7812 46.3961 57.7968 46.6378 57.7929C46.8795 57.7848 47.12 57.7609 47.3584 57.723C47.5959 57.6793 47.8318 57.6254 48.0621 57.5511C48.5246 57.4088 48.969 57.2073 49.3948 56.9722C49.8223 56.7387 50.2289 56.4656 50.622 56.1739C51.0171 55.884 51.3929 55.5673 51.7627 55.2428C52.5 54.5903 53.19 53.8823 53.8748 53.1655Z" fill="#C4C4C4"/>
<path d="M63.4679 52.9089C63.0657 53.5396 62.5799 54.1215 62.0235 54.6316C61.4679 55.1423 60.8377 55.5801 60.1441 55.8983C59.7954 56.0519 59.433 56.1799 59.0573 56.2587C58.6816 56.3341 58.2941 56.37 57.9096 56.3301C57.7178 56.309 57.5271 56.2749 57.3424 56.219C57.159 56.159 56.9797 56.0854 56.8139 55.9889C56.4824 55.7952 56.2019 55.5296 55.9819 55.2273C56.2487 55.4888 56.5458 55.7166 56.8775 55.867C57.0418 55.9444 57.2147 55.9998 57.3899 56.0416C57.5664 56.0795 57.7452 56.1037 57.9252 56.112C58.1054 56.1192 58.2858 56.1094 58.4656 56.0935C58.6451 56.0727 58.8237 56.0426 58.9998 55.9997C59.3528 55.9178 59.6969 55.7941 60.0286 55.6433C60.3624 55.496 60.6814 55.3146 60.9899 55.1168C61.3001 54.9208 61.594 54.6989 61.8807 54.4671C62.4513 53.9992 62.9732 53.4698 63.4679 52.9089Z" fill="#C4C4C4"/>
<path d="M63.8183 37.2039C63.8693 37.3775 63.8934 37.5586 63.9038 37.7403C63.9074 37.9221 63.9008 38.1047 63.8788 38.2853C63.8391 38.6475 63.7601 39.004 63.6656 39.3549C63.471 40.0559 63.2113 40.7354 62.93 41.4033C62.3663 42.7395 61.7118 44.031 61.0642 45.322L60.0858 47.2546C59.7575 47.8975 59.4384 48.5442 59.1253 49.1933C58.8161 49.844 58.5159 50.4992 58.2539 51.1695C58.1187 51.5032 58.0012 51.8431 57.8949 52.1871C57.8494 52.3607 57.795 52.5331 57.7619 52.7099C57.7174 52.885 57.6948 53.0635 57.668 53.2426C57.6978 52.5173 57.8998 51.8099 58.1248 51.1225C58.358 50.4354 58.633 49.7638 58.9266 49.1019C59.514 47.7772 60.168 46.4881 60.8142 45.1957C61.1424 44.5521 61.4691 43.9084 61.7914 43.2631C62.116 42.619 62.43 41.9702 62.7305 41.316C63.027 40.6603 63.3114 39.9983 63.5348 39.3157C63.648 38.9752 63.7459 38.6288 63.8056 38.2751C63.8644 37.9224 63.8918 37.5592 63.8183 37.2039Z" fill="#C4C4C4"/>
<path d="M67.1544 50.6846C67.1434 50.3209 67.1466 49.9543 67.1868 49.5912C67.2178 49.227 67.273 48.8653 67.3338 48.5048C67.4643 47.785 67.6447 47.0749 67.8601 46.376C68.2906 44.9788 68.8507 43.6171 69.558 42.3329C70.2699 41.0532 71.0932 39.8331 72.0552 38.7277C72.5347 38.1746 73.048 37.6489 73.6092 37.1772C73.8931 36.9456 74.1845 36.7223 74.4962 36.5295L74.7302 36.3861C74.8101 36.3417 74.8932 36.3025 74.9747 36.261C75.135 36.1725 75.3127 36.1214 75.4816 36.0554C74.8099 36.3416 74.2294 36.7896 73.6997 37.2804C73.1672 37.7706 72.6818 38.3099 72.2222 38.8686C71.7671 39.4311 71.3292 40.0086 70.9319 40.614C70.5312 41.2165 70.1478 41.8314 69.8033 42.4678C69.7123 42.6242 69.633 42.7868 69.5472 42.9461L69.4208 43.1862L69.301 43.4293C69.1403 43.7531 68.9935 44.084 68.8483 44.4154C68.5583 45.0789 68.3023 45.7573 68.0672 46.4428C67.836 47.1295 67.6288 47.8253 67.4675 48.5321C67.3011 49.238 67.1858 49.9564 67.1544 50.6846Z" fill="#C4C4C4"/>
<path d="M64.7695 53.8813C65.1345 54.2344 65.5618 54.5132 66.0267 54.6944C66.1447 54.7365 66.2592 54.7875 66.3794 54.822L66.5578 54.8788L66.7388 54.9256C66.8587 54.9595 66.9819 54.9788 67.1031 55.0058C67.226 55.0241 67.3482 55.0467 67.4719 55.0574L67.6572 55.0743C67.7189 55.0792 67.7811 55.0793 67.843 55.0821C67.9667 55.0898 68.0907 55.0847 68.2144 55.0842C68.4618 55.0731 68.709 55.0526 68.9531 55.0084C69.1979 54.9698 69.4396 54.9122 69.6792 54.847C69.9172 54.7758 70.1541 54.6993 70.3846 54.6046C70.8489 54.424 71.2982 54.2016 71.7307 53.949C72.166 53.7004 72.5827 53.4188 72.9921 53.1259C73.8078 52.5348 74.576 51.8752 75.3294 51.1948C74.659 51.9571 73.9259 52.6682 73.1238 53.3003C72.7243 53.6183 72.3028 53.9095 71.8655 54.1774C71.4269 54.4429 70.9657 54.6739 70.4869 54.8651C69.5316 55.243 68.4727 55.4304 67.4444 55.2734C66.9311 55.202 66.4351 55.038 65.9714 54.8197C65.5065 54.597 65.0889 54.2766 64.7695 53.8813Z" fill="#C4C4C4"/>
<path d="M72.7437 44.7117C72.9846 44.8119 73.2465 44.8492 73.4998 44.822C73.7535 44.7946 73.9976 44.7109 74.223 44.5937C74.6764 44.359 75.0624 44.0114 75.4159 43.6413C76.1152 42.8882 76.6885 42.0199 77.1897 41.1197C77.4353 40.6667 77.6673 40.206 77.861 39.7293C78.0572 39.2541 78.2249 38.7669 78.3449 38.2679C78.4062 38.0188 78.4552 37.7667 78.4886 37.5126C78.5232 37.2586 78.5436 37.0025 78.5426 36.746C78.5454 36.2332 78.4619 35.7169 78.2619 35.2344C78.5229 35.688 78.6519 36.2148 78.6879 36.7408C78.7241 37.2689 78.6723 37.8001 78.5686 38.3176C78.3563 39.3542 77.9424 40.337 77.4308 41.2536C77.1739 41.7119 76.8944 42.1574 76.5846 42.5825C76.2764 43.0082 75.9409 43.4163 75.5632 43.7858C75.3752 43.9711 75.1758 44.1459 74.9622 44.303C74.7489 44.4599 74.5223 44.6022 74.2775 44.7081C74.0337 44.8137 73.7714 44.8879 73.5045 44.8929C73.3715 44.8967 73.2384 44.8826 73.11 44.8525C72.9816 44.8209 72.8587 44.7728 72.7437 44.7117Z" fill="#C4C4C4"/>
<path d="M87.1654 22.8921C86.6643 23.1399 86.2509 23.5076 85.8925 23.9159C85.5355 24.3268 85.2322 24.7825 84.98 25.2655L84.8841 25.446C84.853 25.5067 84.825 25.569 84.7953 25.6304C84.734 25.7525 84.6833 25.8794 84.628 26.0045C84.5724 26.1295 84.5246 26.2578 84.4739 26.3851C84.4295 26.5146 84.3784 26.642 84.3364 26.7727C84.2484 27.0326 84.1697 27.2965 84.1041 27.5639C84.0859 27.6306 84.0702 27.6976 84.056 27.765C84.0399 27.8322 84.0276 27.8999 84.0147 27.9677C83.991 28.1033 83.9639 28.2399 83.9725 28.379C83.9344 28.2434 83.935 28.0996 83.9375 27.9598C83.938 27.8893 83.9424 27.819 83.9487 27.7492C83.9536 27.679 83.96 27.6089 83.9689 27.5392C84.0038 27.2603 84.0548 26.9829 84.1268 26.7109C84.2624 26.1641 84.4709 25.6357 84.7329 25.134C84.7965 25.0076 84.8742 24.8885 84.9453 24.7662C85.0192 24.6455 85.1008 24.529 85.1806 24.412C85.3495 24.1844 85.5303 23.9644 85.7342 23.7666C85.9348 23.5658 86.1573 23.3866 86.3955 23.2332C86.6352 23.0831 86.8934 22.9588 87.1654 22.8921Z" fill="#C4C4C4"/>
<path d="M93.1374 32.8376C92.3698 33.1036 91.6853 33.5503 91.0444 34.0369C90.4055 34.5294 89.8026 35.0676 89.2305 35.6369C88.6577 36.2055 88.1101 36.7995 87.5837 37.4118C87.3149 37.713 87.0603 38.0268 86.8009 38.3363C86.5432 38.6472 86.2965 38.9674 86.0417 39.2808L86.0555 39.2597C85.4918 40.3481 84.9704 41.4604 84.4486 42.5723C84.1896 43.1292 83.9342 43.6879 83.6793 44.2469L82.9174 45.9255L81.4002 49.2871C81.1507 49.8489 80.8918 50.4067 80.6363 50.9661C80.3809 51.5254 80.1234 52.084 79.8579 52.6387L80.5563 50.9314C80.7902 50.3628 81.0192 49.792 81.2587 49.2257C81.7346 48.0919 82.208 46.9568 82.6962 45.8278C83.1858 44.6994 83.6821 43.5736 84.1989 42.4567C84.7126 41.3383 85.2468 40.2289 85.8169 39.1351L85.8231 39.1233L85.8306 39.114C86.3414 38.4825 86.8595 37.8567 87.4037 37.253C87.9432 36.6455 88.5134 36.0648 89.1034 35.5055C89.6955 34.949 90.3108 34.4132 90.979 33.9479C91.6446 33.4853 92.3531 33.0567 93.1374 32.8376Z" fill="#C4C4C4"/>
<path d="M97.6959 48.1013C97.2631 48.6884 96.7741 49.2361 96.2339 49.7329C95.6958 50.2317 95.096 50.6709 94.4375 51.0142C94.275 51.1039 94.1005 51.171 93.9305 51.2463C93.8442 51.2811 93.7547 51.309 93.6669 51.3406L93.5347 51.3866L93.3986 51.4215C93.0382 51.5197 92.6592 51.5698 92.2828 51.544L92.1418 51.536C92.095 51.5308 92.0485 51.521 92.002 51.5138C91.9096 51.4967 91.8148 51.4861 91.7263 51.4597C91.5469 51.4128 91.3698 51.3564 91.1984 51.2855C90.857 51.1427 90.5349 50.9461 90.2783 50.6854C90.575 50.8981 90.9028 51.0535 91.245 51.1561C91.5864 51.2619 91.9423 51.3242 92.2899 51.3254C92.3776 51.3245 92.4649 51.3284 92.5522 51.3147C92.6394 51.3042 92.7269 51.3009 92.8135 51.2861L93.0723 51.2356C93.1584 51.2184 93.2422 51.1887 93.3272 51.1659L93.4544 51.1299L93.5791 51.0846C93.6619 51.0536 93.7461 51.0265 93.8278 50.9923C93.9892 50.9183 94.1541 50.8527 94.3096 50.765C94.3885 50.7237 94.4688 50.6853 94.5466 50.6418L94.7773 50.5057L94.8927 50.4377L95.0045 50.3634L95.2288 50.2156C95.377 50.115 95.5209 50.0072 95.6669 49.9025L96.0909 49.5682C96.649 49.1109 97.1756 48.6124 97.6959 48.1013Z" fill="#C4C4C4"/>
<path d="M96.2979 32.5105C96.4694 32.7869 96.5831 33.0989 96.6541 33.4183C96.7253 33.7382 96.7591 34.0656 96.7722 34.3929C96.7895 35.0483 96.7262 35.7031 96.617 36.3471C96.4002 37.6372 96.0228 38.8912 95.5868 40.1179C95.3645 40.7302 95.1275 41.3366 94.8758 41.9367C94.6225 42.5351 94.3542 43.1305 94.0821 43.717C93.815 44.3069 93.5521 44.8989 93.3087 45.4988C93.0602 46.0969 92.837 46.705 92.6587 47.3295C92.717 47.0099 92.7956 46.6937 92.8865 46.3813C92.9764 46.0687 93.0757 45.7586 93.1802 45.4504C93.3942 44.8358 93.631 44.2295 93.8818 43.6297C94.3911 42.4346 94.8897 41.2423 95.3234 40.0233C95.5441 39.4158 95.7479 38.8024 95.9301 38.1831C96.1145 37.5647 96.2755 36.9393 96.4029 36.3078C96.4678 35.9922 96.5189 35.6741 96.5601 35.3551C96.6014 35.0361 96.6293 34.7152 96.6358 34.3938C96.6436 34.0726 96.6311 33.7501 96.5817 33.4321C96.5297 33.1151 96.443 32.8015 96.2979 32.5105Z" fill="#C4C4C4"/>
<path d="M90.6118 22.259C90.8466 22.5607 90.9945 22.9259 91.0872 23.2997C91.1835 23.6755 91.2047 24.0637 91.208 24.4486C91.2001 25.22 91.0676 25.9798 90.8954 26.7233C90.8478 26.9082 90.8048 27.0946 90.7528 27.2779L90.595 27.8277L90.4188 28.3712C90.362 28.5529 90.297 28.7318 90.2309 28.9103C89.9761 29.6273 89.6817 30.3289 89.3608 31.0183C89.5728 30.2874 89.8089 29.5675 90.0234 28.8417C90.2393 28.1169 90.4535 27.3921 90.6231 26.6586C90.6722 26.4766 90.707 26.2921 90.7475 26.1084C90.7907 25.9251 90.8185 25.7397 90.8524 25.5552C90.922 25.1863 90.9608 24.814 90.9903 24.4415C91.0053 24.0697 91.0148 23.6937 90.9528 23.3259C90.8997 22.9578 90.7941 22.5941 90.6118 22.259Z" fill="#C4C4C4"/>
<path d="M101.214 46.3515C101.141 45.6675 101.178 44.9738 101.253 44.2893C101.333 43.6045 101.455 42.925 101.606 42.2529C101.751 41.5797 101.928 40.914 102.106 40.2506C102.148 40.0845 102.205 39.9193 102.254 39.7538C102.306 39.5888 102.353 39.4219 102.41 39.2585L102.591 38.7714L102.683 38.5282L102.786 38.2899L102.996 37.8146L103.23 37.3508L103.347 37.1192L103.475 36.8934C103.562 36.7435 103.644 36.5912 103.734 36.4434C104.1 35.8557 104.496 35.2875 104.931 34.7504C105.368 34.2147 105.839 33.7093 106.338 33.2339C106.842 32.7636 107.367 32.3166 107.923 31.9131C106.883 32.8107 105.935 33.8056 105.103 34.8857C104.694 35.4317 104.308 35.9937 103.962 36.5797L103.712 37.0246L103.587 37.2472L103.473 37.4755L103.246 37.9323L103.043 38.4001L102.94 38.6333L102.849 38.8714L102.669 39.3484C102.611 39.5084 102.564 39.672 102.512 39.8337C102.462 39.9966 102.407 40.1561 102.361 40.3219C102.168 40.98 101.987 41.6402 101.817 42.303C101.65 42.9663 101.5 43.6339 101.388 44.3083C101.268 44.9818 101.204 45.6644 101.214 46.3515Z" fill="#C4C4C4"/>
<path d="M99.2227 49.3196C100.1 50.0917 101.244 50.5177 102.389 50.5968C102.962 50.635 103.54 50.5715 104.092 50.4139C104.644 50.2575 105.168 50.0114 105.656 49.7088C106.632 49.0977 107.476 48.2908 108.224 47.4111C108.971 46.5277 109.639 45.576 110.247 44.5871C110.862 43.6023 111.418 42.5805 111.948 41.5455C112.213 41.0298 112.456 40.5034 112.68 39.9683C112.9 39.4322 113.104 38.8891 113.287 38.3385C113.646 37.2366 113.918 36.1017 114.029 34.9471C114.06 34.6588 114.075 34.3692 114.083 34.0793C114.085 33.7895 114.08 33.4992 114.054 33.2102C114.002 32.6328 113.884 32.0584 113.668 31.5159C113.789 31.7813 113.886 32.0577 113.964 32.3399C114.04 32.6227 114.089 32.912 114.127 33.2023C114.164 33.4932 114.18 33.7861 114.189 34.0791C114.191 34.3722 114.187 34.6658 114.166 34.9583C114.082 36.1292 113.83 37.2817 113.492 38.4033C113.152 39.5257 112.707 40.6146 112.185 41.6651C111.659 42.709 111.101 43.7384 110.485 44.7346C109.867 45.7292 109.191 46.6917 108.425 47.5833C108.04 48.0273 107.629 48.4501 107.189 48.8422C106.75 49.2345 106.276 49.5922 105.767 49.8923C105.258 50.1925 104.711 50.4346 104.138 50.5838C103.565 50.7335 102.966 50.7877 102.378 50.7327C101.789 50.6775 101.217 50.5134 100.677 50.2861C100.408 50.1685 100.148 50.0301 99.9038 49.869C99.6602 49.7071 99.4315 49.5231 99.2227 49.3196Z" fill="#C4C4C4"/>
<path d="M110.172 59.2189C110.489 59.4866 110.83 59.7236 111.19 59.9272C111.37 60.0289 111.552 60.1252 111.742 60.2077C111.927 60.2981 112.121 60.3688 112.313 60.4438C112.703 60.5793 113.102 60.6822 113.508 60.7485C113.914 60.8169 114.326 60.8366 114.736 60.8274C115.557 60.8121 116.37 60.6423 117.141 60.363C117.913 60.0849 118.639 59.6872 119.31 59.2174C119.978 58.7417 120.589 58.1879 121.13 57.5734C121.398 57.2635 121.648 56.9411 121.871 56.5959C121.982 56.4234 122.1 56.2547 122.206 56.079L122.515 55.546C122.906 54.8239 123.247 54.0742 123.52 53.299C123.589 53.1059 123.645 52.9079 123.708 52.7127L123.8 52.4188L123.876 52.1202C123.924 51.9207 123.981 51.7232 124.023 51.5222L124.14 50.9176C124.276 50.1088 124.375 49.2903 124.375 48.4684L124.382 48.1604C124.385 48.0577 124.376 47.9551 124.373 47.8525L124.349 47.2369C124.335 47.032 124.309 46.828 124.29 46.6235L124.259 46.3169C124.251 46.2144 124.227 46.114 124.213 46.0123L124.112 45.4041C124.098 45.3021 124.071 45.2028 124.049 45.1025L123.98 44.8022L123.91 44.5017L123.876 44.3516L123.831 44.2039L123.655 43.6128C123.539 43.2187 123.401 42.8237 123.277 42.4289C123.154 42.0324 123.035 41.6346 122.917 41.2367L122.748 40.6369L122.664 40.3371L122.587 40.0353L122.432 39.4317L122.293 38.8238C122.117 38.0119 121.959 37.1936 121.884 36.3637C121.809 35.5355 121.797 34.6969 121.914 33.8719C121.93 33.7691 121.938 33.6651 121.96 33.5633L122.027 33.2583C122.064 33.0532 122.133 32.8563 122.194 32.6577L122.241 32.5091L122.301 32.365L122.42 32.0773L122.45 32.0055L122.486 31.9365L122.558 31.7987L122.702 31.5234C122.312 32.256 122.082 33.0632 121.987 33.8815C121.892 34.7013 121.925 35.5307 122.021 36.3494C122.11 37.1698 122.278 37.9804 122.466 38.7843L122.613 39.3863L122.776 39.9845L122.858 40.2835L122.946 40.5808L123.123 41.1753C123.247 41.5699 123.372 41.9642 123.5 42.3574L123.696 42.9464C123.76 43.143 123.827 43.3381 123.886 43.5392L124.068 44.1384L124.113 44.2883L124.15 44.4407L124.222 44.7455L124.294 45.0504C124.317 45.1522 124.345 45.2531 124.359 45.3567L124.465 45.9744C124.48 46.0776 124.504 46.1797 124.513 46.2839L124.546 46.5955C124.567 46.8033 124.594 47.0107 124.609 47.219L124.638 47.8453C124.64 47.9497 124.651 48.0541 124.648 48.1586L124.643 48.472C124.646 49.3086 124.551 50.1426 124.415 50.9669L124.293 51.5821C124.249 51.7866 124.191 51.9875 124.14 52.1903L124.062 52.4939L123.967 52.7926C123.901 52.9911 123.843 53.1922 123.772 53.3885C123.49 54.1759 123.139 54.9372 122.737 55.67L122.42 56.211C122.311 56.3892 122.191 56.5605 122.077 56.7355C121.848 57.0855 121.587 57.4178 121.312 57.7332C120.757 58.3624 120.123 58.9197 119.432 59.3939C118.739 59.8632 117.992 60.2575 117.2 60.5294C116.409 60.8019 115.576 60.9644 114.738 60.9643C113.062 60.9731 111.401 60.334 110.172 59.2189Z" fill="#C4C4C4"/>
<path d="M116.665 52.3807C117.117 51.9926 117.505 51.5481 117.808 51.053C117.958 50.8043 118.092 50.5475 118.197 50.2786C118.305 50.0112 118.393 49.7354 118.452 49.4534C118.516 49.1726 118.552 48.8857 118.564 48.5981C118.579 48.3101 118.561 48.0215 118.523 47.735C118.441 47.1628 118.248 46.6035 117.936 46.0952C118.342 46.5335 118.612 47.1019 118.738 47.6964C118.804 47.994 118.829 48.2999 118.829 48.6049C118.825 48.9102 118.788 49.2147 118.725 49.5133C118.657 49.8108 118.564 50.1026 118.441 50.3815C118.315 50.6589 118.168 50.9271 117.99 51.173C117.639 51.6679 117.185 52.0876 116.665 52.3807Z" fill="#C4C4C4"/>
<path d="M110.373 55.5967C110.198 55.1145 110.092 54.6078 110.025 54.0969C109.959 53.5853 109.948 53.0672 109.972 52.5513C109.981 52.4224 109.981 52.2927 109.996 52.1644L110.037 51.7786C110.076 51.5229 110.111 51.2661 110.168 51.0132C110.276 50.5067 110.419 50.0056 110.62 49.5243C110.822 49.0451 111.074 48.5807 111.397 48.1659L111.519 48.0124L111.651 47.8666C111.737 47.7673 111.833 47.6777 111.927 47.5869C111.974 47.5403 112.023 47.4974 112.074 47.4559L112.225 47.3298C112.331 47.2526 112.436 47.1736 112.547 47.1035C112.989 46.8226 113.486 46.618 114.004 46.5483C114.521 46.4705 115.053 46.5318 115.533 46.7088C115.034 46.5915 114.518 46.572 114.028 46.6837C113.536 46.7818 113.078 47.0039 112.669 47.285C112.261 47.571 111.906 47.9292 111.607 48.3277C111.307 48.7255 111.069 49.1675 110.878 49.6315C110.68 50.0928 110.54 50.579 110.426 51.0699C110.364 51.3146 110.324 51.5643 110.28 51.8129C110.247 52.0635 110.208 52.3136 110.19 52.566C110.099 53.574 110.144 54.598 110.373 55.5967Z" fill="#C4C4C4"/>
<path d="M123.84 39.1234C124.105 39.2876 124.407 39.3759 124.711 39.3989C125.016 39.4259 125.322 39.3851 125.619 39.3171C125.916 39.2493 126.205 39.1476 126.483 39.0217C126.761 38.8958 127.031 38.7509 127.289 38.5871C127.804 38.2586 128.281 37.8708 128.705 37.4316C129.13 36.9943 129.514 36.5136 129.82 35.9888C130.132 35.466 130.375 34.9021 130.559 34.32C130.746 33.7385 130.865 33.1356 130.924 32.5268C130.979 31.918 130.968 31.3008 130.864 30.6956C130.768 30.0893 130.565 29.498 130.255 28.9592C130.619 29.4648 130.854 30.0589 130.999 30.6686C131.137 31.2814 131.179 31.9152 131.142 32.5429C131.066 33.7987 130.699 35.0387 130.061 36.1317C129.736 36.6764 129.339 37.1718 128.893 37.6178C128.444 38.0605 127.947 38.4562 127.402 38.773C126.859 39.0904 126.269 39.3423 125.646 39.451C125.334 39.5007 125.015 39.5212 124.703 39.4723C124.546 39.4528 124.394 39.408 124.247 39.3541C124.101 39.2952 123.965 39.2154 123.84 39.1234Z" fill="#C4C4C4"/>
<path d="M10.772 36.7771C13.0553 37.213 14.0333 40.4916 13.0492 44.6293C11.7597 50.0508 6.88721 51.9375 3.86205 50.5971C-1.65533 48.1525 -0.00778967 38.8191 4.17866 31.473C9.49539 22.1436 21.2087 15.8566 27.151 18.9335C29.0677 19.9259 30.7624 22.8458 28.9567 30.3695C37.2829 20.6388 42.2126 21.3545 43.6731 22.1718C46.3114 23.6483 46.9133 26.6578 40.2924 43.3103C34.1115 58.8562 35.9155 62.964 37.6842 64.2763C40.7941 66.5836 45.8866 65.3445 48.8194 61.5677C50.0148 60.0282 50.9761 58.1923 51.1266 56.8528C52.7819 58.0919 52.4153 60.8212 51.1266 62.7715C47.4149 68.3892 40.913 70.3499 35.8785 67.1854C29.5502 63.2076 31.3442 54.1926 36.3801 42.1064C41.0702 30.85 44.301 24.6753 42.9664 23.5852C42.0845 22.8647 38.2862 21.6419 28.2545 33.4793C25.1136 41.2269 20.7307 51.6077 17.5898 59.3553C17.257 59.596 16.4257 59.7647 15.6568 59.3079C14.9577 58.8926 14.73 57.9734 14.7374 57.409C14.7925 53.2725 20.5875 42.8699 23.4142 36.149C24.4962 33.5767 28.656 23.6861 25.77 21.3081C22.8046 18.8649 13.3074 23.5481 7.23855 32.694C3.50054 38.3271 2.24822 46.174 4.57994 47.8246C6.06801 48.878 8.22309 48.0012 9.69604 45.718C11.7023 42.6081 11.5016 38.796 10.772 36.7771Z" fill="white"/>
<path d="M58.5926 39.9182C59.3256 38.0598 60.0584 36.5024 60.7913 34.644C61.5803 34.644 62.6799 34.836 63.016 36.1008C63.4657 37.7931 61.4907 41.456 59.7539 44.9156C57.9171 48.5744 55.8416 52.64 57.4147 53.5812C58.8289 54.4273 61.6599 51.8374 63.5723 48.5106C64.0033 48.753 63.8618 48.6733 64.2927 48.9157C62.2862 53.7653 58.424 55.8299 56.2368 54.9162C54.5565 54.2142 54.021 51.8194 53.8811 51.0686C50.1234 55.8501 47.1139 57.4552 44.3799 56.5651C40.0232 55.1469 40.8435 47.8509 43.5161 43.2162C46.74 37.6254 52.4757 33.8518 56.0798 35.3639C59.2244 36.6833 58.523 41.3289 58.4355 42.9806C58.069 43.792 56.5876 45.4119 56.2211 46.2233C56.4803 44.6859 58.378 38.5715 56.3153 37.4841C54.1106 36.3216 49.4906 40.4196 47.2067 44.5511C45.3218 47.9609 43.7032 53.6431 46.4456 54.5856C48.6152 55.3312 51.4511 52.0533 54.4308 48.0061L58.5926 39.9182Z" fill="white"/>
<path d="M71.9409 43.6086C73.4851 44.3415 75.2396 42.8061 76.3055 40.9028C78.1377 37.631 78.2165 34.5292 76.3381 33.2436C73.8978 31.5733 68.1162 33.1496 64.4812 40.9388C62.5404 45.0977 61.3584 51.9375 65.1703 53.6428C69.2706 55.4772 73.7975 51.6365 78.0656 45.8857C78.275 45.2052 78.2027 45.0942 78.4121 44.4138C69.9535 53.5426 68.4335 52.4293 67.0725 51.5394C65.4366 50.4698 66.8741 45.2488 68.4858 42.0382C70.6669 37.6937 74.2438 34.4155 75.8039 35.4857C76.5924 36.0267 75.7611 38.2764 74.868 40.0752C73.9971 41.8292 72.7166 42.9706 71.9409 43.6086Z" fill="white"/>
<path d="M83.17 27.2754C82.1297 26.8828 81.8601 24.8759 83.0523 22.7407C84.3675 20.385 86.6871 19.498 88.2741 20.0513C91.258 21.0917 91.0813 24.3505 86.8607 34.0284C92.3966 29.1403 94.4925 30.465 94.9922 30.8325C96.5972 32.0129 96.0872 36.0308 93.3781 42.1163C91.8387 45.5745 91.2626 47.6605 92.1218 48.1626C93.2595 48.8274 95.7494 46.7619 97.874 44.5137C98.0834 44.6708 98.2665 44.758 98.4759 44.915C95.91 48.7217 93.0837 50.695 91.0225 50.2827C86.7833 49.4348 88.766 43.9597 90.25 40.6014C92.156 36.2878 94.6935 32.4776 93.4174 31.6924C93.0267 31.452 90.4506 31.3724 85.1338 38.0936C82.8265 42.5075 79.0145 51.8369 78.5373 52.6385C77.5688 52.6385 76.7186 52.5463 76.1053 51.3353C74.8635 48.8836 78.4126 43.611 83.1701 33.95C85.5729 29.0709 89.0955 23.1052 87.7244 21.936C86.9862 21.3065 85.5847 21.8182 84.4879 23.3823C83.3785 24.9641 83.0881 26.9467 83.17 27.2754Z" fill="white"/>
<path d="M107.12 30.8091C106.402 29.0652 104.885 28.6027 104.195 28.6639C102.371 28.8254 99.0785 32.9775 97.462 38.0332C96.3213 41.6011 95.6708 47.4772 99.9748 49.1835C104.897 51.1347 108.724 45.5341 111.282 40.4674C113.403 36.2654 114.758 30.0283 110.811 28.3749C106.876 26.7265 102.692 29.7113 101.859 34.1857C101.414 36.5791 101.941 39.3796 104.244 40.7067C107.134 42.3716 112.121 41.3033 114.423 37.1695C112.133 40.5758 107.974 41.3878 105.471 39.6822C103.694 38.4711 103.06 35.8782 103.687 33.6205C104.593 30.3567 108.204 28.7506 110.026 29.7098C112.756 31.1472 112.108 35.1516 110.418 39.054C108.319 43.9029 103.777 48.741 101.449 47.4005C99.5055 46.2816 100.7 41.7805 101.467 39.054C102.698 34.6788 105.638 31.9865 107.12 30.8091Z" fill="white"/>
<path d="M122.41 37.0773C122.521 37.4377 122.71 37.7886 123.038 38.0196C124.442 39.0075 127.293 37.6732 128.897 35.3367C130.482 33.0272 130.89 29.257 128.975 27.2489C126.41 24.5595 120.646 24.7515 118.296 28.8978C117.017 31.1548 116.675 35.3289 118.767 42.3253C120.927 49.5494 119.442 53.141 117.837 55.047C115.96 57.2761 112.789 58.3063 110.653 56.3547C108.664 54.5384 108.923 49.5764 110.609 47.2591C111.858 45.5421 113.762 45.0025 115.333 45.8625C116.653 46.5858 117.009 49.1577 115.862 51.2768C118.336 49.5494 118.593 45.8625 116.411 44.2883C114.568 42.9584 109.636 43.2785 107.538 48.9211C106.191 52.5449 107.02 57.1529 110.758 59.0506C114.727 61.0659 119.054 58.695 121.047 55.7492C123.354 52.3384 124.304 47.7165 122.576 42.5696C120.607 36.7057 120.321 33.3129 121.858 30.8471C123.695 27.9013 126.285 27.641 127.719 28.6623C129.095 29.6421 128.819 33.0297 127.169 35.1012C125.327 37.4141 122.828 37.0876 122.41 37.0773Z" fill="white"/>
<path d="M47.0359 24.4864C48.047 23.0254 49.1907 21.6523 50.4644 20.3785C53.1825 17.6605 56.3474 15.5265 59.8713 14.0361C63.5191 12.4932 67.3946 11.7109 71.39 11.7109C75.3855 11.7109 79.261 12.4932 82.9088 14.0361C86.4326 15.5266 89.5975 17.6605 92.3156 20.3785C95.0337 23.0967 97.1677 26.2615 98.6581 29.7855C98.712 29.9131 98.7629 30.0417 98.815 30.1698C99.0902 29.976 99.3837 29.807 99.6927 29.6656C95.1129 18.5406 84.167 10.7078 71.39 10.7078C61.0431 10.7078 51.8968 15.8446 46.3594 23.7063C46.6092 23.9435 46.8358 24.2047 47.0359 24.4864Z" fill="#EA4949"/>
<path d="M48.6561 60.2504C48.1466 59.6405 47.6623 59.0127 47.2053 58.3665C46.8784 58.4902 46.5381 58.5862 46.187 58.6522C46.7227 59.429 47.2938 60.1795 47.8973 60.902C48.1148 60.648 48.3706 60.4277 48.6561 60.2504Z" fill="#EA4949"/>
<path d="M99.2217 51.3877C99.0469 51.8696 98.8598 52.3481 98.659 52.8225C97.1685 56.3464 95.0346 59.5113 92.3166 62.2294C89.5984 64.9475 86.4336 67.0814 82.9097 68.5719C79.2619 70.1148 75.3865 70.8971 71.391 70.8971C67.3954 70.8971 63.52 70.1148 59.8723 68.5719C57.4722 67.5568 55.2391 66.2424 53.1998 64.6491C53.0317 64.9402 52.8207 65.2033 52.5742 65.4287C57.764 69.4832 64.2947 71.9002 71.3911 71.9002C84.6596 71.9002 95.9539 63.4535 100.194 51.6444C99.8596 51.5854 99.5345 51.4997 99.2217 51.3877Z" fill="#EA4949"/>
<path d="M71.3905 3.13333C76.5446 3.13333 81.5431 4.14215 86.2473 6.13188C90.7922 8.05429 94.8746 10.8068 98.381 14.3132C101.883 17.8152 104.633 21.8918 106.555 26.4299C107.325 26.036 108.187 25.7989 109.102 25.7612C102.991 10.9498 88.4082 0.525146 71.3906 0.525146C56.9903 0.525146 44.3337 7.98958 37.0781 19.2602C38.0204 19.3353 38.9133 19.5846 39.7236 19.9788C41.0884 17.9563 42.6503 16.063 44.4001 14.3133C47.9065 10.8069 51.9888 8.05438 56.5338 6.13197C61.2378 4.14225 66.2364 3.13333 71.3905 3.13333Z" fill="#EA4949"/>
<path d="M105.826 57.7903C103.961 61.6851 101.463 65.2127 98.3811 68.2944C94.8747 71.8008 90.7924 74.5533 86.2474 76.4757C81.5432 78.4655 76.5447 79.4743 71.3906 79.4743C66.2365 79.4743 61.238 78.4655 56.5338 76.4757C53.1417 75.041 50.0077 73.1433 47.1781 70.8155C46.3583 71.3359 45.4416 71.7171 44.46 71.9233C51.6433 78.2464 61.0686 82.0826 71.3906 82.0826C87.3687 82.0826 101.2 72.8925 107.888 59.5103C107.078 59.0976 106.373 58.5076 105.826 57.7903Z" fill="#EA4949"/>
</svg>
