<svg width="48" height="21" viewBox="0 0 48 21" fill="none" xmlns="http://www.w3.org/2000/svg">
<rect x="0.703125" y="0.233887" width="47.2598" height="19.9971" rx="5" fill="url(#paint0_linear_329_836)"/>
<path d="M17.4281 9.1981L15.742 9.61909C15.7068 9.62954 15.6693 9.62954 15.634 9.61909C15.599 9.60704 15.5681 9.58517 15.5451 9.55609L13.6981 7.2471C13.535 7.0579 13.3149 6.92682 13.0708 6.87361C12.8268 6.8204 12.5721 6.84795 12.3451 6.9521C12.1942 7.0207 12.0601 7.12137 11.9521 7.2471L10.104 9.5571C10.0801 9.58512 10.049 9.6062 10.0141 9.6181C9.97931 9.63025 9.94177 9.63198 9.90605 9.62309L8.22206 9.2021C8.08974 9.16878 7.95105 9.17043 7.81956 9.20689C7.68808 9.24336 7.56831 9.31338 7.47206 9.41009C7.37535 9.50635 7.30534 9.6261 7.26887 9.75758C7.23241 9.88907 7.23073 10.0278 7.26405 10.1601L8.31807 14.3781C8.37789 14.6204 8.51735 14.8356 8.71409 14.9892C8.91084 15.1428 9.15346 15.2259 9.40306 15.2251H16.246C16.4956 15.2259 16.7383 15.1428 16.935 14.9892C17.1318 14.8356 17.2712 14.6204 17.3311 14.3781L18.3861 10.1601C18.4183 10.0284 18.4162 9.89073 18.38 9.7601C18.345 9.62859 18.2761 9.50858 18.1801 9.41209C18.0836 9.31604 17.964 9.24645 17.8328 9.21002C17.7016 9.17359 17.5633 9.17156 17.4311 9.2041L17.4281 9.1981Z" fill="#1A1A1A"/>
<path d="M7.12518 8.71128C7.30793 8.71128 7.48657 8.6571 7.63852 8.55557C7.79047 8.45404 7.90889 8.30973 7.97882 8.14089C8.04876 7.97205 8.06706 7.78626 8.0314 7.60702C7.99575 7.42778 7.90776 7.26314 7.77853 7.13392C7.64931 7.0047 7.48466 6.91669 7.30542 6.88104C7.12618 6.84538 6.94042 6.86368 6.77158 6.93362C6.60274 7.00355 6.45843 7.122 6.3569 7.27395C6.25537 7.4259 6.20117 7.60454 6.20117 7.78729C6.20104 7.90866 6.22485 8.02888 6.27124 8.14105C6.31763 8.25321 6.38567 8.35511 6.4715 8.44094C6.55732 8.52677 6.65926 8.59484 6.77142 8.64123C6.88359 8.68762 7.00381 8.71141 7.12518 8.71128Z" fill="#1A1A1A"/>
<path d="M18.5236 8.71128C18.7063 8.71128 18.885 8.6571 19.037 8.55557C19.1889 8.45404 19.3073 8.30973 19.3773 8.14089C19.4472 7.97205 19.4655 7.78626 19.4298 7.60702C19.3942 7.42778 19.3062 7.26314 19.177 7.13392C19.0477 7.0047 18.8831 6.91669 18.7039 6.88104C18.5246 6.84538 18.3388 6.86368 18.17 6.93362C18.0011 7.00355 17.8568 7.122 17.7553 7.27395C17.6538 7.4259 17.5996 7.60454 17.5996 7.78729C17.5996 8.03235 17.697 8.26737 17.8702 8.44065C18.0435 8.61394 18.2785 8.71128 18.5236 8.71128Z" fill="#1A1A1A"/>
<path d="M12.8253 6.09312C13.0081 6.09312 13.1868 6.03893 13.3387 5.9374C13.4907 5.83587 13.6091 5.69155 13.679 5.52271C13.749 5.35387 13.7673 5.16809 13.7316 4.98885C13.6959 4.80962 13.608 4.64498 13.4787 4.51576C13.3495 4.38653 13.1849 4.29852 13.0056 4.26287C12.8264 4.22722 12.6406 4.24552 12.4717 4.31545C12.3029 4.38539 12.1586 4.50382 12.0571 4.65577C11.9555 4.80772 11.9014 4.98637 11.9014 5.16912C11.9014 5.41418 11.9987 5.6492 12.172 5.82249C12.3453 5.99577 12.5803 6.09312 12.8253 6.09312Z" fill="#1A1A1A"/>
<path d="M24.5288 11.1009V9.76891H26.4848C26.7408 9.76891 26.9728 9.71691 27.1808 9.61291C27.3888 9.50891 27.5528 9.36091 27.6728 9.16891C27.7928 8.96891 27.8528 8.72891 27.8528 8.44891C27.8528 8.17691 27.7928 7.94091 27.6728 7.74091C27.5528 7.54091 27.3888 7.38891 27.1808 7.28491C26.9728 7.18091 26.7408 7.12891 26.4848 7.12891H24.5288V5.79691H26.6528C27.1888 5.79691 27.6688 5.90491 28.0928 6.12091C28.5248 6.33691 28.8648 6.64491 29.1128 7.04491C29.3608 7.43691 29.4848 7.90491 29.4848 8.44891C29.4848 8.99291 29.3608 9.46491 29.1128 9.86491C28.8648 10.2569 28.5248 10.5609 28.0928 10.7769C27.6688 10.9929 27.1888 11.1009 26.6528 11.1009H24.5288ZM23.3288 14.2329V5.79691H24.9608V14.2329H23.3288ZM30.5554 14.2329V8.43691H32.1274V14.2329H30.5554ZM32.1274 11.0289L31.5154 10.6209C31.5874 9.90891 31.7954 9.34891 32.1394 8.94091C32.4834 8.52491 32.9794 8.31691 33.6274 8.31691C33.9074 8.31691 34.1594 8.36491 34.3834 8.46091C34.6074 8.54891 34.8114 8.69691 34.9954 8.90491L34.0114 10.0329C33.9234 9.93691 33.8154 9.86491 33.6874 9.81691C33.5674 9.76891 33.4274 9.74491 33.2674 9.74491C32.9314 9.74491 32.6554 9.85291 32.4394 10.0689C32.2314 10.2769 32.1274 10.5969 32.1274 11.0289ZM38.1075 14.3529C37.5235 14.3529 36.9955 14.2209 36.5235 13.9569C36.0595 13.6849 35.6875 13.3209 35.4075 12.8649C35.1355 12.4009 34.9995 11.8849 34.9995 11.3169C34.9995 10.7489 35.1355 10.2409 35.4075 9.79291C35.6795 9.33691 36.0515 8.97691 36.5235 8.71291C36.9955 8.44091 37.5195 8.30491 38.0955 8.30491C38.6875 8.30491 39.2155 8.44091 39.6795 8.71291C40.1515 8.97691 40.5235 9.33691 40.7955 9.79291C41.0675 10.2409 41.2035 10.7489 41.2035 11.3169C41.2035 11.8849 41.0675 12.4009 40.7955 12.8649C40.5235 13.3209 40.1515 13.6849 39.6795 13.9569C39.2155 14.2209 38.6915 14.3529 38.1075 14.3529ZM38.0955 12.8889C38.3915 12.8889 38.6515 12.8249 38.8755 12.6969C39.1075 12.5609 39.2835 12.3769 39.4035 12.1449C39.5315 11.9049 39.5955 11.6329 39.5955 11.3289C39.5955 11.0249 39.5315 10.7569 39.4035 10.5249C39.2755 10.2929 39.0995 10.1129 38.8755 9.98491C38.6515 9.84891 38.3915 9.78091 38.0955 9.78091C37.8075 9.78091 37.5515 9.84891 37.3275 9.98491C37.1035 10.1129 36.9275 10.2929 36.7995 10.5249C36.6715 10.7569 36.6075 11.0249 36.6075 11.3289C36.6075 11.6329 36.6715 11.9049 36.7995 12.1449C36.9275 12.3769 37.1035 12.5609 37.3275 12.6969C37.5515 12.8249 37.8075 12.8889 38.0955 12.8889Z" fill="#1A1A1A"/>
<defs>
<linearGradient id="paint0_linear_329_836" x1="47.9629" y1="20.231" x2="2.92203" y2="-3.9066" gradientUnits="userSpaceOnUse">
<stop stop-color="#D5C0A2"/>
<stop offset="1" stop-color="#F0B769"/>
</linearGradient>
</defs>
</svg>
