<svg width="84" height="85" viewBox="0 0 84 85" fill="none" xmlns="http://www.w3.org/2000/svg">
<rect y="0.303711" width="84" height="84" rx="16" fill="#1C4104"/>
<path fill-rule="evenodd" clip-rule="evenodd" d="M49.4805 28.9933C48.3577 21.1002 45.1988 16.804 41.1075 14.7585C41.2212 19.9699 41.1541 25.5475 39.5012 30.3634C39.0857 31.5879 35.5852 42.6556 41.8092 50.6203L41.806 50.6205C42.8204 51.9188 44.0933 53.1347 45.6802 54.212C45.6495 54.1898 45.6192 54.1675 45.589 54.145L45.5888 54.1449C45.5588 54.1224 45.5289 54.0997 45.4993 54.077L45.4988 54.0767C45.4694 54.054 45.44 54.0311 45.4109 54.008L45.4102 54.0075C45.3812 53.9846 45.3525 53.9615 45.3239 53.9381L45.3231 53.9374C45.2946 53.9141 45.2664 53.8907 45.2385 53.8672L45.2374 53.8664C45.2095 53.8429 45.1818 53.8194 45.1544 53.7956L45.1532 53.7945L45.0719 53.7232L45.0705 53.722C45.0437 53.6982 45.017 53.6743 44.9907 53.6502L44.9891 53.6488L44.911 53.5766L44.9091 53.5749C44.8834 53.5508 44.8579 53.5267 44.8326 53.5024L44.8307 53.5006L44.7558 53.4278L44.7537 53.4258L44.6803 53.3528L44.6782 53.3506C44.654 53.3264 44.6301 53.3019 44.6064 53.2774L44.604 53.275L44.5338 53.2018L44.5313 53.1993L44.4627 53.1261L44.4601 53.1233L44.3929 53.0502L44.3903 53.0472L44.3247 52.9742L44.3219 52.9711L44.258 52.8983L44.2551 52.8949L44.1927 52.8224L44.1896 52.8189L44.1287 52.7468L44.1255 52.743C44.0622 52.6671 44.001 52.5916 43.942 52.5168L43.887 52.4466L43.8837 52.4422L43.8303 52.3726L43.8268 52.368L43.7748 52.2992L43.7713 52.2945L43.721 52.2263L43.7174 52.2215L43.7168 52.2206L43.6649 52.1492L43.6175 52.0829L43.6138 52.0777L43.5678 52.0123L43.5641 52.0071L43.5196 51.9427L43.5159 51.9373L43.4728 51.874L43.4692 51.8686L43.4275 51.8064L43.4239 51.8008L43.3836 51.7399L43.38 51.7343L43.3376 51.6688L43.3001 51.6103L43.2965 51.6046L43.2606 51.5475L43.257 51.5417L43.2189 51.4802L43.1856 51.426L43.1821 51.4202L43.1503 51.3675L43.1469 51.3617L43.1164 51.3105L43.113 51.3047L43.0839 51.2552L43.0807 51.2494L43.0529 51.2015L43.0497 51.1958C43.0296 51.1607 43.0103 51.1267 42.9922 51.0942L42.9686 51.0516L42.9656 51.0462L42.9194 50.9616L42.9166 50.9563L42.897 50.9196L42.8944 50.9146L42.876 50.8799L42.8735 50.8749L42.8564 50.8424L42.854 50.8377L42.8361 50.8027L42.8216 50.7743L42.8195 50.7701L42.8063 50.744L42.8044 50.74L42.7926 50.7162L42.7907 50.7124L42.7802 50.691L42.7785 50.6874L42.7692 50.6683L42.7677 50.6652L42.7504 50.6289L42.7449 50.6172L42.7439 50.6152L42.7395 50.6059L42.7388 50.6043L42.7357 50.5976L42.7353 50.5964L42.7333 50.5924L42.7331 50.5916L42.7325 50.5903L42.7581 50.5901C45.5874 50.5604 48.2782 51.007 49.7672 49.7285C50.3408 49.2358 50.7714 48.4792 50.6455 47.3218C50.6455 47.3218 50.3063 45.2426 51.0436 44.992C51.0436 44.992 52.7688 43.9746 51.6334 43.2226L50.8815 42.6475C50.8815 42.6475 50.616 42.5001 51.0141 42.2494L52.1348 41.1583C52.1348 41.1583 52.6214 40.7749 52.0463 40.0523L51.191 39.0644C51.191 39.0644 50.7929 38.3861 51.5007 37.7962L53.8009 36.13C53.8009 36.13 54.5972 35.496 53.9484 34.5817C53.9484 34.5817 49.4805 30.8807 49.4805 28.9933ZM36.5762 35.8177C35.5966 37.0479 34.4138 38.163 32.9851 39.1292C22.0504 46.5233 20.3943 52.4623 25.9596 66.747C30.4686 69.4904 36.0151 71.21 42.6208 71.39C38.8171 66.9595 28.4793 54.5354 38.1119 51.4504C38.8902 51.0896 39.7072 50.8743 40.5359 50.749C37.9076 48.0137 35.4729 43.3657 36.5762 35.8177ZM40.3849 14.4238C23.8353 19.9687 16.2967 32.4044 15.9707 48.6026C19.3176 34.2455 41.3151 22.9537 40.3849 14.4238ZM15.9974 51.839C16.065 53.68 16.2192 55.5644 16.4574 57.4879C18.4632 60.5649 21.0305 63.327 24.1672 65.5642C18.5724 52.3983 20.374 44.4619 31.6727 36.9405C37.6444 32.9648 39.6316 26.147 40.241 21.0523C33.8 29.6062 16.2297 40.4677 16.2689 51.8636L15.9975 51.839H15.9974ZM19.8528 28.5257C13.2005 36.8633 11.709 45.1738 11.656 45.479C12.1913 48.2632 13.0704 51.0078 14.2963 53.6097C14.4019 49.3273 15.1436 37.9767 19.8528 28.5257L19.8528 28.5257ZM40.0551 14.2883C37.7462 13.3758 35.1884 13.0964 32.5593 13.2353C18.4677 13.9801 11.1521 25.7879 11.0254 38.5717C20.0989 17.1456 40.0552 14.2883 40.0552 14.2883L40.0551 14.2883Z" fill="white"/>
<path d="M39.7773 68.6034C39.8577 68.6106 60.0914 71.9602 61.7482 56.4449C62.2959 51.3167 59.4033 49.9814 57.2057 50.7329C52.7125 52.2695 54.1524 58.0966 59.4827 54.4048C55.1014 59.3545 50.6283 52.8458 55.8082 49.8015C59.6631 47.5359 63.3542 50.9169 63.2871 55.0561C62.9939 73.1351 41.7966 71.3629 41.7108 71.3551L39.7773 68.6034Z" fill="white"/>
<path fill-rule="evenodd" clip-rule="evenodd" d="M66.4905 53.2678C65.2769 53.4622 64.3496 54.514 64.3496 55.7824C64.3496 56.0963 64.4064 56.3969 64.5102 56.6746C65.7239 56.4802 66.6512 55.4284 66.6512 54.16C66.6512 53.8461 66.5943 53.5455 66.4905 53.2678Z" fill="white"/>
<path fill-rule="evenodd" clip-rule="evenodd" d="M56.016 60.2476C54.3488 60.8679 53.3314 62.6238 53.6914 64.4238C53.7805 64.8694 53.9465 65.2798 54.1726 65.6444C55.8398 65.0241 56.8572 63.2681 56.4971 61.4681C56.408 61.0226 56.2421 60.6122 56.016 60.2476Z" fill="white"/>
<path fill-rule="evenodd" clip-rule="evenodd" d="M65.82 63.8469C64.2188 63.0721 62.247 63.5518 61.1961 65.0569C60.9359 65.4294 60.7543 65.8332 60.6475 66.2487C62.2486 67.0236 64.2204 66.5438 65.2714 65.0387C65.5314 64.6662 65.7131 64.2625 65.82 63.8469Z" fill="white"/>
<path fill-rule="evenodd" clip-rule="evenodd" d="M62.6104 47.1223C61.6623 47.9045 61.3953 49.281 62.0376 50.3749C62.1965 50.6456 62.3977 50.876 62.6279 51.0629C63.576 50.2807 63.843 48.9041 63.2007 47.8104C63.0417 47.5396 62.8405 47.3092 62.6104 47.1223Z" fill="white"/>
<path fill-rule="evenodd" clip-rule="evenodd" d="M56.0078 46.0882C56.0553 47.3164 56.9883 48.3631 58.2475 48.5152C58.5592 48.5529 58.8644 48.5326 59.1525 48.4628C59.1051 47.2346 58.172 46.1879 56.9128 46.0358C56.6012 45.9981 56.2959 46.0184 56.0078 46.0882Z" fill="white"/>
<path fill-rule="evenodd" clip-rule="evenodd" d="M52.6934 49.6981C53.3278 50.2844 54.3119 50.3402 55.0129 49.7893C55.1864 49.6531 55.3279 49.4911 55.4363 49.3132C54.8018 48.7269 53.8178 48.6711 53.1167 49.2219C52.9433 49.3583 52.8018 49.5202 52.6934 49.6982V49.6981Z" fill="white"/>
<path fill-rule="evenodd" clip-rule="evenodd" d="M51.6153 55.2284C52.4773 55.1705 53.1941 54.494 53.2758 53.6062C53.296 53.3865 53.2756 53.1725 53.2209 52.9714C52.3589 53.0293 51.6421 53.7058 51.5604 54.5936C51.5402 54.8133 51.5606 55.0273 51.6153 55.2284Z" fill="white"/>
<path fill-rule="evenodd" clip-rule="evenodd" d="M58.9026 57.731C57.9762 58.5008 57.7191 59.8507 58.3524 60.9204C58.5091 61.1851 58.707 61.4103 58.9332 61.5926C59.8596 60.8229 60.1166 59.4729 59.4834 58.4032C59.3267 58.1384 59.1288 57.9133 58.9026 57.731Z" fill="white"/>
<path fill-rule="evenodd" clip-rule="evenodd" d="M59.849 54.8569C59.3882 55.6087 59.5282 56.6048 60.2191 57.197C60.39 57.3435 60.5803 57.453 60.7799 57.5261C61.2407 56.7743 61.1007 55.7782 60.4099 55.186C60.2389 55.0395 60.0486 54.9301 59.849 54.8569Z" fill="white"/>
<path fill-rule="evenodd" clip-rule="evenodd" d="M58.957 52.537C59.2039 53.2385 59.9301 53.6768 60.6851 53.5399C60.872 53.506 61.0448 53.4397 61.1988 53.3479C60.9521 52.6465 60.2258 52.2081 59.4707 52.3451C59.2839 52.379 59.1112 52.4452 58.957 52.537Z" fill="white"/>
<path fill-rule="evenodd" clip-rule="evenodd" d="M56.1509 52.741C56.6946 52.6328 57.0947 52.1429 57.0731 51.5713C57.0678 51.4298 57.037 51.2952 56.9855 51.1719C56.4418 51.2801 56.0418 51.77 56.0633 52.3416C56.0687 52.4831 56.0994 52.6177 56.1509 52.741Z" fill="white"/>
<path d="M62.1196 53.1126C66.2031 48.3216 72.5682 38.3452 64.0691 29.7909C60.2197 25.9167 57.1909 27.4024 56.3412 29.7104C54.6039 34.4294 60.3547 37.1367 60.8794 30.2907C61.6675 36.7597 54.3143 36.7456 55.2705 30.4557C55.9822 25.7747 60.7461 24.858 63.9549 27.8444C77.8065 40.7364 62.4894 54.5976 62.6992 54.4678L62.4205 54.4483C62.3021 53.4099 62.3368 54.067 62.1197 53.1126L62.1196 53.1126Z" fill="white"/>
<path fill-rule="evenodd" clip-rule="evenodd" d="M71.0121 46.6001C69.8145 46.3235 68.5597 46.9492 68.0824 48.1244C67.9643 48.4152 67.9038 48.7151 67.8955 49.0114C69.0931 49.288 70.3481 48.6623 70.8253 47.4871C70.9434 47.1963 71.0038 46.8964 71.0121 46.6001Z" fill="white"/>
<path fill-rule="evenodd" clip-rule="evenodd" d="M72.9741 41.8366C71.7764 41.5601 70.5215 42.1857 70.0443 43.3609C69.9262 43.6517 69.8657 43.9516 69.8574 44.2479C71.055 44.5245 72.3099 43.8988 72.7872 42.7237C72.9053 42.4329 72.9658 42.133 72.9741 41.8366Z" fill="white"/>
<path fill-rule="evenodd" clip-rule="evenodd" d="M72.5225 35.3162C71.3152 35.5465 70.4195 36.6254 70.4572 37.8933C70.4665 38.207 70.5322 38.5058 70.6442 38.7803C71.8515 38.55 72.7472 37.4711 72.7095 36.2032C72.7002 35.8895 72.6345 35.5907 72.5225 35.3162Z" fill="white"/>
<path fill-rule="evenodd" clip-rule="evenodd" d="M70.4846 29.6238C69.3707 30.1434 68.7672 31.409 69.1147 32.6288C69.2007 32.9307 69.3377 33.2043 69.5137 33.4428C70.6276 32.9233 71.2311 31.6576 70.8836 30.4378C70.7976 30.1359 70.6606 29.8624 70.4846 29.6238Z" fill="white"/>
<path fill-rule="evenodd" clip-rule="evenodd" d="M66.9591 25.5933C66.1164 26.488 66.0239 27.8872 66.798 28.8919C66.9897 29.1405 67.2181 29.344 67.4699 29.5006C68.3125 28.6059 68.4051 27.2067 67.631 26.202C67.4393 25.9534 67.2109 25.7499 66.9591 25.5933V25.5933Z" fill="white"/>
<path fill-rule="evenodd" clip-rule="evenodd" d="M62.4083 24.1094C62.0586 25.0108 62.4047 26.0581 63.2662 26.5616C63.4793 26.6862 63.706 26.7669 63.9358 26.8066C64.2855 25.9052 63.9393 24.858 63.0779 24.3545C62.8648 24.2299 62.638 24.1491 62.4082 24.1094L62.4083 24.1094Z" fill="white"/>
<path fill-rule="evenodd" clip-rule="evenodd" d="M58.6738 23.6969C58.693 24.5231 59.3095 25.2367 60.1547 25.352C60.3638 25.3805 60.5693 25.37 60.7637 25.3261C60.7446 24.4998 60.128 23.7863 59.2829 23.6709C59.0737 23.6424 58.8683 23.6529 58.6738 23.6969Z" fill="white"/>
<path fill-rule="evenodd" clip-rule="evenodd" d="M55.5742 25.8641C55.9555 26.3946 56.6763 26.5849 57.2791 26.2829C57.4283 26.2082 57.5576 26.1095 57.6649 25.9941C57.2835 25.4636 56.5629 25.2733 55.96 25.5754C55.8108 25.6501 55.6815 25.7487 55.5742 25.8641Z" fill="white"/>
<path fill-rule="evenodd" clip-rule="evenodd" d="M53.6953 29.2358C54.3175 29.4354 55.0099 29.1595 55.3147 28.5581C55.3902 28.4093 55.4355 28.2531 55.4531 28.0965C54.8309 27.897 54.1384 28.1728 53.8336 28.7742C53.7581 28.923 53.7128 29.0792 53.6953 29.2358Z" fill="white"/>
<path fill-rule="evenodd" clip-rule="evenodd" d="M53.7252 32.8747C54.3146 32.7641 54.7533 32.2388 54.7367 31.6202C54.7327 31.467 54.701 31.3212 54.6467 31.187C54.0573 31.2977 53.6186 31.8229 53.6352 32.4416C53.6393 32.5947 53.6709 32.7407 53.7252 32.8747Z" fill="white"/>
<path fill-rule="evenodd" clip-rule="evenodd" d="M57.1112 36.4956C57.3018 35.9269 57.0569 35.2879 56.5085 35.0009C56.3728 34.9299 56.23 34.8864 56.0865 34.8684C55.8959 35.4371 56.1408 36.0761 56.6891 36.3631C56.8248 36.4341 56.9676 36.4776 57.1112 36.4956Z" fill="white"/>
<path fill-rule="evenodd" clip-rule="evenodd" d="M60.3619 35.9026C60.1757 35.5034 59.7221 35.2871 59.285 35.4116C59.1768 35.4425 59.0787 35.4916 58.9932 35.5546C59.1793 35.9538 59.6329 36.1702 60.0701 36.0456C60.1784 36.0147 60.2764 35.9657 60.3619 35.9026Z" fill="white"/>
<path fill-rule="evenodd" clip-rule="evenodd" d="M62.0552 33.2384C61.6469 33.0731 61.1675 33.224 60.9324 33.6131C60.8743 33.7094 60.836 33.8121 60.8164 33.9166C61.2248 34.0818 61.7042 33.931 61.9392 33.5419C61.9973 33.4456 62.0356 33.3428 62.0552 33.2384Z" fill="white"/>
<path fill-rule="evenodd" clip-rule="evenodd" d="M66.0937 40.3916C67.1834 40.9602 67.7301 42.2515 67.3287 43.4546C67.2293 43.7523 67.0803 44.0195 66.8939 44.2501C65.8042 43.6816 65.2575 42.3903 65.6589 41.1871C65.7583 40.8893 65.9073 40.6222 66.0937 40.3916Z" fill="white"/>
<path fill-rule="evenodd" clip-rule="evenodd" d="M64.167 43.8013C65.2567 44.3698 65.8034 45.661 65.4019 46.8642C65.3026 47.162 65.1536 47.4292 64.9672 47.6597C63.8775 47.0912 63.3308 45.7999 63.7322 44.5967C63.8316 44.299 63.9806 44.0319 64.167 43.8013Z" fill="white"/>
<path fill-rule="evenodd" clip-rule="evenodd" d="M65.4643 35.1396C66.6804 35.3176 67.6218 36.3568 67.6389 37.6252C67.6432 37.939 67.5905 38.2404 67.4904 38.5194C66.2742 38.3415 65.3328 37.3023 65.3157 36.0339C65.3113 35.7201 65.3641 35.4187 65.4643 35.1396Z" fill="white"/>
<path fill-rule="evenodd" clip-rule="evenodd" d="M63.6143 31.8472C64.4238 31.6414 65.2857 32.0478 65.6274 32.839C65.712 33.0349 65.7575 33.2378 65.7677 33.439C64.9581 33.6448 64.0962 33.2384 63.7545 32.4471C63.6699 32.2513 63.6244 32.0485 63.6143 31.8473V31.8472Z" fill="white"/>
<path fill-rule="evenodd" clip-rule="evenodd" d="M61.251 29.54C61.7879 29.0803 62.5941 29.0653 63.1502 29.5373C63.2878 29.6541 63.3984 29.7909 63.4816 29.9398C62.9447 30.3995 62.1384 30.4145 61.5824 29.9425C61.4447 29.8257 61.3341 29.6889 61.251 29.54Z" fill="white"/>
<path fill-rule="evenodd" clip-rule="evenodd" d="M58.375 29.0471C58.2842 28.594 58.533 28.1293 58.9798 27.9628C59.0904 27.9216 59.2038 27.9022 59.3151 27.9023C59.406 28.3554 59.1571 28.82 58.7103 28.9866C58.5997 29.0278 58.4863 29.0472 58.375 29.0471Z" fill="white"/>
<path fill-rule="evenodd" clip-rule="evenodd" d="M57.237 32.6076C56.8104 32.43 56.5638 31.9642 56.6751 31.5005C56.7026 31.3858 56.7498 31.2809 56.8121 31.1885C57.2387 31.366 57.4853 31.8318 57.374 32.2955C57.3465 32.4102 57.2993 32.5151 57.237 32.6076Z" fill="white"/>
<path fill-rule="evenodd" clip-rule="evenodd" d="M59.3804 32.9653C59.4246 33.4252 59.1298 33.8621 58.6684 33.9822C58.5542 34.012 58.4394 34.0198 58.3286 34.0083C58.2844 33.5484 58.5792 33.1114 59.0406 32.9913C59.1549 32.9616 59.2696 32.9538 59.3804 32.9653Z" fill="white"/>
</svg>
