<svg width="21" height="24" viewBox="0 0 21 24" fill="none" xmlns="http://www.w3.org/2000/svg">
<path d="M16.8762 15.277C15.7015 15.277 14.6468 15.8044 13.9036 16.6194L7.76686 13.0956C7.88672 12.712 7.95863 12.2805 7.95863 11.849C7.95863 11.4175 7.88672 11.01 7.76686 10.6025L13.9036 7.07862C14.6228 7.89367 15.6776 8.42104 16.8762 8.42104C19.0816 8.42104 20.8555 6.64711 20.8555 4.44172C20.8555 2.23631 19.0816 0.462402 16.8762 0.462402C14.6707 0.462402 12.8968 2.23632 12.8968 4.44172C12.8968 4.87321 12.9688 5.28073 13.0886 5.68826L6.95183 9.21212C6.23267 8.39707 5.17791 7.8697 3.97932 7.8697C1.77391 7.8697 0 9.64362 0 11.849C0 14.0544 1.77392 15.8283 3.97932 15.8283C5.15394 15.8283 6.20869 15.301 6.95183 14.4859L13.0886 18.0098C12.9688 18.3933 12.8968 18.8248 12.8968 19.2563C12.8968 21.4617 14.6708 23.2356 16.8762 23.2356C19.0816 23.2356 20.8555 21.4617 20.8555 19.2563C20.8315 17.0749 19.0576 15.277 16.8762 15.277Z" fill="white"/>
</svg>
