<svg width="40" height="44" viewBox="0 0 40 44" fill="none" xmlns="http://www.w3.org/2000/svg">
<path d="M32.3678 28.6232C30.1149 28.6232 28.092 29.6421 26.6667 31.2169L14.8965 24.4084C15.1264 23.6674 15.2644 22.8337 15.2644 22C15.2644 21.1663 15.1264 20.379 14.8965 19.5916L26.6667 12.7832C28.046 14.3579 30.069 15.3768 32.3678 15.3768C36.5977 15.3768 40 11.9494 40 7.68841C40 3.42735 36.5977 0 32.3678 0C28.1379 0 24.7357 3.42738 24.7357 7.68841C24.7357 8.52209 24.8736 9.30947 25.1035 10.0968L13.3333 16.9053C11.954 15.3305 9.93103 14.3116 7.63218 14.3116C3.40229 14.3116 0 17.739 0 22C0 26.2611 3.40231 29.6884 7.63218 29.6884C9.88507 29.6884 11.908 28.6695 13.3333 27.0948L25.1035 33.9032C24.8736 34.6442 24.7357 35.4779 24.7357 36.3116C24.7357 40.5726 28.138 44 32.3678 44C36.5977 44 40 40.5726 40 36.3116C39.954 32.0969 36.5517 28.6232 32.3678 28.6232Z" fill="white"/>
</svg>
