<svg width="33" height="32" viewBox="0 0 33 32" fill="none" xmlns="http://www.w3.org/2000/svg">
<path fill-rule="evenodd" clip-rule="evenodd" d="M11.6518 29.1325C12.2758 29.479 12.5084 30.2591 12.1803 30.8907L12.162 30.9237C11.9222 31.355 11.4752 31.5999 11.0104 31.5999C10.7954 31.5999 10.5775 31.5473 10.3719 31.4346C4.24786 28.0315 0.779785 22.3623 0.779785 15.8812C0.779785 7.21422 7.83161 0.162392 16.4986 0.162392C17.251 0.162392 18.0071 0.216169 18.7425 0.322155L18.7435 0.322303C19.462 0.424811 19.9613 1.09201 19.8578 1.81026L19.8577 1.81051C19.7534 2.53665 19.0878 3.03389 18.373 2.92619L18.3689 2.92559C17.7545 2.83657 17.125 2.7931 16.4972 2.7931H16.497C9.28272 2.79455 3.41186 8.66393 3.41186 15.8812C3.41186 21.415 6.44822 26.2427 11.6518 29.1325L11.6518 29.1325ZM30.5685 12.5221L30.5685 12.5221L30.5742 12.5213C31.2886 12.4136 31.9546 12.9118 32.0589 13.6371C32.1649 14.374 32.2187 15.1288 32.2187 15.8812C32.2187 21.5222 27.6277 26.1132 21.9867 26.1132C16.6702 26.1132 12.1867 21.9614 11.7841 16.6672L11.7841 16.667C11.7288 15.9424 12.272 15.3096 12.9968 15.2543L12.9972 15.2543C13.7136 15.1992 14.3526 15.7439 14.4081 16.4666C14.7063 20.4045 18.0337 23.4811 21.9853 23.4811C26.1766 23.4811 29.5853 20.0724 29.5853 15.8812C29.5853 15.2547 29.5418 14.6252 29.4528 14.0097C29.3497 13.2911 29.8493 12.6247 30.5685 12.5221ZM19.9017 13.768H18.6474V12.5137C18.6474 11.1341 19.1949 9.81116 20.1709 8.83513L28.1377 0.86836C29.1376 -0.131602 30.7956 -0.0698961 31.7153 1.05473C32.4845 1.99575 32.3555 3.46928 31.4195 4.40529L23.5803 12.2445C22.6055 13.2192 21.2811 13.768 19.9017 13.768Z" fill="#686868"/>
</svg>
