<svg width="26" height="24" viewBox="0 0 26 24" fill="none" xmlns="http://www.w3.org/2000/svg">
<path d="M15.4119 22.9358H6.71329C5.09194 22.9358 3.537 22.2917 2.39054 21.1453C1.24408 19.9988 0.6 18.4439 0.6 16.8225V8.12393C0.6 6.50259 1.24408 4.94765 2.39054 3.80118C3.537 2.65472 5.09194 2.01064 6.71329 2.01064H7.95594C8.259 2.01064 8.54963 2.13103 8.76393 2.34532C8.97822 2.55961 9.0986 2.85025 9.0986 3.1533C9.0986 3.45635 8.97822 3.74699 8.76393 3.96128C8.54963 4.17557 8.259 4.29596 7.95594 4.29596H6.71329C5.69805 4.29596 4.72439 4.69926 4.0065 5.41715C3.28862 6.13503 2.88531 7.10869 2.88531 8.12393V16.8225C2.88531 17.8378 3.28862 18.8114 4.0065 19.5293C4.72439 20.2472 5.69805 20.6505 6.71329 20.6505H15.4119C16.4271 20.6505 17.4008 20.2472 18.1187 19.5293C18.8366 18.8114 19.2399 17.8378 19.2399 16.8225V14.3372C19.2399 14.0342 19.3602 13.7435 19.5745 13.5292C19.7888 13.3149 20.0795 13.1946 20.3825 13.1946C20.6856 13.1946 20.9762 13.3149 21.1905 13.5292C21.4048 13.7435 21.5252 14.0342 21.5252 14.3372V16.8225C21.5252 18.4439 20.8811 19.9988 19.7346 21.1453C18.5882 22.2917 17.0332 22.9358 15.4119 22.9358Z" fill="white" stroke="#FFB335" stroke-width="0.2"/>
<path d="M12.9267 12.9951C12.6237 12.9951 12.333 12.8747 12.1188 12.6604C11.9045 12.4461 11.7841 12.1555 11.7841 11.8524V8.12446C11.7841 7.16226 12.1663 6.23947 12.8467 5.55909C13.5271 4.87872 14.4499 4.49648 15.4121 4.49648H24.1107C24.4137 4.49648 24.7043 4.61687 24.9186 4.83116C25.1329 5.04545 25.2533 5.33609 25.2533 5.63914C25.2533 5.94219 25.1329 6.23283 24.9186 6.44712C24.7043 6.66141 24.4137 6.7818 24.1107 6.7818H15.4121C15.056 6.7818 14.7144 6.92326 14.4627 7.17505C14.2109 7.42685 14.0694 7.76836 14.0694 8.12446V11.8524C14.0694 12.1555 13.949 12.4461 13.7347 12.6604C13.5204 12.8747 13.2298 12.9951 12.9267 12.9951Z" fill="white" stroke="#FFB335" stroke-width="0.2"/>
<path d="M19.5708 8.55549L19.5709 8.55535L22.4291 5.70966L22.5002 5.6388L22.4291 5.56793L19.5711 2.7224C19.5711 2.72239 19.5711 2.72237 19.571 2.72235C19.3558 2.50711 19.2349 2.2152 19.2349 1.91083C19.2349 1.60643 19.3559 1.3145 19.5711 1.09925C19.7863 0.884008 20.0783 0.763086 20.3827 0.763086C20.6871 0.763086 20.979 0.884008 21.1942 1.09925L24.9222 4.82722L24.9225 4.82751C25.0296 4.93374 25.1146 5.06012 25.1726 5.19936C25.2306 5.3386 25.2605 5.48796 25.2605 5.6388C25.2605 5.78964 25.2306 5.939 25.1726 6.07824C25.1146 6.21748 25.0296 6.34386 24.9225 6.45009L24.9222 6.45038L21.1945 10.1781C21.1945 10.1781 21.1944 10.1782 21.1943 10.1783C21.0876 10.2841 20.961 10.3678 20.8219 10.4246C20.6827 10.4815 20.5336 10.5103 20.3833 10.5094L20.3821 10.5094C20.2317 10.5103 20.0826 10.4815 19.9434 10.4246C19.8042 10.3677 19.6776 10.284 19.5708 10.1781L19.5004 10.2491L19.5708 10.1781C19.4637 10.0718 19.3787 9.94545 19.3207 9.80621C19.2627 9.66697 19.2328 9.51762 19.2328 9.36677C19.2328 9.21593 19.2627 9.06658 19.3207 8.92733C19.3787 8.78809 19.4637 8.66171 19.5708 8.55549Z" fill="white" stroke="#FFB335" stroke-width="0.2"/>
</svg>
