<svg width="48" height="44" viewBox="0 0 48 44" fill="none" xmlns="http://www.w3.org/2000/svg">
<path d="M28.7917 43.8999H11.9965C8.84197 43.8999 5.81624 42.6235 3.58506 40.3508C1.35382 38.0781 0.1 34.9953 0.1 31.7804V14.6731C0.1 11.4582 1.35382 8.37538 3.58506 6.10267C5.81624 3.83003 8.84197 2.55361 11.9965 2.55361H14.3958C15.005 2.55361 15.5897 2.8001 16.021 3.23947C16.4524 3.6789 16.6951 4.27528 16.6951 4.89751C16.6951 5.51974 16.4524 6.11612 16.021 6.55555C15.5897 6.99492 15.005 7.24141 14.3958 7.24141H11.9965C10.0604 7.24141 8.20395 8.02484 6.83547 9.41875C5.46706 10.8126 4.69861 12.7027 4.69861 14.6731V31.7804C4.69861 33.7508 5.46706 35.6409 6.83547 37.0347C8.20395 38.4286 10.0604 39.2121 11.9965 39.2121H28.7917C30.7278 39.2121 32.5842 38.4286 33.9527 37.0347C35.3211 35.6409 36.0896 33.7508 36.0896 31.7804V26.8926C36.0896 26.2704 36.3323 25.674 36.7637 25.2345C37.195 24.7952 37.7797 24.5487 38.3889 24.5487C38.9981 24.5487 39.5827 24.7952 40.0141 25.2345C40.4455 25.674 40.6882 26.2704 40.6882 26.8926V31.7804C40.6882 34.9953 39.4344 38.0781 37.2031 40.3508C34.9719 42.6235 31.9462 43.8999 28.7917 43.8999Z" fill="white" stroke="#FFB335" stroke-width="0.2"/>
<path d="M23.9935 24.3496C23.3843 24.3496 22.7997 24.1031 22.3683 23.6637C21.9369 23.2243 21.6942 22.6279 21.6942 22.0057V14.674C21.6942 12.7554 22.4425 10.9158 23.7738 9.55974C25.1051 8.20374 26.9103 7.44229 28.7922 7.44229H45.5873C46.1965 7.44229 46.7811 7.68878 47.2125 8.12814C47.6439 8.56757 47.8866 9.16395 47.8866 9.78618C47.8866 10.4084 47.6439 11.0048 47.2125 11.4442C46.7811 11.8836 46.1965 12.1301 45.5873 12.1301H28.7922C28.1287 12.1301 27.4928 12.3986 27.0242 12.8758C26.5557 13.353 26.2928 13.9999 26.2928 14.674V22.0057C26.2928 22.6279 26.0502 23.2243 25.6187 23.6637C25.1874 24.1031 24.6028 24.3496 23.9935 24.3496Z" fill="white" stroke="#FFB335" stroke-width="0.2"/>
<path d="M36.7569 15.4525L36.757 15.4523L42.2754 9.8558L42.3446 9.78559L42.2754 9.71538L36.7571 4.11901C36.7571 4.11897 36.7571 4.11893 36.757 4.11889C36.3238 3.67759 36.0802 3.07872 36.0802 2.4539C36.0802 1.82902 36.3239 1.23009 36.7571 0.788786C37.1903 0.347543 37.7775 0.1 38.3893 0.1C39.0011 0.1 39.5882 0.347543 40.0214 0.788786L47.2193 8.12048L47.2196 8.12077C47.4352 8.33858 47.6065 8.59782 47.7233 8.88358C47.8402 9.16934 47.9004 9.47591 47.9004 9.78559C47.9004 10.0953 47.8402 10.4018 47.7233 10.6876C47.6065 10.9734 47.4352 11.2326 47.2196 11.4504L47.2193 11.4507L40.0217 18.7821C40.0217 18.7822 40.0216 18.7822 40.0215 18.7823C39.8066 18.9993 39.5519 19.171 39.272 19.2874C38.992 19.4039 38.6922 19.463 38.3899 19.4612L38.3887 19.4612C38.0864 19.463 37.7866 19.4039 37.5066 19.2874C37.2266 19.1709 36.9718 18.9992 36.7569 18.7821L36.6858 18.8524L36.7569 18.7821C36.5413 18.5643 36.37 18.305 36.2532 18.0193C36.1363 17.7335 36.0761 17.427 36.0761 17.1173C36.0761 16.8076 36.1363 16.501 36.2532 16.2153C36.37 15.9295 36.5413 15.6703 36.7569 15.4525Z" fill="white" stroke="#FFB335" stroke-width="0.2"/>
</svg>
