<svg width="20" height="22" viewBox="0 0 20 22" fill="none" xmlns="http://www.w3.org/2000/svg">
<path d="M9.94365 0.803711C7.97698 0.803711 6.05448 1.39917 4.41926 2.5148C2.78403 3.63043 1.50953 5.21611 0.75692 7.07133C0.00430841 8.92654 -0.192609 10.968 0.191069 12.9375C0.574747 14.907 1.52179 16.716 2.91243 18.136C4.30308 19.5559 6.07486 20.5229 8.00374 20.9146C9.93262 21.3064 11.932 21.1053 13.7489 20.3369C15.5659 19.5684 17.1189 18.2671 18.2115 16.5974C19.3041 14.9278 19.8873 12.9648 19.8873 10.9567C19.8873 8.26397 18.8397 5.68151 16.9749 3.77746C15.1101 1.8734 12.5809 0.803711 9.94365 0.803711ZM14.4302 10.7197L12.8299 12.3107L13.2069 14.5577C13.2349 14.7245 13.2167 14.896 13.1542 15.0527C13.0917 15.2095 12.9876 15.3452 12.8535 15.4447C12.7194 15.5441 12.5607 15.6033 12.3954 15.6155C12.2301 15.6277 12.0648 15.5925 11.9181 15.5137L9.94267 14.4537L7.96726 15.5137C7.82056 15.5925 7.65522 15.6277 7.48991 15.6155C7.32461 15.6033 7.16595 15.5441 7.03186 15.4447C6.89777 15.3452 6.79361 15.2095 6.73114 15.0527C6.66868 14.896 6.65041 14.7245 6.6784 14.5577L7.05546 12.3107L5.45711 10.7197C5.3382 10.6018 5.25397 10.4523 5.21396 10.288C5.17395 10.1238 5.17975 9.95135 5.23069 9.79029C5.28164 9.62923 5.37571 9.48594 5.50227 9.37662C5.62882 9.26731 5.7828 9.19633 5.9468 9.17171L8.15628 8.84371L9.14742 6.80371C9.22074 6.65186 9.33422 6.524 9.47503 6.43459C9.61583 6.34518 9.77833 6.29779 9.94414 6.29779C10.11 6.29779 10.2725 6.34518 10.4133 6.43459C10.5541 6.524 10.6675 6.65186 10.7409 6.80371L11.7291 8.84371L13.9385 9.17171C14.1023 9.19668 14.2561 9.26785 14.3824 9.37721C14.5087 9.48656 14.6026 9.62977 14.6535 9.79068C14.7044 9.95159 14.7103 10.1238 14.6705 10.288C14.6307 10.4521 14.5468 10.6016 14.4282 10.7197H14.4302Z" fill="#FF722E"/>
<path d="M14.43 10.7198L12.8297 12.3108L13.2068 14.5578C13.2347 14.7246 13.2165 14.896 13.154 15.0528C13.0915 15.2095 12.9874 15.3453 12.8533 15.4447C12.7192 15.5442 12.5605 15.6034 12.3952 15.6156C12.2299 15.6278 12.0646 15.5925 11.9179 15.5138L9.94248 14.4538L7.96707 15.5138C7.82037 15.5925 7.65502 15.6278 7.48972 15.6156C7.32441 15.6034 7.16575 15.5442 7.03166 15.4447C6.89757 15.3453 6.79341 15.2095 6.73095 15.0528C6.66849 14.896 6.65022 14.7246 6.6782 14.5578L7.05527 12.3108L5.45692 10.7198C5.338 10.6019 5.25378 10.4523 5.21377 10.2881C5.17375 10.1238 5.17955 9.95141 5.2305 9.79035C5.28145 9.62929 5.37552 9.486 5.50207 9.37668C5.62862 9.26736 5.78261 9.19639 5.94661 9.17177L8.15609 8.84377L9.14722 6.80377C9.22054 6.65192 9.33403 6.52406 9.47483 6.43465C9.61563 6.34524 9.77814 6.29785 9.94395 6.29785C10.1098 6.29785 10.2723 6.34524 10.4131 6.43465C10.5539 6.52406 10.6673 6.65192 10.7407 6.80377L11.7289 8.84377L13.9383 9.17177C14.1021 9.19673 14.2559 9.26791 14.3822 9.37726C14.5085 9.48662 14.6024 9.62982 14.6533 9.79073C14.7042 9.95165 14.7101 10.1239 14.6703 10.288C14.6305 10.4522 14.5466 10.6017 14.428 10.7198H14.43Z" fill="white"/>
</svg>
