<svg width="59" height="29" viewBox="0 0 59 29" fill="none" xmlns="http://www.w3.org/2000/svg">
<rect y="0.895752" width="58.5" height="27.8571" rx="7.42857" fill="url(#paint0_linear_941_351)"/>
<path d="M11.897 18.9824C11.325 18.9824 10.7864 18.8784 10.2813 18.6704C9.78357 18.4624 9.349 18.1764 8.97757 17.8124C8.60614 17.441 8.31271 17.0101 8.09728 16.5199C7.88928 16.0221 7.78528 15.4873 7.78528 14.9153C7.78528 14.3433 7.893 13.8121 8.10843 13.3219C8.32385 12.8316 8.621 12.4044 8.99985 12.0404C9.38614 11.669 9.83557 11.383 10.3481 11.1824C10.8607 10.9744 11.4104 10.8704 11.9973 10.8704C12.6733 10.8704 13.2861 10.993 13.8359 11.2381C14.393 11.4833 14.8536 11.8213 15.2176 12.2521L14.0253 13.4444C13.7727 13.1176 13.4756 12.8724 13.1339 12.709C12.7921 12.5456 12.4059 12.4639 11.975 12.4639C11.5144 12.4639 11.1021 12.5679 10.7381 12.7759C10.3741 12.9764 10.0881 13.2624 9.88014 13.6339C9.67957 13.9979 9.57928 14.425 9.57928 14.9153C9.57928 15.4056 9.67957 15.8364 9.88014 16.2079C10.0807 16.5793 10.3556 16.869 10.7047 17.077C11.0539 17.285 11.455 17.389 11.9081 17.389C12.3687 17.389 12.7587 17.3036 13.0781 17.1327C13.405 16.9544 13.6539 16.7019 13.8247 16.375C14.003 16.0407 14.0921 15.6359 14.0921 15.1604L15.251 15.9404L11.741 15.8847V14.4027H15.875V14.659C15.875 15.6024 15.7041 16.3973 15.3624 17.0436C15.0281 17.6824 14.5601 18.1653 13.9584 18.4921C13.3641 18.819 12.677 18.9824 11.897 18.9824ZM20.7993 18.9936C20.205 18.9936 19.6553 18.8896 19.1501 18.6816C18.6524 18.4736 18.2141 18.1839 17.8353 17.8124C17.4564 17.441 17.163 17.0101 16.955 16.5199C16.747 16.0221 16.643 15.4873 16.643 14.9153C16.643 14.3359 16.747 13.801 16.955 13.3107C17.163 12.8204 17.4527 12.3933 17.8241 12.0293C18.1956 11.6579 18.6301 11.3719 19.1278 11.1713C19.633 10.9633 20.1827 10.8593 20.777 10.8593C21.3638 10.8593 21.9061 10.9633 22.4038 11.1713C22.909 11.3719 23.3473 11.6579 23.7187 12.0293C24.0976 12.3933 24.391 12.8241 24.599 13.3219C24.807 13.8121 24.911 14.347 24.911 14.9264C24.911 15.4984 24.807 16.0333 24.599 16.531C24.391 17.0213 24.1013 17.4521 23.7298 17.8236C23.3584 18.1876 22.9201 18.4736 22.415 18.6816C21.9173 18.8896 21.3787 18.9936 20.7993 18.9936ZM20.777 17.4001C21.245 17.4001 21.6536 17.2961 22.0027 17.0881C22.3593 16.8801 22.6341 16.5904 22.8273 16.219C23.0204 15.8401 23.117 15.4056 23.117 14.9153C23.117 14.5439 23.0613 14.2096 22.9498 13.9124C22.8384 13.6079 22.6787 13.3479 22.4707 13.1324C22.2627 12.9096 22.0138 12.7424 21.7241 12.631C21.4418 12.5121 21.1261 12.4527 20.777 12.4527C20.309 12.4527 19.8967 12.5567 19.5401 12.7647C19.191 12.9653 18.9198 13.2513 18.7267 13.6227C18.5336 13.9867 18.437 14.4176 18.437 14.9153C18.437 15.2867 18.4927 15.6247 18.6041 15.9293C18.7156 16.2339 18.8716 16.4976 19.0721 16.7204C19.2801 16.9359 19.529 17.103 19.8187 17.2219C20.1084 17.3407 20.4278 17.4001 20.777 17.4001ZM29.4806 15.9961V14.6367H31.1743C31.3897 14.6367 31.5866 14.5921 31.7649 14.503C31.9432 14.4139 32.0843 14.2839 32.1883 14.113C32.2923 13.9421 32.3443 13.7341 32.3443 13.489C32.3443 13.2513 32.2923 13.047 32.1883 12.8761C32.0843 12.7053 31.9432 12.5753 31.7649 12.4861C31.5866 12.397 31.3897 12.3524 31.1743 12.3524H29.4806V10.993H31.4306C31.9283 10.993 32.3777 11.0933 32.7789 11.2939C33.18 11.4944 33.4957 11.7841 33.726 12.163C33.9637 12.5344 34.0826 12.9764 34.0826 13.489C34.0826 14.0016 33.9637 14.4473 33.726 14.8261C33.4957 15.1976 33.18 15.4873 32.7789 15.6953C32.3777 15.8959 31.9283 15.9961 31.4306 15.9961H29.4806ZM28.1435 18.8599V10.993H29.8929V18.8599H28.1435ZM36.4014 15.6173V14.3247H38.0616C38.4108 14.3247 38.6782 14.2356 38.8639 14.0573C39.0571 13.879 39.1536 13.6376 39.1536 13.333C39.1536 13.0507 39.0608 12.8167 38.8751 12.631C38.6894 12.4453 38.4219 12.3524 38.0728 12.3524H36.4014V10.993H38.2734C38.7934 10.993 39.2502 11.0933 39.6439 11.2939C40.0376 11.487 40.3459 11.7581 40.5688 12.1073C40.7916 12.4564 40.9031 12.8576 40.9031 13.3107C40.9031 13.7713 40.7916 14.1761 40.5688 14.5253C40.3459 14.867 40.0339 15.1344 39.6328 15.3276C39.2316 15.5207 38.7599 15.6173 38.2176 15.6173H36.4014ZM35.0642 18.8599V10.993H36.8136V18.8599H35.0642ZM39.3431 18.8599L36.8916 15.4724L38.4962 15.0379L41.4156 18.8599H39.3431ZM45.9033 18.9936C45.3091 18.9936 44.7593 18.8896 44.2542 18.6816C43.7565 18.4736 43.3182 18.1839 42.9393 17.8124C42.5605 17.441 42.2671 17.0101 42.0591 16.5199C41.8511 16.0221 41.7471 15.4873 41.7471 14.9153C41.7471 14.3359 41.8511 13.801 42.0591 13.3107C42.2671 12.8204 42.5568 12.3933 42.9282 12.0293C43.2996 11.6579 43.7342 11.3719 44.2319 11.1713C44.7371 10.9633 45.2868 10.8593 45.8811 10.8593C46.4679 10.8593 47.0102 10.9633 47.5079 11.1713C48.0131 11.3719 48.4513 11.6579 48.8228 12.0293C49.2016 12.3933 49.4951 12.8241 49.7031 13.3219C49.9111 13.8121 50.0151 14.347 50.0151 14.9264C50.0151 15.4984 49.9111 16.0333 49.7031 16.531C49.4951 17.0213 49.2053 17.4521 48.8339 17.8236C48.4625 18.1876 48.0242 18.4736 47.5191 18.6816C47.0213 18.8896 46.4828 18.9936 45.9033 18.9936ZM45.8811 17.4001C46.3491 17.4001 46.7576 17.2961 47.1068 17.0881C47.4633 16.8801 47.7382 16.5904 47.9313 16.219C48.1245 15.8401 48.2211 15.4056 48.2211 14.9153C48.2211 14.5439 48.1653 14.2096 48.0539 13.9124C47.9425 13.6079 47.7828 13.3479 47.5748 13.1324C47.3668 12.9096 47.1179 12.7424 46.8282 12.631C46.5459 12.5121 46.2302 12.4527 45.8811 12.4527C45.4131 12.4527 45.0008 12.5567 44.6442 12.7647C44.2951 12.9653 44.0239 13.2513 43.8308 13.6227C43.6376 13.9867 43.5411 14.4176 43.5411 14.9153C43.5411 15.2867 43.5968 15.6247 43.7082 15.9293C43.8196 16.2339 43.9756 16.4976 44.1762 16.7204C44.3842 16.9359 44.6331 17.103 44.9228 17.2219C45.2125 17.3407 45.5319 17.4001 45.8811 17.4001Z" fill="#1A1A1A"/>
<defs>
<linearGradient id="paint0_linear_941_351" x1="58.5" y1="28.7529" x2="-1.22363e-06" y2="0.895755" gradientUnits="userSpaceOnUse">
<stop stop-color="#D5C0A2"/>
<stop offset="1" stop-color="#F0B769"/>
</linearGradient>
</defs>
</svg>
