<svg width="24" height="22" viewBox="0 0 24 22" fill="none" xmlns="http://www.w3.org/2000/svg">
<path d="M10.7346 10.0519C10.9552 9.85154 11.268 9.72158 11.6784 9.6891V12.1744C11.1757 12.0066 10.8321 11.8117 10.6423 11.6438C10.4526 11.4434 10.3602 11.2106 10.3602 10.8803C10.391 10.55 10.5141 10.2847 10.7346 10.0519ZM23.9824 7.83184V18.8996C23.9824 20.3237 22.9156 21.45 21.5667 21.45H2.41568C1.0668 21.45 0 20.3237 0 18.8996V7.83184C0 6.40776 1.0668 5.28149 2.41568 5.28149H21.5616C22.8848 5.28144 23.9824 6.44025 23.9824 7.83184ZM15.6327 15.3854C15.6327 14.5568 15.3814 13.9288 14.8787 13.4631C14.3761 12.9974 13.6222 12.6672 12.5862 12.4343H12.5554V9.74855C13.2478 9.84601 13.9043 10.1438 14.4992 10.577L15.3762 9.25039C14.4992 8.62228 13.5555 8.25408 12.5503 8.1891V7.45811H11.6732V8.15662C10.7962 8.1891 10.1038 8.48691 9.53963 9.01756C9.00623 9.5482 8.72414 10.2088 8.72414 11.0373C8.72414 11.8657 8.97546 12.4938 9.44731 12.8945C9.91916 13.3277 10.6731 13.6581 11.6784 13.9233V16.7065C10.8629 16.5765 10.1089 16.1434 9.32422 15.4449L8.31897 16.7065C9.29344 17.5999 10.4218 18.1306 11.6476 18.2659V19.3273H12.5246V18.2985C13.4324 18.2659 14.1862 17.9681 14.7557 17.4376C15.3506 16.8799 15.6327 16.2139 15.6327 15.3854ZM12.5554 14.1616V16.7445C12.9965 16.7119 13.3401 16.5765 13.5914 16.3492C13.8427 16.1163 13.9658 15.851 13.9658 15.5207C13.9658 15.1903 13.8735 14.925 13.6837 14.7248C13.4683 14.5245 13.1196 14.3295 12.5554 14.1616Z" fill="white"/>
<path d="M19.9294 2.0652C19.5191 0.473262 18.3292 -0.12236 16.9495 0.278331L4.76855 3.72211H20.3397L19.9294 2.0652Z" fill="#A9A9A9"/>
</svg>
