<svg width="26" height="29" viewBox="0 0 26 29" fill="none" xmlns="http://www.w3.org/2000/svg">
<path d="M22.7256 5.16633L15.4727 0.978355C14.7079 0.584113 13.8599 0.378418 12.9995 0.378418C12.139 0.378418 11.291 0.584113 10.5262 0.978355L3.21304 5.20278C0.313567 7.16568 0.141113 7.46432 0.141113 10.5923V18.2055C0.141113 21.3336 0.313568 21.635 3.27333 23.6315L10.5262 27.8195C11.2855 28.2284 12.1372 28.4351 12.9995 28.4196C13.8616 28.4341 14.7131 28.2275 15.4727 27.8195L22.7859 23.5951C25.6854 21.6322 25.8578 21.3336 25.8578 18.2055V10.5923C25.8578 7.46432 25.6854 7.16287 22.7256 5.16633ZM12.9995 18.9557C12.0982 18.9557 11.2172 18.6884 10.4679 18.1877C9.71854 17.687 9.1345 16.9753 8.78961 16.1427C8.44472 15.3101 8.35448 14.3939 8.53031 13.51C8.70613 12.626 9.14011 11.8141 9.77738 11.1769C10.4147 10.5396 11.2266 10.1056 12.1105 9.92978C12.9944 9.75395 13.9106 9.84419 14.7432 10.1891C15.5759 10.534 16.2875 11.118 16.7882 11.8674C17.2889 12.6167 17.5562 13.4977 17.5562 14.3989C17.5547 15.607 17.0741 16.7652 16.2199 17.6194C15.3657 18.4736 14.2075 18.9542 12.9995 18.9557Z" fill="#686868"/>
</svg>
