<svg width="19" height="21" viewBox="0 0 19 21" fill="none" xmlns="http://www.w3.org/2000/svg">
<path d="M13.2923 10.0727L12.3631 9.73918C11.5164 9.43367 10.8548 8.77271 10.55 7.92539L10.2158 6.99619L10.2145 6.99353C10.106 6.69533 9.81911 6.49365 9.50028 6.49365C9.18145 6.49365 8.89457 6.69533 8.78408 6.99686L8.45061 7.92605C8.14509 8.77271 7.48414 9.43433 6.63681 9.73918L5.70562 10.0747C5.40676 10.1831 5.20508 10.4707 5.20508 10.7889C5.20508 11.107 5.40676 11.3946 5.70828 11.5051L6.63748 11.8385C7.48414 12.144 8.14576 12.805 8.45061 13.6523L8.78608 14.5835C8.89524 14.8824 9.18278 15.0841 9.50094 15.0841C9.81911 15.0841 10.1067 14.8824 10.2171 14.5809L10.5506 13.6517C10.8561 12.805 11.5171 12.1434 12.3644 11.8385L13.2956 11.5031C13.5945 11.3939 13.7961 11.1064 13.7961 10.7882C13.7961 10.47 13.5938 10.1831 13.2923 10.0727Z" fill="white"/>
<path d="M17.0889 6.21747C16.8986 5.9033 16.4899 5.80479 16.1744 5.99316C15.8602 6.18352 15.7597 6.59287 15.9501 6.90771C16.657 8.07386 17.0304 9.4164 17.0304 10.7896C17.0304 14.941 13.6524 18.3196 9.50028 18.3196C8.78874 18.3196 8.09517 18.2158 7.4249 18.0234L8.08585 17.7059C8.41666 17.5469 8.55644 17.1488 8.39736 16.8174C8.23895 16.4865 7.83958 16.3468 7.50877 16.5058L5.42873 17.5063C5.26232 17.5868 5.13652 17.7326 5.08194 17.909C5.02736 18.0853 5.04866 18.2764 5.14052 18.4368L6.2907 20.439C6.41317 20.6533 6.63748 20.7731 6.86845 20.7731C6.98094 20.7731 7.09476 20.7445 7.19926 20.6846C7.51809 20.5015 7.62858 20.0942 7.44487 19.776L7.19194 19.3354C7.93942 19.5377 8.71087 19.6502 9.50095 19.6502C14.3872 19.6502 18.3623 15.6752 18.3623 10.7889C18.3616 9.17279 17.9216 7.59129 17.0889 6.21747Z" fill="white"/>
<path d="M9.49967 3.25876C10.2112 3.25876 10.9054 3.3626 11.5751 3.55496L10.9141 3.87246C10.5833 4.03154 10.4435 4.42957 10.6026 4.76105C10.7171 4.99867 10.9547 5.13779 11.203 5.13779C11.3002 5.13779 11.398 5.11715 11.4912 5.07189L13.5712 4.07147C13.7376 3.99093 13.8634 3.84516 13.918 3.66878C13.9726 3.49239 13.952 3.30069 13.8594 3.14028L12.7093 1.13812C12.5269 0.819288 12.1202 0.709462 11.8007 0.892505C11.4819 1.07555 11.3714 1.4829 11.5551 1.80107L11.808 2.2417C11.0605 2.03936 10.2891 1.92687 9.499 1.92687C4.61274 1.92687 0.637695 5.90191 0.637695 10.7882C0.637695 12.4049 1.07767 13.9864 1.91035 15.3603C2.03548 15.5666 2.2558 15.6804 2.48011 15.6804C2.59793 15.6804 2.71641 15.6491 2.8249 15.5839C3.13907 15.3936 3.23958 14.9842 3.04921 14.6694C2.34233 13.5032 1.96892 12.1607 1.96892 10.7875C1.97025 6.63675 5.34824 3.25876 9.49967 3.25876Z" fill="white"/>
</svg>
