<svg width="40" height="40" viewBox="0 0 40 40" fill="none" xmlns="http://www.w3.org/2000/svg">
<path d="M28.5584 18.5661L26.4614 17.8981C24.5507 17.2861 23.0576 15.9621 22.3697 14.2649L21.6156 12.4036L21.6126 12.3983C21.3677 11.801 20.7203 11.397 20.0008 11.397C19.2813 11.397 18.6339 11.801 18.3845 12.4049L17.632 14.2662C16.9425 15.9621 15.4509 17.2874 13.5387 17.8981L11.4372 18.5701C10.7628 18.7874 10.3076 19.3634 10.3076 20.0007C10.3076 20.638 10.7628 21.214 11.4432 21.4353L13.5402 22.1033C15.4509 22.7152 16.944 24.0392 17.632 25.7365L18.389 27.6017C18.6354 28.2004 19.2843 28.6044 20.0023 28.6044C20.7203 28.6044 21.3692 28.2004 21.6186 27.5964L22.3712 25.7351C23.0606 24.0392 24.5522 22.7139 26.4644 22.1033L28.5659 21.4313C29.2404 21.2126 29.6955 20.6367 29.6955 19.9993C29.6955 19.362 29.2389 18.7874 28.5584 18.5661Z" fill="white"/>
<path d="M37.1262 10.8439C36.6966 10.2146 35.7743 10.0172 35.0623 10.3946C34.3533 10.7759 34.1265 11.5959 34.5561 12.2265C36.1513 14.5624 36.994 17.2517 36.994 20.0022C36.994 28.318 29.3707 35.0857 20.0005 35.0857C18.3947 35.0857 16.8295 34.8777 15.3169 34.4924L16.8085 33.8564C17.5551 33.5378 17.8705 32.7405 17.5115 32.0765C17.154 31.4138 16.2527 31.1339 15.5062 31.4525L10.812 33.4564C10.4365 33.6178 10.1526 33.9098 10.0294 34.2631C9.90625 34.6164 9.95431 34.9991 10.1616 35.3204L12.7573 39.3309C13.0337 39.7602 13.5399 40.0002 14.0611 40.0002C14.315 40.0002 14.5718 39.9429 14.8077 39.8229C15.5272 39.4562 15.7765 38.6403 15.362 38.003L14.7911 37.1203C16.478 37.5256 18.219 37.751 20.002 37.751C31.0291 37.751 39.9998 29.7886 39.9998 20.0009C39.9983 16.7637 39.0053 13.5958 37.1262 10.8439Z" fill="white"/>
<path d="M19.9993 4.91721C21.605 4.91721 23.1717 5.1252 24.6829 5.51052L23.1913 6.1465C22.4447 6.46516 22.1293 7.26246 22.4883 7.92644C22.7466 8.40242 23.2829 8.68108 23.8432 8.68108C24.0625 8.68108 24.2833 8.63975 24.4936 8.54909L29.1877 6.54516C29.5633 6.38383 29.8472 6.09184 29.9703 5.73852C30.0935 5.3852 30.0469 5.00121 29.8382 4.67989L27.2425 0.669358C26.8309 0.0307129 25.9131 -0.18928 25.1921 0.177374C24.4726 0.544028 24.2232 1.36 24.6378 1.99731L25.2086 2.87995C23.5217 2.47463 21.7808 2.2493 19.9977 2.2493C8.97067 2.2493 0 10.2117 0 19.9994C0 23.2379 0.992903 26.4058 2.87206 29.1577C3.15446 29.571 3.65166 29.799 4.15787 29.799C4.42375 29.799 4.69113 29.7364 4.93597 29.6057C5.64497 29.2244 5.87179 28.4044 5.44219 27.7738C3.84693 25.4378 3.00424 22.7486 3.00424 19.998C3.00725 11.6836 10.6305 4.91721 19.9993 4.91721Z" fill="white"/>
</svg>
