<svg width="32" height="30" viewBox="0 0 32 30" fill="none" xmlns="http://www.w3.org/2000/svg">
<path d="M24.0983 29.85H7.56504C5.64705 29.8481 3.80817 29.0853 2.45195 27.7291C1.09573 26.3729 0.33297 24.534 0.331055 22.616V6.07792C0.333289 4.70844 0.87855 3.39574 1.84726 2.42771C2.81597 1.45968 4.12904 0.915338 5.49852 0.914062H9.63155C10.4334 0.916108 11.2239 1.10373 11.9411 1.46225C12.6584 1.82076 13.2829 2.34043 13.7658 2.98057L15.0052 4.63353C15.1017 4.76169 15.2266 4.86574 15.3701 4.93749C15.5136 5.00924 15.6718 5.04675 15.8323 5.04708H24.0995C26.0175 5.04899 27.8564 5.81176 29.2126 7.16798C30.5688 8.5242 31.3316 10.3631 31.3335 12.2811V22.616C31.3316 24.5342 30.5686 26.3733 29.2122 27.7295C27.8557 29.0858 26.0165 29.8484 24.0983 29.85ZM5.23931 10.9862C4.96537 10.9865 4.70275 11.0955 4.50904 11.2892C4.31534 11.4829 4.20638 11.7455 4.20606 12.0194C4.20606 12.2936 4.31488 12.5565 4.50862 12.7505C4.70236 12.9444 4.96516 13.0536 5.23931 13.0539H11.9561C12.2302 13.0536 12.493 12.9444 12.6868 12.7505C12.8805 12.5565 12.9893 12.2936 12.9893 12.0194C12.989 11.7455 12.88 11.4829 12.6863 11.2892C12.4926 11.0955 12.23 10.9865 11.9561 10.9862H5.23931Z" fill="url(#paint0_linear_243_28320)"/>
<defs>
<linearGradient id="paint0_linear_243_28320" x1="0.331055" y1="-8.36454" x2="47.7856" y2="-5.1635" gradientUnits="userSpaceOnUse">
<stop stop-color="#FFE53B"/>
<stop offset="1" stop-color="#FF2525"/>
</linearGradient>
</defs>
</svg>
