<svg width="106" height="106" viewBox="0 0 106 106" fill="none" xmlns="http://www.w3.org/2000/svg">
<g opacity="0.4">
<path d="M90.5568 51.8373C90.4595 51.8374 90.3644 51.8087 90.2834 51.7548C90.2024 51.7008 90.1392 51.6241 90.1018 51.5343C90.0644 51.4444 90.0544 51.3455 90.0732 51.2501C90.0919 51.1546 90.1386 51.0668 90.2072 50.9978L91.5908 49.6083C91.6364 49.5625 91.6906 49.526 91.7503 49.5011C91.8099 49.4762 91.8739 49.4633 91.9386 49.4631C92.0033 49.4629 92.0673 49.4754 92.1271 49.5C92.187 49.5245 92.2414 49.5607 92.2872 49.6062C92.3331 49.6518 92.3695 49.706 92.3945 49.7657C92.4194 49.8254 92.4323 49.8893 92.4325 49.954C92.4327 50.0187 92.4201 50.0828 92.3956 50.1426C92.371 50.2024 92.3349 50.2568 92.2893 50.3027L90.9057 51.6921C90.86 51.7382 90.8057 51.7748 90.7458 51.7997C90.686 51.8246 90.6217 51.8374 90.5568 51.8373ZM93.3216 49.0601C93.2571 49.0604 93.1932 49.0479 93.1336 49.0233C93.074 48.9986 93.0199 48.9623 92.9745 48.9165C92.8822 48.8241 92.8303 48.6988 92.8303 48.5681C92.8303 48.4375 92.8822 48.3122 92.9745 48.2197L94.3581 46.831C94.4512 46.7425 94.5752 46.6937 94.7037 46.6952C94.8323 46.6967 94.9551 46.7483 95.0461 46.839C95.1372 46.9297 95.1892 47.0524 95.1912 47.1809C95.1931 47.3094 95.1448 47.4336 95.0566 47.527L93.6729 48.9157C93.6269 48.9619 93.5722 48.9985 93.5118 49.0233C93.4515 49.0481 93.3868 49.0606 93.3216 49.0601ZM96.088 46.2828C95.9906 46.283 95.8952 46.2544 95.8141 46.2004C95.7329 46.1464 95.6696 46.0696 95.6321 45.9796C95.5947 45.8896 95.5848 45.7905 95.6037 45.6949C95.6226 45.5992 95.6695 45.5114 95.7384 45.4424L97.122 44.0538C97.2151 43.9652 97.3391 43.9165 97.4677 43.9179C97.5962 43.9194 97.719 43.971 97.8101 44.0617C97.9011 44.1525 97.9532 44.2751 97.9551 44.4036C97.9571 44.5321 97.9088 44.6563 97.8205 44.7498L96.4369 46.1384C96.3912 46.1841 96.3369 46.2203 96.2772 46.2449C96.2175 46.2696 96.1535 46.2821 96.0889 46.2819L96.088 46.2828ZM98.8537 43.5055C98.7563 43.5056 98.6612 43.4769 98.5802 43.4229C98.4992 43.369 98.436 43.2923 98.3986 43.2024C98.3612 43.1126 98.3512 43.0137 98.37 42.9182C98.3888 42.8228 98.4354 42.735 98.504 42.666L99.886 41.2765C99.978 41.1839 100.103 41.1316 100.234 41.1312C100.364 41.1308 100.49 41.1823 100.582 41.2744C100.675 41.3665 100.727 41.4916 100.728 41.6222C100.728 41.7528 100.676 41.8782 100.584 41.9708L99.2016 43.3603C99.1096 43.4525 98.9847 43.5044 98.8545 43.5047L98.8537 43.5055ZM101.619 40.7257C101.555 40.7261 101.491 40.7136 101.431 40.6889C101.372 40.6643 101.317 40.628 101.272 40.5822C101.226 40.5365 101.19 40.4822 101.165 40.4224C101.14 40.3626 101.127 40.2985 101.127 40.2338C101.127 40.169 101.14 40.1049 101.165 40.0451C101.19 39.9853 101.226 39.931 101.272 39.8853L102.656 38.4967C102.749 38.4081 102.873 38.3594 103.001 38.3609C103.13 38.3624 103.253 38.414 103.344 38.5047C103.435 38.5954 103.487 38.7181 103.489 38.8466C103.491 38.9751 103.442 39.0993 103.354 39.1927L101.971 40.5813C101.925 40.6276 101.87 40.6642 101.809 40.689C101.749 40.7138 101.684 40.7262 101.619 40.7257Z" fill="#4B4B4B"/>
<path d="M104.387 37.9494C104.289 37.9495 104.194 37.9208 104.113 37.8668C104.032 37.8129 103.969 37.7361 103.932 37.6463C103.894 37.5565 103.884 37.4576 103.903 37.3621C103.922 37.2666 103.968 37.1789 104.037 37.1099L104.371 36.776L104.023 36.4498C103.927 36.3606 103.871 36.2371 103.867 36.1066C103.863 35.9761 103.91 35.8492 103.999 35.7538C104.089 35.6584 104.212 35.6023 104.343 35.5979C104.473 35.5936 104.6 35.6412 104.695 35.7304L105.787 36.7493L104.733 37.8083C104.641 37.8993 104.516 37.95 104.387 37.9494Z" fill="#4B4B4B"/>
<path d="M103.078 35.3785C102.954 35.3777 102.835 35.3303 102.744 35.2458L101.461 34.0458C101.37 33.9553 101.318 33.833 101.315 33.7047C101.313 33.5765 101.361 33.4524 101.449 33.3588C101.536 33.2652 101.657 33.2094 101.785 33.2034C101.913 33.1974 102.039 33.2415 102.135 33.3264L103.419 34.5256C103.49 34.5931 103.54 34.6805 103.562 34.7767C103.584 34.8728 103.576 34.9733 103.54 35.0651C103.504 35.1569 103.442 35.2358 103.361 35.2917C103.279 35.3475 103.183 35.3778 103.085 35.3785H103.078ZM100.509 32.9784C100.385 32.978 100.266 32.9306 100.176 32.8458L98.893 31.6465C98.804 31.5558 98.7535 31.4343 98.752 31.3073C98.7505 31.1802 98.798 31.0575 98.8847 30.9647C98.9714 30.8718 99.0906 30.816 99.2175 30.8089C99.3443 30.8017 99.469 30.8438 99.5656 30.9264L100.849 32.1264C100.921 32.1937 100.971 32.2811 100.993 32.3773C101.015 32.4734 101.007 32.5739 100.971 32.6657C100.935 32.7575 100.873 32.8364 100.791 32.8921C100.71 32.9479 100.614 32.978 100.515 32.9784H100.509Z" fill="#4B4B4B"/>
<path d="M3.01582 20.9148C2.62006 21.239 2.33465 21.6779 2.19893 22.1712C2.06321 22.6645 2.08387 23.1877 2.25807 23.6687L21.0348 75.1585C21.2595 75.7725 21.7186 76.2723 22.3114 76.5483C22.9042 76.8243 23.5822 76.8539 24.1968 76.6306L59.7473 63.6672C60.3616 63.4432 60.8619 62.9843 61.1379 62.3914C61.414 61.7986 61.4433 61.1204 61.2194 60.506L42.4427 9.01619C42.3318 8.71182 42.1621 8.43229 41.9432 8.19355C41.7243 7.95482 41.4604 7.76158 41.1668 7.62486C40.8731 7.48815 40.5554 7.41064 40.2318 7.39679C39.9081 7.38293 39.585 7.43299 39.2807 7.5441L3.73017 20.5067C3.4709 20.6018 3.22943 20.7397 3.01582 20.9148Z" fill="white"/>
<path d="M61.6646 64.7237C61.2847 65.0341 60.855 65.2779 60.3936 65.4448L24.8431 78.4082C23.7566 78.8031 22.5577 78.7509 21.5095 78.2631C20.4614 77.7753 19.6494 76.8918 19.2519 75.8062L0.475172 24.3163C0.0805418 23.2296 0.132932 22.0308 0.620858 20.9827C1.10879 19.9345 1.99243 19.1227 3.07804 18.7251L38.6286 5.76246C39.7152 5.36622 40.9147 5.41783 41.9632 5.90596C43.0118 6.39408 43.8235 7.27874 44.2198 8.36533L62.9965 59.8552C63.3052 60.7051 63.3425 61.6298 63.1033 62.5018C62.8642 63.3739 62.3603 64.1502 61.6613 64.7237H61.6646ZM3.01712 20.9115C2.62136 21.2357 2.33593 21.6747 2.20021 22.1679C2.06449 22.6612 2.08517 23.1844 2.25937 23.6654L21.0361 75.1552C21.2608 75.7692 21.7199 76.269 22.3127 76.545C22.9055 76.821 23.5835 76.8506 24.198 76.6273L59.7486 63.6639C60.3629 63.4399 60.8632 62.981 61.1392 62.3882C61.4153 61.7954 61.4446 61.1172 61.2206 60.5028L42.444 9.01292C42.3331 8.70855 42.1634 8.429 41.9445 8.19026C41.7256 7.95153 41.4617 7.75829 41.1681 7.62157C40.8744 7.48486 40.5567 7.40736 40.2331 7.3935C39.9094 7.37964 39.5863 7.4297 39.282 7.54082L3.73146 20.5034C3.47313 20.5999 3.23281 20.7389 3.02046 20.9148L3.01712 20.9115Z" fill="#48474D"/>
<path d="M54.7183 56.374C54.3592 56.6674 53.9532 56.8981 53.5174 57.0566L25.2756 67.3563C24.2483 67.7307 23.1143 67.6818 22.1231 67.2203C21.1318 66.7588 20.3645 65.9225 19.9898 64.8953L9.22445 35.385C8.84998 34.3577 8.89888 33.2237 9.36039 32.2325C9.8219 31.2412 10.6582 30.4739 11.6855 30.0992L39.9256 19.7995C40.9532 19.4261 42.0869 19.4755 43.0781 19.9369C44.0693 20.3982 44.8371 21.2339 45.2131 22.2605L55.9734 51.7716C56.2662 52.5748 56.3022 53.4491 56.0766 54.2737C55.8511 55.0983 55.375 55.8325 54.7141 56.3748L54.7183 56.374ZM11.3884 31.8792C10.9557 32.2351 10.644 32.7164 10.4962 33.2569C10.3484 33.7973 10.3718 34.3702 10.563 34.8968L21.3283 64.4071C21.574 65.0804 22.077 65.6286 22.7267 65.9313C23.3764 66.2339 24.1197 66.2662 24.7932 66.021L53.0342 55.7222C53.7076 55.4764 54.2558 54.9732 54.5583 54.3233C54.8608 53.6734 54.8928 52.93 54.6473 52.2565L43.887 22.7454C43.6403 22.0725 43.1369 21.5249 42.4871 21.2225C41.8373 20.9201 41.0941 20.8877 40.4205 21.1322L12.1803 31.4311C11.8927 31.535 11.6246 31.6868 11.3875 31.88L11.3884 31.8792Z" fill="#48474D"/>
<path d="M38.4303 45.7555C38.3208 45.8451 38.1871 45.8999 38.0462 45.9128C37.9054 45.9257 37.7639 45.8962 37.64 45.8281C36.7532 45.3418 35.7794 45.0351 34.774 44.9255C33.7687 44.8159 32.7516 44.9055 31.7809 45.1893C30.8103 45.473 29.905 45.9453 29.117 46.5792C28.329 47.213 27.6737 47.9959 27.1885 48.8832C27.1449 48.9673 27.085 49.0418 27.0122 49.1024C26.9395 49.163 26.8554 49.2084 26.7648 49.236C26.6742 49.2636 26.5791 49.2728 26.4849 49.2631C26.3907 49.2533 26.2994 49.2249 26.2164 49.1794C26.1334 49.1338 26.0603 49.0722 26.0015 48.998C25.9426 48.9239 25.8992 48.8387 25.8738 48.7475C25.8483 48.6563 25.8414 48.5609 25.8533 48.467C25.8653 48.3731 25.8959 48.2825 25.9433 48.2006C26.518 47.1497 27.2942 46.2224 28.2275 45.4717C29.1608 44.721 30.2329 44.1616 31.3825 43.8256C32.5322 43.4895 33.7368 43.3833 34.9274 43.5132C36.1181 43.643 37.2716 44.0062 38.3218 44.5821C38.4237 44.638 38.5104 44.718 38.5742 44.8152C38.638 44.9124 38.677 45.0238 38.6877 45.1395C38.6984 45.2553 38.6806 45.3719 38.6357 45.4792C38.5908 45.5864 38.5202 45.681 38.4303 45.7546V45.7555Z" fill="#4B4B4B"/>
<path d="M27.8296 40.6851C27.409 41.0294 26.8958 41.2412 26.3548 41.2938C25.8137 41.3464 25.2693 41.2373 24.7902 40.9805C24.3112 40.7236 23.9191 40.3304 23.6635 39.8507C23.408 39.371 23.3004 38.8262 23.3544 38.2854C23.4085 37.7445 23.6217 37.2318 23.9672 36.8121C24.3126 36.3925 24.7748 36.0847 25.2952 35.9277C25.8156 35.7707 26.3709 35.7715 26.8908 35.9301C27.4107 36.0888 27.8719 36.398 28.216 36.8187C28.6759 37.3833 28.8934 38.1071 28.821 38.8317C28.7485 39.5562 28.3921 40.2226 27.8296 40.6851ZM24.9489 37.1642C24.6735 37.3901 24.4712 37.6926 24.3677 38.0334C24.2642 38.3742 24.2641 38.7381 24.3674 39.0789C24.4707 39.4198 24.6728 39.7224 24.948 39.9485C25.2233 40.1745 25.5594 40.3138 25.9139 40.3489C26.2683 40.3839 26.6252 40.313 26.9394 40.1452C27.2536 39.9774 27.5109 39.7201 27.6789 39.4061C27.8469 39.092 27.918 38.7351 27.8832 38.3807C27.8484 38.0262 27.7092 37.69 27.4833 37.4146C27.18 37.0458 26.7429 36.8124 26.2677 36.7656C25.7926 36.7189 25.3182 36.8617 24.9489 37.1642Z" fill="#4B4B4B"/>
<path d="M10.9299 27.2085C10.421 27.6245 9.80009 27.8802 9.1458 27.9434C8.4915 28.0066 7.83317 27.8744 7.25402 27.5634C6.67488 27.2525 6.20093 26.7768 5.89211 26.1965C5.58328 25.6162 5.45345 24.9574 5.51902 24.3034C5.58459 23.6493 5.84262 23.0294 6.26048 22.522C6.67835 22.0145 7.23729 21.6424 7.86663 21.4526C8.49597 21.2628 9.16747 21.2639 9.7962 21.4557C10.4249 21.6475 10.9827 22.0214 11.3989 22.5302C11.9562 23.2131 12.2199 24.0892 12.1319 24.9663C12.044 25.8434 11.6117 26.6498 10.9299 27.2085ZM7.31979 22.7955C6.95601 23.0934 6.68874 23.4925 6.55175 23.9423C6.41477 24.3921 6.41423 24.8724 6.5502 25.3225C6.68617 25.7726 6.95256 26.1723 7.31567 26.471C7.67877 26.7698 8.1223 26.9541 8.59017 27.0008C9.05805 27.0475 9.52924 26.9544 9.9442 26.7332C10.3592 26.5121 10.6993 26.173 10.9215 25.7586C11.1437 25.3442 11.238 24.8732 11.1926 24.4052C11.1472 23.9373 10.964 23.4932 10.6662 23.1293C10.2664 22.6418 9.68946 22.3328 9.06205 22.2702C8.43464 22.2076 7.80803 22.3966 7.31979 22.7955Z" fill="#4B4B4B"/>
<path d="M34.8761 18.2223C34.4148 18.5997 33.852 18.8318 33.2588 18.8893C32.6656 18.9468 32.0687 18.8271 31.5435 18.5454C31.0183 18.2637 30.5885 17.8325 30.3083 17.3065C30.0282 16.7805 29.9103 16.1832 29.9695 15.5902C30.0288 14.9972 30.2626 14.435 30.6413 13.9749C31.0201 13.5147 31.5268 13.1772 32.0973 13.005C32.6679 12.8328 33.2767 12.8336 33.8467 13.0074C34.4168 13.1812 34.9226 13.5201 35.3 13.9813C35.8054 14.6002 36.0447 15.3944 35.9652 16.1895C35.8857 16.9846 35.494 17.7157 34.8761 18.2223ZM31.4796 14.0714C31.1198 14.3655 30.8553 14.7597 30.7195 15.2041C30.5836 15.6485 30.5826 16.1232 30.7166 16.5682C30.8505 17.0132 31.1133 17.4085 31.4719 17.7041C31.8304 17.9997 32.2686 18.1824 32.7309 18.2291C33.1933 18.2757 33.6591 18.1843 34.0694 17.9662C34.4798 17.7482 34.8163 17.4134 35.0365 17.0041C35.2566 16.5949 35.3505 16.1295 35.3062 15.667C35.2619 15.2044 35.0814 14.7653 34.7876 14.4053C34.3927 13.923 33.8227 13.6171 33.2026 13.5545C32.5825 13.492 31.9629 13.6779 31.4796 14.0714Z" fill="#4B4B4B"/>
<path d="M40.868 16.1711C40.4069 16.5485 39.8441 16.7807 39.251 16.8383C38.658 16.8959 38.0611 16.7763 37.536 16.4946C37.0109 16.213 36.581 15.7819 36.3009 15.256C36.0208 14.7301 35.9029 14.1329 35.9622 13.5399C36.0215 12.947 36.2553 12.385 36.6341 11.9249C37.0128 11.4649 37.5195 11.1275 38.09 10.9555C38.6605 10.7834 39.2692 10.7844 39.8392 10.9583C40.4091 11.1322 40.9147 11.4713 41.2919 11.9325C41.797 12.5512 42.036 13.3449 41.9565 14.1395C41.877 14.9341 41.4856 15.6648 40.868 16.1711ZM37.4723 12.021C37.1123 12.315 36.8475 12.7091 36.7115 13.1536C36.5754 13.598 36.5742 14.0728 36.7081 14.5179C36.8419 14.963 37.1047 15.3585 37.4633 15.6542C37.8218 15.95 38.2601 16.1328 38.7225 16.1794C39.185 16.2261 39.6509 16.1346 40.0613 15.9165C40.4718 15.6984 40.8083 15.3635 41.0284 14.9541C41.2485 14.5447 41.3423 14.0792 41.2978 13.6166C41.2534 13.1539 41.0727 12.7148 40.7787 12.3548C40.3842 11.8723 39.8143 11.5661 39.1942 11.5035C38.574 11.4409 37.9544 11.627 37.4715 12.021H37.4723Z" fill="#4B4B4B"/>
<path d="M35.4947 37.8388C35.074 38.183 34.5607 38.3947 34.0196 38.4472C33.4786 38.4996 32.9342 38.3905 32.4552 38.1335C31.9762 37.8765 31.5842 37.4833 31.3288 37.0035C31.0733 36.5237 30.9659 35.9789 31.02 35.4381C31.0742 34.8972 31.2875 34.3846 31.6331 33.965C31.9786 33.5454 32.4408 33.2377 32.9613 33.0808C33.4817 32.9239 34.0369 32.9249 34.5568 33.0836C35.0767 33.2423 35.5378 33.5516 35.8819 33.9724C36.3416 34.5372 36.559 35.261 36.4864 35.9856C36.4138 36.7101 36.0573 37.3765 35.4947 37.8388ZM32.6139 34.3179C32.3386 34.5439 32.1365 34.8464 32.0331 35.1872C31.9297 35.528 31.9297 35.8918 32.033 36.2326C32.1364 36.5734 32.3385 36.8759 32.6137 37.1019C32.889 37.3279 33.225 37.4672 33.5795 37.5022C33.9339 37.5372 34.2907 37.4663 34.6048 37.2985C34.919 37.1308 35.1763 36.8736 35.3443 36.5596C35.5123 36.2456 35.5835 35.8888 35.5487 35.5343C35.514 35.1799 35.375 34.8437 35.1492 34.5683C34.8459 34.1991 34.4084 33.9654 33.9329 33.9184C33.4574 33.8715 32.9836 34.0152 32.6139 34.3179Z" fill="#4B4B4B"/>
<path d="M18.1135 20.7442C17.9929 20.8428 17.8563 20.9201 17.7096 20.9728L13.7256 22.4266C13.38 22.5526 12.9985 22.5362 12.665 22.3809C12.3315 22.2257 12.0733 21.9443 11.9472 21.5987C11.8212 21.2531 11.8376 20.8716 11.9929 20.5381C12.1481 20.2046 12.4295 19.9464 12.7751 19.8203L16.7591 18.3683C17.0668 18.2567 17.4041 18.2575 17.7113 18.3705C18.0185 18.4835 18.2759 18.7014 18.4379 18.9858C18.6 19.2702 18.6563 19.6027 18.597 19.9246C18.5376 20.2466 18.3664 20.5371 18.1135 20.745V20.7442ZM12.6716 20.4162C12.553 20.5147 12.461 20.6415 12.4043 20.785C12.3477 20.9284 12.328 21.0838 12.3472 21.2368C12.3664 21.3898 12.4239 21.5355 12.5143 21.6604C12.6047 21.7854 12.7251 21.8856 12.8644 21.9517C12.973 22.0027 13.0907 22.0316 13.2105 22.0369C13.3304 22.0422 13.4502 22.0238 13.5629 21.9826L17.5469 20.5289C17.6621 20.4897 17.7684 20.4279 17.8594 20.3472C17.9504 20.2664 18.0244 20.1682 18.077 20.0585C18.1296 19.9487 18.1597 19.8296 18.1656 19.708C18.1716 19.5864 18.1531 19.4649 18.1114 19.3506C18.0698 19.2363 18.0056 19.1314 17.9229 19.0422C17.8401 18.9529 17.7403 18.8811 17.6295 18.831C17.5186 18.7808 17.3988 18.7534 17.2771 18.7501C17.1554 18.7469 17.0344 18.768 16.921 18.8122L12.937 20.2643C12.8407 20.2997 12.7509 20.3511 12.6716 20.4162Z" fill="#4B4B4B"/>
<path d="M19.1785 23.6641C19.0577 23.7625 18.9211 23.8398 18.7746 23.8927L14.7906 25.3465C14.6194 25.4089 14.4377 25.437 14.2557 25.4292C14.0737 25.4213 13.8951 25.3777 13.7299 25.3009C13.5648 25.224 13.4164 25.1153 13.2933 24.9811C13.1701 24.8469 13.0746 24.6898 13.0122 24.5186C12.9498 24.3475 12.9217 24.1658 12.9295 23.9838C12.9373 23.8018 12.9809 23.6231 13.0578 23.458C13.1347 23.2929 13.2433 23.1445 13.3775 23.0213C13.5117 22.8982 13.6689 22.8027 13.84 22.7403L17.824 21.2882C18.1318 21.1766 18.469 21.1774 18.7762 21.2904C19.0834 21.4034 19.3408 21.6214 19.5029 21.9057C19.6649 22.1901 19.7213 22.5227 19.6619 22.8446C19.6025 23.1665 19.4313 23.457 19.1785 23.6649V23.6641ZM13.7357 23.3361C13.5741 23.475 13.4659 23.6658 13.4296 23.8758C13.3933 24.0858 13.4312 24.3019 13.5367 24.487C13.6423 24.6721 13.809 24.8148 14.0082 24.8904C14.2075 24.9661 14.4268 24.97 14.6287 24.9017L18.6127 23.4479C18.8192 23.3499 18.9818 23.1784 19.0685 22.9669C19.1553 22.7553 19.16 22.519 19.0817 22.3042C19.0034 22.0894 18.8478 21.9115 18.6453 21.8054C18.4428 21.6993 18.2079 21.6726 17.9868 21.7305L14.0028 23.1842C13.9056 23.2193 13.8152 23.2702 13.7357 23.3361Z" fill="#4B4B4B"/>
<path d="M61.0507 2.2334C60.518 2.23337 59.9986 2.39887 59.5641 2.707C59.1296 3.01513 58.8017 3.45066 58.6256 3.95335L39.8289 57.7874C39.6051 58.4298 39.6455 59.1347 39.9411 59.7474C40.2366 60.3601 40.7632 60.8305 41.4053 61.0553L78.5739 74.0338C79.2162 74.2574 79.9211 74.2171 80.5336 73.9215C81.1462 73.6259 81.6164 73.0993 81.8411 72.4574L100.638 18.6225C100.749 18.3046 100.797 17.9678 100.778 17.6314C100.759 17.2951 100.674 16.9657 100.527 16.6623C100.381 16.3588 100.176 16.0872 99.9249 15.863C99.6735 15.6387 99.3803 15.4662 99.0622 15.3554L61.8935 2.37693C61.6227 2.28193 61.3377 2.23341 61.0507 2.2334Z" fill="white"/>
<path d="M79.4191 76.1467C78.9074 76.1464 78.3995 76.0595 77.9169 75.8896L40.7483 62.9128C39.6133 62.5147 38.6826 61.6828 38.1601 60.5995C37.6376 59.5161 37.566 58.2698 37.961 57.1338L56.7577 3.29981C57.1556 2.16471 57.9875 1.23375 59.0708 0.711088C60.1542 0.188424 61.4006 0.116709 62.5367 0.511671L99.7054 13.4901C100.268 13.6865 100.786 13.9918 101.231 14.3885C101.675 14.7852 102.037 15.2656 102.296 15.8023C102.555 16.3389 102.705 16.9213 102.739 17.5162C102.773 18.111 102.689 18.7067 102.493 19.2692L83.6976 73.1032C83.3866 73.9908 82.8079 74.7602 82.0413 75.3053C81.2747 75.8504 80.358 76.1443 79.4174 76.1467H79.4191ZM61.0471 2.22912C60.5144 2.22915 59.9948 2.39477 59.5604 2.70305C59.1259 3.01134 58.798 3.44705 58.622 3.94989L39.8253 57.7839C39.6016 58.4263 39.6419 59.1313 39.9375 59.744C40.2331 60.3567 40.7597 60.8271 41.4017 61.0519L78.5703 74.0345C79.2127 74.2582 79.9175 74.2178 80.5301 73.9222C81.1426 73.6267 81.6129 73.1001 81.8375 72.4581L100.638 18.6224C100.75 18.3044 100.797 17.9676 100.778 17.6313C100.759 17.2949 100.674 16.9656 100.528 16.6622C100.382 16.3587 100.177 16.0871 99.9255 15.8628C99.6741 15.6386 99.3809 15.4661 99.0628 15.3553L61.8941 2.37682C61.6222 2.28022 61.3358 2.22973 61.0471 2.22912Z" fill="#48474D"/>
<path d="M79.1745 64.5338C78.6914 64.5339 78.2117 64.4521 77.7559 64.2918L48.2314 53.9821C47.6994 53.7966 47.2091 53.508 46.7887 53.133C46.3682 52.7579 46.0257 52.3037 45.7808 51.7962C45.5359 51.2888 45.3934 50.7381 45.3614 50.1755C45.3294 49.613 45.4086 49.0496 45.5943 48.5177L56.368 17.6614C56.7432 16.5873 57.5297 15.7063 58.5544 15.2121C59.5792 14.7179 60.7583 14.6509 61.8324 15.0259L91.3602 25.3356C92.4338 25.7118 93.3143 26.4984 93.8087 27.523C94.303 28.5475 94.3709 29.7264 93.9973 30.8009L83.2211 61.6539C82.9272 62.4932 82.3801 63.2208 81.6554 63.7363C80.9307 64.2517 80.0639 64.5298 79.1745 64.5321V64.5338ZM60.4154 16.2619C59.8323 16.2632 59.264 16.4453 58.7887 16.783C58.3134 17.1208 57.9546 17.5977 57.7616 18.1479L46.988 49.0042C46.7422 49.7085 46.7862 50.4815 47.1103 51.1534C47.4344 51.8252 48.0121 52.3408 48.7163 52.5868L78.2432 62.8965C78.9474 63.1423 79.7203 63.0984 80.3921 62.7744C81.064 62.4505 81.5796 61.873 81.8258 61.169L92.6003 30.3135C92.8449 29.6091 92.8004 28.8364 92.4765 28.1647C92.1525 27.4931 91.5756 26.9772 90.872 26.7301L61.3442 16.4229C61.0458 16.3177 60.7318 16.2632 60.4154 16.2619Z" fill="#48474D"/>
<path d="M73.203 45.5632C73.0557 45.5632 72.9118 45.5192 72.7897 45.4368C72.6676 45.3544 72.5729 45.2374 72.5178 45.1008C72.1241 44.1249 71.5417 43.2362 70.8041 42.4855C70.0665 41.7349 69.1882 41.137 68.2193 40.7262C67.2504 40.3154 66.21 40.0997 65.1576 40.0914C64.1053 40.0831 63.0616 40.2824 62.0864 40.6779C61.9061 40.7445 61.7069 40.7382 61.5312 40.6605C61.3554 40.5828 61.2168 40.4396 61.1447 40.2615C61.0727 40.0833 61.0728 39.8841 61.1452 39.706C61.2175 39.528 61.3563 39.3851 61.5322 39.3076C62.6873 38.8403 63.9231 38.6051 65.169 38.6156C66.415 38.626 67.6466 38.882 68.7937 39.3687C69.9407 39.8554 70.9805 40.5633 71.8538 41.4521C72.7271 42.3409 73.4166 43.393 73.8831 44.5484C73.9562 44.73 73.9543 44.9332 73.8778 45.1134C73.8013 45.2937 73.6565 45.4362 73.475 45.5098C73.3886 45.5448 73.2962 45.563 73.203 45.5632Z" fill="#4B4B4B"/>
<path d="M68.0064 34.4984C67.4409 34.4986 66.888 34.331 66.4177 34.017C65.9475 33.7029 65.5809 33.2564 65.3644 32.734C65.1478 32.2116 65.0911 31.6367 65.2013 31.0821C65.3115 30.5274 65.5838 30.0179 65.9836 29.618C66.3834 29.218 66.8928 28.9457 67.4475 28.8353C68.0021 28.7249 68.577 28.7815 69.0995 28.9978C69.6219 29.2142 70.0685 29.5806 70.3827 30.0508C70.6969 30.521 70.8646 31.0738 70.8646 31.6393C70.8637 32.3972 70.5623 33.1238 70.0265 33.6597C69.4907 34.1957 68.7642 34.4973 68.0064 34.4984ZM68.0064 29.765C67.6356 29.7648 67.2732 29.8746 66.9648 30.0805C66.6565 30.2863 66.4161 30.579 66.2741 30.9215C66.1321 31.264 66.0949 31.6408 66.1671 32.0045C66.2394 32.3681 66.4178 32.7022 66.6799 32.9644C66.942 33.2266 67.276 33.4052 67.6396 33.4776C68.0032 33.55 68.3801 33.5129 68.7226 33.3711C69.0652 33.2292 69.3579 32.989 69.5639 32.6807C69.7699 32.3725 69.8799 32.0101 69.8799 31.6393C69.8794 31.1425 69.6819 30.6662 69.3307 30.3148C68.9795 29.9634 68.5032 29.7657 68.0064 29.765Z" fill="#4B4B4B"/>
<path d="M63.2735 12.5124C62.5894 12.5124 61.9206 12.3095 61.3518 11.9294C60.7829 11.5494 60.3396 11.0091 60.0778 10.3771C59.8159 9.74499 59.7475 9.04949 59.8809 8.37849C60.0144 7.7075 60.3438 7.09114 60.8276 6.60738C61.3114 6.12362 61.9277 5.79417 62.5987 5.6607C63.2697 5.52723 63.9652 5.59574 64.5973 5.85755C65.2293 6.11936 65.7696 6.56272 66.1496 7.13157C66.5297 7.70041 66.7326 8.36918 66.7326 9.05332C66.7315 9.97039 66.3667 10.8496 65.7183 11.498C65.0698 12.1465 64.1906 12.5113 63.2735 12.5124ZM63.2735 6.57981C62.7843 6.57998 62.3062 6.72518 61.8996 6.99707C61.4929 7.26897 61.176 7.65534 60.9889 8.10733C60.8018 8.55932 60.7529 9.05664 60.8485 9.5364C60.944 10.0162 61.1797 10.4568 61.5256 10.8027C61.8716 11.1485 62.3123 11.384 62.7921 11.4794C63.2719 11.5748 63.7692 11.5257 64.2211 11.3385C64.6731 11.1512 65.0593 10.8342 65.3311 10.4274C65.6028 10.0207 65.7479 9.5425 65.7479 9.05332C65.7472 8.39736 65.4863 7.76847 65.0224 7.30472C64.5585 6.84097 63.9295 6.58025 63.2735 6.57981Z" fill="#4B4B4B"/>
<path d="M88.479 21.0504C87.8589 21.0504 87.2528 20.8665 86.7372 20.522C86.2216 20.1775 85.8197 19.6878 85.5824 19.1149C85.3451 18.542 85.283 17.9116 85.404 17.3034C85.525 16.6952 85.8236 16.1366 86.2621 15.6981C86.7005 15.2596 87.2592 14.961 87.8674 14.84C88.4756 14.7191 89.106 14.7812 89.6789 15.0185C90.2518 15.2558 90.7414 15.6576 91.0859 16.1732C91.4305 16.6888 91.6143 17.295 91.6143 17.9151C91.6137 18.7464 91.2831 19.5435 90.6953 20.1313C90.1075 20.7192 89.3104 21.0497 88.479 21.0504ZM88.479 15.4708C87.9955 15.4711 87.5229 15.6148 87.121 15.8837C86.7191 16.1526 86.4059 16.5347 86.2211 16.9816C86.0364 17.4284 85.9882 17.92 86.0828 18.3943C86.1774 18.8685 86.4105 19.304 86.7526 19.6458C87.0947 19.9875 87.5305 20.2202 88.0048 20.3143C88.4791 20.4084 88.9707 20.3598 89.4174 20.1745C89.8641 19.9893 90.2458 19.6758 90.5143 19.2736C90.7828 18.8714 90.926 18.3986 90.9259 17.9151C90.925 17.2666 90.6668 16.6451 90.2081 16.1868C89.7493 15.7285 89.1275 15.471 88.479 15.4708Z" fill="#4B4B4B"/>
<path d="M94.6555 23.3436C94.0355 23.3436 93.4296 23.1598 92.9141 22.8154C92.3987 22.471 91.9969 21.9816 91.7597 21.4089C91.5224 20.8362 91.4603 20.206 91.5812 19.598C91.702 18.99 92.0005 18.4315 92.4388 17.9931C92.877 17.5547 93.4355 17.2561 94.0434 17.135C94.6514 17.014 95.2816 17.076 95.8544 17.3131C96.4271 17.5502 96.9167 17.9518 97.2613 18.4671C97.6058 18.9825 97.7898 19.5884 97.7899 20.2083C97.7893 21.0395 97.4588 21.8365 96.8712 22.4243C96.2835 23.0121 95.4866 23.3427 94.6555 23.3436ZM94.6555 17.764C94.1718 17.7639 93.6989 17.9071 93.2967 18.1758C92.8945 18.4444 92.5809 18.8262 92.3958 19.2731C92.2106 19.7199 92.1621 20.2116 92.2564 20.686C92.3507 21.1604 92.5836 21.5961 92.9256 21.9381C93.2677 22.2801 93.7034 22.513 94.1778 22.6074C94.6522 22.7017 95.1439 22.6532 95.5907 22.468C96.0375 22.2829 96.4194 21.9693 96.688 21.5671C96.9566 21.1649 97.0999 20.692 97.0997 20.2083C97.0989 19.5603 96.8411 18.939 96.3829 18.4806C95.9247 18.0223 95.3035 17.7643 94.6555 17.7632V17.764Z" fill="#4B4B4B"/>
<path d="M76.0539 37.2548C75.4884 37.2548 74.9356 37.0871 74.4654 36.7729C73.9952 36.4587 73.6288 36.0121 73.4124 35.4896C73.196 34.9671 73.1394 34.3922 73.2498 33.8376C73.3602 33.283 73.6326 32.7735 74.0325 32.3737C74.4324 31.9739 74.942 31.7017 75.4966 31.5915C76.0513 31.4812 76.6262 31.538 77.1486 31.7545C77.671 31.971 78.1175 32.3376 78.4315 32.8079C78.7456 33.2782 78.9131 33.831 78.913 34.3965C78.9121 35.1544 78.6105 35.8811 78.0745 36.4169C77.5385 36.9528 76.8118 37.2541 76.0539 37.2548ZM76.0539 32.5222C75.6834 32.5224 75.3213 32.6324 75.0133 32.8383C74.7054 33.0442 74.4654 33.3368 74.3237 33.6791C74.182 34.0214 74.1449 34.3981 74.2173 34.7614C74.2896 35.1247 74.468 35.4585 74.73 35.7205C74.9919 35.9824 75.3257 36.1608 75.689 36.2332C76.0524 36.3055 76.429 36.2684 76.7713 36.1267C77.1136 35.985 77.4062 35.745 77.6121 35.4371C77.8181 35.1291 77.928 34.767 77.9282 34.3965C77.928 33.8995 77.7305 33.4229 77.379 33.0714C77.0275 32.72 76.5509 32.5224 76.0539 32.5222Z" fill="#4B4B4B"/>
<path d="M73.3191 12.0384C73.1567 12.0376 72.9956 12.0093 72.8426 11.9549L68.6775 10.5004C68.4985 10.438 68.3336 10.3409 68.1921 10.2148C68.0507 10.0886 67.9355 9.93584 67.853 9.76516C67.7706 9.59449 67.7227 9.40925 67.7118 9.22003C67.701 9.03081 67.7276 8.8413 67.79 8.66234C67.8524 8.48338 67.9494 8.31846 68.0756 8.17701C68.2017 8.03555 68.3545 7.92034 68.5252 7.83792C68.6958 7.75551 68.8811 7.70752 69.0703 7.69669C69.2595 7.68587 69.449 7.71241 69.628 7.77483L73.7931 9.23023C74.1147 9.34273 74.3862 9.56538 74.5595 9.85878C74.7328 10.1522 74.7967 10.4974 74.74 10.8334C74.6832 11.1694 74.5095 11.4745 74.2494 11.6948C73.9894 11.915 73.6598 12.0361 73.3191 12.0367V12.0384ZM69.1515 8.18875C68.9268 8.18866 68.7093 8.2682 68.5376 8.41323C68.366 8.55827 68.2513 8.75944 68.2139 8.98102C68.1765 9.2026 68.2188 9.43027 68.3333 9.62363C68.4478 9.81698 68.6271 9.96352 68.8394 10.0372L73.0045 11.4918C73.1223 11.533 73.2471 11.5506 73.3718 11.5435C73.4965 11.5365 73.6185 11.505 73.731 11.4508C73.8435 11.3966 73.9442 11.3207 74.0274 11.2276C74.1105 11.1345 74.1746 11.0259 74.2158 10.908C74.257 10.7902 74.2746 10.6653 74.2675 10.5407C74.2605 10.416 74.229 10.294 74.1748 10.1815C74.1206 10.069 74.0447 9.9683 73.9516 9.88513C73.8585 9.80195 73.7499 9.73794 73.632 9.69673L69.4661 8.24217C69.365 8.20689 69.2586 8.18882 69.1515 8.18875Z" fill="#4B4B4B"/>
<path d="M72.2529 15.0905C72.0905 15.0897 71.9294 15.0615 71.7764 15.007L67.6114 13.5525C67.4324 13.4901 67.2675 13.3931 67.126 13.267C66.9845 13.1409 66.8692 12.9882 66.7868 12.8176C66.7043 12.6469 66.6563 12.4617 66.6454 12.2725C66.6346 12.0833 66.6611 11.8938 66.7234 11.7149C66.7858 11.5359 66.8828 11.371 67.0089 11.2295C67.135 11.088 67.2877 10.9728 67.4583 10.8903C67.629 10.8079 67.8142 10.7598 68.0034 10.749C68.1926 10.7381 68.3821 10.7646 68.561 10.8269L72.727 12.2815C73.0482 12.3945 73.3193 12.6173 73.4922 12.9106C73.6652 13.204 73.7289 13.549 73.6722 13.8848C73.6155 14.2206 73.442 14.5255 73.1823 14.7458C72.9226 14.9661 72.5935 15.0876 72.2529 15.0888V15.0905ZM68.0854 11.2409C67.8606 11.2408 67.6432 11.3203 67.4715 11.4653C67.2999 11.6104 67.1852 11.8115 67.1477 12.0331C67.1103 12.2547 67.1526 12.4824 67.2671 12.6757C67.3816 12.8691 67.561 13.0156 67.7732 13.0893L71.9383 14.5439C72.1764 14.6271 72.4377 14.6124 72.6649 14.5029C72.892 14.3934 73.0664 14.1982 73.1496 13.9601C73.2329 13.7221 73.2181 13.4607 73.1086 13.2336C72.9992 13.0064 72.8039 12.8321 72.5659 12.7488L68.4 11.2943C68.2988 11.259 68.1925 11.2409 68.0854 11.2409Z" fill="#4B4B4B"/>
<path d="M88.0556 54.6918V101.926C88.0634 102.95 87.6643 103.935 86.9462 104.664C86.2281 105.394 85.2496 105.809 84.2259 105.817H8.32884C7.30522 105.809 6.32687 105.394 5.60889 104.664C4.89092 103.935 4.4921 102.95 4.50013 101.926V50.0774C4.4913 48.935 4.9366 47.8359 5.73806 47.0219C6.53953 46.2078 7.63154 45.7454 8.77391 45.7363H32.7096C33.852 45.7454 34.944 46.2078 35.7455 47.0219C36.5469 47.8359 36.9922 48.935 36.9834 50.0774C36.982 50.2676 37.0562 50.4505 37.1895 50.5861C37.3228 50.7217 37.5045 50.7989 37.6947 50.8008H84.2249C85.2488 50.809 86.2275 51.2235 86.9458 51.9531C87.6642 52.6828 88.0634 53.6679 88.0556 54.6918Z" fill="#48474D"/>
<path d="M82.642 103.07H9.40321C8.71389 103.063 8.05523 102.784 7.57176 102.292C7.08828 101.801 6.81946 101.138 6.82428 100.449V50.4101C6.82 49.7211 7.08905 49.0586 7.57247 48.5676C8.05589 48.0766 8.71424 47.7974 9.40321 47.791H31.7064C32.3953 47.7974 33.0537 48.0766 33.5371 48.5676C34.0205 49.0586 34.2896 49.7211 34.2853 50.4101C34.2805 51.0993 34.5492 51.7622 35.0324 52.2536C35.5157 52.745 36.1741 53.0246 36.8632 53.0313H82.642C83.331 53.0374 83.9895 53.3165 84.473 53.8075C84.9565 54.2986 85.2254 54.9613 85.2209 55.6504V100.449C85.2257 101.138 84.9569 101.801 84.4734 102.292C83.9899 102.784 83.3313 103.063 82.642 103.07ZM35.8325 98.3629C35.682 98.3661 35.5383 98.4263 35.4306 98.5314C35.3228 98.6364 35.2589 98.7785 35.2519 98.9288C35.2449 99.0792 35.2952 99.2266 35.3928 99.3412C35.4903 99.4559 35.6277 99.5292 35.7772 99.5464C36.174 99.5826 36.5809 99.6006 36.9978 99.6006C37.1551 99.6006 37.3058 99.5382 37.417 99.427C37.5281 99.3159 37.5906 99.1651 37.5906 99.0079C37.5906 98.8507 37.5281 98.6999 37.417 98.5888C37.3058 98.4776 37.1551 98.4152 36.9978 98.4152C36.6281 98.4152 36.2524 98.3981 35.8827 98.3649H35.8405L35.8325 98.3629ZM30.9499 96.8901C30.8431 96.8901 30.7384 96.9196 30.6473 96.9753C30.5562 97.0309 30.4822 97.1106 30.4335 97.2056C30.3615 97.3448 30.3467 97.5067 30.3921 97.6567C30.4375 97.8068 30.5395 97.9332 30.6766 98.0093C31.4636 98.4346 32.2917 98.7793 33.148 99.038C33.2019 99.0538 33.2577 99.0616 33.3138 99.0611C33.4403 99.0601 33.563 99.0183 33.6639 98.9419C33.7647 98.8655 33.8382 98.7587 33.8734 98.6372C33.9177 98.4873 33.9014 98.326 33.8279 98.1881C33.7544 98.0501 33.6297 97.9466 33.4806 97.8998C32.6987 97.6638 31.9427 97.3495 31.2241 96.9614C31.1402 96.915 31.0458 96.8905 30.9499 96.8901ZM27.0177 93.616C26.8822 93.6162 26.7511 93.6638 26.647 93.7506C26.5278 93.8521 26.4528 93.9959 26.4378 94.1517C26.4228 94.3076 26.469 94.4631 26.5666 94.5854C27.1316 95.2849 27.7639 95.9273 28.4543 96.5033C28.5579 96.5895 28.6883 96.6368 28.823 96.6369C28.9102 96.6368 28.9963 96.6173 29.075 96.5797C29.1538 96.5422 29.2231 96.4876 29.2781 96.4199C29.3754 96.2972 29.4211 96.1414 29.4055 95.9856C29.39 95.8298 29.3144 95.6861 29.1948 95.5851C28.5642 95.0581 27.9865 94.4709 27.4698 93.832C27.4155 93.7643 27.3466 93.7098 27.2684 93.6724C27.1901 93.635 27.1044 93.6157 27.0177 93.616ZM46.539 65.2719C43.7957 65.2282 41.1015 66.0018 38.7992 67.4941C36.497 68.9864 34.6908 71.13 33.6106 73.652C32.5304 76.174 32.225 78.9604 32.7334 81.6565C33.2417 84.3526 34.5408 86.8365 36.4652 88.792C38.3896 90.7476 40.8523 92.0863 43.5399 92.6378C46.2275 93.1893 49.0184 92.9287 51.5575 91.8891C54.0965 90.8495 56.2688 89.0779 57.7978 86.7999C59.3269 84.5219 60.1436 81.8404 60.1439 79.0968C60.1685 75.4607 58.7501 71.9633 56.1996 69.3716C53.6492 66.7799 50.175 65.3056 46.539 65.2719ZM24.6327 89.0519C24.5765 89.052 24.5207 89.0601 24.4669 89.076C24.3186 89.1241 24.1948 89.2278 24.1214 89.3653C24.0479 89.5028 24.0306 89.6634 24.0731 89.8134C24.3282 90.6812 24.6667 91.5223 25.0837 92.325C25.1329 92.4197 25.2069 92.4991 25.298 92.5547C25.389 92.6103 25.4935 92.64 25.6001 92.6404C25.6959 92.6407 25.7902 92.6169 25.8744 92.5711C26.0123 92.4959 26.1149 92.3693 26.1601 92.2188C26.2052 92.0683 26.1892 91.9061 26.1155 91.7674C25.7337 91.0348 25.4245 90.2666 25.1922 89.4738C25.1568 89.3526 25.0832 89.2461 24.9824 89.1701C24.8816 89.0941 24.7589 89.0526 24.6327 89.0519ZM24.1042 85.3166C23.9482 85.3179 23.7992 85.3811 23.6897 85.4922C23.5803 85.6033 23.5194 85.7534 23.5205 85.9093C23.5205 86.3262 23.5386 86.7422 23.5748 87.147C23.587 87.2933 23.6532 87.4298 23.7606 87.5299C23.8679 87.63 24.0087 87.6866 24.1554 87.6885H24.2057C24.3614 87.6728 24.5046 87.5962 24.6041 87.4754C24.7036 87.3546 24.7514 87.1994 24.7371 87.0436C24.704 86.6638 24.6879 86.283 24.6879 85.9123C24.6888 85.8349 24.6745 85.7579 24.6456 85.686C24.6167 85.6141 24.574 85.5486 24.5198 85.4933C24.4655 85.4379 24.4009 85.3938 24.3296 85.3635C24.2583 85.3332 24.1817 85.3172 24.1042 85.3166ZM46.539 91.7343C43.34 91.7307 40.2688 90.4784 37.9794 88.2441L55.4763 70.3303C57.1757 72.1098 58.3195 74.3461 58.768 76.7654C59.2164 79.1848 58.95 81.6825 58.0014 83.9528C57.0527 86.2232 55.4629 88.1679 53.4265 89.549C51.39 90.9301 48.9952 91.6877 46.535 91.7292L46.539 91.7343ZM37.1727 87.3872C35.1914 85.0799 34.1009 82.14 34.0984 79.0988C34.077 75.7746 35.3745 72.5775 37.7066 70.2083C40.0386 67.8392 43.2148 66.4914 46.539 66.4604C49.5157 66.4683 52.3888 67.5544 54.6264 69.5175L37.1727 87.3872Z" fill="white"/>
</g>
</svg>
