<svg width="26" height="21" viewBox="0 0 26 21" fill="none" xmlns="http://www.w3.org/2000/svg">
<path d="M3.8457 5.24438C2.10484 5.24438 0.683594 6.66563 0.683594 8.40649V17.2604C0.683594 19.0013 2.10484 20.4225 3.8457 20.4225H22.8184C24.5592 20.4225 25.9805 19.0013 25.9805 17.2604V8.40649C25.9805 6.66563 24.5592 5.24438 22.8184 5.24438H3.8457Z" fill="white"/>
<path d="M5.10898 2.71484C4.94126 2.71484 4.7804 2.78147 4.66179 2.90008C4.54319 3.01868 4.47656 3.17954 4.47656 3.34727C4.47656 3.51499 4.54319 3.67585 4.66179 3.79446C4.7804 3.91306 4.94126 3.97969 5.10898 3.97969H21.552C21.7197 3.97969 21.8805 3.91306 21.9991 3.79446C22.1177 3.67585 22.1844 3.51499 22.1844 3.34727C22.1844 3.17954 22.1177 3.01868 21.9991 2.90008C21.8805 2.78147 21.7197 2.71484 21.552 2.71484H5.10898Z" fill="#A9A9A9"/>
<path d="M7.64028 0.184814C7.47254 0.184814 7.31167 0.25145 7.19306 0.370061C7.07445 0.488672 7.00781 0.649543 7.00781 0.817285C7.00781 0.985027 7.07445 1.1459 7.19306 1.26451C7.31167 1.38312 7.47254 1.44976 7.64028 1.44976H19.0248C19.1925 1.44976 19.3534 1.38312 19.472 1.26451C19.5906 1.1459 19.6572 0.985027 19.6572 0.817285C19.6572 0.649543 19.5906 0.488672 19.472 0.370061C19.3534 0.25145 19.1925 0.184814 19.0248 0.184814H7.64028Z" fill="#A9A9A9"/>
</svg>
