<svg width="24" height="28" viewBox="0 0 24 28" fill="none" xmlns="http://www.w3.org/2000/svg">
<path d="M21.1146 0.932129H7.74161C6.98185 0.932963 6.25345 1.23515 5.71622 1.77237C5.17899 2.3096 4.87681 3.038 4.87598 3.79776V21.0393C4.87681 21.7991 5.17899 22.5275 5.71622 23.0647C6.25345 23.6019 6.98185 23.9041 7.74161 23.905H21.1146C21.8743 23.9041 22.6027 23.6019 23.1399 23.0647C23.6772 22.5275 23.9794 21.7991 23.9802 21.0393V3.79776C23.9794 3.038 23.6772 2.3096 23.1399 1.77237C22.6027 1.23515 21.8743 0.932963 21.1146 0.932129ZM19.2041 19.0811H9.65203C9.39869 19.0811 9.15573 18.9805 8.97659 18.8014C8.79746 18.6222 8.69682 18.3793 8.69682 18.1259C8.69682 17.8726 8.79746 17.6296 8.97659 17.4505C9.15573 17.2714 9.39869 17.1707 9.65203 17.1707H19.2041C19.4575 17.1707 19.7004 17.2714 19.8796 17.4505C20.0587 17.6296 20.1594 17.8726 20.1594 18.1259C20.1594 18.3793 20.0587 18.6222 19.8796 18.8014C19.7004 18.9805 19.4575 19.0811 19.2041 19.0811ZM19.2041 15.2603H9.65203C9.39869 15.2603 9.15573 15.1597 8.97659 14.9805C8.79746 14.8014 8.69682 14.5584 8.69682 14.3051C8.69682 14.0517 8.79746 13.8088 8.97659 13.6296C9.15573 13.4505 9.39869 13.3499 9.65203 13.3499H19.2041C19.4575 13.3499 19.7004 13.4505 19.8796 13.6296C20.0587 13.8088 20.1594 14.0517 20.1594 14.3051C20.1594 14.5584 20.0587 14.8014 19.8796 14.9805C19.7004 15.1597 19.4575 15.2603 19.2041 15.2603ZM19.2041 11.4394H9.65203C9.39869 11.4394 9.15573 11.3388 8.97659 11.1597C8.79746 10.9805 8.69682 10.7376 8.69682 10.4842C8.69682 10.2309 8.79746 9.98794 8.97659 9.8088C9.15573 9.62967 9.39869 9.52903 9.65203 9.52903H19.2041C19.4575 9.52903 19.7004 9.62967 19.8796 9.8088C20.0587 9.98794 20.1594 10.2309 20.1594 10.4842C20.1594 10.7376 20.0587 10.9805 19.8796 11.1597C19.7004 11.3388 19.4575 11.4394 19.2041 11.4394ZM19.2041 7.61861H9.65203C9.39869 7.61861 9.15573 7.51797 8.97659 7.33883C8.79746 7.15969 8.69682 6.91673 8.69682 6.66339C8.69682 6.41006 8.79746 6.1671 8.97659 5.98796C9.15573 5.80882 9.39869 5.70818 9.65203 5.70818H19.2041C19.4575 5.70818 19.7004 5.80882 19.8796 5.98796C20.0587 6.1671 20.1594 6.41006 20.1594 6.66339C20.1594 6.91673 20.0587 7.15969 19.8796 7.33883C19.7004 7.51797 19.4575 7.61861 19.2041 7.61861Z" fill="white"/>
<path d="M19.1752 25.8152C18.3019 26.0766 6.23742 27.4984 5.46618 27.6538C4.71356 27.7467 3.95461 27.5396 3.35343 27.0774C2.75225 26.6152 2.35714 25.9349 2.25352 25.1837L0.0189976 8.08715C-0.0282656 7.67332 0.0129026 7.25417 0.139777 6.85744C0.266652 6.46071 0.47634 6.09545 0.754962 5.78583C1.03358 5.47622 1.37479 5.22931 1.75599 5.06145C2.13719 4.89359 2.5497 4.8086 2.96621 4.81212V21.0391C2.9677 22.3054 3.47137 23.5193 4.36673 24.4147C5.26209 25.31 6.47603 25.8137 7.74226 25.8152H19.1752Z" fill="#A9A9A9"/>
</svg>
