<svg width="23" height="24" viewBox="0 0 23 24" fill="none" xmlns="http://www.w3.org/2000/svg">
<path d="M11.502 0.301758C9.22709 0.301758 7.0033 0.976335 5.11181 2.24019C3.22033 3.50404 1.74609 5.3004 0.875539 7.4021C0.00498366 9.50381 -0.222793 11.8165 0.221012 14.0476C0.664817 16.2788 1.76027 18.3282 3.36885 19.9368C4.97743 21.5454 7.02688 22.6408 9.25804 23.0847C11.4892 23.5285 13.8019 23.3007 15.9036 22.4301C18.0053 21.5596 19.8016 20.0853 21.0655 18.1938C22.3293 16.3024 23.0039 14.0786 23.0039 11.8037C23.0003 8.75431 21.7873 5.83083 19.6311 3.67457C17.4748 1.51832 14.5514 0.305355 11.502 0.301758ZM15.9375 14.7618C16.0374 14.8583 16.1171 14.9736 16.1719 15.1012C16.2267 15.2288 16.2555 15.366 16.2567 15.5048C16.2579 15.6437 16.2315 15.7814 16.1789 15.9099C16.1263 16.0384 16.0487 16.1551 15.9505 16.2533C15.8523 16.3515 15.7356 16.4291 15.6071 16.4817C15.4786 16.5343 15.3409 16.5607 15.202 16.5595C15.0632 16.5583 14.926 16.5295 14.7984 16.4747C14.6708 16.4199 14.5555 16.3402 14.459 16.2403L11.502 13.2822L8.54491 16.2403C8.3477 16.4308 8.08357 16.5362 7.80941 16.5338C7.53525 16.5314 7.27299 16.4215 7.07912 16.2276C6.88525 16.0337 6.77529 15.7715 6.7729 15.4973C6.77052 15.2231 6.87592 14.959 7.06639 14.7618L10.0234 11.8037L7.06639 8.84562C6.96652 8.74916 6.88686 8.63378 6.83206 8.50621C6.77726 8.37864 6.74841 8.24143 6.74721 8.10259C6.746 7.96375 6.77246 7.82606 6.82503 7.69756C6.87761 7.56906 6.95525 7.45231 7.05342 7.35413C7.1516 7.25595 7.26835 7.17831 7.39685 7.12574C7.52536 7.07316 7.66305 7.04671 7.80188 7.04791C7.94072 7.04912 8.07793 7.07796 8.2055 7.13276C8.33307 7.18757 8.44845 7.26722 8.54491 7.36709L11.502 10.3252L14.459 7.36709C14.5555 7.26722 14.6708 7.18757 14.7984 7.13276C14.926 7.07796 15.0632 7.04912 15.202 7.04791C15.3409 7.04671 15.4786 7.07316 15.6071 7.12574C15.7356 7.17831 15.8523 7.25595 15.9505 7.35413C16.0487 7.45231 16.1263 7.56906 16.1789 7.69756C16.2315 7.82606 16.2579 7.96375 16.2567 8.10259C16.2555 8.24143 16.2267 8.37864 16.1719 8.50621C16.1171 8.63378 16.0374 8.74916 15.9375 8.84562L12.9805 11.8037L15.9375 14.7618Z" fill="#686868"/>
</svg>
