<svg width="46" height="46" viewBox="0 0 46 46" fill="none" xmlns="http://www.w3.org/2000/svg">
<path d="M23 0C18.451 0 14.0042 1.34893 10.2219 3.8762C6.43956 6.40347 3.4916 9.99558 1.75078 14.1983C0.00996562 18.401 -0.445511 23.0255 0.441949 27.4871C1.32941 31.9486 3.51995 36.0468 6.73655 39.2634C9.95316 42.4801 14.0514 44.6706 18.5129 45.558C22.9745 46.4455 27.599 45.99 31.8017 44.2492C36.0044 42.5084 39.5965 39.5604 42.1238 35.7781C44.6511 31.9958 46 27.549 46 23C45.9928 16.9022 43.5673 11.0563 39.2555 6.74449C34.9437 2.43271 29.0978 0.00719371 23 0ZM31.8696 28.9152C32.0693 29.1081 32.2286 29.3388 32.3382 29.5939C32.4478 29.849 32.5055 30.1233 32.5079 30.401C32.5103 30.6786 32.4574 30.9539 32.3523 31.2109C32.2471 31.4679 32.0919 31.7013 31.8956 31.8976C31.6992 32.094 31.4658 32.2492 31.2088 32.3543C30.9518 32.4595 30.6765 32.5124 30.3989 32.51C30.1213 32.5076 29.8469 32.4499 29.5918 32.3403C29.3367 32.2307 29.106 32.0714 28.9131 31.8717L23 25.9565L17.0869 31.8717C16.6926 32.2526 16.1644 32.4633 15.6162 32.4586C15.0679 32.4538 14.5435 32.2339 14.1558 31.8462C13.7682 31.4586 13.5483 30.9342 13.5435 30.3859C13.5387 29.8377 13.7495 29.3095 14.1304 28.9152L20.0435 23L14.1304 17.0848C13.9307 16.8919 13.7714 16.6612 13.6618 16.4061C13.5522 16.151 13.4945 15.8766 13.4921 15.599C13.4897 15.3214 13.5426 15.0461 13.6477 14.7891C13.7529 14.5321 13.9081 14.2987 14.1045 14.1024C14.3008 13.906 14.5342 13.7508 14.7912 13.6456C15.0482 13.5405 15.3235 13.4876 15.6011 13.49C15.8787 13.4924 16.1531 13.5501 16.4082 13.6597C16.6633 13.7693 16.894 13.9286 17.0869 14.1283L23 20.0435L28.9131 14.1283C29.106 13.9286 29.3367 13.7693 29.5918 13.6597C29.8469 13.5501 30.1213 13.4924 30.3989 13.49C30.6765 13.4876 30.9518 13.5405 31.2088 13.6456C31.4658 13.7508 31.6992 13.906 31.8956 14.1024C32.0919 14.2987 32.2471 14.5321 32.3523 14.7891C32.4574 15.0461 32.5103 15.3214 32.5079 15.599C32.5055 15.8766 32.4478 16.151 32.3382 16.4061C32.2286 16.6612 32.0693 16.8919 31.8696 17.0848L25.9565 23L31.8696 28.9152Z" fill="#686868"/>
</svg>
