<svg width="84" height="84" viewBox="0 0 84 84" fill="none" xmlns="http://www.w3.org/2000/svg">
<path d="M67.998 0.000244141H15.998C7.16149 0.000244141 -0.00195312 7.16369 -0.00195312 16.0002V68.0002C-0.00195312 76.8368 7.16149 84.0002 15.998 84.0002H67.998C76.8346 84.0002 83.998 76.8368 83.998 68.0002V16.0002C83.998 7.16369 76.8346 0.000244141 67.998 0.000244141Z" fill="black"/>
<path d="M68.857 35.4315C71.321 34.3186 73.7563 33.1269 76.0762 31.743C74.9883 32.1275 73.8562 32.3581 72.7472 32.6733C72.0956 32.8521 71.4479 33.0443 70.8021 33.2423C71.1673 33.0789 71.5325 32.9136 71.8977 32.7464C72.653 32.4004 73.5314 31.991 74.1945 31.7104C74.6712 31.522 75.1671 31.2779 75.7206 31.2126C75.2574 31.1434 74.7904 31.2414 74.3329 31.3087C73.641 31.4336 72.9548 31.5931 72.2744 31.7719C70.3908 32.2678 68.5341 32.8559 66.6966 33.4979C62.5084 35.0298 58.3471 36.6347 54.157 38.1666C54.0936 38.1896 54.0302 38.2127 53.9668 38.2358C55.2565 37.7034 56.5462 37.1709 57.8435 36.6578C60.3365 35.6314 62.9351 34.8895 65.4319 33.8746C67.5846 33.0404 70.0121 31.77 72.5127 30.6936C69.2221 31.5297 65.9066 32.2678 62.6468 33.2192C60.1231 33.9784 57.6686 34.9471 55.2295 35.9389C52.0236 37.2594 49.3865 38.2761 46.6072 39.6235C45.3905 40.2097 44.2258 40.8978 43.0398 41.5436C41.5099 42.3932 39.9703 43.2254 38.4442 44.0827C37.9867 44.3383 37.5312 44.5959 37.0776 44.8553C37.6216 44.6228 38.1924 44.3825 38.7056 44.1653C40.3105 43.4907 42.0769 42.7603 43.7683 42.1395C44.1546 41.9992 44.5429 41.8627 44.9312 41.7262C44.6217 41.8531 44.3142 41.978 44.0047 42.1068C41.0813 43.3235 38.6345 44.4344 36.2454 45.382C34.7481 45.9932 33.493 46.4776 32.2263 46.9715C33.7755 46.195 35.3074 45.3839 36.8104 44.5228C35.1421 45.0053 33.4603 45.4493 31.7996 45.9528C33.812 44.9899 35.8033 43.9866 37.7715 42.9391C34.8961 44.0346 31.9476 44.9303 29.0549 45.9798C26.9522 46.7563 24.8802 47.6212 22.8428 48.5534C21.4071 49.2165 19.9847 49.9161 18.6085 50.6926C16.2771 52.0804 14.0148 53.5815 11.7449 55.0673C11.3508 55.3306 10.9587 55.5958 10.5705 55.863C11.0164 55.6266 11.4662 55.3959 11.914 55.1653C13.936 54.1158 16.0041 53.1625 18.0684 52.1995C16.1829 53.4316 14.4204 54.852 12.5367 56.0879C12.1658 56.3416 11.7948 56.5953 11.4239 56.8509C11.8929 56.6222 12.3618 56.3935 12.8308 56.1667C14.7798 55.2018 16.2156 54.6579 18.0684 53.8218C17.3035 54.3004 16.5385 54.777 15.7562 55.2268C14.7087 55.8457 13.6554 56.4569 12.5982 57.0566C12.8424 56.9682 13.0865 56.8798 13.3306 56.7894C15.0758 56.1417 16.8018 55.444 18.5432 54.7866C19.5542 54.3926 20.1135 54.1908 20.6555 53.9678C20.5248 54.0351 20.396 54.1005 20.2653 54.1677C18.4452 55.1095 16.6019 56.0168 14.8797 57.1335C12.8097 58.4635 11.1413 59.7782 9.16929 61.1967C8.75028 61.5042 8.3332 61.8137 7.92188 62.1308C8.17174 61.9828 8.42353 61.8387 8.67724 61.6945C11.3624 60.1799 13.3075 59.5072 15.5774 58.4116C17.9493 57.2738 20.2557 56.0033 22.6103 54.827C26.4505 52.903 30.212 50.8137 33.8851 48.5899C31.7823 49.2876 29.6412 49.87 27.5903 50.7157C27.0752 50.9156 26.5659 51.129 26.0584 51.35C27.4116 50.6907 28.7743 50.0488 30.1313 49.3972C32.6377 48.1594 33.9504 47.5539 36.2088 46.6467C38.4115 45.753 40.6392 44.9169 42.8669 44.0865C39.83 45.5607 36.8681 47.1887 33.9139 48.8225C33.8063 48.8821 33.7006 48.9417 33.5929 49.0012C34.281 48.7206 34.9691 48.44 35.6553 48.1574C38.9535 46.8005 42.2614 45.4627 45.5923 44.1903C46.982 43.6733 48.4024 43.2447 49.8017 42.7565C52.852 41.6839 55.8792 40.5499 58.8949 39.3832C60.0251 38.945 61.1591 38.5183 62.2931 38.0897C59.9405 39.1872 57.4515 40.425 54.9989 41.5033C54.9239 41.5379 54.8471 41.5725 54.7721 41.6051C54.947 41.5494 55.1238 41.4937 55.2987 41.436C58.2357 40.4461 61.2418 39.6504 64.1556 38.5933C61.8145 39.5466 59.5427 40.7075 57.2708 41.7724C57.1689 41.8223 57.069 41.8723 56.9671 41.9242C57.1285 41.8704 57.2881 41.8185 57.4495 41.7647C59.0545 41.2188 60.6728 40.7056 62.2797 40.1636C61.5147 40.5057 60.7632 40.8844 60.0289 41.288C61.9875 40.7364 63.8904 39.9906 65.651 38.9662C65.5895 38.9815 65.5299 39.0008 65.4684 39.0161C65.5587 38.9815 65.649 38.9489 65.7394 38.9123C67.9248 38.0609 68.9511 37.4554 71.2249 36.6827C69.3317 36.8788 67.5115 37.3574 65.7375 37.9897C69.1011 36.602 72.2802 34.8126 75.6034 33.3326C73.3469 34.0053 71.0866 34.6723 68.855 35.4315H68.857Z" fill="#AB0014"/>
<path d="M22.0254 55.1807C19.6997 56.4474 17.8353 58.0408 15.721 59.5111C15.6057 59.5938 15.4923 59.6764 15.377 59.7572C15.5826 59.6515 15.7883 59.5457 15.9939 59.4439C18.2966 58.2868 19.8592 57.887 21.8851 56.9414C25.216 55.4364 28.3643 53.5451 31.307 51.3789C28.1779 52.5514 24.9815 53.6008 22.0254 55.1788V55.1807Z" fill="#AB0014"/>
<path d="M25.5649 55.8402C24.0791 56.6917 22.6876 57.7008 21.2383 58.6138C21.1999 58.6387 21.1595 58.6656 21.1211 58.6906C21.8419 58.3735 22.5665 58.064 23.2949 57.7661C24.3002 57.3548 25.3304 56.9935 26.2953 56.4937C27.7522 55.771 29.0285 54.7273 30.4988 54.0354C28.7805 54.3891 27.1218 55.0368 25.5649 55.8383V55.8402Z" fill="#AB0014"/>
<path d="M26.2578 58.1714C27.1573 57.9158 28.003 57.5237 28.818 57.0701C27.8973 57.2565 27.0478 57.6717 26.2578 58.1714Z" fill="#AB0014"/>
<path d="M23.2625 61.3967C22.9204 62.081 22.6802 62.8094 22.4072 63.5206C23.3971 62.3001 23.8661 61.0181 24.3235 59.5535C24.0852 59.8764 23.5585 60.8374 23.2625 61.3967Z" fill="#AB0014"/>
<path d="M33.9204 52.4475C33.5725 53.6853 33.3246 54.9538 33.165 56.2301C33.782 54.8443 34.3067 53.7449 34.7546 52.2553C35.1409 50.9483 35.2851 49.5874 35.4946 48.2458C34.9372 49.6336 34.3413 51.0098 33.9185 52.4475H33.9204Z" fill="#AB0014"/>
<path d="M42.1421 22.0386C42.342 21.1007 42.5207 20.1589 42.6591 19.2074C42.8282 18.1023 42.9666 16.9913 43.057 15.8746C43.1089 14.8021 43.1262 13.7276 43.1857 12.6571C43.205 12.2573 43.228 11.8575 43.2511 11.4558C43.1262 12.1054 42.9782 12.7493 42.8129 13.3874C42.3266 15.2038 41.7231 16.9855 41.256 18.8077C41.3809 18.1772 41.5078 17.5449 41.6289 16.9144C41.5328 17.2008 41.4367 17.4853 41.3406 17.7717C40.6044 20.0185 39.8317 22.2539 39.0821 24.4969C39.7798 21.7868 40.4218 19.0633 40.9081 16.309C41.2233 14.1813 41.3771 11.5692 41.7096 8.99938C41.8172 8.09216 41.9191 7.18303 42.0133 6.27197C41.7538 7.44827 41.4828 8.62457 41.2041 9.79703C40.7582 11.3328 40.2027 13.1376 39.8068 14.3254C39.7472 14.5042 39.6876 14.6829 39.628 14.8617C39.6453 14.7041 39.6645 14.5426 39.6837 14.3754C39.7203 14.0678 39.7549 13.7622 39.7875 13.4547C39.7453 13.6373 39.701 13.818 39.6549 14.0006C39.3378 15.3191 38.8976 16.6011 38.4248 17.8678C38.5228 16.9913 38.6189 16.0918 38.7496 15.1115C38.8034 14.6752 38.8534 14.2389 38.8957 13.8026C38.8476 14.0217 38.7977 14.2389 38.7458 14.458C38.0904 17.3699 37.0697 19.4785 36.1375 22.5537C34.8229 26.888 33.858 31.3164 32.8777 35.7352C33.2967 34.828 33.7157 33.9208 34.1271 33.0078C34.0579 33.2077 33.9887 33.4076 33.9233 33.6075C33.1872 35.8121 32.6682 38.0802 32.1281 40.3386C32.107 40.3924 32.0839 40.4462 32.0628 40.4962C31.4708 41.9589 31.1729 43.5157 30.7577 45.0322C31.1882 44.373 31.5707 43.683 31.9013 42.9699C30.8826 45.7357 29.7986 48.3805 28.8318 51.2463C28.0341 53.645 27.1404 56.0111 26.2927 58.3906C26.3869 57.9639 26.4715 57.5352 26.5465 57.1047C26.6868 56.3282 26.8501 55.5555 27.0251 54.7867C26.9847 54.8828 26.9443 54.9808 26.904 55.0769C26.4215 56.2455 25.8045 57.3507 25.2356 58.4771C24.7013 59.5861 24.4726 60.1204 24.1189 61.0161C23.5634 62.4846 23.1329 63.9972 22.6658 65.4964C22.4198 66.2518 22.2064 67.0437 21.8682 67.7433C22.8792 66.5843 23.6557 65.235 24.3534 63.8684C24.4879 63.6051 24.6167 63.338 24.7397 63.0708C24.3745 64.2971 24.0343 65.531 23.6672 66.7573C23.3405 67.7798 23.0695 68.8312 22.5851 69.7922C23.6749 68.3353 24.4706 66.6727 25.2433 65.0313C25.3067 64.891 25.3702 64.7487 25.4317 64.6084C25.7757 63.978 26.1025 63.3399 26.4177 62.696C26.3158 62.9843 26.212 63.2707 26.1102 63.559C25.1299 66.3786 24.3265 69.2521 23.427 72.0968C25.2087 68.8869 26.656 65.5214 27.9803 62.104C27.6747 62.9401 27.3826 63.7819 27.1154 64.6315C26.2409 67.3627 25.6662 70.1766 24.855 72.9252C25.7546 71.3049 26.5657 69.6346 27.3095 67.9336C27.0154 68.837 26.7483 69.7538 26.3677 70.6245C27.0443 69.6019 27.5786 68.4929 28.1341 67.4012C29.2835 65.1043 30.2733 62.7267 31.1075 60.2992C32.0397 57.5756 32.9719 54.8521 33.8157 52.0997C34.4653 49.9604 35.0766 47.8077 35.7205 45.6665C36.1721 44.1577 36.6546 42.6566 37.0332 41.1266C37.0505 41.0555 37.0678 40.9844 37.0851 40.9152C37.5445 39.3814 37.975 37.838 38.3787 36.2888C37.9193 38.5549 37.5426 40.8325 37.3081 43.116C37.8924 41.0344 38.7362 39.0354 39.3858 36.975C39.9471 35.3047 40.4161 33.6075 40.86 31.9027C40.6236 33.1481 40.4468 34.853 40.4218 35.6487C40.8081 34.3936 41.3136 33.177 41.6615 31.9084C42.0229 30.5034 42.2343 29.0561 42.2689 27.6049C41.9306 28.5698 41.5347 29.5174 41.2233 30.4919C41.2906 30.2266 41.3579 29.9633 41.4271 29.698C41.9729 27.6088 42.4054 25.4887 42.6802 23.3456C42.7706 22.6556 42.9628 20.303 43.13 18.8211C43.1473 18.652 43.1627 18.4847 43.18 18.3156C43.1089 18.6135 43.0358 18.9114 42.9609 19.2074C42.7129 20.2415 42.4284 21.1526 42.1363 22.0386H42.1421ZM30.4925 55.3691C30.0619 56.6165 29.5929 57.8485 29.1201 59.0806C29.443 58.206 29.7621 57.3296 30.0792 56.4551C30.6366 54.9174 31.1863 53.374 31.6976 51.821C31.7418 51.7364 31.786 51.6499 31.8302 51.5653C31.392 52.8358 30.9403 54.1024 30.4905 55.3691H30.4925ZM31.4458 48.317C31.6399 47.5444 31.8283 46.7717 32.0166 45.9971C32.1185 45.7588 32.2204 45.5204 32.3203 45.2802C32.0301 46.2931 31.7437 47.306 31.4458 48.317ZM32.9469 40.3117C32.9469 40.3117 32.9412 40.329 32.9392 40.3367C32.8412 40.6634 32.747 40.9921 32.6548 41.3207C32.7547 40.8998 32.8547 40.4789 32.9527 40.056C32.9335 40.1118 32.9123 40.1675 32.8931 40.2213C33.0315 39.7024 33.1603 39.1815 33.2814 38.6587C33.2987 38.6203 33.314 38.5818 33.3294 38.5434C33.2045 39.1334 33.0795 39.7235 32.9469 40.3117Z" fill="#AB0014"/>
<path d="M36.167 17.2722C35.7903 18.4408 35.3194 19.5748 34.9523 20.7473C34.5391 22.0908 34.4583 23.5035 34.1758 24.8758C34.5563 24.2646 34.837 23.5977 35.1176 22.9365C35.2175 22.7097 35.5962 21.6987 35.7096 21.1951C36.0863 19.5517 36.2132 18.1333 36.4707 16.4726C36.4803 16.4015 36.4899 16.3304 36.4996 16.2573C36.39 16.5956 36.2785 16.9358 36.167 17.2722Z" fill="#AB0014"/>
<path d="M33.9668 19.1247C34.0994 18.7748 34.1782 18.4058 34.1859 18.031C34.0475 18.3789 33.9706 18.7499 33.9668 19.1247Z" fill="#AB0014"/>
<path d="M46.8819 26.513C46.4763 25.1829 45.9093 23.8548 45.375 22.6169C45.7902 25.9709 47.0952 29.1174 48.3465 32.2292C47.8929 30.3167 47.4585 28.3947 46.8838 26.513H46.8819Z" fill="#AB0014"/>
<path d="M42.2031 35.3145C42.3165 36.3293 42.6894 37.2826 43.193 38.1649C43.045 37.1577 42.7336 36.1851 42.2031 35.3145Z" fill="#AB0014"/>
<path d="M58.2744 60.8642C59.22 62.9958 60.3175 65.0563 61.4688 67.0821C61.6995 67.4877 61.934 67.8913 62.1723 68.293C61.9936 67.8894 61.8148 67.4857 61.6418 67.0802C61.2267 66.1038 60.7827 64.9909 60.4348 63.9357C60.0273 62.6844 59.689 61.414 59.2873 60.1608C58.4493 57.5083 57.519 54.8866 56.631 52.2515C55.868 49.9431 54.9761 47.6808 53.992 45.457C53.3328 43.9059 52.5466 42.4893 52.0661 40.9306C52.216 42.6873 52.7158 44.3922 53.1386 46.0971C53.4712 47.4079 53.8498 48.7053 54.2592 49.9931C53.9209 48.9628 53.5788 47.9326 53.2136 46.9101C52.2506 44.1846 51.0936 41.5322 50.1248 38.8105C50.2075 38.9816 50.2882 39.1526 50.3709 39.3237C50.319 39.1719 50.269 39.02 50.2171 38.8701C49.1465 35.7621 48.1778 32.6215 47.1553 29.4962C46.1904 26.665 45.0987 23.8761 43.9031 21.1353C44.1549 22.5153 44.4625 23.8838 44.8161 25.2408C44.4759 24.3758 44.1376 23.5109 43.8147 22.6383C44.1107 25.3196 44.6239 27.9778 45.3408 30.5803C45.0679 29.9114 44.793 29.2425 44.5201 28.5736C43.9839 27.2455 43.3996 26.0154 42.9632 24.6545C43.2823 27.7241 43.9992 30.784 44.918 33.744C45.0083 34.0131 45.1025 34.2802 45.1948 34.5493C44.2722 32.3793 43.2823 30.2401 42.3616 28.07C42.6999 30.3265 43.192 32.5561 43.8147 34.7492C43.2439 33.5537 42.6519 32.3678 41.958 31.2395C42.9037 34.6646 43.6744 38.1513 44.9776 41.4687C45.7464 43.4004 46.5037 45.3359 47.3744 47.2253C48.3969 49.3761 49.454 51.5096 50.4439 53.6738C50.5208 53.8391 50.5996 54.0044 50.6765 54.1697C50.5592 53.8045 50.4401 53.4374 50.3228 53.0722C50.4554 53.3413 50.5938 53.6065 50.7361 53.8699C51.3377 55.742 52.0527 57.5794 52.76 59.4131C53.2578 60.6643 53.7729 61.9156 54.3207 63.1515C54.117 63.4802 54.2573 63.9972 54.7339 64.0664C55.916 66.6343 57.2653 69.1214 58.9356 71.4067C59.1604 71.722 59.3853 72.0372 59.6102 72.3505C59.3853 71.9122 59.147 71.3914 58.9894 71.0108C58.4551 69.6538 58.013 68.2603 57.5248 66.8861C57.6862 67.1475 57.8515 67.405 58.0533 67.6357C57.9034 67.4262 57.8112 67.1821 57.7112 66.9456C57.4633 66.3517 57.2653 65.7405 57.0846 65.1254C57.5978 66.1384 58.1456 67.134 58.778 68.0777C58.9952 68.4064 59.2258 68.7255 59.4661 69.0388C59.3776 68.885 59.2911 68.7312 59.2085 68.5736C58.4108 67.0898 57.9861 65.4503 57.5305 63.7742C57.396 63.3053 57.2595 62.8363 57.1211 62.3692C58.0879 64.4047 59.2047 66.3633 60.4079 68.2661C60.6116 68.589 60.8173 68.91 61.0268 69.229C60.8115 68.787 60.6097 68.3411 60.4175 67.8874C59.6544 66.1326 59.1643 64.0472 58.53 62.1636C57.7516 59.7917 56.7944 57.4853 55.9794 55.125C55.5508 53.941 55.1549 52.7455 54.7628 51.5499C55.1184 52.5994 55.4912 53.6431 55.8776 54.681C56.6426 56.7549 57.3749 58.8422 58.2705 60.8642H58.2744ZM47.8068 41.1554C47.9164 41.3957 48.0298 41.6359 48.1432 41.8743C48.1605 41.9569 48.1778 42.0396 48.1932 42.1222C48.0644 41.7993 47.9356 41.4783 47.8068 41.1554ZM49.7846 38.109C49.8846 38.3185 49.9865 38.528 50.0864 38.7375C50.1479 39.0662 50.2113 39.3948 50.2748 39.7235C49.9403 38.7855 49.5867 37.8533 49.2369 36.9192C49.4194 37.3152 49.602 37.713 49.7846 38.109ZM50.2421 43.2293C50.6688 44.0654 51.1051 44.8958 51.5395 45.7261C51.6779 46.3258 51.8182 46.9235 51.9662 47.5194C52.0969 48.0249 52.2333 48.5265 52.3756 49.0301C51.6106 47.1177 50.9436 45.1668 50.244 43.2293H50.2421Z" fill="#AB0014"/>
<path d="M53.4426 62.0097C52.5104 60.0165 51.9568 57.71 51.1669 55.5804C50.6076 54.1158 49.8925 52.7203 49.1775 51.3268C48.4894 50.0237 47.8148 48.709 46.9902 47.4866C47.39 48.6456 47.6284 49.8526 47.9724 51.0289C48.401 52.5474 48.9104 54.0446 49.5389 55.492C50.5922 57.808 52.0395 59.9127 53.3503 62.0865C53.4887 62.3076 53.6271 62.5267 53.7674 62.7458C53.6579 62.5017 53.5483 62.2576 53.4407 62.0116L53.4426 62.0097Z" fill="#AB0014"/>
<path d="M49.5586 56.9549C49.1473 55.7382 48.7591 54.512 48.2747 53.3222C47.6885 51.8384 46.8601 50.4679 46.1777 49.0283C46.7793 52.4265 48.3996 55.5095 50.0372 58.5079C50.0584 58.5483 50.0814 58.5886 50.1026 58.6271C49.9257 58.0678 49.7432 57.5104 49.5586 56.953V56.9549Z" fill="#AB0014"/>
<path d="M61.4448 62.3846C61.1392 61.5158 60.7318 60.6893 60.3281 59.8647C60.4953 60.7623 60.6856 61.658 60.9778 62.5249C61.3314 63.5378 61.7908 64.5142 62.256 65.481C62.0253 64.4393 61.7908 63.3956 61.4448 62.3846Z" fill="#AB0014"/>
<path d="M51.0231 38.9334C50.8963 38.1165 50.7348 37.3035 50.4773 36.5173C50.1544 35.5371 49.7507 34.8451 49.349 33.8284C49.3298 35.7946 50.0448 37.6994 51.0366 39.3735C51.173 39.6753 51.027 39.0506 51.0231 38.9314V38.9334Z" fill="#AB0014"/>
<path d="M46.2727 46.2894C46.0325 45.5052 45.6615 44.7729 45.3213 44.0291C45.3732 44.8421 45.5058 45.6551 45.7384 46.4355C45.9729 47.1562 46.3188 47.8347 46.6667 48.5055C46.6494 48.0423 46.4553 46.9448 46.2708 46.2894H46.2727Z" fill="#AB0014"/>
<path d="M45.5424 48.3116C45.4597 47.833 45.3925 47.3505 45.2637 46.8816C45.1272 46.3684 44.8658 45.8955 44.7294 45.3843C44.6429 46.4145 45.0542 47.4024 45.5136 48.302C45.5424 48.3539 45.5655 48.4327 45.5424 48.3116Z" fill="#AB0014"/>
<path d="M54.2979 64.8584C54.565 65.6368 54.811 66.4306 55.207 67.1572C55.5241 67.705 56.0873 68.5084 56.3583 68.8793C56.0219 67.3897 55.3569 65.9732 54.2979 64.8603V64.8584Z" fill="#AB0014"/>
<path d="M52.9424 66.2112C52.9924 66.3265 53.0692 66.4284 53.1673 66.5091C53.1154 66.3938 53.0385 66.2919 52.9424 66.2112Z" fill="#AB0014"/>
<path d="M38.4919 25.8059C37.3964 26.0308 36.2873 26.2096 35.2033 26.4921C35.4647 26.3633 35.7299 26.2365 35.9952 26.1154C36.7736 25.781 37.7616 25.3639 38.7783 25.2274C37.7366 25.1851 36.7044 25.4196 35.6877 25.6176C33.7983 25.9732 31.4034 26.9169 30.2867 27.5685C28.3185 28.6698 26.6943 30.5996 25.5507 32.0007C24.9491 32.7484 24.3302 33.4846 23.7171 34.2227C24.7492 33.2981 25.8775 32.4025 26.7366 31.7509C26.2907 32.2333 25.8486 32.7427 25.4046 33.2789C24.0861 34.953 23.0712 36.8616 22.3043 38.8471C21.7393 40.4059 21.2222 41.9839 20.7725 43.5792C20.8013 43.5062 20.832 43.4332 20.8628 43.3601C21.5259 41.7379 22.314 40.1311 23.177 38.5877C23.6844 37.7016 24.1534 36.9385 24.63 36.2389C23.177 38.43 22.0718 40.8711 21.6086 43.4678C21.4606 44.3442 21.2491 45.2322 21.3375 46.126C21.3741 45.2226 21.7258 44.3577 21.9872 43.5024C22.5657 41.7552 23.2577 40.2964 24.2879 38.6588C24.4225 38.43 24.5628 38.2052 24.705 37.9803C25.1317 37.4998 25.5795 37.0385 26.0428 36.5926C25.4604 37.5094 24.9779 38.432 24.7165 39.1047C24.3398 40.0042 23.842 41.1613 23.3942 42.2972C23.3653 42.3722 23.3365 42.4471 23.3077 42.5202C23.9035 41.3919 24.5974 40.3194 25.345 39.2854C25.7775 38.678 26.3906 37.8746 27.1652 36.9693C26.5194 37.9303 25.9851 38.9644 25.5776 40.0503C25.3508 40.6865 25.0933 41.3304 25.0144 42.007C25.1106 41.6207 25.3066 41.2747 25.4911 40.9191C26.4291 39.1489 27.4228 37.8976 28.7529 36.4734C28.6298 36.681 28.5107 36.8962 28.3915 37.1192C28.3146 37.2557 28.2358 37.3941 28.1589 37.5305C28.3857 37.2691 28.626 37.0212 28.8778 36.7828C29.8042 35.9621 30.6442 35.0491 31.5821 34.2419C32.7815 33.1617 33.8386 32.3717 35.2533 31.4683C34.6382 31.6567 34.0712 31.8643 33.5446 32.0969C33.5772 32.0719 33.6099 32.0469 33.6426 32.0238C34.6209 31.3011 35.6377 30.6284 36.6833 30.0076C36.7525 29.9691 36.8197 29.9307 36.8889 29.8922C36.0817 30.1383 35.2821 30.4093 34.5056 30.7399C34.2769 30.836 34.0501 30.9398 33.8271 31.0455C34.9323 30.3036 36.2143 29.5405 37.3829 29.0811C35.9625 29.3099 34.5863 29.7423 33.2832 30.3401C34.3461 29.552 35.4839 28.8774 36.9889 28.3065C35.7107 28.468 34.4864 28.8313 33.3312 29.3464C34.6613 28.4353 36.1201 27.7049 37.5924 27.1341C37.7058 27.0899 37.8192 27.0476 37.9326 27.0053C37.8865 27.0149 37.8404 27.0245 37.7942 27.0361C36.4084 27.3455 34.9938 27.6031 33.7022 28.2201C33.1621 28.468 32.6373 28.7409 32.1261 29.035C32.8449 28.5622 33.6503 28.0836 34.6555 27.5223C35.951 26.8054 37.158 26.3672 38.49 25.804L38.4919 25.8059Z" fill="#AB0014"/>
<path d="M30.4062 36.3792C30.3851 36.41 30.3639 36.4426 30.3428 36.4734C30.8348 36.014 31.3884 35.6296 31.8823 35.1722C32.3821 34.6916 32.803 34.1342 33.3277 33.6787C31.9515 34.1996 31.1962 35.1991 30.4062 36.3792Z" fill="#AB0014"/>
<path d="M29.6839 27.2608C29.5897 27.3434 29.4936 27.4242 29.3994 27.5068C29.5474 27.4261 29.6993 27.3473 29.8492 27.2704C30.5988 26.8937 31.3618 26.54 32.0961 26.1325C32.7649 25.752 33.4281 25.3464 34.1507 25.0735C32.417 25.1369 30.9294 26.1325 29.682 27.2608H29.6839Z" fill="#AB0014"/>
<path d="M30.7471 25.4618C30.8931 25.4176 31.0277 25.3484 31.1603 25.2715C31.0085 25.2984 30.8682 25.3676 30.7471 25.4618Z" fill="#AB0014"/>
<path d="M24.8477 50.9519C24.9764 50.8885 25.1071 50.827 25.2378 50.7674C25.2417 50.6233 25.2436 50.4791 25.2455 50.335C25.2282 50.3734 25.209 50.4118 25.184 50.4484C25.0725 50.6156 24.9591 50.7828 24.8477 50.95V50.9519Z" fill="#AB0014"/>
<path d="M24.5799 44.569C24.4915 44.9207 24.4261 45.2879 24.3781 45.6665C24.3819 44.5978 24.4511 43.5388 24.6203 42.5047C23.9149 44.15 23.5035 45.9433 23.4939 47.7385C23.4478 47.1446 23.417 46.5487 23.4074 45.951C23.4074 45.2456 23.4132 44.5959 23.6035 43.9366C22.9212 45.1687 22.7789 46.6102 22.6386 47.9883C22.6252 48.121 22.6155 48.2536 22.6079 48.3881C22.5944 48.1921 22.581 47.9941 22.5675 47.7981C22.5233 46.9927 22.4349 46.1855 22.506 45.3801C22.0927 46.7563 21.8121 48.1844 21.6872 49.6202C21.6065 48.7918 21.5008 47.9653 21.4469 47.135C21.1894 48.0748 21.0087 49.0416 20.928 50.0142C20.7204 48.0172 20.5243 46.0086 20.7127 44.0078C20.3321 44.9515 20.1246 45.9606 19.9324 46.9562C19.6633 48.4593 19.571 50.0007 19.7555 51.5173C19.7844 51.5076 19.8132 51.498 19.842 51.4903C20.1149 51.4154 20.386 51.573 20.5243 51.7998C21.7083 50.9772 22.9019 50.1641 24.1032 49.3684C24.5472 49.0743 25.0873 49.3799 25.2507 49.8105C25.2584 48.5976 25.243 47.3829 25.3237 46.172C25.4833 44.0693 25.7677 41.9627 26.7614 39.8657C25.6447 41.2246 24.9547 42.8622 24.578 44.569H24.5799Z" fill="#AB0014"/>
<path d="M19.0508 51.8112C19.2353 51.7132 19.4275 51.6267 19.6255 51.5575C19.6159 51.2961 19.6044 51.0347 19.5909 50.7733C19.4775 49.0857 19.3968 47.3943 19.4852 45.7029C19.1296 47.1579 18.8528 48.6436 18.8913 50.1467C18.9124 50.7041 18.9681 51.2576 19.0489 51.8093L19.0508 51.8112Z" fill="#AB0014"/>
<path d="M63.3777 48.4841C62.9452 49.72 62.359 50.8386 61.7612 52.0361C61.4652 52.6377 61.1481 53.2297 60.8156 53.814C61.1116 53.2239 61.373 52.6454 61.5709 52.1207C62.7703 49.0953 63.2989 44.8649 62.0687 41.7915C62.2975 42.8544 62.2091 43.9519 62.0687 45.0225C62.0092 45.6702 61.79 46.6793 61.5094 47.723C61.5133 47.6519 61.5171 47.5808 61.521 47.5116C61.4768 45.6856 61.2057 43.8981 60.8329 42.1067C60.8463 42.2566 60.8598 42.4066 60.8713 42.5565C61.027 44.8745 61.0808 46.8523 60.4331 48.8435C60.3389 49.1588 60.237 49.4682 60.1313 49.7757C60.1717 49.6374 60.212 49.499 60.2505 49.3587C60.6041 48.0959 60.8156 46.785 60.7195 45.4722C60.6829 44.8879 60.6349 44.2883 60.4042 43.7424C60.8675 45.9681 59.8584 48.8128 58.6417 51.2C58.7205 50.8982 58.7859 50.5926 58.8378 50.2851C59.103 48.8801 59.3433 47.4712 59.5009 46.0489C59.4836 46.1219 59.4682 46.1949 59.4509 46.268C59.0896 47.8152 58.5187 49.6681 57.9901 50.9905C57.8364 51.3845 57.5942 51.84 57.3136 52.3013C57.3366 52.2571 57.3597 52.2129 57.3828 52.1668C58.1401 50.6234 58.5648 48.9396 58.7128 47.2309C58.8358 45.8701 58.857 44.4766 58.4976 43.1581C58.5322 44.7842 58.0074 46.4237 57.5077 48.0536C56.9887 49.547 56.9945 49.5393 56.2103 51.0481C55.5645 52.2148 54.5823 53.5968 54.1326 54.1407C52.5238 56.0321 50.521 57.7062 48.9295 58.8229C47.117 60.0991 45.2007 61.0582 43.4747 61.6771C43.1595 61.7905 42.8405 61.8982 42.5195 61.9924C42.5771 61.9885 42.6348 61.9827 42.6925 61.9789C44.1994 61.8751 45.7043 61.6329 47.1382 61.1486C48.3952 60.7161 49.5907 60.1299 50.7074 59.4149C48.9411 60.7315 47.0286 61.7598 44.9182 62.4902C47.1382 62.2595 49.2928 61.5022 51.2206 60.3625C49.9079 61.3331 48.449 62.0808 46.969 62.765C44.701 63.8644 42.2139 64.5468 39.2866 64.9523C39.1136 64.9773 38.9425 65.0023 38.7695 65.0254C38.8599 65.0235 38.9521 65.0215 39.0425 65.0196C41.2567 64.9446 43.5555 64.7851 45.4487 64.3661C46.0176 64.245 46.5654 64.1028 47.0978 63.9375C46.1599 64.4122 45.1854 64.8505 44.1782 65.2541C48.3087 64.6064 51.7473 63.0822 54.6861 60.4355C54.1921 60.9314 53.6693 61.4119 53.1119 61.8751C51.4878 63.3051 49.7041 64.4814 47.6033 65.5866C47.5207 65.6308 47.438 65.6731 47.3573 65.7154C47.4534 65.6866 47.5514 65.6558 47.6475 65.6251C49.4946 65.0407 51.3167 64.3008 52.9121 63.184C53.7981 62.5882 54.6323 61.9212 55.4146 61.1966C54.0038 62.6939 52.4085 64.1239 50.7574 65.2695C57.1982 62.6651 61.4787 57.9483 62.8895 51.0847C63.0951 50.1275 63.2893 49.1664 63.4738 48.2054C63.4411 48.2977 63.4103 48.3899 63.3757 48.4822L63.3777 48.4841Z" fill="#AB0014"/>
<path d="M64.556 50.9022C64.5676 50.8638 64.5791 50.8253 64.5926 50.7888C64.2773 51.3923 63.9429 51.9843 63.5892 52.5667C63.1356 53.3279 62.6282 54.0582 62.2246 54.8482C61.6499 55.9342 61.2866 57.1451 60.5312 58.1272C61.0348 57.7659 61.4692 57.3238 61.8536 56.8395C61.8383 56.8625 61.8229 56.8856 61.8075 56.9087C62.4552 56.3609 62.8858 55.6151 63.2567 54.8636C63.0549 55.1077 62.8646 55.3652 62.6782 55.6266C62.7531 55.4998 62.8281 55.371 62.8992 55.2422C63.595 53.8564 64.0582 52.3668 64.5541 50.9022H64.556Z" fill="#AB0014"/>
<path d="M49.7164 56.9032C49.7222 56.8993 49.7299 56.8935 49.7357 56.8877C49.7222 56.8993 49.7106 56.907 49.7164 56.9032Z" fill="#AB0014"/>
<path d="M50.9642 55.7765C50.5625 56.2532 50.0358 56.6626 49.7168 56.9028C49.2132 57.293 48.6058 57.7197 47.887 58.1925C46.5223 59.117 45.1538 60.0569 43.6738 60.7892C46.8933 60.3952 49.8802 58.8326 51.1852 55.7304C51.2698 55.5535 51.3486 55.3748 51.4274 55.196C51.2794 55.3979 51.1333 55.5862 50.9642 55.7784V55.7765Z" fill="#AB0014"/>
<path d="M49.7363 56.8876C49.7499 56.876 49.7673 56.8644 49.7789 56.8547C49.7653 56.8663 49.7499 56.876 49.7363 56.8876Z" fill="#AB0014"/>
<path d="M46.3251 58.2253C45.6716 58.7288 45.3583 59.071 44.6279 59.4381C46.2482 59.2459 47.5514 58.0869 48.4451 56.7856C47.8109 57.343 47.0017 57.7025 46.3251 58.2253Z" fill="#AB0014"/>
<path d="M45.1484 57.4162C45.3791 57.3989 45.6117 57.1951 45.7154 57.0337C45.481 57.1567 45.3483 57.297 45.1484 57.4162Z" fill="#AB0014"/>
<path d="M34.1377 63.7204C35.4581 63.8991 36.794 63.9779 38.124 63.8895C38.9909 63.8453 39.8539 63.7626 40.715 63.655C40.6227 63.6492 40.5324 63.6416 40.4401 63.6339C39.2965 63.5243 38.0049 63.3725 37.1207 63.2456C36.5499 63.1495 35.9636 63.0361 35.3716 62.9093C36.1789 62.9342 36.9881 62.8881 37.7838 62.7709C38.0222 62.7363 38.2605 62.6959 38.4969 62.6498C37.9068 62.6498 37.3956 62.594 36.8401 62.4672C36.2289 62.2923 35.6215 62.1078 35.0141 61.9213C35.0526 61.9271 35.0929 61.9328 35.1314 61.9367C36.0597 62.0482 37.0112 62.1385 37.9357 61.9636C38.1106 61.9309 38.2836 61.8963 38.4565 61.8579C38.1432 61.8521 37.9107 61.831 37.6243 61.7695C37.0592 61.6426 36.523 61.4139 35.9713 61.2371C34.8027 60.8584 33.6341 60.4778 32.4482 60.1549C30.8702 59.6917 29.4036 59.3073 28.1043 58.5789C28.8386 59.4053 29.7227 60.0685 30.6895 60.5874C29.6477 60.2414 28.5387 59.8263 28.1985 59.659C27.7891 59.4822 26.8031 59.0786 26.015 58.6096C26.7301 59.3707 27.5181 60.0742 28.3773 60.672C27.0203 60.0031 25.6556 59.2804 24.4832 58.3367C25.1309 59.1997 25.9535 59.9147 26.7896 60.5893C26.805 60.6028 26.8223 60.6143 26.8396 60.6278C26.4706 60.4221 26.1035 60.2145 25.7421 59.9993C25.2847 59.7225 24.8349 59.4284 24.4082 59.1036C24.6331 59.3919 24.8733 59.6687 25.1271 59.9339C25.9785 60.7892 26.9242 61.558 27.9371 62.225C27.447 61.9905 26.8627 61.6945 26.1131 61.287C27.6661 63.1188 29.7611 64.4834 32.058 65.1792C33.1267 65.4867 34.2434 65.5752 35.339 65.7501C35.5754 65.7827 35.8118 65.8154 36.0482 65.8442C35.7118 65.7385 35.3793 65.6232 35.0545 65.4906C34.4202 65.2407 33.7821 64.8947 33.1574 64.5661C33.1094 64.5411 33.0594 64.518 33.0113 64.495C34.7662 64.9428 36.4749 65.0735 38.4046 65.06C36.6479 64.716 34.7893 64.1548 33.2401 63.5897C33.5399 63.6396 33.8398 63.6819 34.1396 63.7204H34.1377Z" fill="#AB0014"/>
<path d="M39.4104 59.8111C37.5095 59.4959 35.7124 58.7578 33.8672 58.2273C32.7889 57.9083 31.5165 57.5085 30.7112 57.1337C30.1884 56.8838 29.6329 56.6435 29.2312 56.2341C29.7905 57.1644 30.7419 57.9121 31.7568 58.5022C30.8841 58.1985 30.0134 57.8986 29.2139 57.52C31.3531 59.6938 34.1132 60.6087 36.9713 60.553C36.3832 60.405 35.845 60.182 35.3087 59.9379C36.7849 60.2301 38.3283 60.1609 39.8236 60.0014C40.0966 59.9745 40.3676 59.9437 40.6386 59.9072C40.2561 59.8976 39.7141 59.8553 39.4085 59.8111H39.4104Z" fill="#AB0014"/>
<path d="M32.2969 56.6125C32.7582 57.0412 33.3655 57.2526 33.9806 57.3372C33.4251 57.0008 32.9119 56.8355 32.2969 56.6125Z" fill="#AB0014"/>
<path d="M30.4241 65.2213C29.8071 65.0099 29.1613 64.8676 28.5674 64.5928C29.7937 65.7229 31.5004 66.0824 33.115 66.2188C32.2193 65.8825 31.3332 65.523 30.4241 65.2213Z" fill="#AB0014"/>
<path d="M53.6289 33.6267C54.1498 34.1571 54.6783 34.7184 55.2338 35.3085C55.647 35.7505 56.0603 36.2003 56.4697 36.652C56.4831 36.6462 56.4947 36.6424 56.5062 36.6366C56.9291 36.4598 57.35 36.283 57.7728 36.1061C57.7363 36.0523 57.7017 35.9966 57.6633 35.9427C57.4288 35.6083 57.1885 35.2758 56.9387 34.951C57.2943 35.3008 57.6441 35.6564 57.992 36.0158C58.6224 35.7505 59.2528 35.4872 59.8852 35.2258C59.495 34.6031 59.0702 33.9995 58.6205 33.4248C58.5609 33.3518 58.5013 33.2768 58.4417 33.2038C58.9837 33.7977 59.5065 34.3916 60.0274 34.9836C60.0659 35.0278 60.1024 35.074 60.1408 35.1201C60.4253 35.0029 60.7078 34.8856 60.9923 34.7703C60.481 33.8785 59.9083 33.0635 59.447 32.5176C58.4206 31.2375 57.2231 30.092 55.8719 29.1559C54.5073 28.1911 53.0177 27.4126 51.48 26.763C50.4882 26.3613 49.4811 25.948 48.4297 25.7385C49.36 26.1018 50.2172 26.6342 51.086 27.1243C52.3065 27.8393 53.8096 28.8234 54.5995 29.4808C54.7975 29.6442 54.9897 29.8094 55.18 29.9747C53.8345 29.0579 52.2834 28.3621 50.963 27.8086C49.9097 27.3454 48.6046 26.8841 47.4379 26.5496C48.7661 27.1878 50.0923 27.8374 51.3263 28.6447C52.6794 29.525 53.6193 30.2707 54.7898 31.2952C54.4746 31.0742 54.1574 30.857 53.8384 30.6436C52.7524 29.9325 51.6223 29.2886 50.4575 28.7177C49.8136 28.4236 49.1774 28.0796 48.4835 27.9162C49.2581 28.2238 50.2999 29.081 50.7765 29.4231C51.4762 29.9671 52.3027 30.6455 53.0888 31.3298C51.9701 30.6379 50.8784 30.2246 49.4542 29.7268C48.7161 29.4769 47.978 29.229 47.2361 28.9907C47.2669 29.006 47.2995 29.0214 47.3303 29.0368C48.2106 29.4596 49.0659 29.9344 49.8962 30.4476C50.6247 30.9166 51.3109 31.4586 51.9874 32.0583C50.8207 31.1626 49.4503 30.5187 47.8012 30.1227C47.609 30.0689 47.4149 30.017 47.2227 29.9651C47.5609 30.1324 47.8896 30.3188 48.201 30.5321C48.7738 30.93 48.9583 31.1299 49.5503 31.5739C50.7246 32.435 50.6209 32.3792 51.9394 33.4191C52.8216 34.1168 54.071 35.0528 55.3337 36.2464C54.8282 35.2623 54.2651 34.3916 53.625 33.6305L53.6289 33.6267Z" fill="#AB0014"/>
<path d="M59.1589 38.4647C59.0859 38.3205 59.0109 38.1764 58.936 38.0322C58.6438 38.1725 58.3497 38.3128 58.0557 38.4512C58.1844 38.6031 58.3113 38.7568 58.4401 38.9087C58.6765 38.7568 58.9167 38.6069 59.1608 38.4628L59.1589 38.4647Z" fill="#AB0014"/>
<path d="M62.1037 37.0769C62.0461 36.9346 61.9865 36.7924 61.925 36.6521C61.8443 36.6752 61.7655 36.6982 61.6847 36.7194C61.6271 36.7463 61.5713 36.7732 61.5137 36.8001C61.6155 36.9289 61.7136 37.0557 61.8116 37.1807C61.9096 37.1441 62.0076 37.1096 62.1057 37.0769H62.1037Z" fill="#AB0014"/>
<path d="M60.4812 37.7496C60.4236 37.6247 60.3621 37.5017 60.3006 37.3787C60.0545 37.4959 59.8085 37.6132 59.5625 37.7323C59.6586 37.8496 59.7509 37.963 59.8412 38.0783C60.0526 37.9649 60.266 37.8553 60.4812 37.7496Z" fill="#AB0014"/>
<path d="M61.0866 37.4706C61.0289 37.3418 60.9713 37.215 60.9117 37.0881C60.7214 37.1785 60.5311 37.2688 60.3408 37.3611C60.4196 37.4706 60.5003 37.5859 60.583 37.7032C60.7502 37.6225 60.9174 37.5456 61.0866 37.4725V37.4706Z" fill="#AB0014"/>
<path d="M49.0062 31.8277C48.9716 31.8085 48.9389 31.7893 48.9043 31.772C49.1792 32.0238 49.4444 32.2832 49.7077 32.5485C50.1805 33.0194 50.6188 33.5307 51.1435 33.9458C51.7566 34.4475 52.2237 34.7204 52.7503 35.2086C51.9584 33.5653 50.5284 32.6946 49.0081 31.8277H49.0062Z" fill="#AB0014"/>
<path d="M58.6816 30.9724C56.6269 28.1008 55.3256 27.505 52.1292 26.2806C52.0966 26.2672 52.0639 26.2556 52.0293 26.2422C52.481 26.5247 52.9307 26.8515 53.2979 27.1475C53.9033 27.6414 54.4915 28.1277 54.9009 28.4276C54.872 28.4045 54.8432 28.3834 54.8144 28.3603C56.0522 29.304 57.3918 30.1036 58.6816 30.9724Z" fill="#AB0014"/>
<path d="M55.7529 27.2226C56.0278 27.4763 56.3103 27.7281 56.6313 27.9223C56.8062 28.0376 56.9984 28.1318 57.1541 28.2721C56.8139 27.7858 56.2757 27.4802 55.7529 27.2207V27.2226Z" fill="#AB0014"/>
<path d="M20.3291 39.8966C20.2138 40.4559 20.1619 41.0249 20.1484 41.5938C20.1696 41.5419 20.1926 41.49 20.2138 41.4381C20.7962 40.158 21.3728 38.9567 21.7168 38.0745C22.0724 37.1923 22.2281 36.656 22.649 35.8718C21.4458 36.8924 20.6328 38.3532 20.3291 39.8966Z" fill="#AB0014"/>
<path d="M18.3984 41.1728C18.7963 40.3617 19.2634 39.5832 19.6016 38.7452C19.8842 38.0686 20.0899 37.4286 20.4166 36.8174C19.1884 37.8515 18.3754 39.7447 18.4004 41.1728H18.3984Z" fill="#AB0014"/>
<path d="M22.1181 33.7364C22.7909 33.0694 23.4847 32.4198 24.1055 31.7048C24.8417 30.8283 25.2434 30.2748 25.9507 29.3291C24.3266 30.4516 23.0523 32.0104 22.1162 33.7364H22.1181Z" fill="#AB0014"/>
<path d="M25.8857 27.795C26.0011 27.7355 26.1106 27.6605 26.2106 27.5759C26.0876 27.624 25.9761 27.6989 25.8857 27.795Z" fill="#AB0014"/>
</svg>
