<svg width="83" height="31" viewBox="0 0 83 31" fill="none" xmlns="http://www.w3.org/2000/svg">
<rect x="0.749512" y="0.299316" width="82" height="30" rx="15" fill="#131313"/>
<path d="M19.1588 20.2993V10.6673H21.0768V20.2993H19.1588ZM16.0228 12.1513V10.4573H24.2128V12.1513H16.0228ZM23.9507 20.2993V13.5373H25.7847V20.2993H23.9507ZM25.7847 16.5613L25.0707 16.0853C25.1547 15.2546 25.3973 14.6013 25.7987 14.1253C26.2 13.64 26.7787 13.3973 27.5347 13.3973C27.8613 13.3973 28.1553 13.4533 28.4167 13.5653C28.678 13.668 28.916 13.8406 29.1307 14.0833L27.9827 15.3993C27.88 15.2873 27.754 15.2033 27.6047 15.1473C27.4647 15.0913 27.3013 15.0633 27.1147 15.0633C26.7227 15.0633 26.4007 15.1893 26.1487 15.4413C25.906 15.684 25.7847 16.0573 25.7847 16.5613ZM31.8345 20.3553L29.0065 13.5373H30.9945L32.8705 18.7453H32.1985L34.1445 13.5373H36.1465L33.1365 20.3553H31.8345ZM29.9585 23.1273L32.0165 18.7733L33.1365 20.3553L31.9045 23.1273H29.9585ZM40.006 20.2993V10.4573H41.336L41.91 12.3613V20.2993H40.006ZM46.81 20.2993L40.972 12.7393L41.336 10.4573L47.174 18.0173L46.81 20.2993ZM46.81 20.2993L46.264 18.4513V10.4573H48.182V20.2993H46.81ZM53.1599 20.4393C52.4786 20.4393 51.8626 20.2853 51.3119 19.9773C50.7706 19.66 50.3366 19.2353 50.0099 18.7033C49.6926 18.162 49.5339 17.56 49.5339 16.8973C49.5339 16.2346 49.6926 15.642 50.0099 15.1193C50.3273 14.5873 50.7613 14.1673 51.3119 13.8593C51.8626 13.542 52.4739 13.3833 53.1459 13.3833C53.8366 13.3833 54.4526 13.542 54.9939 13.8593C55.5446 14.1673 55.9786 14.5873 56.2959 15.1193C56.6133 15.642 56.7719 16.2346 56.7719 16.8973C56.7719 17.56 56.6133 18.162 56.2959 18.7033C55.9786 19.2353 55.5446 19.66 54.9939 19.9773C54.4526 20.2853 53.8413 20.4393 53.1599 20.4393ZM53.1459 18.7313C53.4913 18.7313 53.7946 18.6566 54.0559 18.5073C54.3266 18.3486 54.5319 18.134 54.6719 17.8633C54.8213 17.5833 54.8959 17.266 54.8959 16.9113C54.8959 16.5566 54.8213 16.244 54.6719 15.9733C54.5226 15.7026 54.3173 15.4926 54.0559 15.3433C53.7946 15.1846 53.4913 15.1053 53.1459 15.1053C52.8099 15.1053 52.5113 15.1846 52.2499 15.3433C51.9886 15.4926 51.7833 15.7026 51.6339 15.9733C51.4846 16.244 51.4099 16.5566 51.4099 16.9113C51.4099 17.266 51.4846 17.5833 51.6339 17.8633C51.7833 18.134 51.9886 18.3486 52.2499 18.5073C52.5113 18.6566 52.8099 18.7313 53.1459 18.7313ZM59.6082 20.2993L57.0742 13.5373H58.9222L60.5742 18.4513L60.0142 18.4653L61.7082 13.5373H63.0382L64.7322 18.4653L64.1722 18.4513L65.8242 13.5373H67.6722L65.1522 20.2993H63.8222L62.1142 15.6233H62.6322L60.9242 20.2993H59.6082Z" fill="white"/>
</svg>
