<svg width="43" height="46" viewBox="0 0 43 46" fill="none" xmlns="http://www.w3.org/2000/svg">
<path fill-rule="evenodd" clip-rule="evenodd" d="M21.7412 0.964355C21.9595 0.964448 22.1754 1.01161 22.3746 1.10276C22.5738 1.1939 22.7519 1.32697 22.8972 1.49324L29.4053 8.94981C29.5398 9.1038 29.6432 9.2834 29.7095 9.4783C29.7758 9.6732 29.8037 9.87954 29.7916 10.0855C29.7794 10.2914 29.7275 10.4928 29.6388 10.6782C29.5501 10.8636 29.4264 11.0293 29.2747 11.1657C28.9674 11.4416 28.5658 11.5825 28.1572 11.5575C27.7486 11.5326 27.3662 11.3439 27.0934 11.0326L23.2888 6.67211V26.7699C23.2888 27.1882 23.1259 27.5893 22.8361 27.885C22.5462 28.1808 22.153 28.3469 21.7431 28.3469C21.3332 28.3469 20.94 28.1808 20.6501 27.885C20.3603 27.5893 20.1974 27.1882 20.1974 26.7699V6.67211L16.3928 11.0326C16.12 11.3439 15.7376 11.5326 15.329 11.5575C14.9205 11.5825 14.5188 11.4416 14.2115 11.1657C14.0597 11.0294 13.9358 10.8639 13.8469 10.6785C13.7581 10.4932 13.706 10.2918 13.6937 10.0859C13.6814 9.87994 13.7091 9.67356 13.7752 9.47859C13.8413 9.28362 13.9446 9.10392 14.079 8.94981L20.5872 1.49324C20.7322 1.32722 20.91 1.19429 21.1089 1.10315C21.3077 1.01202 21.5232 0.96472 21.7412 0.964355ZM0.741211 26.3279C0.747726 23.6851 1.78283 21.1532 3.61886 19.2889C5.45489 17.4247 7.94148 16.3809 10.5318 16.3871H11.4001C11.8083 16.3871 12.1998 16.5525 12.4884 16.847C12.777 17.1415 12.9392 17.5409 12.9392 17.9573C12.9392 18.3738 12.777 18.7732 12.4884 19.0677C12.1998 19.3622 11.8083 19.5276 11.4001 19.5276H10.5318C9.65424 19.5253 8.78487 19.6994 7.9733 20.0399C7.16172 20.3804 6.42383 20.8807 5.80176 21.5121C5.17968 22.1436 4.6856 22.8939 4.34772 23.7202C4.00985 24.5465 3.8348 25.4326 3.83256 26.3279V36.0216C3.83455 36.9171 4.00942 37.8034 4.34718 38.6299C4.68494 39.4564 5.17899 40.2069 5.80109 40.8386C6.42319 41.4702 7.16117 41.9707 7.97286 42.3113C8.78456 42.6519 9.65408 42.8261 10.5318 42.8238H32.9563C33.834 42.8261 34.7035 42.6519 35.5152 42.3113C36.3269 41.9707 37.0649 41.4702 37.687 40.8386C38.3091 40.2069 38.8032 39.4564 39.1409 38.6299C39.4787 37.8034 39.6535 36.9171 39.6555 36.0216V26.3279C39.6535 25.4324 39.4787 24.5461 39.1409 23.7196C38.8032 22.8931 38.3091 22.1426 37.687 21.5109C37.0649 20.8792 36.3269 20.3788 35.5152 20.0382C34.7035 19.6975 33.834 19.5234 32.9563 19.5257H32.088C31.6798 19.5257 31.2883 19.3602 30.9997 19.0657C30.7111 18.7713 30.5489 18.3719 30.5489 17.9554C30.5489 17.5389 30.7111 17.1395 30.9997 16.8451C31.2883 16.5506 31.6798 16.3851 32.088 16.3851H32.9563C35.546 16.3805 38.0314 17.4253 39.8662 19.2897C41.7011 21.1542 42.7352 23.6858 42.7412 26.3279V36.0216C42.7382 37.3303 42.4826 38.6257 41.989 39.8336C41.4954 41.0416 40.7734 42.1385 39.8642 43.0618C38.9551 43.985 37.8766 44.7166 36.6904 45.2146C35.5042 45.7126 34.2334 45.9674 32.9507 45.9643H10.5318C9.24902 45.9674 7.97826 45.7126 6.79203 45.2146C5.6058 44.7166 4.52733 43.985 3.61819 43.0618C2.70905 42.1385 1.98706 41.0416 1.49342 39.8336C0.999791 38.6257 0.744189 37.3303 0.741211 36.0216V26.3279Z" fill="#1A1A1A"/>
</svg>
