<svg width="23" height="24" viewBox="0 0 23 24" fill="none" xmlns="http://www.w3.org/2000/svg">
<path fill-rule="evenodd" clip-rule="evenodd" d="M11.6123 0.964355C11.7254 0.964402 11.8371 0.988333 11.9402 1.03458C12.0434 1.08083 12.1355 1.14834 12.2107 1.23271L15.5798 5.01606C15.6495 5.09419 15.703 5.18532 15.7373 5.2842C15.7716 5.38309 15.7861 5.48779 15.7798 5.59227C15.7735 5.69676 15.7466 5.79897 15.7007 5.89303C15.6548 5.9871 15.5908 6.07116 15.5122 6.14039C15.3532 6.28037 15.1452 6.35182 14.9337 6.33916C14.7222 6.3265 14.5243 6.23077 14.383 6.07281L12.4135 3.86039V14.0577C12.4135 14.2699 12.3292 14.4734 12.1791 14.6235C12.0291 14.7736 11.8255 14.8579 11.6133 14.8579C11.4011 14.8579 11.1976 14.7736 11.0475 14.6235C10.8975 14.4734 10.8132 14.2699 10.8132 14.0577V3.86039L8.84363 6.07281C8.70239 6.23077 8.50445 6.3265 8.29294 6.33916C8.08142 6.35182 7.87348 6.28037 7.71441 6.14039C7.63583 6.07123 7.57169 5.98722 7.52569 5.89319C7.47968 5.79916 7.45272 5.69696 7.44635 5.59248C7.43998 5.48799 7.45432 5.38328 7.48856 5.28435C7.5228 5.18543 7.57625 5.09425 7.64585 5.01606L11.0149 1.23271C11.09 1.14847 11.1821 1.08102 11.285 1.03478C11.3879 0.988538 11.4995 0.96454 11.6123 0.964355ZM0.741211 13.8334C0.744584 12.4925 1.28043 11.2079 2.23089 10.262C3.18135 9.31611 4.4686 8.78649 5.80951 8.78961H6.25905C6.47035 8.78961 6.673 8.87355 6.82242 9.02297C6.97183 9.17238 7.05577 9.37504 7.05577 9.58634C7.05577 9.79765 6.97183 10.0003 6.82242 10.1497C6.673 10.2991 6.47035 10.3831 6.25905 10.3831H5.80951C5.35524 10.3819 4.9052 10.4702 4.48507 10.643C4.06494 10.8158 3.68295 11.0696 3.36092 11.39C3.03889 11.7104 2.78311 12.0911 2.6082 12.5103C2.4333 12.9296 2.34268 13.3792 2.34152 13.8334V18.7519C2.34255 19.2062 2.43307 19.6559 2.60792 20.0753C2.78278 20.4946 3.03853 20.8754 3.36057 21.1959C3.68262 21.5164 4.06465 21.7704 4.48484 21.9432C4.90504 22.116 5.35516 22.2044 5.80951 22.2032H17.4181C17.8725 22.2044 18.3226 22.116 18.7428 21.9432C19.163 21.7704 19.545 21.5164 19.8671 21.1959C20.1891 20.8754 20.4449 20.4946 20.6197 20.0753C20.7946 19.6559 20.8851 19.2062 20.8861 18.7519V13.8334C20.8851 13.3791 20.7946 12.9294 20.6197 12.51C20.4449 12.0907 20.1891 11.7099 19.8671 11.3894C19.545 11.0689 19.163 10.8149 18.7428 10.6421C18.3226 10.4693 17.8725 10.3809 17.4181 10.3821H16.9686C16.7573 10.3821 16.5546 10.2981 16.4052 10.1487C16.2558 9.99932 16.1719 9.79667 16.1719 9.58536C16.1719 9.37405 16.2558 9.1714 16.4052 9.02199C16.5546 8.87257 16.7573 8.78863 16.9686 8.78863H17.4181C18.7587 8.78629 20.0453 9.31639 20.9952 10.2624C21.945 11.2084 22.4804 12.4929 22.4835 13.8334V18.7519C22.4819 19.4159 22.3496 20.0731 22.0941 20.686C21.8385 21.2989 21.4648 21.8555 20.9941 22.324C20.5235 22.7924 19.9652 23.1636 19.3511 23.4163C18.7371 23.669 18.0792 23.7982 17.4152 23.7967H5.80951C5.14547 23.7982 4.48764 23.669 3.87356 23.4163C3.25948 23.1636 2.70118 22.7924 2.23055 22.324C1.75991 21.8555 1.38615 21.2989 1.13061 20.686C0.875071 20.0731 0.742753 19.4159 0.741211 18.7519V13.8334Z" fill="#1A1A1A"/>
</svg>
