<svg width="21" height="25" viewBox="0 0 21 25" fill="none" xmlns="http://www.w3.org/2000/svg">
<path d="M20.0391 10.3103C19.9746 6.94528 19.5057 4.46338 19.5121 4.46109C19.3171 4.08064 18.9751 3.76244 18.5566 3.59991C15.8097 2.53454 13.1085 1.5177 10.475 0.65011C10.2058 0.561291 9.92196 0.561291 9.65321 0.65011C7.02023 1.51541 4.31948 2.53042 1.57295 3.59442C1.20349 3.73772 0.893534 4.00281 0.69163 4.32512C0.707197 4.32695 0.127125 6.13767 0.0282334 10.1368C-0.0303689 14.1364 0.467751 15.3346 0.451269 15.336C0.720932 16.215 1.22546 17.1091 1.94838 18.0184C2.75645 19.0338 3.84837 20.0827 5.16739 21.1138C7.35078 22.8274 9.39408 23.8516 9.47969 23.8878C9.66511 23.9784 9.86152 24.0247 10.0639 24.0242C10.2667 24.0242 10.4631 23.978 10.6481 23.8869C10.7342 23.8507 12.7797 22.8233 14.9622 21.1101C16.2817 20.0782 17.3736 19.0293 18.1821 18.0143C18.9568 17.0405 19.4805 16.085 19.7337 15.1464C19.7237 15.145 20.0899 13.6763 20.0391 10.3108V10.3103ZM11.1508 12.9351V15.0672C11.1508 15.6679 10.6641 16.1546 10.0634 16.155C9.46275 16.155 8.97562 15.6683 8.97562 15.0677V12.9653C8.19182 12.5757 7.65249 11.7672 7.65249 10.8327C7.65249 9.51784 8.71832 8.45155 10.0332 8.45155C11.3481 8.45155 12.4139 9.51738 12.4144 10.8323C12.4144 11.7434 11.9025 12.5349 11.1508 12.9351Z" fill="white"/>
</svg>
