<svg width="19" height="31" viewBox="0 0 19 31" fill="none" xmlns="http://www.w3.org/2000/svg">
<path d="M16.634 31C16.3213 31.0017 16.0113 30.9456 15.7218 30.8349C15.4323 30.7242 15.169 30.5612 14.947 30.3551L0.690926 17.0126C0.248392 16.596 0 16.0324 0 15.4449C0 14.8574 0.248392 14.2938 0.690926 13.8772L14.947 0.534714C15.4015 0.170407 15.9862 -0.0199589 16.5842 0.00165843C17.1822 0.0232758 17.7494 0.255283 18.1726 0.651319C18.5957 1.04736 18.8436 1.57825 18.8667 2.13791C18.8898 2.69757 18.6864 3.24478 18.2972 3.67019L5.72807 15.4338L18.2972 27.1974C18.6308 27.5071 18.8588 27.9024 18.9524 28.3334C19.046 28.7644 19.0009 29.2117 18.8229 29.6187C18.6449 30.0257 18.3419 30.3742 17.9523 30.62C17.5626 30.8659 17.1039 30.9981 16.634 31Z" fill="white"/>
</svg>
