<svg width="10" height="17" viewBox="0 0 10 17" fill="none" xmlns="http://www.w3.org/2000/svg">
<path d="M7.97361 16.7426C7.82371 16.7434 7.67512 16.7147 7.53635 16.658C7.39759 16.6014 7.27137 16.5178 7.16495 16.4123L0.3312 9.57854C0.119068 9.36514 0 9.07647 0 8.77557C0 8.47468 0.119068 8.18601 0.3312 7.97261L7.16495 1.13886C7.38283 0.952269 7.6631 0.854768 7.94975 0.86584C8.2364 0.876912 8.50831 0.995741 8.71115 1.19858C8.91399 1.40143 9.03283 1.67334 9.0439 1.95999C9.05497 2.24664 8.95747 2.52691 8.77088 2.74479L2.74579 8.76988L8.77088 14.795C8.93081 14.9536 9.04012 15.1561 9.08498 15.3768C9.12983 15.5976 9.10823 15.8267 9.02289 16.0351C8.93755 16.2436 8.79232 16.4221 8.60555 16.548C8.41878 16.6739 8.19886 16.7416 7.97361 16.7426Z" fill="white"/>
</svg>
