<svg width="84" height="84" viewBox="0 0 84 84" fill="none" xmlns="http://www.w3.org/2000/svg">
<path d="M0 16C0 7.16344 7.16345 0 16 0H68C76.8366 0 84 7.16345 84 16V68C84 76.8366 76.8366 84 68 84H16C7.16344 84 0 76.8366 0 68V16Z" fill="#F7FAFF"/>
<path d="M45.8258 63.8776L46.0497 63.8052C46.1584 63.8862 46.1745 63.9481 46.2216 64.0689C46.4206 64.5797 47.2953 65.0515 47.785 65.2615C48.9058 65.742 50.0172 65.8819 51.2194 65.9371C51.6357 65.9562 52.0739 65.9226 52.4774 66.028C52.5107 66.0366 52.5445 66.0441 52.5779 66.0525L52.644 66.0696C49.6174 67.306 46.6057 67.9996 43.3486 68.2519C43.7264 67.647 44.0473 67.0054 44.3923 66.3814C44.8613 65.5418 45.3391 64.7072 45.8258 63.8776Z" fill="#141A38"/>
<path d="M20.461 22.9038C20.5518 23.0446 20.4605 24.3555 20.4597 24.6329C20.4512 27.4206 20.8034 30.1595 21.6396 32.8252C20.7873 32.437 19.9754 31.8806 19.1756 31.3916C18.2893 30.8559 17.4127 30.3108 16.5645 29.716C17.3774 27.605 19.048 24.6494 20.461 22.9038Z" fill="url(#paint0_linear_380_125)"/>
<path d="M63.2314 23.0066C63.531 23.2489 63.8026 23.6667 64.0442 23.9739C65.4581 25.7717 66.5712 27.6119 67.5497 29.6751C66.7453 30.289 65.9137 30.8637 65.0551 31.3992C64.1729 31.934 63.2868 32.4901 62.3564 32.9382C63.288 29.1595 63.5401 26.8855 63.2314 23.0066Z" fill="#EF9840"/>
<path d="M70.0149 37.6572C70.1185 40.1304 70.1459 42.6036 69.68 45.0454C69.6151 45.3857 69.5568 45.8312 69.43 46.1502L69.3978 46.0811L69.3524 46.0873C69.3315 46.264 69.3254 46.4346 69.2355 46.5922L69.1687 46.6013C69.1426 46.5054 69.1147 46.4001 69.0628 46.3146C68.9084 46.0603 68.284 45.7281 68.0087 45.6054C67.4296 45.3475 66.7844 45.1897 66.1806 44.997C65.4922 44.7774 64.7757 44.4927 64.0599 44.38C63.7899 44.3375 63.5291 44.5044 63.2647 44.4452C63.0814 44.1422 63.3341 43.6344 63.4025 43.2925C63.6012 43.1249 63.8276 42.972 63.935 42.7297C64.1907 42.4992 64.4871 42.3162 64.7635 42.1116C65.33 41.6921 65.8964 41.2658 66.4456 40.8239C67.6883 39.8237 68.8376 38.7306 70.0149 37.6572Z" fill="#A3785A"/>
<path d="M41.8631 26.1306C42.3067 26.3068 46.7313 31.0195 47.4389 31.7466C45.5909 33.4829 43.8108 35.3164 42.0108 37.1042C41.9829 37.1307 41.9415 37.1379 41.9053 37.1514C41.5185 36.8812 40.7304 35.9109 40.3315 35.4982C39.0614 34.1844 37.727 32.9233 36.4951 31.5747L41.8631 26.1306Z" fill="url(#paint1_linear_380_125)"/>
<path d="M41.9457 27.0721L41.9632 26.9524C42.2752 26.9821 44.1812 29.1109 44.5351 29.4335C44.9473 29.671 46.5048 31.3465 46.8712 31.7867C46.44 32.2974 45.9698 32.7717 45.5051 33.2516C44.3551 33.5821 43.2139 33.8153 42.0389 34.034C42.0076 34.4836 42.046 34.9373 42.0127 35.3881C41.8536 34.4096 41.9428 33.3237 41.9436 32.3288L41.9457 27.0721Z" fill="url(#paint2_linear_380_125)"/>
<path d="M41.9463 27.0721L41.9638 26.9524C42.2758 26.9821 44.1817 29.1109 44.5357 29.4335C44.4791 29.461 44.4621 29.4736 44.3915 29.483C44.0808 29.5248 43.6529 29.4411 43.3329 29.4273C42.8856 29.4081 42.4511 29.429 42.0054 29.4622C41.964 28.6667 41.96 27.8685 41.9463 27.0721Z" fill="#FEFEDF"/>
<path d="M38.3467 13.8585C39.28 13.6879 40.2714 13.6527 41.2187 13.6351C41.9702 13.6142 42.7214 13.6235 43.4722 13.6629C44.2231 13.7024 44.9711 13.7719 45.7163 13.8716C49.4911 14.3923 54.2914 15.9369 57.4462 18.1127C57.5235 18.1652 57.5995 18.2195 57.6743 18.2755C57.2249 20.4492 56.311 22.4274 55.0908 24.2739C54.8826 24.1187 54.6717 23.9673 54.4583 23.8196C54.2447 23.6719 54.0287 23.528 53.8101 23.3879C53.5916 23.2477 53.3706 23.1115 53.1472 22.9791C52.9239 22.8468 52.6982 22.7184 52.4704 22.5939C52.2425 22.4695 52.0126 22.3491 51.7805 22.2327C51.5484 22.1163 51.3143 22.004 51.0783 21.8959C50.8423 21.7877 50.6045 21.6837 50.3648 21.5838C50.1251 21.4841 49.8837 21.3885 49.6407 21.2971C49.3977 21.2058 49.1531 21.1188 48.9071 21.036C48.661 20.9533 48.4135 20.8749 48.1647 20.8008C47.9158 20.7268 47.6657 20.6571 47.4144 20.5918C47.1631 20.5265 46.9108 20.4656 46.6574 20.4092C46.404 20.3527 46.1496 20.3008 45.8943 20.2533C45.6391 20.2058 45.3831 20.1628 45.1264 20.1243C44.8696 20.0858 44.6122 20.0518 44.3543 20.0223C44.0963 19.9928 43.838 19.9678 43.5791 19.9475C42.5183 19.866 41.4826 19.8861 40.4208 19.9204C40.444 19.9059 40.4667 19.8906 40.4902 19.8766C40.943 19.6094 44.7239 19.8912 45.3498 20.0718C45.4843 20.1106 45.6495 20.1597 45.7907 20.1494C45.8659 20.1438 45.9506 20.139 45.9968 20.0728C46.5817 19.2347 45.3146 15.9371 45.0335 14.9654C44.9321 14.6152 44.8736 14.2509 44.8106 13.8922C44.6065 13.743 44.1417 13.798 43.886 13.7843C42.2153 13.6948 40.9423 13.7011 39.2687 13.8457C39.0137 13.8677 38.678 13.9401 38.4341 13.8818C38.4047 13.8747 38.3758 13.8662 38.3467 13.8585Z" fill="url(#paint3_linear_380_125)"/>
<path d="M38.3471 13.8583C38.3762 13.866 38.4051 13.8745 38.4345 13.8815C38.6783 13.9398 39.0141 13.8674 39.2691 13.8454C40.9427 13.7008 42.2157 13.6945 43.8864 13.7841C44.1421 13.7978 44.6068 13.7427 44.811 13.8919C44.8739 14.2507 44.9325 14.615 45.0338 14.9652C45.315 15.9369 46.582 19.2344 45.9972 20.0725C45.951 20.1387 45.8663 20.1435 45.7911 20.1491C45.6499 20.1594 45.4847 20.1103 45.3502 20.0715C44.7243 19.891 40.9434 19.6091 40.4906 19.8764C40.4671 19.8904 40.4443 19.9056 40.4212 19.9201C36.224 20.2882 32.0762 21.5835 28.774 24.2827C27.5989 22.3393 26.8176 20.7105 26.2051 18.5061C29.0939 16.3413 32.746 14.9507 36.2541 14.2102C36.9377 14.0659 37.6483 13.9018 38.3471 13.8583Z" fill="#86736F"/>
<path d="M63.3637 43.1584C63.5481 43.0018 63.736 42.865 63.9358 42.7297C63.8284 42.972 63.602 43.1249 63.4033 43.2925C63.3349 43.6345 63.0822 44.1422 63.2655 44.4452C63.53 44.5044 63.7907 44.3375 64.0607 44.38C64.7765 44.4926 65.493 44.7774 66.1814 44.997C66.7852 45.1897 67.4303 45.3475 68.0096 45.6054C68.2848 45.7281 68.9092 46.0603 69.0636 46.3146C69.1155 46.4001 69.1434 46.5054 69.1695 46.6013L69.2363 46.5922C69.3262 46.4346 69.3323 46.264 69.3532 46.0873L69.3986 46.0811L69.4308 46.1502C69.1327 47.5758 68.6577 48.9311 68.1127 50.279C68.0446 50.4492 67.9749 50.6186 67.9035 50.7874C67.8322 50.9562 67.7592 51.1242 67.6847 51.2916C67.6101 51.459 67.534 51.6257 67.4562 51.7916C67.3784 51.9575 67.2991 52.1227 67.2183 52.2871C67.1373 52.4515 67.0548 52.6151 66.9708 52.7779C66.8867 52.9407 66.8011 53.1027 66.714 53.2639C66.6269 53.4251 66.5382 53.5855 66.448 53.745C66.3578 53.9044 66.266 54.063 66.1728 54.2208C66.0795 54.3785 65.9847 54.5353 65.8884 54.6913C65.7922 54.8472 65.6944 55.0021 65.5952 55.1561C65.4959 55.3102 65.3952 55.4633 65.2931 55.6154C65.1909 55.7676 65.0873 55.9187 64.9823 56.0688C64.8772 56.2189 64.7707 56.368 64.6628 56.5161C64.5549 56.6642 64.4456 56.8112 64.3348 56.9572C64.2241 57.1032 64.112 57.2481 63.9984 57.392C63.885 57.5358 63.7701 57.6785 63.6538 57.8202C63.5375 57.9619 63.42 58.1024 63.3011 58.2417C63.1821 58.3811 63.0619 58.5194 62.9403 58.6565C62.8187 58.7935 62.6958 58.9295 62.5717 59.0642C62.4475 59.199 62.322 59.3325 62.1952 59.4648C62.0685 59.5972 61.9405 59.7283 61.8112 59.8582C61.682 59.9881 61.5515 60.1167 61.4198 60.244C61.288 60.3714 61.1551 60.4975 61.021 60.6223C60.8869 60.7472 60.7515 60.8707 60.615 60.993C60.4785 61.1153 60.3409 61.2362 60.202 61.3558C60.0632 61.4754 59.9232 61.5936 59.7821 61.7105C59.641 61.8275 59.4988 61.943 59.3555 62.0572C59.2123 62.1715 59.0679 62.2843 58.9225 62.3957C58.7769 62.5071 58.6304 62.6171 58.4829 62.7257C58.3353 62.8344 58.1867 62.9416 58.0371 63.0474C57.8875 63.1532 57.7369 63.2575 57.5852 63.3604C57.4336 63.4633 57.281 63.5647 57.1275 63.6647C55.7026 64.5976 54.2294 65.439 52.6434 66.0695L52.5773 66.0524C52.5438 66.044 52.5101 66.0365 52.4767 66.0279C52.0732 65.9225 51.635 65.9561 51.2187 65.937C50.0166 65.8817 48.9052 65.7419 47.7843 65.2614C47.2947 65.0514 46.4201 64.5796 46.221 64.0688C46.1739 63.948 46.1578 63.886 46.0491 63.8051L45.8252 63.8775C46.1264 63.2717 47.2012 61.3849 47.6779 61.018C48.1343 60.6667 49.2453 60.4393 49.8305 60.2095C50.614 59.9018 51.4079 59.5368 52.1384 59.1183C52.2799 59.037 52.4204 58.9541 52.5601 58.8696C52.6998 58.7852 52.8385 58.6993 52.9764 58.6119C53.1142 58.5245 53.2511 58.4356 53.387 58.3451C53.5229 58.2548 53.6578 58.163 53.7918 58.0697C53.9257 57.9764 54.0586 57.8817 54.1905 57.7855C54.3224 57.6893 54.4532 57.5918 54.583 57.4928C54.7128 57.3938 54.8415 57.2934 54.9691 57.1917C55.0967 57.0899 55.2231 56.9867 55.3485 56.8823C55.4739 56.7778 55.5981 56.6719 55.7212 56.5648C55.8443 56.4576 55.9662 56.3491 56.0869 56.2393C56.2077 56.1294 56.3272 56.0183 56.4456 55.9059C56.5639 55.7936 56.681 55.6799 56.7969 55.565C56.9128 55.45 57.0274 55.3338 57.1408 55.2164C57.2542 55.099 57.3663 54.9804 57.4772 54.8605C57.588 54.7408 57.6975 54.6198 57.8056 54.4976C57.9139 54.3754 58.0207 54.252 58.1262 54.1275C58.2318 54.003 58.336 53.8774 58.4388 53.7506C58.5416 53.6239 58.6431 53.496 58.7431 53.3671C58.8432 53.2381 58.9418 53.1081 59.039 52.977C59.1363 52.8459 59.2322 52.7138 59.3265 52.5806C59.4209 52.4475 59.5138 52.3134 59.6054 52.1782C59.6969 52.0431 59.7869 51.9069 59.8754 51.7698C59.964 51.6327 60.0511 51.4946 60.1366 51.3557C60.2223 51.2167 60.3063 51.0768 60.3889 50.936C60.4714 50.7952 60.5524 50.6535 60.632 50.511C60.7115 50.3685 60.7894 50.2251 60.8658 50.0808C60.9422 49.9366 61.017 49.7915 61.0902 49.6457C61.1635 49.4999 61.2352 49.3533 61.3053 49.2058C61.3754 49.0584 61.4439 48.9103 61.5107 48.7614C61.5776 48.6125 61.6429 48.4629 61.7066 48.3126C61.7702 48.1623 61.8323 48.0114 61.8926 47.8598C61.9531 47.7082 62.0119 47.5559 62.0689 47.4029C62.6001 46.0218 62.9774 44.585 63.3637 43.1584Z" fill="url(#paint4_linear_380_125)"/>
<path d="M41.8043 51.3026C39.9795 48.6135 37.9965 46.1113 35.7208 43.785C34.3951 42.43 32.9673 41.1725 31.5865 39.8743C28.9502 37.3955 26.4861 34.7688 24.6626 31.6213C23.9765 30.4369 23.3524 29.1929 22.9414 27.8849C21.4436 23.1162 22.3308 18.1534 24.5952 13.7954C24.4401 14.4298 24.3463 15.0494 24.3275 15.7029C24.1003 23.6072 30.4461 30.2021 35.8737 35.1488C37.8841 36.9813 40.0567 38.7258 41.92 40.7084C41.8202 43.2688 41.8768 45.8554 41.8657 48.4189C41.8625 49.1431 41.9622 50.667 41.8043 51.3026Z" fill="#141A38"/>
<path d="M58.9152 13.8545C58.9885 13.9745 59.0604 14.0954 59.1309 14.2171C59.2013 14.3388 59.2702 14.4613 59.3377 14.5848C59.4051 14.7081 59.4711 14.8323 59.5356 14.9573C59.6 15.0823 59.663 15.2081 59.7244 15.3346C59.7859 15.4611 59.8457 15.5883 59.904 15.7163C59.9624 15.8442 60.0192 15.9729 60.0744 16.1022C60.1297 16.2315 60.1834 16.3615 60.2355 16.4921C60.2876 16.6228 60.338 16.754 60.387 16.8858C60.436 17.0176 60.4833 17.1501 60.529 17.2831C60.5747 17.4161 60.6189 17.5496 60.6613 17.6836C60.7039 17.8177 60.7448 17.9523 60.784 18.0873C60.8233 18.2224 60.8609 18.3579 60.8968 18.4938C60.9328 18.6298 60.9672 18.7662 60.9998 18.903C61.0325 19.0397 61.0635 19.1769 61.0929 19.3144C61.1222 19.452 61.1499 19.5898 61.176 19.728C61.202 19.8662 61.2264 20.0047 61.2491 20.1434C61.2717 20.2822 61.2927 20.4213 61.3121 20.5607C61.3314 20.6999 61.349 20.8394 61.365 20.9792C61.381 21.1189 61.3952 21.2588 61.4078 21.3989C61.4203 21.5389 61.4312 21.6791 61.4404 21.8195C61.4496 21.9598 61.4571 22.1002 61.4629 22.2407C61.4687 22.3813 61.4728 22.5218 61.4752 22.6625C61.4775 22.803 61.4782 22.9436 61.4773 23.0843C61.4762 23.2249 61.4735 23.3655 61.4691 23.5061C61.4647 23.6466 61.4586 23.7871 61.4508 23.9275C61.443 24.068 61.4335 24.2083 61.4223 24.3485C61.4111 24.4886 61.3982 24.6287 61.3837 24.7685C61.3691 24.9084 61.3528 25.0481 61.3348 25.1876C61.3169 25.3271 61.2973 25.4663 61.276 25.6053C61.2546 25.7443 61.2317 25.883 61.207 26.0215C61.1823 26.1599 61.156 26.2981 61.128 26.4359C61.1 26.5738 61.0703 26.7112 61.0389 26.8483C59.0697 35.3961 52.0406 39.5961 46.491 45.636C45.6618 46.5304 44.8604 47.4489 44.0866 48.3916C43.7525 48.8028 43.4118 49.2119 43.0918 49.6343C42.8241 49.9878 42.1819 51.0387 41.8818 51.2628C41.8586 51.2801 41.8304 51.2892 41.8047 51.3025C41.9626 50.6669 41.8629 49.143 41.866 48.4188C41.8771 45.8553 41.8206 43.2687 41.9204 40.7083C42.6418 40.0825 43.3106 39.3826 43.9978 38.719C44.8892 37.8654 45.7904 37.0223 46.7016 36.1897C52.1097 31.187 58.8509 25.1876 59.3953 17.3293C59.4784 16.1296 59.3221 14.9863 58.9152 13.8545Z" fill="url(#paint5_linear_380_125)"/>
<path d="M13.9399 37.5957C14.3853 37.8851 15.2338 38.8701 15.7382 39.3068C17.2084 40.5794 18.76 41.763 20.3191 42.9241C20.4378 43.5204 20.5766 44.112 20.7353 44.6988C20.894 45.2857 21.0723 45.8665 21.2702 46.4413C21.4681 47.0162 21.6852 47.5837 21.9214 48.1438C22.1577 48.704 22.4126 49.2556 22.6861 49.7986C25.3739 55.0225 30.4092 59.0899 35.9812 60.8776C37.6646 63.3246 38.9608 65.5707 40.4059 68.1588L40.3668 68.2483C39.7136 68.2202 39.0637 68.1574 38.4172 68.0597C38.1784 68.025 37.9402 67.9874 37.7024 67.9468C37.4646 67.9061 37.2273 67.8626 36.9905 67.8161C36.7538 67.7695 36.5177 67.7201 36.2822 67.6679C36.0466 67.6155 35.8118 67.5602 35.5778 67.502C35.3436 67.4439 35.1102 67.3829 34.8775 67.3189C34.6449 67.255 34.4131 67.1882 34.1821 67.1186C33.9511 67.0489 33.7211 66.9764 33.4919 66.901C33.2627 66.8257 33.0345 66.7475 32.8072 66.6665C32.58 66.5855 32.3538 66.5017 32.1286 66.4151C31.9034 66.3285 31.6793 66.2391 31.4564 66.147C31.2334 66.0548 31.0116 65.9599 30.791 65.8623C30.5704 65.7647 30.351 65.6643 30.1328 65.5613C29.9147 65.4582 29.6979 65.3525 29.4824 65.244C29.2669 65.1356 29.0527 65.0245 28.8399 64.9108C28.6272 64.7971 28.4159 64.6808 28.206 64.5618C27.9961 64.4428 27.7877 64.3213 27.5808 64.1972C27.374 64.073 27.1687 63.9464 26.9649 63.8172C26.7611 63.688 26.559 63.5563 26.3585 63.4222C26.158 63.288 25.9593 63.1513 25.7621 63.0121C25.565 62.8731 25.3697 62.7316 25.1761 62.5876C24.9824 62.4436 24.7907 62.2973 24.6007 62.1486C24.4107 61.9999 24.2226 61.8489 24.0363 61.6956C23.8501 61.5422 23.6658 61.3866 23.4833 61.2287C23.301 61.0707 23.1206 60.9106 22.9421 60.7483C22.7637 60.5859 22.5873 60.4213 22.4129 60.2546C22.2385 60.0878 22.0663 59.919 21.8961 59.748C21.7259 59.577 21.5579 59.4039 21.392 59.2287C21.2261 59.0535 21.0624 58.8763 20.9008 58.6971C20.7393 58.5179 20.5801 58.3367 20.423 58.1536C20.266 57.9705 20.1112 57.7854 19.9588 57.5984C19.8063 57.4114 19.6562 57.2226 19.5084 57.0318C19.3607 56.8412 19.2153 56.6487 19.0723 56.4544C18.8784 56.193 18.6893 55.9281 18.505 55.6598C18.3208 55.3915 18.1414 55.12 17.967 54.8451C17.7926 54.5704 17.6233 54.2925 17.459 54.0114C17.2946 53.7305 17.1355 53.4467 16.9814 53.16C16.8274 52.8732 16.6786 52.5837 16.5351 52.2916C16.3916 51.9994 16.2535 51.7048 16.1207 51.4077C15.9879 51.1104 15.8606 50.811 15.7387 50.5092C15.6167 50.2074 15.5003 49.9035 15.3894 49.5975C15.2785 49.2915 15.1732 48.9835 15.0735 48.6737C14.9738 48.3638 14.8798 48.0523 14.7914 47.739C14.703 47.4258 14.6203 47.111 14.5434 46.7948C14.4664 46.4785 14.3953 46.161 14.3299 45.8421C14.2644 45.5233 14.2048 45.2034 14.151 44.8824C14.0972 44.5614 14.0493 44.2395 14.0071 43.9167C13.9651 43.5939 13.9288 43.2705 13.8984 42.9465C13.8681 42.6224 13.8437 42.2978 13.8251 41.9729C13.7353 40.5356 13.7182 39.0223 13.9399 37.5957Z" fill="url(#paint6_linear_380_125)"/>
<path d="M76.6432 23.4717C76.5985 24.0905 75.6896 26.39 75.4051 27.0653C73.391 31.8463 69.8724 35.8399 65.9098 39.1255C65.071 39.821 64.1847 40.4434 63.3292 41.1151C61.0416 42.9114 58.7833 44.7482 56.7059 46.7873C54.1456 49.3004 51.693 51.8758 49.5541 54.7636C48.2455 56.5304 47.1036 58.3741 45.9314 60.2305L45.0846 57.8597C44.4059 56.2024 43.7089 54.4835 42.8008 52.9391C43.5071 51.4018 45.8622 48.6913 47.0438 47.3708C47.4958 46.8573 47.9563 46.3516 48.4253 45.8535C48.8943 45.3555 49.3714 44.8654 49.8568 44.3833C50.3421 43.9012 50.8354 43.4274 51.3366 42.9618C51.8378 42.4962 52.3466 42.0391 52.8631 41.5905C53.3795 41.1419 53.9034 40.7021 54.4345 40.271C54.9658 39.8399 55.504 39.4178 56.0492 39.0047C56.5945 38.5916 57.1466 38.1878 57.7054 37.7931C58.2642 37.3985 58.8295 37.0133 59.4011 36.6376C61.6152 35.1639 63.9929 33.9774 66.2639 32.6044C67.077 32.1128 67.8489 31.5425 68.6223 30.9906C71.7328 28.7704 74.293 26.4858 76.6432 23.4717Z" fill="#141A38"/>
<path d="M7.35742 23.3765C8.51199 25.1761 10.0109 26.6029 11.6258 27.9824C12.9983 29.1033 14.4228 30.1536 15.8994 31.1332C18.0701 32.5657 20.3317 33.8471 22.5372 35.2232C23.6668 35.928 24.7448 36.7007 25.8538 37.4351C27.8606 38.6651 29.9567 40.4839 31.6972 42.0625C38.311 48.0611 42.4111 53.9874 44.8637 62.5865C43.6124 65.0485 42.8097 67.7585 41.9476 70.3757C40.9573 67.4814 39.9747 64.5916 38.668 61.8198C37.1134 58.5222 34.9785 55.3404 32.6635 52.5256C29.9611 49.2396 26.8123 46.2297 23.5263 43.5295C21.3514 41.7422 19.0551 40.1031 16.9096 38.278C13.103 35.0397 9.81182 30.9629 8.13507 26.2086C7.80744 25.2798 7.57992 24.3345 7.35742 23.3765Z" fill="url(#paint7_linear_380_125)"/>
<path d="M11.6263 27.9824C12.9988 29.1033 14.4233 30.1535 15.8999 31.1332C18.0706 32.5657 20.3322 33.8471 22.5377 35.2232C23.6673 35.928 24.7453 36.7007 25.8543 37.4351C25.8104 37.4591 25.7263 37.5136 25.6733 37.5229C25.51 37.5515 25.4399 37.4721 25.3132 37.3883C25.2988 37.3892 25.2843 37.3903 25.2698 37.3911C25.2457 37.3923 25.2215 37.3925 25.1974 37.3945C25.1296 37.3999 25.0649 37.4108 24.9962 37.4085C24.5971 37.3941 24.1311 37.2133 23.7428 37.1025C22.5563 36.7639 21.4571 36.3565 20.4062 35.6954C19.9137 35.3855 19.4523 35.0279 18.9649 34.717C18.7143 34.5571 18.4186 34.5174 18.162 34.3434C17.6188 33.9751 17.0978 33.5342 16.5495 33.1867C16.0694 32.8824 15.5107 32.6847 15.0079 32.4199C14.1331 31.9591 13.337 31.2453 12.6373 30.5522C12.177 30.0963 11.3856 29.2657 11.4118 28.5707C11.4206 28.3334 11.4587 28.1485 11.6263 27.9824Z" fill="#EF9840"/>
<defs>
<linearGradient id="paint0_linear_380_125" x1="18.9658" y1="31.1569" x2="22.8588" y2="24.6589" gradientUnits="userSpaceOnUse">
<stop stop-color="#505161"/>
<stop offset="1" stop-color="#747688"/>
</linearGradient>
<linearGradient id="paint1_linear_380_125" x1="47.1009" y1="30.8681" x2="36.751" y2="32.4016" gradientUnits="userSpaceOnUse">
<stop stop-color="#FF9001"/>
<stop offset="1" stop-color="#E24617"/>
</linearGradient>
<linearGradient id="paint2_linear_380_125" x1="44.4273" y1="33.5218" x2="43.7315" y2="30.4174" gradientUnits="userSpaceOnUse">
<stop stop-color="#FB9500"/>
<stop offset="1" stop-color="#FCD627"/>
</linearGradient>
<linearGradient id="paint3_linear_380_125" x1="56.9148" y1="16.1642" x2="45.6694" y2="19.3648" gradientUnits="userSpaceOnUse">
<stop stop-color="#E3A973"/>
<stop offset="1" stop-color="#A68879"/>
</linearGradient>
<linearGradient id="paint4_linear_380_125" x1="51.8503" y1="67.328" x2="63.8766" y2="43.5294" gradientUnits="userSpaceOnUse">
<stop stop-color="#1C182D"/>
<stop offset="1" stop-color="#8A6E5C"/>
</linearGradient>
<linearGradient id="paint5_linear_380_125" x1="44.7541" y1="52.0085" x2="58.7044" y2="14.6834" gradientUnits="userSpaceOnUse">
<stop stop-color="#E34B13"/>
<stop offset="1" stop-color="#F89311"/>
</linearGradient>
<linearGradient id="paint6_linear_380_125" x1="23.031" y1="62.3255" x2="30.5988" y2="45.0624" gradientUnits="userSpaceOnUse">
<stop stop-color="#0C0C24"/>
<stop offset="1" stop-color="#444459"/>
</linearGradient>
<linearGradient id="paint7_linear_380_125" x1="30.3778" y1="34.6764" x2="18.8606" y2="59.2176" gradientUnits="userSpaceOnUse">
<stop stop-color="#F69109"/>
<stop offset="1" stop-color="#CB0F23"/>
</linearGradient>
</defs>
</svg>
