<svg width="84" height="85" viewBox="0 0 84 85" fill="none" xmlns="http://www.w3.org/2000/svg">
<path d="M68 0.303711H16C7.16344 0.303711 0 7.46715 0 16.3037V68.3037C0 77.1403 7.16344 84.3037 16 84.3037H68C76.8366 84.3037 84 77.1403 84 68.3037V16.3037C84 7.46716 76.8366 0.303711 68 0.303711Z" fill="#141414"/>
<mask id="mask0_228_2159" style="mask-type:luminance" maskUnits="userSpaceOnUse" x="30" y="23" width="30" height="30">
<path d="M59.746 52.9956L30.5322 23.0376V38.2566L45.2709 52.9956H59.746Z" fill="white"/>
</mask>
<g mask="url(#mask0_228_2159)">
<path d="M59.746 23.0376H30.5322V52.9953H59.746V23.0376Z" fill="url(#paint0_linear_228_2159)"/>
</g>
<mask id="mask1_228_2159" style="mask-type:luminance" maskUnits="userSpaceOnUse" x="14" y="39" width="30" height="31">
<path d="M14.8223 39.2629L43.8261 69.4242L43.9324 54.2055L29.297 39.3642L14.8223 39.2629Z" fill="white"/>
</mask>
<g mask="url(#mask1_228_2159)">
<path d="M43.9324 39.2629H14.8223V69.4242H43.9324V39.2629Z" fill="url(#paint1_linear_228_2159)"/>
</g>
<mask id="mask2_228_2159" style="mask-type:luminance" maskUnits="userSpaceOnUse" x="40" y="15" width="30" height="31">
<path d="M69.1791 45.6271L40.4723 15.1833L40.2168 30.4L54.7064 45.3844L69.1791 45.6271Z" fill="white"/>
</mask>
<g mask="url(#mask2_228_2159)">
<path d="M69.1791 15.1833H40.2168V45.6271H69.1791V15.1833Z" fill="url(#paint2_linear_228_2159)"/>
</g>
<defs>
<linearGradient id="paint0_linear_228_2159" x1="27.9025" y1="22.695" x2="71.9613" y2="61.8582" gradientUnits="userSpaceOnUse">
<stop stop-color="#FFFF00"/>
<stop offset="1" stop-color="#FF007B"/>
</linearGradient>
<linearGradient id="paint1_linear_228_2159" x1="37.0073" y1="64.2441" x2="19.1265" y2="41.0424" gradientUnits="userSpaceOnUse">
<stop stop-color="#4A1877"/>
<stop offset="1" stop-color="#C735F7"/>
</linearGradient>
<linearGradient id="paint2_linear_228_2159" x1="37.7859" y1="14.8556" x2="81.1835" y2="54.757" gradientUnits="userSpaceOnUse">
<stop stop-color="#FFFF00"/>
<stop offset="1" stop-color="#FF007B"/>
</linearGradient>
</defs>
</svg>
