<svg width="15" height="19" viewBox="0 0 15 19" fill="none" xmlns="http://www.w3.org/2000/svg">
<path d="M14.9525 17.8107C14.9522 18.1207 14.8289 18.4179 14.6096 18.637C14.3904 18.8561 14.0931 18.9791 13.7831 18.9791H1.75727C1.60371 18.9791 1.45165 18.9489 1.30977 18.8901C1.16789 18.8314 1.03898 18.7452 0.930395 18.6366C0.821807 18.528 0.735671 18.3991 0.676904 18.2573C0.618138 18.1154 0.587891 17.9633 0.587891 17.8098C0.587891 17.6562 0.618138 17.5041 0.676904 17.3622C0.735671 17.2204 0.821807 17.0915 0.930395 16.9829C1.03898 16.8743 1.16789 16.7882 1.30977 16.7294C1.45165 16.6706 1.60371 16.6404 1.75727 16.6404H13.7841C13.9376 16.6405 14.0897 16.6709 14.2315 16.7298C14.3733 16.7886 14.5022 16.8749 14.6107 16.9836C14.7192 17.0922 14.8052 17.2212 14.8638 17.3632C14.9225 17.5051 14.9526 17.6572 14.9525 17.8107ZM6.9431 14.1067C7.16238 14.3258 7.45969 14.4489 7.76969 14.4489C8.0797 14.4489 8.37701 14.3258 8.59629 14.1067L12.7391 9.96393C12.949 9.74282 13.0642 9.44847 13.0603 9.14363C13.0563 8.83878 12.9334 8.54753 12.7179 8.33195C12.5023 8.11638 12.211 7.99351 11.9062 7.98955C11.6013 7.98559 11.307 8.10083 11.0859 8.31073L8.93908 10.4585V1.44233C8.93908 1.13219 8.81587 0.834755 8.59657 0.615453C8.37727 0.396152 8.07983 0.272949 7.76969 0.272949C7.45956 0.272949 7.16212 0.396152 6.94282 0.615453C6.72352 0.834755 6.60031 1.13219 6.60031 1.44233V10.4585L4.45449 8.31073C4.23461 8.09151 3.93665 7.9686 3.62616 7.96906C3.31567 7.96952 3.01807 8.0933 2.79884 8.31318C2.57962 8.53306 2.45671 8.83102 2.45717 9.14151C2.45763 9.452 2.58142 9.7496 2.80129 9.96883L6.9431 14.1067Z" fill="#1A1A1A"/>
</svg>
