<svg width="29" height="37" viewBox="0 0 29 37" fill="none" xmlns="http://www.w3.org/2000/svg">
<path d="M28.5879 34.0244C28.5874 34.6209 28.347 35.1928 27.9196 35.6145C27.4922 36.0361 26.9127 36.273 26.3085 36.273H2.86729C2.56796 36.273 2.27155 36.2147 1.995 36.1016C1.71845 35.9885 1.46717 35.8228 1.25551 35.6138C1.04385 35.4048 0.87595 35.1567 0.7614 34.8837C0.646849 34.6107 0.587891 34.318 0.587891 34.0225C0.587891 33.7269 0.646849 33.4343 0.7614 33.1613C0.87595 32.8882 1.04385 32.6401 1.25551 32.4312C1.46717 32.2222 1.71845 32.0564 1.995 31.9433C2.27155 31.8302 2.56796 31.772 2.86729 31.772H26.3104C26.6097 31.7723 26.9061 31.8307 27.1825 31.944C27.459 32.0574 27.7101 32.2233 27.9216 32.4325C28.1331 32.6416 28.3008 32.8899 28.4151 33.163C28.5294 33.4361 28.5881 33.7288 28.5879 34.0244ZM12.9757 26.896C13.4031 27.3177 13.9827 27.5546 14.5869 27.5546C15.1912 27.5546 15.7707 27.3177 16.1982 26.896L24.2734 18.9232C24.6826 18.4977 24.9072 17.9312 24.8995 17.3445C24.8918 16.7579 24.6523 16.1974 24.2321 15.7825C23.8119 15.3676 23.2442 15.1312 22.6499 15.1235C22.0557 15.1159 21.482 15.3377 21.051 15.7416L16.8663 19.875V2.52342C16.8663 1.92656 16.6262 1.35414 16.1987 0.932097C15.7712 0.510052 15.1915 0.272949 14.5869 0.272949C13.9824 0.272949 13.4026 0.510052 12.9752 0.932097C12.5477 1.35414 12.3075 1.92656 12.3075 2.52342V19.875L8.12481 15.7416C7.69622 15.3197 7.11543 15.0832 6.5102 15.0841C5.90497 15.085 5.32489 15.3232 4.89757 15.7464C4.47024 16.1695 4.23067 16.7429 4.23157 17.3405C4.23246 17.938 4.47375 18.5107 4.90234 18.9326L12.9757 26.896Z" fill="#1A1A1A"/>
</svg>
