<svg width="84" height="84" viewBox="0 0 84 84" fill="none" xmlns="http://www.w3.org/2000/svg">
<path d="M68 0H16C7.16344 0 0 7.16344 0 16V68C0 76.8366 7.16344 84 16 84H68C76.8366 84 84 76.8366 84 68V16C84 7.16344 76.8366 0 68 0Z" fill="#191919"/>
<path fill-rule="evenodd" clip-rule="evenodd" d="M72.7055 36.3502L72.7211 36.3441C72.9551 36.2521 73.1886 36.1055 73.341 35.8857C73.4967 35.6591 73.5393 35.3891 73.4738 35.1709C73.4136 34.95 73.226 34.8006 73.0577 34.8146C73.0664 34.9858 73.056 35.1052 73.043 35.2345C73.0298 35.3615 73.0083 35.5062 72.9452 35.6456C72.8777 35.7917 72.7507 35.9459 72.5757 36.0689C72.4016 36.1916 72.186 36.2835 71.9662 36.3286L71.9442 36.3329L71.8603 36.3502H60.7335C61.1324 36.207 61.5146 36.0047 61.779 35.8247C62.8014 35.1389 63.6489 34.2476 64.7221 33.7498C65.0247 33.6099 65.3497 33.513 65.6724 33.4984C65.9944 33.4814 66.309 33.5577 66.5619 33.7167C66.8154 33.8749 66.983 34.108 67.0347 34.3641C67.0909 34.6223 67.0396 34.8781 66.9156 35.0725C66.7909 35.2707 66.5989 35.4154 66.4081 35.478C66.2143 35.5432 66.0049 35.5384 65.8395 35.4822C65.5191 35.3793 65.2879 35.0177 65.313 34.6344C65.1501 34.7455 65.0369 34.9946 65.0657 35.2701C65.0782 35.4078 65.1232 35.5522 65.2088 35.6871C65.2931 35.8243 65.4233 35.9454 65.5721 36.0302C65.8743 36.202 66.2576 36.2394 66.6184 36.1249C66.9827 36.009 67.2956 35.7418 67.4811 35.389C67.6701 35.0336 67.7004 34.5908 67.5656 34.2086C67.4385 33.8177 67.1234 33.497 66.7692 33.3334C66.4151 33.1629 66.0145 33.1163 65.6436 33.1637C65.2704 33.2092 64.9226 33.3339 64.5989 33.4832C63.8925 33.8135 63.295 34.2875 62.708 34.7565C62.7415 34.716 62.773 34.6762 62.8022 34.6375C63.6115 33.5817 63.8994 32.1687 63.6242 30.8761C63.5461 30.5062 63.4328 30.1403 63.2709 29.79C63.1092 29.4405 62.8921 29.1014 62.5889 28.8311C62.2858 28.5627 61.9031 28.3693 61.4805 28.3299C61.0575 28.2855 60.6101 28.4334 60.3 28.721C60.1424 28.8643 60.0151 29.0471 59.9406 29.2521C59.8635 29.4599 59.8513 29.6898 59.891 29.8915C59.9671 30.2959 60.2414 30.6504 60.618 30.7821C60.8044 30.8487 61.0103 30.8476 61.1732 30.799C61.339 30.7503 61.4754 30.6616 61.5786 30.556C61.7893 30.3466 61.8462 30.0461 61.7564 29.859C61.6715 30.0489 61.5181 30.17 61.345 30.2357C61.1705 30.3036 60.9771 30.3004 60.8523 30.2192C60.7149 30.1407 60.5952 29.9695 60.5599 29.7677C60.5428 29.6664 60.5463 29.5708 60.5776 29.4739C60.6094 29.3746 60.6672 29.2749 60.7507 29.1867C60.9202 29.0079 61.1699 28.8849 61.4543 28.8825C61.7394 28.8756 62.0521 28.9819 62.3148 29.1701C62.8489 29.554 63.1904 30.2521 63.3368 30.9367C63.5948 32.1496 63.3244 33.4747 62.5679 34.4605C62.4251 34.6493 62.2375 34.8765 62.0162 35.0923C61.7959 35.309 61.5426 35.5136 61.2958 35.6771C61.2544 35.7044 61.2134 35.7308 61.1729 35.756C61.4219 35.4629 61.6115 35.1232 61.7442 34.7674C61.9096 34.3136 62.0114 33.8342 61.9797 33.3371C61.9441 32.78 61.7053 32.1645 61.1569 31.8305C60.8814 31.6686 60.5534 31.603 60.2307 31.6609C60.0696 31.6891 59.9101 31.7516 59.7701 31.8488C59.6258 31.9465 59.5092 32.0828 59.4312 32.2289C59.2726 32.5203 59.2408 32.8734 59.3733 33.186C59.4378 33.3406 59.5497 33.4782 59.6785 33.5706C59.8065 33.6648 59.9523 33.7206 60.1003 33.7401C60.2485 33.7584 60.4001 33.7374 60.5293 33.6753C60.6624 33.6128 60.7559 33.5148 60.8155 33.413C60.9358 33.2078 60.9083 32.9673 60.793 32.8531C60.7396 33.0053 60.6301 33.0979 60.5207 33.148C60.4049 33.1976 60.3202 33.182 60.2215 33.1426C60.1231 33.0974 60.0366 33.0214 59.9994 32.9202C59.9571 32.8185 59.9512 32.6603 60.0112 32.5178C60.0401 32.446 60.0803 32.3829 60.1372 32.3308C60.196 32.2753 60.2716 32.2289 60.3603 32.1987C60.5364 32.1352 60.7611 32.1383 60.9568 32.2177C61.1572 32.299 61.3401 32.4604 61.4675 32.6646C61.5977 32.8679 61.6684 33.1102 61.6867 33.3584C61.7158 33.7928 61.6225 34.2462 61.4692 34.6641C61.3134 35.0823 61.0743 35.4698 60.754 35.7715C60.7044 35.8208 60.6466 35.8726 60.5825 35.9245C60.7247 35.6598 60.7984 35.3329 60.695 35.0109C60.5812 34.6734 60.2891 34.4008 59.9234 34.3434C59.5574 34.2836 59.1648 34.5086 59.0945 34.8648C59.0213 35.2411 59.3676 35.4783 59.5491 35.3739C59.4845 35.2995 59.4682 35.2207 59.4669 35.152C59.4656 35.0823 59.4839 35.0204 59.5124 34.9875C59.5663 34.9049 59.7003 34.8021 59.8776 34.804C60.0545 34.8017 60.2912 34.9212 60.4079 35.131C60.5277 35.3382 60.5105 35.646 60.3684 35.8771C60.2414 36.0956 60.0382 36.2513 59.8033 36.3501H49.4023L49.4116 36.344C49.6862 36.1629 49.9158 35.8945 50.0171 35.5673C50.1271 35.196 50.0903 34.7723 49.8649 34.4251C49.64 34.0772 49.1743 33.867 48.7471 34.0122C48.3029 34.1582 48.0881 34.6962 48.3238 35.0634C48.5626 35.416 49.0164 35.3511 49.1015 35.1348C48.9909 35.1319 48.9064 35.0927 48.8386 35.0386C48.7712 34.9858 48.7196 34.9141 48.7056 34.8538C48.6916 34.7964 48.6956 34.7196 48.7296 34.6396C48.7673 34.5574 48.823 34.4873 48.9142 34.4439C49.1006 34.349 49.4198 34.3925 49.6186 34.6153C49.8221 34.8332 49.9119 35.1987 49.8163 35.5066C49.7334 35.7755 49.5377 36.0104 49.2953 36.1694C49.1834 36.2441 49.0625 36.3044 48.9358 36.3502H47.1454C47.1181 36.3452 47.1027 36.3429 47.1021 36.3448C47.1019 36.3455 47.1043 36.3473 47.109 36.3502H41.9996H36.8901C36.8949 36.3473 36.8973 36.3455 36.897 36.3448C36.8964 36.3429 36.8811 36.3452 36.8538 36.3502H35.0634C34.9367 36.3044 34.8158 36.2441 34.7039 36.1694C34.4614 36.0104 34.2658 35.7755 34.1828 35.5066C34.0873 35.1987 34.177 34.8332 34.3806 34.6153C34.5794 34.3925 34.8986 34.349 35.085 34.4439C35.1762 34.4873 35.2319 34.5574 35.2695 34.6396C35.3035 34.7196 35.3076 34.7964 35.2935 34.8538C35.2795 34.9141 35.2279 34.9858 35.1606 35.0386C35.0927 35.0927 35.0083 35.1319 34.8976 35.1348C34.9827 35.3511 35.4365 35.416 35.6753 35.0634C35.911 34.6962 35.6962 34.1582 35.2521 34.0122C34.8249 33.867 34.3591 34.0772 34.1342 34.4251C33.9088 34.7723 33.872 35.196 33.982 35.5673C34.0833 35.8945 34.3129 36.163 34.5875 36.344L34.5969 36.3501H24.1959C23.961 36.2513 23.7578 36.0955 23.6308 35.8771C23.4888 35.646 23.4715 35.3382 23.5913 35.131C23.708 34.9212 23.9447 34.8017 24.1216 34.804C24.2989 34.8021 24.4329 34.9049 24.4868 34.9875C24.5152 35.0204 24.5336 35.0824 24.5323 35.152C24.531 35.2207 24.5147 35.2995 24.4501 35.3739C24.6316 35.4782 24.9779 35.2411 24.9047 34.8648C24.8344 34.5086 24.4417 34.2836 24.0758 34.3434C23.7101 34.4008 23.4181 34.6734 23.3041 35.0109C23.2008 35.3329 23.2745 35.6599 23.4167 35.9246C23.3526 35.8726 23.2947 35.8209 23.2451 35.7715C22.9248 35.4698 22.6858 35.0823 22.5299 34.6641C22.3766 34.2462 22.2833 33.7928 22.3124 33.3584C22.3307 33.1102 22.4014 32.8679 22.5317 32.6646C22.659 32.4604 22.8419 32.299 23.0423 32.2177C23.238 32.1383 23.4627 32.1352 23.6388 32.1987C23.7275 32.2289 23.8031 32.2753 23.8619 32.3308C23.9188 32.3828 23.959 32.446 23.988 32.5178C24.0479 32.6603 24.042 32.8185 23.9997 32.9202C23.9625 33.0214 23.876 33.0974 23.7776 33.1426C23.6789 33.182 23.5942 33.1976 23.4784 33.148C23.369 33.0979 23.2595 33.0053 23.2061 32.8531C23.0908 32.9673 23.0633 33.2078 23.1837 33.413C23.2433 33.5148 23.3367 33.6128 23.4698 33.6753C23.5991 33.7374 23.7506 33.7584 23.8989 33.7401C24.0468 33.7206 24.1926 33.6648 24.3206 33.5706C24.4494 33.4782 24.5613 33.3406 24.6258 33.186C24.7583 32.8734 24.7265 32.5203 24.568 32.2289C24.4899 32.0828 24.3734 31.9465 24.2291 31.8488C24.0891 31.7516 23.9295 31.6891 23.7684 31.6609C23.4457 31.603 23.1177 31.6686 22.8423 31.8305C22.2938 32.1645 22.055 32.78 22.0194 33.3371C21.9877 33.8342 22.0895 34.3136 22.255 34.7674C22.3877 35.1232 22.5772 35.4629 22.8262 35.756C22.7857 35.7308 22.7447 35.7044 22.7034 35.6771C22.4566 35.5136 22.2033 35.309 21.983 35.0923C21.7616 34.8765 21.574 34.6493 21.4312 34.4605C20.6748 33.4747 20.4043 32.1496 20.6623 30.9367C20.8087 30.2521 21.1502 29.554 21.6843 29.1701C21.947 28.9819 22.2597 28.8756 22.5448 28.8825C22.8292 28.8849 23.0789 29.0079 23.2484 29.1867C23.3319 29.2749 23.3896 29.3746 23.4215 29.4739C23.4527 29.5708 23.4563 29.6664 23.4392 29.7677C23.4039 29.9695 23.2842 30.1407 23.1468 30.2192C23.0219 30.3004 22.8286 30.3036 22.6541 30.2357C22.481 30.17 22.3276 30.0489 22.2427 29.859C22.1528 30.0461 22.2098 30.3466 22.4205 30.556C22.5237 30.6616 22.66 30.7503 22.8259 30.799C22.9888 30.8476 23.1947 30.8488 23.3811 30.7821C23.7577 30.6504 24.032 30.2959 24.108 29.8915C24.1478 29.6898 24.1356 29.4599 24.0585 29.2521C23.984 29.0471 23.8566 28.8643 23.6991 28.721C23.389 28.4334 22.9416 28.2855 22.5186 28.3299C22.0959 28.3693 21.7132 28.5627 21.4103 28.8311C21.107 29.1014 20.8898 29.4405 20.7282 29.79C20.5663 30.1403 20.453 30.5062 20.3749 30.8761C20.0996 32.1687 20.3876 33.5817 21.1969 34.6375C21.2261 34.6762 21.2576 34.716 21.2911 34.7565C20.704 34.2875 20.1066 33.8135 19.4002 33.4832C19.0765 33.3339 18.7287 33.2092 18.3554 33.1637C17.9845 33.1163 17.584 33.1629 17.2299 33.3334C16.8757 33.497 16.5606 33.8177 16.4335 34.2086C16.2987 34.5908 16.329 35.0336 16.518 35.389C16.7035 35.7418 17.0164 36.009 17.3807 36.1249C17.7415 36.2394 18.1247 36.202 18.427 36.0302C18.5758 35.9454 18.706 35.8243 18.7903 35.6871C18.8759 35.5522 18.9209 35.4078 18.9335 35.2701C18.9622 34.9946 18.849 34.7455 18.6861 34.6344C18.7112 35.0177 18.48 35.3793 18.1596 35.4822C17.9943 35.5384 17.7848 35.5432 17.591 35.478C17.4002 35.4154 17.2082 35.2707 17.0835 35.0725C16.9595 34.8781 16.9083 34.6223 16.9644 34.3641C17.0161 34.108 17.1838 33.8749 17.4372 33.7167C17.6901 33.5577 18.0047 33.4814 18.3267 33.4984C18.6494 33.513 18.9744 33.6099 19.277 33.7498C20.3502 34.2476 21.1977 35.1389 22.2201 35.8247C22.4845 36.0047 22.8666 36.207 23.2656 36.3502H12.1389L12.055 36.3329L12.033 36.3286C11.8133 36.2835 11.5976 36.1916 11.4235 36.0689C11.2485 35.9459 11.1215 35.7917 11.054 35.6456C10.9909 35.5062 10.9695 35.3615 10.9563 35.2345C10.9432 35.1052 10.9329 34.9858 10.9415 34.8146C10.7732 34.8006 10.5856 34.95 10.5254 35.1709C10.46 35.3891 10.5026 35.6591 10.6582 35.8857C10.8107 36.1055 11.0441 36.252 11.2782 36.3441L11.2938 36.3502H9.07368L8.6937 36.3393C8.42763 36.3293 8.1001 36.3366 7.77731 36.3144C7.61761 36.2998 7.46047 36.2651 7.33388 36.1899C7.20738 36.117 7.10328 35.9983 7.04083 35.8643C6.90786 35.5977 6.98923 35.2702 7.18371 35.0782C7.37021 34.883 7.6701 34.8527 7.80647 34.9649C7.88436 35.0209 7.93563 35.1062 7.94826 35.1794C7.96307 35.2549 7.94605 35.3156 7.90052 35.3788C7.80958 35.5022 7.68133 35.537 7.58965 35.5572C7.6081 35.599 7.66246 35.6502 7.75494 35.6687C7.84576 35.6865 7.96841 35.6695 8.08468 35.5922C8.14252 35.5535 8.19889 35.4992 8.24244 35.4251C8.28673 35.3501 8.31161 35.2565 8.31252 35.1641C8.31535 34.9744 8.22692 34.7821 8.06889 34.6445C7.90828 34.5003 7.66673 34.4424 7.45207 34.475C7.23534 34.5046 7.02642 34.6144 6.87298 34.779C6.71858 34.9419 6.61839 35.1537 6.58647 35.3787C6.47783 36.1249 7.05266 36.686 7.93311 36.686C7.95087 36.6851 7.96807 36.6839 7.9848 36.6823C8.00726 36.6839 8.02968 36.6851 8.05222 36.686H24.7232C24.7761 36.6901 24.829 36.6923 24.8818 36.693C24.9305 36.694 24.9843 36.6915 25.041 36.686H41.9995H58.9582C59.0149 36.6915 59.0687 36.694 59.1174 36.693C59.1702 36.6923 59.2231 36.6901 59.2759 36.686H75.9469C75.9694 36.6851 75.9918 36.6839 76.0143 36.6823C76.031 36.6839 76.0482 36.6851 76.066 36.686C76.9464 36.686 77.5213 36.1249 77.4126 35.3787C77.3807 35.1537 77.2805 34.9419 77.1261 34.779C76.9727 34.6144 76.7637 34.5046 76.547 34.475C76.3323 34.4424 76.0908 34.5003 75.9302 34.6445C75.7722 34.7821 75.6837 34.9744 75.6865 35.1641C75.6875 35.2565 75.7123 35.3501 75.7566 35.4251C75.8002 35.4992 75.8565 35.5535 75.9144 35.5922C76.0307 35.6695 76.1533 35.6865 76.2441 35.6687C76.3366 35.6502 76.391 35.599 76.4094 35.5572C76.3177 35.537 76.1895 35.5022 76.0985 35.3788C76.053 35.3156 76.036 35.2549 76.0508 35.1794C76.0634 35.1061 76.1147 35.0209 76.1926 34.9649C76.329 34.8527 76.6289 34.883 76.8154 35.0782C77.0098 35.2702 77.0912 35.5977 76.9582 35.8643C76.8958 35.9983 76.7917 36.117 76.6652 36.1899C76.5386 36.265 76.3815 36.2998 76.2218 36.3144C75.899 36.3367 75.5715 36.3293 75.3054 36.3393L74.9254 36.3502H72.7055ZM24.4082 54.1361L25.4698 57.4659C25.6344 57.3642 25.8118 57.2807 25.9903 57.2114C26.5404 56.9975 27.2286 56.8681 27.8165 56.8681C29.3545 56.8681 31.2911 57.6717 32.7219 58.2498C32.9691 58.3497 33.2163 58.4497 33.4648 58.5467C34.837 59.082 36.2307 59.5738 37.6636 59.9219C39.092 60.2688 40.5283 60.4609 41.9995 60.4609C43.4708 60.4609 44.9072 60.2688 46.3356 59.9219C47.7684 59.5738 49.1621 59.082 50.5344 58.5467C50.7828 58.4497 51.03 58.3497 51.2772 58.2498C52.708 57.6717 54.6446 56.8681 56.1826 56.8681C56.7704 56.8681 57.4587 56.9975 58.0089 57.2114C58.1884 57.2812 58.3668 57.3653 58.5295 57.4654L59.591 54.1361C59.1404 53.9217 58.6673 53.7575 58.1819 53.6403C57.5282 53.4825 56.8546 53.4107 56.1826 53.4107C54.0745 53.4107 51.9818 54.256 50.0462 55.0211L49.279 55.3244C48.1236 55.7811 46.951 56.1997 45.7461 56.5067C44.5147 56.8205 43.2721 57.0035 41.9995 57.0035C40.727 57.0035 39.4844 56.8205 38.2531 56.5067C37.0481 56.1996 35.8755 55.7811 34.7201 55.3244L33.9529 55.0211C32.0173 54.256 29.9245 53.4107 27.8164 53.4107C27.1444 53.4107 26.4709 53.4825 25.8172 53.6403C25.3319 53.7575 24.8587 53.9217 24.4082 54.1361ZM44.8614 21.852C43.924 21.7338 42.9689 21.6728 41.9995 21.6728C41.0301 21.6728 40.0751 21.7338 39.1377 21.8519C39.033 22.1433 38.8384 22.3862 38.608 22.5733C39.7154 22.4095 40.8479 22.3247 41.9995 22.3247C43.1512 22.3247 44.2837 22.4095 45.3911 22.5733C45.1607 22.3862 44.9661 22.1434 44.8614 21.852ZM39.2105 21.5084C40.1252 21.3977 41.0559 21.3407 41.9995 21.3407C42.9435 21.3407 43.8743 21.3975 44.7886 21.508C44.7753 21.3082 44.8088 21.1051 44.8833 20.9217C43.9389 20.8017 42.9765 20.7397 41.9995 20.7397C41.0226 20.7397 40.0602 20.8016 39.1158 20.9216C39.1904 21.1052 39.2238 21.3084 39.2105 21.5084ZM38.9476 20.6086C39.9466 20.476 40.9653 20.4076 41.9995 20.4076C43.0342 20.4076 44.0529 20.4759 45.0517 20.6083C45.1712 20.4359 45.3288 20.2833 45.5168 20.1749C44.3704 19.9962 43.1958 19.9034 41.9995 19.9034C40.8032 19.9034 39.6286 19.9962 38.4823 20.1748C38.6704 20.2833 38.8281 20.4361 38.9476 20.6086ZM43.2436 63.5683C42.8339 63.5309 42.419 63.5117 41.9995 63.5117C41.5802 63.5117 41.1652 63.5309 40.7556 63.5683C40.7139 63.7691 40.6407 63.9677 40.5176 64.1513C41.0077 64.1201 41.5018 64.1042 41.9995 64.1042C42.4974 64.1042 42.9915 64.12 43.4816 64.1512C43.3585 63.9676 43.2852 63.769 43.2436 63.5683ZM40.7895 63.3482C41.1898 63.3184 41.597 63.313 42.0048 63.313C42.4124 63.313 42.8124 63.3184 43.2096 63.348C43.1978 63.2356 43.1939 63.124 43.1946 63.0154C43.1961 62.8708 43.2106 62.7267 43.2374 62.5851C42.8297 62.6034 42.4168 62.6127 41.9995 62.6127C41.5824 62.6127 41.1695 62.6034 40.7617 62.5851C40.7886 62.7267 40.8031 62.8708 40.8045 63.0154C40.8052 63.124 40.8013 63.2357 40.7895 63.3482ZM43.2784 62.4057C42.8574 62.4254 42.4308 62.4356 41.9995 62.4356C41.5682 62.4356 41.1417 62.4254 40.7207 62.4057C40.6652 62.1979 40.583 61.9974 40.4768 61.8104C40.9786 61.8555 41.4864 61.8785 41.9995 61.8785C42.5127 61.8785 43.0206 61.8555 43.5222 61.8106C43.4161 61.9975 43.3339 62.1979 43.2784 62.4057ZM43.6923 61.55C43.1357 61.6064 42.571 61.6354 41.9995 61.6354C41.4281 61.6354 40.8634 61.6064 40.3069 61.55C40.2234 61.438 40.1304 61.333 40.0286 61.2367C39.9231 61.1329 39.7663 61.0269 39.5956 60.9411C40.3753 61.0462 41.1731 61.1036 41.9996 61.1036C42.826 61.1036 43.6238 61.0462 44.4036 60.9411C44.2328 61.0269 44.0761 61.1329 43.9705 61.2367C43.8687 61.333 43.7758 61.438 43.6923 61.55ZM43.7044 64.4091C43.1886 64.3707 42.6679 64.3495 42.143 64.3463V64.6893C42.1877 64.9048 42.2437 65.1541 42.465 65.2548C42.5894 65.314 42.6948 65.2903 42.7617 65.2481C42.7958 65.2275 42.8177 65.2055 42.8331 65.1888C42.8469 65.1731 42.8602 65.1632 42.8792 65.1366C42.9121 65.086 42.9735 65.0161 42.977 64.8656C43.1229 64.8158 43.3044 64.9667 43.3129 65.1754C43.322 65.2767 43.2863 65.4017 43.2082 65.4976C43.1323 65.5928 43.0233 65.6574 42.9095 65.6868C42.7954 65.7164 42.6737 65.7136 42.5589 65.6774C42.4475 65.6417 42.3517 65.5774 42.2761 65.5022C42.2231 65.45 42.1795 65.3926 42.143 65.3327V65.7205C42.143 65.967 42.5424 66.4664 42.5424 66.4664C42.1804 66.9376 41.9995 67.5212 41.9995 67.5212C41.9995 67.5212 41.8185 66.9376 41.4565 66.4664C41.4565 66.4664 41.8559 65.967 41.8559 65.7205V65.3327C41.8195 65.3926 41.7758 65.45 41.7229 65.5022C41.6472 65.5774 41.5515 65.6417 41.44 65.6774C41.3253 65.7136 41.2036 65.7164 41.0895 65.6868C40.9757 65.6574 40.8667 65.5928 40.7908 65.4976C40.7126 65.4018 40.677 65.2767 40.686 65.1754C40.6945 64.9667 40.8761 64.8158 41.0219 64.8656C41.0254 65.0161 41.0868 65.086 41.1198 65.1366C41.1388 65.1632 41.1521 65.1731 41.1659 65.1888C41.1813 65.2055 41.2032 65.2275 41.2373 65.2481C41.3042 65.2903 41.4096 65.314 41.5339 65.2548C41.7553 65.1541 41.8113 64.9048 41.8559 64.6893V64.3463C41.331 64.3495 40.8105 64.3707 40.2947 64.4091C40.2167 64.4794 40.1295 64.5413 40.033 64.5911C39.8383 64.695 39.5934 64.7407 39.371 64.7065C39.1484 64.675 38.9372 64.5746 38.7804 64.4136C38.6225 64.2574 38.5316 64.0244 38.537 63.8288C38.5383 63.6316 38.6131 63.4592 38.7247 63.345C38.8346 63.2292 38.9857 63.1798 39.1059 63.2041C39.0418 63.4444 39.0884 63.6191 39.1432 63.763C39.1753 63.8342 39.2065 63.8776 39.263 63.9342C39.318 63.9872 39.3982 64.0397 39.4956 64.0705C39.5933 64.1015 39.6976 64.1102 39.8206 64.0803C39.941 64.0518 40.0674 63.9829 40.175 63.8834C40.3928 63.6877 40.5164 63.3499 40.5108 63.0181C40.5057 62.4335 40.2518 61.8512 39.8268 61.4502C39.7665 61.3909 39.6917 61.3233 39.6084 61.2547C39.4866 61.1937 39.368 61.1401 39.2743 61.0978C39.0433 60.9918 38.798 60.9169 38.5474 60.8793C38.2966 60.8414 38.0405 60.8372 37.8057 60.8936C37.5377 60.9531 37.3058 61.1524 37.2298 61.3737C37.1506 61.5879 37.2323 61.8189 37.3346 61.8952C37.3791 61.9321 37.4401 61.9599 37.4961 61.9746C37.5534 61.9897 37.5984 61.9939 37.6436 61.9967C37.6855 62.003 37.7474 61.9929 37.815 61.963C37.8819 61.9332 37.9594 61.8839 38.0193 61.7843C38.1227 61.8354 38.1914 61.9745 38.177 62.1244C38.1652 62.2731 38.0794 62.4372 37.9128 62.5438C37.5802 62.7585 37.0935 62.661 36.8307 62.3027C36.5746 61.9413 36.6279 61.4762 36.8493 61.1614C37.0735 60.846 37.4124 60.6853 37.7367 60.608L37.7572 60.6033C37.6755 60.5844 37.5939 60.5651 37.5124 60.5453C37.0069 60.4225 36.5057 60.2823 36.0055 60.1278C36.2645 60.31 36.4617 60.5769 36.5629 60.8765C36.7121 61.3245 36.6317 61.8177 36.4115 62.2174C36.1919 62.6201 35.8266 62.9451 35.3876 63.0958C35.169 63.1709 34.9295 63.1989 34.6976 63.1637C34.4659 63.13 34.2457 63.0402 34.0539 62.9145C33.6665 62.6649 33.3835 62.2828 33.2013 61.8753C33.0503 61.544 32.9532 61.1974 32.8677 60.8527C32.839 60.8118 32.8116 60.7743 32.7886 60.744L32.7804 60.7327C32.6967 60.6208 32.5746 60.5372 32.4516 60.5074C32.3308 60.4766 32.2098 60.4978 32.1287 60.5381C32.0455 60.5792 32.0032 60.6265 31.9493 60.683C31.8986 60.739 31.8422 60.794 31.7799 60.8957C31.6685 60.8524 31.607 60.6984 31.6519 60.548C31.6875 60.398 31.8409 60.2474 32.0225 60.2077C32.2028 60.1631 32.3923 60.2039 32.5451 60.2935C32.6355 60.3463 32.7116 60.4128 32.7786 60.4845C32.6867 60.1042 32.5893 59.7284 32.4336 59.3794C32.3058 59.0932 32.1354 58.8173 31.9086 58.6145C31.6607 58.5157 31.4056 58.4159 31.1469 58.3188C31.0186 58.3265 30.8984 58.3615 30.801 58.4207C30.575 58.5504 30.4853 58.8124 30.5091 59.0044C30.5323 59.204 30.6582 59.3125 30.8166 59.3725C30.973 59.4244 31.1344 59.4332 31.2924 59.3522C31.2593 59.5334 31.0171 59.6846 30.7583 59.6491C30.63 59.6321 30.4915 59.5786 30.3793 59.4674C30.2643 59.3542 30.1992 59.1962 30.1881 59.0323C30.1675 58.7085 30.3495 58.3566 30.685 58.1996C30.7058 58.1898 30.7269 58.1808 30.7483 58.1725C30.1349 57.9532 29.5119 57.759 28.9262 57.6387C28.9389 57.955 28.9684 58.5909 29.0167 59.0474C29.0285 59.1073 29.0363 59.1714 29.0398 59.2399L29.0414 59.2516L29.0403 59.2516C29.0417 59.2833 29.0425 59.3079 29.0425 59.3248C29.0425 59.6068 28.9474 59.9604 28.687 60.2148C28.4906 60.4066 28.2047 60.5398 27.8025 60.5398C27.6436 60.5398 27.3698 60.4954 27.0095 60.4369C25.4378 60.1817 22.1442 59.647 20.3005 61.5501L20.0327 61.3616C20.0357 61.3554 21.0216 59.3298 22.6662 58.1574C22.0082 57.9853 20.5258 57.6958 19.494 58.2388L19.3068 57.9671C19.3131 57.9616 21.4102 56.0881 24.3166 55.9599L23.6746 53.9462L23.633 53.8161L23.7526 53.7505C24.3543 53.4204 24.998 53.1781 25.6666 53.0167C26.3645 52.8482 27.0875 52.768 27.8166 52.768C28.1824 52.768 28.5466 52.7916 28.9089 52.8344C28.8042 52.7102 28.7262 52.558 28.6882 52.386C28.6079 52.0147 28.725 51.6281 28.9459 51.3304C29.172 51.0271 29.4938 50.8256 29.8238 50.6887C30.1557 50.5549 30.5039 50.4632 30.8628 50.418C30.9822 50.4023 31.102 50.3914 31.2219 50.3849C31.3738 50.2302 31.5508 50.0995 31.7469 50.0024C31.8466 49.9523 31.9503 49.9115 32.0562 49.8794H24.1605C24.8841 50.1632 25.5694 50.5596 26.2003 50.7525C26.3682 50.8053 26.5378 50.8531 26.6791 50.8748C26.8229 50.8964 26.9386 50.8899 27.0392 50.855C27.1397 50.8181 27.2131 50.7679 27.26 50.6845C27.3063 50.5995 27.3277 50.4918 27.2871 50.3802C27.4035 50.4091 27.5115 50.5538 27.511 50.7284C27.5183 50.9079 27.3918 51.1051 27.2164 51.2046C27.0413 51.312 26.8145 51.3369 26.6181 51.3079C26.4175 51.2791 26.2402 51.2171 26.0565 51.1435C25.6481 50.9783 25.2678 50.724 24.8802 50.4843C24.9559 50.587 25.0205 50.6979 25.0716 50.815C25.2026 51.1115 25.2432 51.4549 25.1502 51.7765C25.0562 52.0921 24.851 52.3552 24.587 52.5178C24.327 52.6822 23.9866 52.7284 23.7172 52.6262C23.4509 52.5299 23.2649 52.3375 23.1693 52.135C23.0736 51.9293 23.0841 51.7096 23.1637 51.5675C23.2047 51.727 23.2879 51.8649 23.4047 51.9776C23.5231 52.0878 23.6757 52.1765 23.8391 52.2081C23.998 52.2404 24.1695 52.2055 24.3321 52.1041C24.4921 52.0035 24.6361 51.8354 24.7094 51.635C24.8616 51.2372 24.6851 50.6659 24.2709 50.3235C24.0004 50.0918 23.6486 49.9469 23.2783 49.8794H22.2096C21.9759 49.9166 21.7216 49.9782 21.4859 50.0641C21.2986 50.1579 21.1298 50.2609 20.9996 50.3569L20.9546 50.3896C20.5026 50.716 20.185 51.2321 20.1588 51.7544C20.1422 52.0125 20.1916 52.2645 20.2967 52.4683C20.4013 52.6744 20.5614 52.8423 20.7346 52.9501C21.0807 53.1723 21.4796 53.1242 21.6898 52.9664C21.7902 52.8998 21.8684 52.7728 21.9061 52.6315C21.9435 52.4909 21.9462 52.3358 21.8757 52.1765C22.0477 52.1958 22.2351 52.362 22.301 52.5986C22.3703 52.8289 22.3401 53.1395 22.1274 53.391C21.9273 53.6337 21.6064 53.7684 21.2863 53.781C20.9619 53.7971 20.6223 53.6807 20.361 53.4795C20.0964 53.2778 19.8955 52.9966 19.785 52.6787C19.6734 52.358 19.6634 52.0148 19.7272 51.6944C19.7912 51.3737 19.929 51.0716 20.1158 50.8133C20.3023 50.5543 20.5322 50.3362 20.7802 50.1532L20.8301 50.117C20.9458 50.0353 21.0888 49.9522 21.248 49.8794H21.0385C20.4023 50.0464 19.7087 50.3939 19.2788 50.689L19.2117 50.7321C18.5558 51.1802 17.9965 51.824 17.7001 52.5316C17.5545 52.8853 17.4887 53.2538 17.5175 53.6015C17.5444 53.9481 17.6663 54.2662 17.8568 54.4962C18.0483 54.7316 18.306 54.8895 18.5556 54.9439C18.8048 55.0022 19.0575 54.9585 19.2258 54.8502C19.3965 54.7409 19.513 54.5515 19.5225 54.3673C19.5304 54.1752 19.4396 53.9602 19.2553 53.8296C19.4811 53.7932 19.7882 53.9571 19.9099 54.2839C20.035 54.6181 19.9193 55.0468 19.6082 55.3251C19.2928 55.6068 18.8361 55.7008 18.4114 55.6088C17.9828 55.5186 17.5989 55.2504 17.3397 54.8867C17.0741 54.518 16.956 54.0597 16.9645 53.616C16.9706 53.17 17.1023 52.7317 17.3055 52.3466C17.7211 51.5769 18.3531 50.9677 19.0465 50.4892L19.1173 50.4436C19.4232 50.2334 19.8669 50.0252 20.3281 49.8794H12.1389L12.055 49.8967L12.033 49.9009C11.8133 49.946 11.5976 50.0379 11.4235 50.1607C11.2485 50.2836 11.1215 50.4378 11.054 50.5839C10.9909 50.7233 10.9695 50.8681 10.9563 50.995C10.9432 51.1244 10.9329 51.2437 10.9415 51.415C10.7732 51.4289 10.5856 51.2795 10.5254 51.0587C10.46 50.8404 10.5026 50.5704 10.6582 50.3439C10.8107 50.1241 11.0441 49.9775 11.2782 49.8855L11.2938 49.8794H9.0736L8.69365 49.8903C8.42756 49.9002 8.10006 49.8929 7.77726 49.9152C7.61758 49.9297 7.4604 49.9645 7.3338 50.0396C7.20731 50.1126 7.10323 50.2312 7.04079 50.3652C6.90781 50.6319 6.9892 50.9593 7.18369 51.1513C7.37019 51.3465 7.67008 51.3769 7.80642 51.2647C7.88434 51.2086 7.93558 51.1234 7.94826 51.0502C7.96304 50.9747 7.946 50.914 7.90047 50.8508C7.80953 50.7274 7.68126 50.6926 7.5896 50.6724C7.60805 50.6306 7.66239 50.5794 7.75489 50.5608C7.84571 50.543 7.96836 50.5601 8.08464 50.6374C8.14245 50.6761 8.19884 50.7304 8.24239 50.8045C8.28668 50.8795 8.31156 50.9731 8.31247 51.0655C8.31531 51.2551 8.22687 51.4474 8.06882 51.5851C7.90823 51.7293 7.66665 51.7872 7.45202 51.7546C7.23529 51.725 7.02635 51.6152 6.87291 51.4506C6.7185 51.2877 6.61834 51.076 6.58639 50.8509C6.47773 50.1047 7.05259 49.5436 7.93302 49.5436C7.95078 49.5445 7.96797 49.5457 7.9847 49.5473C8.00714 49.5457 8.02958 49.5446 8.05207 49.5436H41.9994H75.9467C75.9692 49.5445 75.9917 49.5457 76.0141 49.5473C76.0308 49.5457 76.048 49.5446 76.0658 49.5436C76.9463 49.5436 77.5211 50.1047 77.4124 50.8509C77.3805 51.076 77.2803 51.2877 77.1259 51.4506C76.9725 51.6152 76.7636 51.725 76.5468 51.7546C76.3322 51.7872 76.0906 51.7293 75.93 51.5851C75.772 51.4475 75.6835 51.2551 75.6864 51.0655C75.6873 50.9731 75.7121 50.8795 75.7564 50.8045C75.8 50.7304 75.8564 50.6761 75.9142 50.6374C76.0305 50.5601 76.1531 50.543 76.2439 50.5608C76.3364 50.5794 76.3908 50.6306 76.4092 50.6724C76.3176 50.6926 76.1893 50.7274 76.0984 50.8508C76.0529 50.914 76.0358 50.9747 76.0506 51.0502C76.0633 51.1234 76.1145 51.2086 76.1924 51.2647C76.3288 51.3769 76.6287 51.3465 76.8152 51.1513C77.0097 50.9593 77.091 50.6319 76.958 50.3652C76.8956 50.2312 76.7915 50.1125 76.665 50.0396C76.5384 49.9645 76.3813 49.9297 76.2216 49.9152C75.8988 49.8929 75.5712 49.9002 75.3052 49.8903L74.9252 49.8794H72.7053L72.721 49.8855C72.9549 49.9775 73.1885 50.1241 73.3409 50.3439C73.4966 50.5704 73.5392 50.8404 73.4737 51.0587C73.4135 51.2795 73.2259 51.4289 73.0576 51.415C73.0663 51.2437 73.0559 51.1244 73.0428 50.995C73.0297 50.8681 73.0082 50.7233 72.9451 50.5839C72.8776 50.4378 72.7506 50.2837 72.5756 50.1607C72.4015 50.0379 72.1859 49.946 71.9661 49.9009L71.9441 49.8967L71.8602 49.8794H63.6708C64.132 50.0252 64.5757 50.2334 64.8816 50.4436L64.9524 50.4892C65.6457 50.9677 66.2777 51.5769 66.6934 52.3466C66.8966 52.7317 67.0283 53.17 67.0343 53.616C67.0428 54.0597 66.9247 54.518 66.6592 54.8867C66.4 55.2504 66.016 55.5186 65.5874 55.6088C65.1628 55.7008 64.706 55.6068 64.3906 55.3251C64.0795 55.0468 63.9638 54.6181 64.0889 54.2839C64.2106 53.9571 64.5177 53.7932 64.7435 53.8296C64.5593 53.9602 64.4684 54.1752 64.4764 54.3673C64.4859 54.5515 64.6024 54.7409 64.7731 54.8502C64.9413 54.9585 65.1941 55.0022 65.4433 54.9439C65.6928 54.8895 65.9506 54.7316 66.142 54.4962C66.3326 54.2662 66.4545 53.9481 66.4813 53.6015C66.5102 53.2538 66.4444 52.8853 66.2988 52.5316C66.0024 51.824 65.4431 51.1802 64.7872 50.7321L64.7201 50.689C64.2903 50.3939 63.5966 50.0464 62.9604 49.8794H62.7509C62.9101 49.9522 63.0531 50.0353 63.1688 50.117L63.2187 50.1532C63.4667 50.3362 63.6966 50.5543 63.8831 50.8133C64.0698 51.0716 64.2077 51.3737 64.2717 51.6944C64.3355 52.0148 64.3256 52.358 64.2139 52.6787C64.1034 52.9966 63.9025 53.2778 63.6379 53.4795C63.3766 53.6807 63.037 53.7971 62.7126 53.781C62.3925 53.7684 62.0716 53.6336 61.8715 53.391C61.6588 53.1395 61.6285 52.8289 61.6979 52.5986C61.7638 52.362 61.9512 52.1958 62.1232 52.1765C62.0527 52.3358 62.0554 52.4909 62.0928 52.6315C62.1305 52.7728 62.2087 52.8998 62.3091 52.9664C62.5193 53.1242 62.9182 53.1723 63.2643 52.9501C63.4375 52.8423 63.5976 52.6744 63.7022 52.4683C63.8072 52.2645 63.8567 52.0125 63.8401 51.7544C63.8139 51.2321 63.4963 50.716 63.0443 50.3896L62.9993 50.3569C62.8691 50.2609 62.7003 50.1579 62.5129 50.064C62.2773 49.9782 62.023 49.9166 61.7893 49.8794H60.7206C60.3503 49.9469 59.9985 50.0918 59.728 50.3235C59.3138 50.6659 59.1373 51.2372 59.2895 51.635C59.3628 51.8354 59.5069 52.0035 59.6668 52.1041C59.8294 52.2055 60.0009 52.2404 60.1598 52.2081C60.3232 52.1765 60.4758 52.0878 60.5943 51.9776C60.711 51.8649 60.7942 51.727 60.8352 51.5675C60.9149 51.7096 60.9254 51.9293 60.8296 52.135C60.734 52.3375 60.548 52.5299 60.2818 52.6262C60.0124 52.7284 59.672 52.6822 59.4119 52.5178C59.148 52.3552 58.9427 52.0921 58.8488 51.7765C58.7557 51.4549 58.7963 51.1115 58.9274 50.815C58.9784 50.6979 59.043 50.587 59.1188 50.4843C58.7311 50.724 58.3509 50.9783 57.9425 51.1435C57.7588 51.2171 57.5815 51.2791 57.3809 51.3079C57.1844 51.3369 56.9577 51.312 56.7826 51.2046C56.6071 51.1051 56.4806 50.9078 56.488 50.7284C56.4874 50.5538 56.5955 50.4091 56.7119 50.3802C56.6713 50.4918 56.6926 50.5995 56.739 50.6845C56.7859 50.7678 56.8593 50.8181 56.9598 50.855C57.0604 50.8899 57.1761 50.8964 57.3199 50.8748C57.4612 50.8531 57.6307 50.8053 57.7987 50.7525C58.4295 50.5596 59.1148 50.1632 59.8384 49.8794H51.9429C52.0488 49.9114 52.1524 49.9523 52.2522 50.0024C52.4483 50.0995 52.6253 50.2302 52.7772 50.3849C52.8971 50.3914 53.017 50.4023 53.1363 50.418C53.4952 50.4632 53.8434 50.5549 54.1753 50.6887C54.5054 50.8256 54.8271 51.0271 55.0532 51.3304C55.2741 51.6281 55.3912 52.0146 55.3109 52.386C55.2729 52.558 55.1949 52.7102 55.0902 52.8344C55.4525 52.7916 55.8167 52.768 56.1826 52.768C56.9116 52.768 57.6346 52.8482 58.3325 53.0167C59.0011 53.1781 59.6448 53.4204 60.2465 53.7505L60.366 53.8161L60.3245 53.9462L59.6825 55.9599C62.5889 56.0881 64.686 57.9616 64.6923 57.9671L64.5051 58.2388C63.4733 57.6958 61.9909 57.9853 61.333 58.1574C62.9774 59.3297 63.9634 61.3553 63.9664 61.3616L63.6985 61.5501C61.8549 59.647 58.5613 60.1817 56.9896 60.4369C56.6293 60.4954 56.3555 60.5398 56.1966 60.5398C55.7944 60.5398 55.5085 60.4066 55.3121 60.2148C55.0517 59.9604 54.9566 59.6067 54.9566 59.3248C54.9566 59.3079 54.9574 59.2833 54.9587 59.2516L54.9576 59.2516L54.9594 59.2391C54.9628 59.1712 54.9706 59.1078 54.9822 59.0484C55.0305 58.5918 55.0601 57.9553 55.0727 57.6387C54.4872 57.759 53.8641 57.9532 53.2508 58.1725C53.2721 58.1808 53.2933 58.1898 53.3141 58.1996C53.6496 58.3566 53.8316 58.7085 53.811 59.0323C53.7999 59.1962 53.7349 59.3542 53.6198 59.4674C53.5076 59.5786 53.369 59.6321 53.2408 59.6491C52.982 59.6846 52.7398 59.5334 52.7067 59.3522C52.8647 59.4332 53.0261 59.4244 53.1825 59.3725C53.3408 59.3125 53.4667 59.204 53.49 59.0044C53.5138 58.8124 53.424 58.5504 53.1981 58.4207C53.1007 58.3615 52.9804 58.3265 52.8521 58.3188C52.5934 58.416 52.3383 58.5157 52.0904 58.6145C51.8636 58.8173 51.6932 59.0932 51.5654 59.3794C51.4097 59.7284 51.3123 60.1042 51.2204 60.4845C51.2874 60.4128 51.3635 60.3463 51.4539 60.2935C51.6067 60.2039 51.7962 60.1631 51.9765 60.2077C52.1581 60.2474 52.3115 60.398 52.3471 60.548C52.392 60.6983 52.3305 60.8524 52.2191 60.8957C52.1568 60.7941 52.1004 60.7391 52.0497 60.683C51.9958 60.6265 51.9536 60.5792 51.8703 60.5381C51.7892 60.4978 51.6682 60.4766 51.5474 60.5074C51.4245 60.5372 51.3023 60.6209 51.2186 60.7327L51.2104 60.744C51.1874 60.7744 51.16 60.8118 51.1313 60.8528C51.0458 61.1974 50.9486 61.544 50.7977 61.8753C50.6155 62.2828 50.3325 62.6649 49.9451 62.9145C49.7533 63.0402 49.5331 63.1301 49.3014 63.1638C49.0696 63.1989 48.8301 63.171 48.6114 63.0958C48.1724 62.9451 47.8071 62.6201 47.5875 62.2174C47.3673 61.8178 47.2869 61.3245 47.4361 60.8765C47.5373 60.5769 47.7346 60.31 47.9935 60.1279C47.4933 60.2824 46.9921 60.4225 46.4866 60.5453C46.4051 60.5651 46.3235 60.5844 46.2418 60.6033L46.2623 60.608C46.5866 60.6853 46.9255 60.846 47.1497 61.1614C47.3711 61.4763 47.4244 61.9414 47.1683 62.3027C46.9055 62.6611 46.4188 62.7585 46.0862 62.5438C45.9196 62.4373 45.8337 62.2732 45.822 62.1245C45.8076 61.9745 45.8763 61.8354 45.9797 61.7844C46.0396 61.8839 46.1171 61.9332 46.1839 61.963C46.2515 61.9929 46.3135 62.003 46.3554 61.9967C46.4005 61.9939 46.4456 61.9898 46.5029 61.9746C46.5588 61.9599 46.6199 61.9321 46.6643 61.8952C46.7667 61.8189 46.8484 61.5879 46.7691 61.3738C46.6932 61.1524 46.4613 60.9531 46.1933 60.8936C45.9584 60.8372 45.7023 60.8414 45.4516 60.8794C45.2009 60.917 44.9556 60.9918 44.7247 61.0978C44.631 61.1402 44.5124 61.1938 44.3906 61.2548C44.3073 61.3233 44.2325 61.391 44.1722 61.4502C43.7472 61.8512 43.4933 62.4335 43.4882 63.0181C43.4826 63.3499 43.6062 63.6877 43.824 63.8834C43.9316 63.9829 44.058 64.0518 44.1784 64.0803C44.3014 64.1102 44.4056 64.1015 44.5034 64.0705C44.6008 64.0397 44.681 63.9872 44.736 63.9342C44.7925 63.8776 44.8237 63.8342 44.8558 63.763C44.9105 63.6191 44.9572 63.4444 44.893 63.2041C45.0133 63.1798 45.1644 63.2292 45.2743 63.345C45.3859 63.4592 45.4607 63.6316 45.462 63.8288C45.4674 64.0244 45.3765 64.2574 45.2186 64.4136C45.0617 64.5745 44.8505 64.6749 44.628 64.7065C44.4056 64.7407 44.1607 64.695 43.966 64.5911C43.8696 64.5413 43.7823 64.4795 43.7044 64.4091ZM41.9996 28.233C43.2861 28.233 44.4515 28.6129 45.2956 29.227C46.1443 29.8444 46.6692 30.6986 46.6692 31.6433C46.6692 32.5879 46.1443 33.4422 45.2956 34.0596C44.4515 34.6737 43.2861 35.0535 41.9996 35.0535C40.713 35.0535 39.5476 34.6737 38.7035 34.0596C37.8549 33.4422 37.3299 32.588 37.3299 31.6433C37.3299 30.6986 37.8549 29.8443 38.7035 29.227C39.5476 28.6129 40.713 28.233 41.9996 28.233ZM45.2394 29.3046C46.0634 29.9041 46.5732 30.731 46.5732 31.6433C46.5732 32.5556 46.0635 33.3825 45.2394 33.982C44.4109 34.5848 43.2655 34.9576 41.9995 34.9576C40.7336 34.9576 39.5882 34.5848 38.7597 33.982C37.9357 33.3825 37.4259 32.5555 37.4259 31.6433C37.4259 30.7311 37.9357 29.9041 38.7597 29.3046C39.5882 28.7018 40.7336 28.329 41.9995 28.329C43.2655 28.329 44.4109 28.7018 45.2394 29.3046ZM41.9996 27.5604C43.4937 27.5604 44.8477 28.0138 45.8289 28.7469C46.8185 29.4862 47.4306 30.5101 47.4306 31.6433C47.4306 32.7765 46.8185 33.8004 45.8289 34.5397C44.8477 35.2727 43.4937 35.7262 41.9996 35.7262C40.5054 35.7262 39.1514 35.2727 38.1702 34.5397C37.1806 33.8004 36.5685 32.7765 36.5685 31.6433C36.5685 30.5101 37.1806 29.4862 38.1702 28.7469C39.1514 28.0138 40.5054 27.5604 41.9996 27.5604ZM45.7095 28.907C46.6493 29.6092 47.2307 30.5768 47.2307 31.6433C47.2307 32.7098 46.6493 33.6774 45.7095 34.3796C44.7612 35.0881 43.4496 35.5262 41.9995 35.5262C40.5494 35.5262 39.2379 35.0881 38.2896 34.3796C37.3497 33.6774 36.7684 32.7098 36.7684 31.6433C36.7684 30.5767 37.3497 29.6092 38.2896 28.907C39.2379 28.1985 40.5495 27.7603 41.9995 27.7603C43.4496 27.7603 44.7612 28.1985 45.7095 28.907ZM30.0597 53.0324C30.5111 53.1327 30.959 53.2568 31.4032 53.3966C31.1898 53.2258 31.0109 53.0138 30.8772 52.7759C30.7032 52.4621 30.6088 52.0992 30.6249 51.7356C30.6392 51.3726 30.762 51.0217 30.9551 50.72L30.9576 50.7161C30.9435 50.719 30.9294 50.7218 30.9155 50.7248C30.2696 50.8661 29.6196 51.1527 29.3238 51.5976C29.1776 51.8183 29.1184 52.077 29.1636 52.2858C29.2018 52.4856 29.3564 52.6634 29.5227 52.7362C29.8406 52.9048 30.2624 52.5731 30.2336 52.1993C30.365 52.341 30.3769 52.6302 30.2223 52.8564C30.1797 52.9193 30.1259 52.9805 30.0597 53.0324ZM32.6259 53.8183C32.6359 53.8179 32.646 53.8175 32.656 53.817C32.9622 53.8012 33.2977 53.7227 33.5694 53.5061C33.8349 53.2991 34.039 52.9715 34.0419 52.6013C34.0452 52.42 33.9855 52.2281 33.8943 52.0882C33.8019 51.9453 33.6773 51.8387 33.5432 51.7749C33.2755 51.6399 32.9603 51.715 32.8575 51.9141C33.0359 52.0513 33.1159 52.1705 33.2012 52.2797C33.2847 52.3924 33.3632 52.4989 33.3949 52.639C33.4299 52.7872 33.3985 53.009 33.2635 53.1957C33.1363 53.3824 32.8949 53.5116 32.6398 53.5237C32.028 53.5597 31.4317 53.1733 31.1337 52.6328C30.984 52.362 30.9049 52.0541 30.9183 51.7486C30.9299 51.442 31.0354 51.1392 31.2019 50.8792C31.2525 50.7998 31.3095 50.7246 31.3719 50.6543C31.895 50.6032 32.4376 50.6477 32.9518 50.7758C34.1252 51.0646 35.1743 51.7247 36.0888 52.5162C36.1683 52.5837 36.2558 52.6593 36.3483 52.7407L36.5888 53.0222C36.3826 52.9506 36.1627 52.9209 35.9451 52.9329C35.6587 52.9492 35.3682 53.0368 35.1332 53.2237C35.0007 53.3299 34.8828 53.4723 34.8212 53.6467C34.7595 53.8207 34.7579 54.0077 34.7897 54.1801C34.8292 54.3873 34.9154 54.5975 35.0577 54.7669L34.9549 54.7269C34.6447 54.6059 34.4187 54.516 34.189 54.4248C33.6746 54.2206 33.1533 54.0135 32.6259 53.8183ZM35.8972 55.0851C35.9107 55.0824 35.9241 55.0794 35.9374 55.0761C36.1147 55.0316 36.2775 54.9151 36.3602 54.7574C36.4403 54.605 36.4447 54.4444 36.3985 54.3179C36.3538 54.1902 36.2515 54.1025 36.1534 54.0877C36.1726 54.2834 36.0892 54.4261 35.9966 54.5175C35.9164 54.5918 35.7481 54.6486 35.5643 54.5958C35.3846 54.547 35.185 54.3518 35.0905 54.0998C35.0432 53.9762 35.0232 53.8409 35.0511 53.7154C35.0784 53.5902 35.1571 53.4732 35.265 53.387C35.6524 53.0847 36.2456 53.0677 36.6894 53.2922C36.7682 53.3289 36.8609 53.3831 36.9535 53.4492L37.1971 53.7344L38.5006 55.2601C38.718 55.5114 38.9299 55.7787 39.1976 56.0111C39.2256 56.0355 39.2544 56.0595 39.2839 56.0828C38.991 56.0243 38.7004 55.9576 38.4114 55.884C37.566 55.6685 36.734 55.3932 35.8972 55.0851ZM40.9184 56.3158C41.2255 56.1343 41.4356 55.8178 41.4036 55.4526C41.3666 55.1463 41.1647 54.9396 40.9554 54.8593C40.7441 54.7711 40.5002 54.8474 40.4272 55.0022C40.5884 55.0635 40.6678 55.1436 40.748 55.2268C40.8246 55.3099 40.9027 55.4108 40.9271 55.5196C40.9537 55.6301 40.9251 55.8063 40.7931 55.9537C40.6664 56.1041 40.4513 56.2026 40.201 56.1754C39.9059 56.1464 39.6261 55.9953 39.3896 55.7888C39.1505 55.5822 38.9431 55.3235 38.7239 55.0693L38.2686 54.5363C38.1825 54.3817 38.1055 54.2293 38.0527 54.1088C37.9294 53.8394 37.8523 53.5482 37.8628 53.2606C37.8723 52.9744 37.9697 52.6882 38.1543 52.4793C38.3591 52.2392 38.7254 52.1451 38.99 52.2438C39.2516 52.3308 39.3902 52.6165 39.3725 52.8137C39.3616 53.0052 39.2128 53.1398 39.0984 53.1814C39.0474 53.2043 38.9649 53.2085 38.882 53.1893C38.799 53.17 38.7106 53.131 38.632 53.0464C38.498 53.2449 38.6937 53.6687 39.1358 53.6808C39.5603 53.6924 39.9458 53.2696 39.9047 52.7991C39.8707 52.3488 39.5136 51.9617 39.0717 51.8953C38.6403 51.8324 38.2343 52.0243 37.9735 52.3196C37.7446 52.5798 37.6333 52.9186 37.6217 53.252C37.6151 53.4368 37.639 53.6184 37.6841 53.7935C37.5569 53.5015 37.4637 53.1768 37.418 52.9408C37.2493 52.1746 37.4441 51.3413 37.9572 50.7508C38.2431 50.4134 38.6639 50.181 39.079 50.1325C39.2844 50.1082 39.4864 50.1342 39.6462 50.2083C39.8088 50.2819 39.9383 50.4036 40.0043 50.5315C40.0731 50.6579 40.0778 50.7877 40.0492 50.9117C40.0184 51.0323 39.9553 51.121 39.8788 51.1739C39.7988 51.2307 39.6793 51.2603 39.5598 51.2594C39.4386 51.2594 39.3157 51.2312 39.1938 51.1651C39.1873 51.4444 39.5851 51.7978 40.0818 51.6318C40.33 51.5458 40.5223 51.3136 40.5896 51.0541C40.6245 50.9239 40.6326 50.7854 40.6122 50.6465C40.5903 50.5074 40.536 50.3664 40.4572 50.2517C40.3505 50.0916 40.2052 49.9669 40.0415 49.8794H41.9995H43.9576C43.7939 49.9669 43.6486 50.0916 43.5418 50.2517C43.4631 50.3664 43.4088 50.5074 43.3869 50.6465C43.3665 50.7854 43.3746 50.9239 43.4095 51.0541C43.4768 51.3137 43.6691 51.5458 43.9173 51.6318C44.414 51.7978 44.8118 51.4444 44.8053 51.1651C44.6835 51.2312 44.5605 51.2594 44.4394 51.2594C44.3198 51.2603 44.2003 51.2307 44.1203 51.1739C44.0438 51.121 43.9807 51.0323 43.9499 50.9117C43.9213 50.7877 43.926 50.6579 43.9948 50.5315C44.0608 50.4036 44.1904 50.2819 44.3529 50.2083C44.5128 50.1342 44.7147 50.1082 44.9201 50.1325C45.3352 50.181 45.756 50.4134 46.0419 50.7508C46.555 51.3413 46.7497 52.1746 46.5811 52.9408C46.5354 53.1768 46.4422 53.5015 46.315 53.7935C46.3601 53.6184 46.384 53.4368 46.3774 53.252C46.3658 52.9186 46.2545 52.5798 46.0256 52.3196C45.7648 52.0243 45.3588 51.8324 44.9274 51.8953C44.4855 51.9617 44.1284 52.3488 44.0944 52.7991C44.0533 53.2696 44.4388 53.6924 44.8633 53.6808C45.3054 53.6687 45.501 53.2449 45.3671 53.0464C45.2885 53.131 45.2 53.17 45.117 53.1893C45.0342 53.2085 44.9517 53.2043 44.9006 53.1814C44.7862 53.1398 44.6374 53.0052 44.6266 52.8137C44.6089 52.6165 44.7474 52.3308 45.0091 52.2438C45.2737 52.1451 45.6399 52.2392 45.8448 52.4793C46.0294 52.6882 46.1268 52.9744 46.1363 53.2606C46.1468 53.5482 46.0697 53.8394 45.9464 54.1088C45.8936 54.2293 45.8166 54.3817 45.7305 54.5363L45.2752 55.0693C45.056 55.3235 44.8486 55.5822 44.6095 55.7888C44.3731 55.9953 44.0932 56.1465 43.7981 56.1754C43.5478 56.2026 43.3327 56.1041 43.206 55.9537C43.074 55.8063 43.0454 55.6301 43.0721 55.5196C43.0964 55.4108 43.1745 55.3099 43.2512 55.2268C43.3314 55.1436 43.4107 55.0635 43.5719 55.0022C43.499 54.8474 43.2551 54.7711 43.0437 54.8593C42.8345 54.9395 42.6326 55.1463 42.5955 55.4526C42.5635 55.8178 42.7736 56.1343 43.0807 56.3158C42.7257 56.3452 42.3657 56.3608 41.9996 56.3608C41.6334 56.3608 41.2735 56.3451 40.9184 56.3158ZM44.7152 56.0828C44.7447 56.0595 44.7735 56.0355 44.8015 56.0112C45.0692 55.7787 45.2811 55.5114 45.4985 55.2601L46.802 53.7344L47.0456 53.4492C47.1382 53.3832 47.2309 53.3289 47.3097 53.2922C47.7536 53.0678 48.3467 53.0848 48.7341 53.387C48.842 53.4732 48.9207 53.5902 48.948 53.7154C48.976 53.8409 48.956 53.9762 48.9086 54.0998C48.8142 54.3518 48.6146 54.5471 48.4348 54.5958C48.251 54.6486 48.0827 54.5918 48.0025 54.5175C47.9099 54.4261 47.8265 54.2834 47.8457 54.0877C47.7476 54.1025 47.6454 54.1902 47.6006 54.3179C47.5544 54.4444 47.5588 54.605 47.6389 54.7574C47.7216 54.9152 47.8844 55.0316 48.0617 55.0761C48.075 55.0795 48.0885 55.0824 48.1019 55.0851C47.2651 55.3932 46.4331 55.6686 45.5877 55.884C45.2987 55.9577 45.0081 56.0243 44.7152 56.0828ZM48.9414 54.7669C49.0837 54.5976 49.1699 54.3874 49.2094 54.1801C49.2413 54.0078 49.2396 53.8207 49.1779 53.6468C49.1163 53.4723 48.9985 53.33 48.866 53.2238C48.6309 53.0368 48.3405 52.9493 48.0541 52.9329C47.8365 52.921 47.6165 52.9506 47.4103 53.0222L47.6509 52.7407C47.7433 52.6593 47.8308 52.5837 47.9103 52.5163C48.8248 51.7247 49.8739 51.0647 51.0473 50.7758C51.5615 50.6477 52.1041 50.6033 52.6272 50.6544C52.6896 50.7246 52.7466 50.7999 52.7972 50.8792C52.9637 51.1393 53.0691 51.442 53.0807 51.7487C53.0942 52.0542 53.015 52.3621 52.8653 52.6329C52.5674 53.1734 51.9711 53.5597 51.3593 53.5237C51.1042 53.5117 50.8628 53.3824 50.7356 53.1957C50.6006 53.0091 50.5692 52.7872 50.6042 52.639C50.6359 52.4989 50.7144 52.3924 50.7979 52.2798C50.8832 52.1706 50.9632 52.0513 51.1416 51.9142C51.0388 51.7151 50.7236 51.6399 50.456 51.7749C50.3218 51.8388 50.1972 51.9454 50.1048 52.0882C50.0136 52.2281 49.954 52.4201 49.9572 52.6013C49.9601 52.9715 50.1642 53.2992 50.4297 53.5061C50.7014 53.7227 51.0369 53.8012 51.3431 53.817C51.3531 53.8176 51.3632 53.8179 51.3732 53.8183C50.8458 54.0136 50.3245 54.2206 49.8101 54.4249C49.5804 54.5161 49.3544 54.6059 49.0442 54.727L48.9414 54.7669ZM52.5959 53.3966C53.0401 53.2568 53.4881 53.1326 53.9394 53.0324C53.8732 52.9805 53.8194 52.9193 53.7768 52.8564C53.6222 52.6302 53.6341 52.341 53.7655 52.1993C53.7367 52.5731 54.1585 52.9048 54.4764 52.7362C54.6427 52.6634 54.7973 52.4856 54.8355 52.2858C54.8807 52.077 54.8216 51.8183 54.6753 51.5976C54.3795 51.1527 53.7296 50.8661 53.0837 50.7248C53.0697 50.7218 53.0556 50.719 53.0415 50.7161L53.0441 50.72C53.2372 51.0217 53.3599 51.3726 53.3743 51.7356C53.3903 52.0992 53.296 52.462 53.122 52.7759C52.9882 53.0138 52.8093 53.2258 52.5959 53.3966ZM59.5781 56.2876C61.3665 56.3425 62.8452 57.0949 63.6939 57.6435C62.3511 57.4433 60.8962 57.9391 60.891 57.9409L60.5541 58.0538L60.8565 58.2399C61.9338 58.9029 62.7515 59.9903 63.2204 60.7268C61.2252 59.4132 58.3795 59.8749 56.9363 60.1092C56.5942 60.1647 56.3344 60.2069 56.1967 60.2069C55.8923 60.2069 55.6826 60.1127 55.5436 59.9769C55.3575 59.7951 55.2895 59.5346 55.2895 59.3248C55.2895 59.2966 55.2898 59.2771 55.2903 59.2658C55.2999 59.0474 55.3634 58.9005 55.4653 58.8114C55.5678 58.7218 55.7176 58.6827 55.8965 58.6827C55.923 58.6827 55.9417 58.683 55.953 58.6835C56.3316 58.7001 56.7409 58.8423 57.1233 58.9752C57.5053 59.108 57.8624 59.2321 58.1735 59.23C58.3235 59.229 58.4976 59.1554 58.6367 59.0363C58.7353 58.9519 58.8199 58.8425 58.8696 58.7177C58.9108 58.6142 58.9278 58.5012 58.9097 58.3839L59.5781 56.2876ZM58.5236 58.2918C58.5455 58.3244 58.561 58.3564 58.571 58.3877C58.594 58.4599 58.5871 58.531 58.5614 58.5956C58.533 58.6669 58.4818 58.732 58.4208 58.7841C58.3386 58.8545 58.245 58.898 58.1722 58.8984C57.9182 58.9001 57.5869 58.7851 57.2325 58.6619C56.8278 58.5213 56.3947 58.3707 55.9672 58.352C55.9356 58.3506 55.9118 58.3498 55.8965 58.3498C55.6847 58.3498 55.4946 58.3937 55.3398 58.4922L55.3995 57.579C55.6729 57.5354 55.9357 57.5108 56.1826 57.5108C56.6359 57.5108 57.2613 57.6092 57.777 57.8096C57.9954 57.8944 58.1923 57.9965 58.3439 58.1152L58.3435 58.1156L58.3547 58.1238C58.4207 58.1765 58.4776 58.2325 58.5236 58.2918ZM51.6817 58.7786C51.563 58.942 51.4665 59.1205 51.3861 59.2994C51.2034 59.7096 51.1008 60.1419 50.9991 60.5649C50.9605 60.726 50.9218 60.8867 50.8788 61.0452C50.8617 60.9259 50.8237 60.8095 50.7533 60.7093C50.6885 60.6161 50.5776 60.5427 50.4697 60.5401C50.3638 60.5336 50.2696 60.596 50.2566 60.6762C50.3334 60.7005 50.3794 60.7288 50.4275 60.7538C50.4738 60.7792 50.5203 60.8061 50.5763 60.8584C50.6865 60.9611 50.7985 61.154 50.7781 61.3517L50.7773 61.3614C50.7764 61.3718 50.7754 61.3832 50.7742 61.3951C50.7289 61.531 50.6781 61.6643 50.6191 61.7937C50.4467 62.1789 50.1872 62.5242 49.8385 62.7495C49.495 62.979 49.0621 63.0505 48.675 62.9098C48.2873 62.7772 47.9566 62.485 47.76 62.1233C47.5612 61.7636 47.4934 61.3236 47.6225 60.9387C47.7501 60.5566 48.0681 60.2306 48.4534 60.1205C48.7701 60.0247 49.1219 60.1397 49.3454 60.3603C49.5761 60.5786 49.6583 60.883 49.5966 61.1196C49.5362 61.3667 49.3749 61.5229 49.2139 61.5644C49.0335 61.6094 48.8415 61.5948 48.6616 61.4785C48.6489 61.5839 48.6993 61.7196 48.8105 61.8148C48.9194 61.9129 49.0794 61.974 49.259 61.9704C49.4402 61.9699 49.6426 61.8762 49.7754 61.731C49.9135 61.5852 49.9979 61.3934 50.0245 61.1929C50.053 60.9917 50.0141 60.7754 49.9232 60.5913C49.8341 60.4045 49.6918 60.2514 49.5299 60.1344C49.3059 59.9716 49.0295 59.8829 48.7561 59.8813C49.423 59.6566 50.0909 59.4087 50.7678 59.1447C50.9919 59.0572 51.248 58.9538 51.5168 58.8452L51.6817 58.7786ZM35.2429 59.8813C34.9696 59.8828 34.6931 59.9716 34.4691 60.1344C34.3072 60.2514 34.1649 60.4045 34.0758 60.5913C33.9849 60.7754 33.946 60.9917 33.9745 61.1929C34.0011 61.3934 34.0855 61.5852 34.2236 61.731C34.3564 61.8762 34.5588 61.9699 34.74 61.9704C34.9196 61.974 35.0797 61.9129 35.1885 61.8148C35.2997 61.7196 35.3501 61.5839 35.3374 61.4785C35.1575 61.5948 34.9656 61.6094 34.7852 61.5644C34.6241 61.5229 34.4629 61.3667 34.4025 61.1196C34.3407 60.883 34.4229 60.5786 34.6537 60.3603C34.8772 60.1397 35.229 60.0247 35.5457 60.1205C35.931 60.2306 36.249 60.5566 36.3766 60.9387C36.5057 61.3236 36.4379 61.7636 36.2391 62.1233C36.0425 62.485 35.7117 62.7772 35.3241 62.9098C34.937 63.0505 34.5041 62.979 34.1605 62.7495C33.8118 62.5243 33.5523 62.1789 33.38 61.7937C33.3209 61.6643 33.2701 61.531 33.2249 61.3951L33.2218 61.3614L33.221 61.3517C33.2005 61.154 33.3126 60.9611 33.4228 60.8584C33.4788 60.8061 33.5253 60.7793 33.5716 60.7538C33.6197 60.7288 33.6656 60.7005 33.7425 60.6762C33.7295 60.596 33.6353 60.5336 33.5294 60.5401C33.4215 60.5427 33.3105 60.6161 33.2458 60.7093C33.1754 60.8095 33.1374 60.9259 33.1203 61.0452C33.0773 60.8867 33.0385 60.726 33 60.5649C32.8983 60.1419 32.7957 59.7096 32.613 59.2994C32.5326 59.1205 32.4361 58.942 32.3174 58.7786L32.4823 58.8452C32.7511 58.9538 33.0071 59.0572 33.2312 59.1447C33.9081 59.4087 34.5761 59.6566 35.2429 59.8813ZM28.5995 57.5789L28.6592 58.4922C28.5044 58.3937 28.3144 58.3498 28.1026 58.3498C28.0873 58.3498 28.0635 58.3506 28.0318 58.3519C27.6044 58.3707 27.1712 58.5213 26.7665 58.6619C26.4122 58.785 26.0809 58.9001 25.8268 58.8984C25.7541 58.8979 25.6605 58.8545 25.5783 58.7841C25.5173 58.7319 25.4661 58.6668 25.4377 58.5955C25.412 58.531 25.4051 58.4598 25.4281 58.3877C25.4381 58.3564 25.4536 58.3244 25.4755 58.2918C25.5214 58.2325 25.5784 58.1765 25.6444 58.1237L25.6556 58.1156L25.6552 58.1151C25.8067 57.9964 26.0037 57.8944 26.2221 57.8095C26.7378 57.6091 27.3632 57.5108 27.8165 57.5108C28.0634 57.5108 28.3262 57.5354 28.5995 57.5789ZM25.0895 58.3839C25.0713 58.5012 25.0884 58.6142 25.1296 58.7177C25.1792 58.8425 25.2638 58.9519 25.3624 59.0363C25.5015 59.1554 25.6756 59.229 25.8256 59.23C26.1367 59.232 26.4938 59.108 26.8758 58.9752C27.2582 58.8423 27.6676 58.7001 28.0461 58.6835C28.0574 58.683 28.0761 58.6827 28.1026 58.6827C28.2814 58.6827 28.4313 58.7218 28.5338 58.8114C28.6356 58.9005 28.6993 59.0474 28.7088 59.2658C28.7093 59.2771 28.7096 59.2966 28.7096 59.3248C28.7096 59.5346 28.6416 59.7951 28.4555 59.9769C28.3165 60.1126 28.1069 60.2069 27.8025 60.2069C27.6647 60.2069 27.4049 60.1647 27.0628 60.1092C25.6196 59.8749 22.7739 59.4132 20.7787 60.7268C21.2476 59.9903 22.0653 58.9029 23.1426 58.2399L23.445 58.0538L23.1082 57.9409C23.1029 57.9391 21.648 57.4433 20.3052 57.6435C21.1539 57.0949 22.6326 56.3425 24.4211 56.2876L25.0895 58.3839ZM25.7445 53.3392C26.4133 53.1777 27.1101 53.1009 27.8165 53.1009C29.9573 53.1009 32.0647 53.9379 34.0668 54.733C34.3516 54.8461 34.6368 54.9594 34.8339 55.0363C36.0054 55.4933 37.1547 55.907 38.3296 56.2065C39.5105 56.5075 40.7178 56.6937 41.9996 56.6937C43.2813 56.6937 44.4886 56.5075 45.6696 56.2065C46.8445 55.907 47.9938 55.4933 49.1652 55.0363C49.3623 54.9595 49.6476 54.8461 49.9324 54.733C51.9344 53.9379 54.0419 53.1009 56.1827 53.1009C56.889 53.1009 57.5859 53.1777 58.2546 53.3392C58.8501 53.4829 59.4252 53.6939 59.9668 53.9775L58.6915 57.9771C58.6475 57.9326 58.5963 57.8889 58.5373 57.8465L58.537 57.8468C58.3583 57.709 58.1376 57.5937 57.8967 57.5001C57.3405 57.2839 56.6685 57.1779 56.1827 57.1779C54.7568 57.1779 52.8755 57.9381 51.3934 58.5371C51.135 58.6414 50.8891 58.7408 50.647 58.8352C49.2151 59.3939 47.8258 59.8786 46.4088 60.2228C44.9953 60.5662 43.5498 60.7707 41.9996 60.7707C40.4495 60.7707 39.004 60.5662 37.5905 60.2228C36.1734 59.8786 34.7842 59.3939 33.3522 58.8352C33.1102 58.7408 32.8643 58.6414 32.6059 58.5371C31.1238 57.9381 29.2425 57.1779 27.8166 57.1779C27.3308 57.1779 26.6588 57.2839 26.1026 57.5001C25.8617 57.5937 25.6409 57.709 25.4622 57.8468L25.462 57.8465C25.4029 57.8889 25.3517 57.9326 25.3077 57.9771L24.0324 53.9775C24.574 53.6939 25.1491 53.4829 25.7445 53.3392ZM27.4346 28.3086C28.8915 27.0704 30.5016 26.0175 32.2229 25.1824C32.2486 25.171 32.2742 25.1593 32.2999 25.1476C32.3325 25.1326 32.3645 25.1165 32.3959 25.0993C32.653 24.9773 32.9122 24.8599 33.1738 24.748C35.968 23.5535 38.9609 22.9444 41.9995 22.9444C45.0381 22.9444 48.031 23.5535 50.8252 24.748C51.087 24.86 51.3464 24.9775 51.6036 25.0995C51.6349 25.1167 51.6668 25.1327 51.6993 25.1476C51.7247 25.1592 51.75 25.1708 51.7755 25.1821C53.497 26.0172 55.1074 27.0702 56.5644 28.3086C56.2405 28.3604 55.9258 28.473 55.642 28.6374C55.043 28.9844 54.5902 29.5367 54.298 30.1584C54.2312 30.3008 54.1723 30.447 54.1219 30.5959C52.7318 29.4658 51.1894 28.5295 49.5417 27.8237C47.1551 26.8015 44.5952 26.2832 41.9995 26.2832C39.4037 26.2832 36.8438 26.8016 34.4572 27.8237C32.8095 28.5295 31.2671 29.4657 29.8771 30.5959C29.8267 30.4469 29.7679 30.3008 29.701 30.1584C29.4088 29.5367 28.956 28.9844 28.357 28.6374C28.0732 28.473 27.7586 28.3604 27.4346 28.3086ZM37.552 20.0013C38.9467 19.7281 40.3854 19.5806 41.856 19.5717V19.3109C41.8113 19.0954 41.7554 18.8461 41.534 18.7454C41.4096 18.6862 41.3043 18.7099 41.2374 18.752C41.2032 18.7727 41.1813 18.7947 41.166 18.8114C41.1521 18.8271 41.1389 18.837 41.1198 18.8636C41.0869 18.9143 41.0254 18.984 41.022 19.1346C40.8761 19.1844 40.6945 19.0336 40.6861 18.8249C40.677 18.7235 40.7127 18.5985 40.7908 18.5026C40.8667 18.4074 40.9757 18.3428 41.0895 18.3134C41.2036 18.2839 41.3253 18.2866 41.4401 18.3229C41.5515 18.3586 41.6472 18.4228 41.7229 18.498C41.7758 18.5502 41.8195 18.6076 41.856 18.6675V18.2797C41.856 18.0331 41.4565 17.5338 41.4565 17.5338C41.8186 17.0626 41.9995 16.479 41.9995 16.479C41.9995 16.479 42.1805 17.0626 42.5425 17.5338C42.5425 17.5338 42.1431 18.0331 42.1431 18.2797V18.6675C42.1795 18.6076 42.2232 18.5502 42.2761 18.498C42.3518 18.4228 42.4475 18.3586 42.5589 18.3229C42.6737 18.2866 42.7954 18.2839 42.9095 18.3134C43.0233 18.3428 43.1323 18.4074 43.2082 18.5026C43.2863 18.5985 43.322 18.7235 43.313 18.8249C43.3045 19.0336 43.123 19.1844 42.977 19.1346C42.9736 18.984 42.9121 18.9143 42.8792 18.8636C42.8602 18.837 42.8469 18.8272 42.8331 18.8114C42.8177 18.7947 42.7958 18.7727 42.7617 18.752C42.6948 18.7099 42.5895 18.6862 42.465 18.7454C42.2437 18.8461 42.1877 19.0954 42.1431 19.3109V19.5717C43.6186 19.5807 45.0614 19.7287 46.4592 20.0031C46.6066 20.0261 46.7504 20.0726 46.883 20.1434C47.2329 20.3266 47.4899 20.6953 47.4695 21.0781C47.4542 21.4526 47.151 21.7106 46.9086 21.6579C46.956 21.4228 46.9101 21.2554 46.8611 21.1193C46.8093 20.9931 46.7176 20.8318 46.5435 20.6955C46.3748 20.563 46.1112 20.4659 45.8354 20.5002C45.5623 20.5266 45.2932 20.716 45.1727 20.9923C45.0658 21.2304 45.0472 21.501 45.135 21.7444C45.2201 21.9897 45.3955 22.2069 45.6096 22.3716C45.729 22.4675 45.9084 22.5869 46.0952 22.6886C47.825 22.9996 49.4894 23.5036 51.0653 24.1779C51.5062 24.3663 51.9399 24.5682 52.3662 24.7829C52.6366 24.8665 52.9174 24.9159 53.1994 24.9293C53.4466 24.9429 53.6989 24.8912 53.8972 24.7864C54.0965 24.684 54.2322 24.5263 54.3057 24.3852C54.3795 24.2395 54.3938 24.1386 54.4204 24.0115C54.4417 23.8875 54.482 23.7544 54.4801 23.5393C54.6901 23.4828 54.9353 23.6467 55.0215 23.9092C55.0662 24.0392 55.0771 24.1909 55.043 24.3459C55.0082 24.503 54.9323 24.6449 54.8297 24.7667C54.624 25.0088 54.3236 25.1501 54.0307 25.2013C53.7412 25.2534 53.4628 25.2366 53.1982 25.2234C55.073 26.2658 56.789 27.5627 58.3019 29.0677C58.5864 29.3383 58.7841 29.7013 58.8421 30.0931C58.8912 30.4162 58.8387 30.7702 58.657 31.0555C58.4805 31.3393 58.2134 31.5599 57.9009 31.6754C57.384 31.8771 56.7743 31.7985 56.4594 31.3882C56.3836 31.2852 56.3329 31.1684 56.321 31.0376C56.3093 30.9118 56.3386 30.7971 56.3887 30.7034C56.4872 30.5138 56.7108 30.4198 56.8546 30.5021C56.7778 30.6442 56.7881 30.7503 56.7865 30.8441C56.7926 30.9459 56.7982 31.0099 56.8564 31.1161C56.9128 31.2165 57.0326 31.3373 57.2019 31.4009C57.3673 31.4716 57.5871 31.4793 57.7979 31.4002C58.0482 31.3089 58.2676 31.1263 58.4067 30.9017C58.5492 30.679 58.5909 30.4027 58.5515 30.1362C58.4723 29.5994 58.0686 29.1136 57.5459 28.9495C57.023 28.7721 56.415 28.8592 55.9336 29.1404C55.4445 29.4226 55.0675 29.8872 54.8243 30.4058C54.5795 30.9259 54.4591 31.5085 54.5 32.0787C54.5364 32.6488 54.7569 33.2012 55.1294 33.6293C55.4956 34.0555 56.0286 34.3558 56.5793 34.3688C56.8522 34.374 57.1212 34.3035 57.3308 34.1406C57.5412 33.9819 57.696 33.7439 57.7173 33.4924C57.7412 33.2841 57.6148 33.0705 57.4562 32.96C57.2951 32.846 57.1114 32.8474 57.0223 32.8955C56.9165 32.9438 56.8226 33.0268 56.7329 33.1005C56.6455 33.1769 56.5349 33.2445 56.4157 33.4258C56.3196 33.392 56.2291 33.3083 56.1911 33.1943C56.15 33.0813 56.1511 32.943 56.1954 32.8127C56.2832 32.5527 56.5364 32.3168 56.8859 32.262C57.2546 32.2069 57.5878 32.4081 57.7714 32.6592C57.9559 32.9146 58.0392 33.2212 58.0096 33.5198C57.9779 33.8705 57.7725 34.1749 57.508 34.3749C57.2414 34.5819 56.8971 34.6702 56.5736 34.6625C55.9167 34.6451 55.3187 34.2979 54.9077 33.822C54.4915 33.3451 54.2468 32.7261 54.2069 32.0999C54.1923 31.8943 54.1966 31.6884 54.2184 31.4847C53.6644 31.0018 53.0821 30.5514 52.4745 30.1362C52.7152 30.409 52.9172 30.7167 53.0643 31.053C53.3159 31.6275 53.3901 32.2768 53.2709 32.8935C53.1518 33.5064 52.8352 34.1037 52.3093 34.4844C52.0487 34.6711 51.7288 34.801 51.3897 34.7999C51.0496 34.7991 50.7215 34.6533 50.4813 34.4267C50.2364 34.2032 50.0751 33.887 50.0302 33.5612C49.9815 33.235 50.0363 32.9011 50.1712 32.6041C50.2866 32.3557 50.4337 32.1026 50.6786 31.908C50.9212 31.7121 51.28 31.6177 51.6034 31.7156C51.7669 31.7639 51.9166 31.8588 52.0263 32.0005C52.1324 32.142 52.1773 32.3015 52.1734 32.446C52.1743 32.7375 51.9419 32.9734 51.7264 32.9279C51.7069 32.7141 51.6202 32.6141 51.569 32.5264C51.5054 32.4359 51.4866 32.3966 51.3766 32.3227C51.2675 32.2566 51.0892 32.2125 50.9025 32.2819C50.7144 32.348 50.5322 32.5183 50.4381 32.7269C50.2075 33.2173 50.277 33.8526 50.6814 34.2117C50.8753 34.3942 51.1318 34.5057 51.3916 34.5062C51.6533 34.5072 51.9154 34.4053 52.1385 34.2455C52.5877 33.9218 52.8762 33.3904 52.9825 32.8377C53.0903 32.2811 53.0231 31.6903 52.7951 31.1706C52.3353 30.1273 51.2938 29.3502 50.1795 29.1443C49.9013 29.0983 49.6154 29.1008 49.3488 29.1668C49.0825 29.2333 48.8294 29.3634 48.6314 29.5487C48.4343 29.7336 48.2923 29.9749 48.257 30.2342C48.2186 30.4946 48.2787 30.7733 48.422 30.9879C48.5439 31.1708 48.7319 31.2733 48.9036 31.2873C49.0787 31.3048 49.221 31.2456 49.2927 31.1733C49.356 31.1156 49.3907 31.024 49.4212 30.9335C49.4472 30.8421 49.4849 30.7474 49.4519 30.5879C49.6105 30.5487 49.803 30.7001 49.8426 30.9096C49.8883 31.1112 49.8228 31.3837 49.5868 31.5542C49.3671 31.7145 49.0723 31.7307 48.8217 31.6513C48.5637 31.5739 48.3356 31.3889 48.1781 31.1516C47.9904 30.8683 47.919 30.5236 47.9661 30.1931C48.0123 29.8574 48.1935 29.5559 48.4308 29.3341C48.67 29.1108 48.9657 28.9601 49.278 28.8817C49.5921 28.8042 49.916 28.8034 50.2264 28.8543C50.2632 28.8605 50.2998 28.8674 50.3362 28.8748C49.997 28.7042 49.652 28.5436 49.3015 28.3936C47.0593 27.4312 44.5893 26.9028 41.9996 26.9028C39.4098 26.9028 36.9398 27.4312 34.6976 28.3936C34.3471 28.5437 34.0021 28.7042 33.6629 28.8749C33.6993 28.8674 33.7359 28.8605 33.7728 28.8543C34.0831 28.8034 34.4071 28.8042 34.7212 28.8817C35.0334 28.96 35.3292 29.1108 35.5684 29.3341C35.8057 29.5559 35.9869 29.8574 36.0331 30.1931C36.0802 30.5236 36.0088 30.8683 35.8211 31.1516C35.6635 31.3889 35.4355 31.5739 35.1776 31.6513C34.9269 31.7307 34.6321 31.7145 34.4124 31.5542C34.1764 31.3837 34.1109 31.1112 34.1566 30.9096C34.1962 30.7001 34.3886 30.5487 34.5473 30.5879C34.5143 30.7474 34.5519 30.8421 34.5779 30.9335C34.6085 31.024 34.6431 31.1156 34.7064 31.1733C34.7782 31.2456 34.9205 31.3048 35.0955 31.2873C35.2673 31.2733 35.4553 31.1708 35.5772 30.9879C35.7205 30.7733 35.7806 30.4946 35.7422 30.2342C35.7069 29.9749 35.5649 29.7336 35.3678 29.5487C35.1698 29.3634 34.9167 29.2333 34.6504 29.1668C34.3838 29.1008 34.0979 29.0983 33.8197 29.1443C32.7055 29.3502 31.6639 30.1273 31.2041 31.1706C30.9761 31.6903 30.9089 32.2811 31.0167 32.8377C31.1231 33.3904 31.4115 33.9218 31.8607 34.2455C32.0838 34.4053 32.3459 34.5072 32.6076 34.5062C32.8675 34.5057 33.1239 34.3941 33.3178 34.2117C33.7222 33.8526 33.7917 33.2173 33.5611 32.7269C33.4671 32.5183 33.2848 32.348 33.0968 32.2819C32.9101 32.2125 32.7317 32.2567 32.6226 32.3227C32.5127 32.3966 32.4938 32.4359 32.4302 32.5264C32.3791 32.614 32.2923 32.7141 32.2728 32.9279C32.0573 32.9734 31.8249 32.7375 31.8258 32.446C31.8219 32.3015 31.8669 32.1421 31.9729 32.0005C32.0826 31.8588 32.2323 31.7639 32.3959 31.7156C32.7192 31.6177 33.078 31.7121 33.3206 31.908C33.5655 32.1027 33.7126 32.3558 33.828 32.6041C33.9629 32.9011 34.0177 33.235 33.969 33.5612C33.9241 33.887 33.7628 34.2032 33.5179 34.4267C33.2777 34.6533 32.9496 34.7991 32.6095 34.7999C32.2704 34.801 31.9505 34.6711 31.6899 34.4844C31.1641 34.1037 30.8474 33.5064 30.7283 32.8935C30.6091 32.2768 30.6833 31.6275 30.935 31.053C31.082 30.7166 31.2841 30.409 31.5248 30.1361C30.9172 30.5513 30.3349 31.0017 29.7809 31.4846C29.8026 31.6883 29.807 31.8942 29.7924 32.0999C29.7524 32.7261 29.5077 33.345 29.0915 33.822C28.6805 34.2979 28.0825 34.6451 27.4257 34.6625C27.1021 34.6702 26.7579 34.5819 26.4913 34.3749C26.2268 34.1748 26.0214 33.8704 25.9897 33.5198C25.9601 33.2212 26.0433 32.9146 26.2279 32.6591C26.4114 32.4081 26.7447 32.2068 27.1133 32.2619C27.4629 32.3168 27.7161 32.5527 27.8039 32.8127C27.8482 32.943 27.8493 33.0813 27.8082 33.1942C27.7702 33.3083 27.6797 33.392 27.5836 33.4257C27.4644 33.2445 27.3538 33.1768 27.2663 33.1004C27.1768 33.0268 27.0827 32.9437 26.977 32.8955C26.8878 32.8474 26.7042 32.846 26.5431 32.96C26.3845 33.0704 26.258 33.2841 26.2821 33.4924C26.3032 33.7439 26.4581 33.9819 26.6685 34.1406C26.8781 34.3035 27.147 34.374 27.42 34.3688C27.9707 34.3557 28.5037 34.0555 28.8699 33.6292C29.2424 33.2012 29.4629 32.6487 29.4993 32.0787C29.5402 31.5085 29.4198 30.9259 29.1751 30.4058C28.9318 29.8871 28.5549 29.4226 28.0657 29.1403C27.5844 28.8591 26.9763 28.772 26.4534 28.9495C25.9307 29.1136 25.527 29.5994 25.4478 30.1362C25.4084 30.4027 25.4502 30.679 25.5927 30.9017C25.7317 31.1263 25.9512 31.3089 26.2014 31.4002C26.4122 31.4793 26.6321 31.4716 26.7974 31.4009C26.9668 31.3372 27.0865 31.2164 27.143 31.1161C27.2012 31.0098 27.2067 30.9459 27.2128 30.8441C27.2112 30.7503 27.2215 30.6442 27.1447 30.502C27.2885 30.4198 27.5121 30.5138 27.6106 30.7033C27.6607 30.7971 27.69 30.9118 27.6784 31.0376C27.6664 31.1683 27.6157 31.2852 27.5399 31.3881C27.2251 31.7985 26.6153 31.8771 26.0984 31.6754C25.7859 31.5599 25.5188 31.3392 25.3423 31.0555C25.1607 30.7702 25.1081 30.4162 25.1572 30.0931C25.2151 29.7019 25.4123 29.3392 25.6962 29.0688C27.2093 27.5633 28.9257 26.266 30.801 25.2234C30.5364 25.2365 30.2581 25.2534 29.9686 25.2012C29.6758 25.15 29.3752 25.0087 29.1696 24.7666C29.067 24.6448 28.9911 24.503 28.9562 24.3458C28.9222 24.1909 28.933 24.0392 28.9778 23.9092C29.064 23.6466 29.3092 23.4828 29.5192 23.5393C29.5173 23.7543 29.5575 23.8874 29.5788 24.0114C29.6055 24.1386 29.6198 24.2395 29.6935 24.3852C29.7671 24.5262 29.9028 24.6839 30.102 24.7863C30.3003 24.8911 30.5526 24.9429 30.7999 24.9292C31.0818 24.9158 31.3625 24.8665 31.6328 24.7829C32.0591 24.5682 32.493 24.3662 32.9339 24.1778C34.5099 23.5036 36.1743 22.9994 37.9041 22.6885C38.0909 22.5867 38.2703 22.4675 38.3897 22.3715C38.6038 22.2068 38.7792 21.9896 38.8643 21.7443C38.9521 21.5009 38.9335 21.2303 38.8265 20.9922C38.7061 20.7159 38.437 20.5266 38.1639 20.5001C37.888 20.4658 37.6244 20.5629 37.4558 20.6954C37.2817 20.8317 37.1901 20.9931 37.1382 21.1192C37.0892 21.2554 37.0433 21.4227 37.0907 21.6578C36.8483 21.7106 36.5451 21.4525 36.5298 21.078C36.5094 20.6952 36.7664 20.3266 37.1163 20.1433C37.2524 20.0706 37.4003 20.0236 37.552 20.0013ZM41.9995 22.6568C45.1722 22.6568 48.1916 23.3098 50.9382 24.4836C51.2065 24.5986 51.4722 24.7187 51.7352 24.8437C51.7642 24.8598 51.7923 24.874 51.819 24.886C51.8437 24.8975 51.8685 24.9088 51.8935 24.9197C53.8774 25.8813 55.7048 27.1224 57.3231 28.5926C56.795 28.5049 56.2438 28.6207 55.7862 28.8862C55.2331 29.2063 54.8222 29.7191 54.5584 30.2808C54.4354 30.5425 54.3412 30.8185 54.28 31.1018C52.8315 29.8676 51.1978 28.8462 49.4285 28.0881C47.1452 27.1105 44.634 26.5708 41.9995 26.5708C39.365 26.5708 36.8537 27.1105 34.5705 28.0881C32.8013 28.8462 31.1675 29.8677 29.719 31.1018C29.6579 30.8185 29.5637 30.5425 29.4407 30.2808C29.1768 29.7191 28.766 29.2063 28.2128 28.8862C27.7553 28.6207 27.204 28.5048 26.6759 28.5926C28.294 27.1225 30.1212 25.8816 32.1049 24.9201C32.1301 24.909 32.1551 24.8977 32.1801 24.8861C32.2069 24.874 32.2352 24.8597 32.2643 24.8434C32.5272 24.7186 32.7927 24.5986 33.0608 24.4836C35.8074 23.3098 38.8268 22.6568 41.9995 22.6568ZM35.5702 51.8317L35.5439 51.8014C35.5275 51.7834 35.5116 51.7652 35.4963 51.7471C35.1916 51.4 34.8773 51.0679 34.5225 50.7878C34.02 50.3821 33.4127 50.105 32.7795 50.0819C32.4665 50.0703 32.1524 50.1273 31.8778 50.2654C31.8098 50.299 31.7442 50.3376 31.6815 50.3806C32.1295 50.3959 32.5749 50.4661 33.0028 50.5723C33.9418 50.8035 34.8001 51.2635 35.5702 51.8317ZM35.4451 51.2518C35.3899 51.1144 35.3569 50.9702 35.3563 50.8263C35.3533 50.612 35.4357 50.3957 35.5827 50.2461C35.7492 50.0686 36.023 50.0467 36.2188 50.1535C36.416 50.2534 36.5164 50.4554 36.5405 50.6373C36.5692 50.8266 36.5095 50.9686 36.472 51.0182C36.4747 51.0399 36.4273 51.072 36.3699 51.0816C36.3148 51.0913 36.2417 51.0942 36.1779 51.0217C36.1118 51.0915 36.1374 51.2476 36.2419 51.3342C36.339 51.4212 36.5079 51.4791 36.6918 51.3942C36.8524 51.321 36.96 51.1607 37.0005 51.0066C37.0448 50.8491 37.0348 50.6834 36.9913 50.5324C36.9131 50.2469 36.6838 49.9813 36.3865 49.8794H38.725C38.3502 50.0382 38.029 50.2964 37.7744 50.5933C37.4934 50.9168 37.2988 51.3091 37.1965 51.7229C37.0941 52.1383 37.0953 52.575 37.1817 52.9895C37.2064 53.1179 37.2526 53.2666 37.314 53.4189L36.1171 52.0177C35.8981 51.7623 35.6785 51.5021 35.4451 51.2518ZM35.7697 49.8794H33.3988C33.8801 50.0059 34.3263 50.252 34.7046 50.5573C34.8624 50.6822 35.0113 50.8152 35.1538 50.9536C35.1492 50.9119 35.1467 50.8698 35.1464 50.8273C35.1439 50.5615 35.2428 50.2932 35.4336 50.0985C35.5257 50.0055 35.6403 49.9262 35.7697 49.8794ZM48.4289 51.8317C49.199 51.2636 50.0573 50.8035 50.9964 50.5723C51.4243 50.4661 51.8697 50.3959 52.3177 50.3806C52.2549 50.3376 52.1894 50.299 52.1214 50.2654C51.8467 50.1273 51.5326 50.0703 51.2196 50.0819C50.5864 50.105 49.9791 50.3821 49.4767 50.7878C49.1217 51.0679 48.8073 51.4002 48.5025 51.7474C48.4874 51.7654 48.4716 51.7834 48.4554 51.8013L48.4289 51.8317ZM48.554 51.2518C48.3206 51.5021 48.101 51.7623 47.882 52.0178L46.6851 53.419C46.7465 53.2666 46.7926 53.118 46.8174 52.9895C46.9037 52.575 46.905 52.1383 46.8025 51.7229C46.7002 51.3092 46.5056 50.9169 46.2247 50.5933C45.9701 50.2964 45.6489 50.0383 45.2741 49.8794H47.6126C47.3153 49.9813 47.0859 50.2469 47.0077 50.5325C46.9642 50.6835 46.9543 50.8491 46.9986 51.0067C47.0391 51.1607 47.1467 51.321 47.3073 51.3943C47.4912 51.4792 47.6601 51.4213 47.7572 51.3342C47.8617 51.2476 47.8873 51.0916 47.8212 51.0217C47.7574 51.0943 47.6843 51.0914 47.6292 51.0817C47.5718 51.072 47.5244 51.04 47.5271 51.0183C47.4896 50.9686 47.4299 50.8267 47.4586 50.6373C47.4826 50.4555 47.5831 50.2535 47.7803 50.1535C47.976 50.0467 48.2499 50.0686 48.4163 50.2462C48.5634 50.3957 48.6458 50.612 48.6428 50.8264C48.6422 50.9702 48.6092 51.1144 48.554 51.2518ZM48.2295 49.8794C48.3589 49.9262 48.4734 50.0055 48.5656 50.0985C48.7563 50.2932 48.8553 50.5615 48.8527 50.8273C48.8525 50.8697 48.8499 50.9119 48.8454 50.9536C48.9878 50.8152 49.1367 50.6822 49.2945 50.5573C49.6728 50.252 50.1191 50.0059 50.6003 49.8794H48.2295ZM7.5192 48.501H76.4799V48.656H7.5192V48.501ZM7.5192 37.5736H76.4799V37.7286H7.5192V37.5736Z" fill="url(#paint0_linear_380_717)"/>
<path fill-rule="evenodd" clip-rule="evenodd" d="M9.1943 42.9799H10.4688C10.9474 42.9799 11.3108 42.8484 11.5624 42.5869C11.8124 42.3238 11.9374 41.9458 11.9374 41.4512C11.9374 40.9533 11.8124 40.5736 11.5624 40.3138C11.3108 40.0524 10.9474 39.9225 10.4688 39.9225H9.1943V42.9799ZM7.2998 46.6869V46.1674H8.21743V39.9225H7.2998V39.4029H10.704C11.4227 39.4029 11.9917 39.5877 12.4127 39.9557C12.832 40.3254 13.0425 40.8234 13.0425 41.4512C13.0425 42.0757 12.832 42.5736 12.4127 42.9433C11.9917 43.3146 11.4227 43.4995 10.704 43.4995H9.1943V46.1673H10.3093V46.6869L7.2998 46.6869ZM17.8415 43.0715C18.0668 43.1331 18.2609 43.2381 18.422 43.3863C18.5848 43.5328 18.7312 43.741 18.8595 44.0075L19.9053 46.1674H20.7819V46.6869H19.0864L17.9615 44.3672C17.7477 43.9192 17.5487 43.6294 17.3695 43.4979C17.1902 43.3663 16.9419 43.2997 16.6278 43.2997H15.5539V46.1673H16.5702V46.6869H13.6594V46.1673H14.577V39.9224H13.6594V39.4028H17.307C18.0075 39.4028 18.5486 39.5727 18.9302 39.9108C19.3101 40.2489 19.5008 40.7285 19.5008 41.3496C19.5008 41.8509 19.361 42.2439 19.0831 42.532C18.8052 42.8201 18.3907 42.9999 17.8415 43.0715ZM15.5539 42.7801H16.9748C17.4599 42.7801 17.8185 42.6635 18.0487 42.4304C18.2806 42.1973 18.3957 41.8376 18.3957 41.3479C18.3957 40.86 18.2806 40.5003 18.0487 40.2688C17.8185 40.0373 17.4599 39.9224 16.9748 39.9224H15.5539V42.7801ZM20.8101 46.6869V46.1674H21.7277V39.9225H20.8101V39.4029H26.6022V41.0215H26.0101V40.0024H22.7046V42.4404H25.0629V41.5312H25.6549V43.9492H25.0629V43.0399H22.7046V46.0874H26.089V45.0682H26.6811V46.6869L20.8101 46.6869ZM28.1087 46.3372V44.6786L28.6613 44.6836C28.6777 45.2364 28.8356 45.6444 29.135 45.9092C29.4359 46.174 29.8931 46.3072 30.5049 46.3072C31.0771 46.3072 31.513 46.1923 31.8123 45.9625C32.1132 45.7344 32.2628 45.3996 32.2628 44.96C32.2628 44.6102 32.1724 44.3388 31.9898 44.1507C31.809 43.9625 31.4258 43.7793 30.842 43.5994L29.8914 43.3113C29.2056 43.0998 28.7221 42.8367 28.441 42.522C28.1597 42.2056 28.0199 41.7743 28.0199 41.2247C28.0199 40.6069 28.237 40.1273 28.6695 39.7859C29.1037 39.4445 29.7122 39.2729 30.495 39.2729C30.8288 39.2729 31.1956 39.3096 31.5935 39.3829C31.9915 39.4562 32.4158 39.5627 32.8647 39.7026V41.2513H32.322C32.2678 40.7368 32.0984 40.3654 31.8139 40.1373C31.5294 39.9075 31.0952 39.7925 30.5147 39.7925C30.0065 39.7925 29.6201 39.8975 29.3553 40.1073C29.0905 40.3171 28.9573 40.6219 28.9573 41.0215C28.9573 41.3713 29.0576 41.6444 29.2566 41.8426C29.4556 42.0407 29.8782 42.2372 30.5229 42.4321L31.4143 42.7019C32.0688 42.9 32.5342 43.1515 32.8121 43.4596C33.0901 43.766 33.2299 44.179 33.2299 44.6953C33.2299 45.4013 33.0062 45.9326 32.5605 46.2906C32.1132 46.6487 31.4488 46.8268 30.5657 46.8268C30.171 46.8268 29.7681 46.7869 29.3586 46.7053C28.9491 46.6253 28.533 46.5021 28.1087 46.3372ZM35.5554 46.6869V46.1674H36.4731V39.9824H34.3614V41.1215H33.7694V39.4029H40.1535V41.1215H39.5615V39.9824H37.4499V46.1674H38.3675V46.6869H35.5554ZM42.41 46.1674H43.3277V46.6869H40.5155V46.1674H41.4332V39.9225H40.5155V39.4029H43.3277V39.9225H42.41V46.1674ZM49.9061 41.5811C49.7942 40.9716 49.5591 40.5219 49.2022 40.2305C48.847 39.9391 48.3503 39.7925 47.7139 39.7925C46.8867 39.7925 46.2683 40.0624 45.8605 40.6019C45.4526 41.1431 45.2487 41.9591 45.2487 43.0516C45.2487 44.1223 45.4592 44.9334 45.8802 45.4829C46.2996 46.0325 46.9179 46.3072 47.7336 46.3072C48.0971 46.3072 48.4441 46.2623 48.7746 46.1707C49.1051 46.0791 49.4193 45.9426 49.7186 45.7594V43.8792H48.3668V43.3597H50.6954V46.0775C50.2679 46.3272 49.8074 46.5138 49.3157 46.6387C48.8223 46.7636 48.2944 46.8268 47.732 46.8268C46.6466 46.8268 45.7783 46.4838 45.1238 45.796C44.4709 45.1082 44.1436 44.194 44.1436 43.0516C44.1436 41.9008 44.4709 40.9833 45.1271 40.2988C45.7832 39.6144 46.6647 39.273 47.7731 39.273C48.1843 39.273 48.6102 39.3213 49.0476 39.4162C49.4867 39.5128 49.9538 39.6577 50.4488 39.8525V41.5811L49.9061 41.5811ZM53.6311 46.1674H54.5488V46.6869H51.7366V46.1674H52.6542V39.9225H51.7366V39.4029H54.5488V39.9225H53.6311V46.1674ZM58.8609 46.3072C59.6471 46.3072 60.2424 46.0324 60.6436 45.4846C61.0449 44.9367 61.2456 44.1257 61.2456 43.0516C61.2456 41.9758 61.0449 41.1631 60.6436 40.6152C60.2424 40.0673 59.6471 39.7925 58.8609 39.7925C58.0699 39.7925 57.473 40.0673 57.0717 40.6152C56.6704 41.1631 56.4698 41.9758 56.4698 43.0516C56.4698 44.1257 56.6704 44.9367 57.0717 45.4846C57.473 46.0324 58.0699 46.3072 58.8609 46.3072ZM58.8577 46.8268C58.3692 46.8268 57.9203 46.7452 57.5108 46.5837C57.1013 46.4205 56.7412 46.1807 56.4287 45.8659C56.0702 45.5012 55.8021 45.0899 55.6278 44.6269C55.4518 44.1657 55.3647 43.6411 55.3647 43.0516C55.3647 42.4637 55.4518 41.9375 55.6278 41.4745C55.8021 41.0115 56.0702 40.5986 56.4287 40.2338C56.7444 39.9158 57.1046 39.676 57.5092 39.5144C57.9137 39.3529 58.3627 39.2729 58.8577 39.2729C59.902 39.2729 60.744 39.6193 61.387 40.3121C62.03 41.0049 62.3507 41.9175 62.3507 43.0515C62.3507 43.6344 62.2619 44.159 62.0859 44.6253C61.9084 45.0915 61.6403 45.5045 61.2818 45.8659C60.966 46.184 60.6059 46.4238 60.2013 46.5853C59.7967 46.7469 59.3494 46.8268 58.8577 46.8268ZM64.0037 39.9225H63.086V39.4029H65.8982V39.9225H64.9805V43.6894C64.9805 44.6203 65.1301 45.2681 65.4311 45.6361C65.7304 46.0041 66.2484 46.1873 66.9835 46.1873C67.7187 46.1873 68.2367 46.0041 68.536 45.6361C68.8369 45.2681 68.9866 44.6203 68.9866 43.6894V39.9225H68.0689V39.4029H70.4963V39.9225H69.5786V43.7859C69.5786 44.8967 69.3681 45.6794 68.9471 46.1391C68.5261 46.597 67.8124 46.8268 66.8027 46.8268C65.7946 46.8268 65.0759 46.5953 64.6467 46.1341C64.2175 45.6728 64.0037 44.8901 64.0037 43.7859V39.9225ZM71.577 46.3372V44.6786L72.1295 44.6836C72.1459 45.2364 72.3038 45.6444 72.6031 45.9092C72.9041 46.174 73.3613 46.3072 73.973 46.3072C74.5453 46.3072 74.9811 46.1923 75.2804 45.9625C75.5813 45.7344 75.731 45.3996 75.731 44.96C75.731 44.6102 75.6406 44.3388 75.458 44.1507C75.2771 43.9625 74.894 43.7793 74.3101 43.5994L73.3596 43.3113C72.6738 43.0998 72.1903 42.8367 71.9091 42.522C71.6279 42.2056 71.4881 41.7743 71.4881 41.2247C71.4881 40.6069 71.7052 40.1273 72.1377 39.7859C72.5719 39.4445 73.1803 39.2729 73.9631 39.2729C74.2969 39.2729 74.6637 39.3096 75.0617 39.3829C75.4597 39.4562 75.884 39.5627 76.3329 39.7026V41.2513H75.7902C75.736 40.7368 75.5666 40.3654 75.2821 40.1373C74.9975 39.9075 74.5634 39.7925 73.9829 39.7925C73.4747 39.7925 73.0883 39.8975 72.8235 40.1073C72.5587 40.3171 72.4255 40.6219 72.4255 41.0215C72.4255 41.3713 72.5258 41.6444 72.7248 41.8426C72.9238 42.0407 73.3464 42.2372 73.9911 42.4321L74.8824 42.7019C75.537 42.9 76.0024 43.1515 76.2803 43.4596C76.5582 43.766 76.698 44.179 76.698 44.6953C76.698 45.4013 76.4744 45.9326 76.0287 46.2906C75.5814 46.6487 74.917 46.8268 74.0339 46.8268C73.6392 46.8268 73.2363 46.7869 72.8268 46.7053C72.4173 46.6253 72.0012 46.5021 71.577 46.3372Z" fill="white"/>
<path fill-rule="evenodd" clip-rule="evenodd" d="M41.6817 31.6049H42.4339C42.7164 31.6049 42.9309 31.5273 43.0794 31.373C43.2269 31.2177 43.3007 30.9945 43.3007 30.7026C43.3007 30.4087 43.2269 30.1846 43.0794 30.0313C42.9309 29.877 42.7164 29.8003 42.4339 29.8003H41.6817V31.6049ZM40.5635 33.7929V33.4862H41.1051V29.8003H40.5635V29.4937H42.5728C42.9969 29.4937 43.3327 29.6028 43.5812 29.82C43.8288 30.0382 43.953 30.3321 43.953 30.7026C43.953 31.0712 43.8288 31.3651 43.5812 31.5833C43.3327 31.8025 42.9969 31.9116 42.5728 31.9116H41.6817V33.4862H42.3398V33.7929H40.5635Z" fill="white"/>
<path fill-rule="evenodd" clip-rule="evenodd" d="M30.8167 28.8319L30.751 28.7304L30.9174 28.6225L30.6467 28.2052L29.8674 27.8109L29.7621 27.8791L29.6963 27.7777L30.2903 27.3923L30.3561 27.4938L30.2186 27.583L30.807 27.8802L30.7739 27.2228L30.6505 27.3029L30.5847 27.2014L30.9393 26.9714L31.0051 27.0729L30.8998 27.1411L30.9392 27.9532L31.2383 28.4143L31.4047 28.3064L31.4706 28.4078L30.8167 28.8319ZM32.4261 27.7724C32.5376 27.7139 32.5954 27.623 32.5998 27.4992C32.604 27.3758 32.5551 27.2163 32.4524 27.0206C32.3496 26.8246 32.2461 26.6934 32.1422 26.6267C32.0378 26.56 31.9301 26.5559 31.8187 26.6143C31.7079 26.6725 31.6504 26.7639 31.6463 26.8884C31.6419 27.0129 31.6909 27.1724 31.7928 27.3666C31.8945 27.5606 31.9977 27.6912 32.1027 27.7584C32.2073 27.8258 32.3153 27.8304 32.4261 27.7724ZM32.4823 27.8794C32.7016 27.7644 32.8421 27.6132 32.9034 27.4259C32.9648 27.2386 32.9392 27.038 32.827 26.8241C32.7146 26.6099 32.564 26.4745 32.3753 26.4184C32.1867 26.3623 31.9824 26.3918 31.7625 26.5072C31.5433 26.6222 31.4029 26.7737 31.3417 26.9613C31.2805 27.1489 31.3061 27.3495 31.4181 27.5631C31.5303 27.777 31.6808 27.9121 31.8695 27.9682C32.0582 28.0244 32.2624 27.9947 32.4823 27.8794ZM32.9066 26.0961L32.7326 26.1679L32.6865 26.0561L33.3882 25.7667L33.4343 25.8785L33.2603 25.9502L33.5454 26.6415C33.6164 26.8136 33.6925 26.923 33.7739 26.97C33.8553 27.017 33.9602 27.014 34.0888 26.961C34.2141 26.9093 34.289 26.8378 34.313 26.7466C34.3372 26.6557 34.3138 26.5245 34.2434 26.3537L33.9583 25.6624L33.7843 25.7341L33.7381 25.6224L34.2134 25.4263L34.2595 25.5382L34.0855 25.6099L34.3785 26.3205C34.4655 26.5314 34.4823 26.7004 34.4291 26.8272C34.376 26.9541 34.2432 27.0613 34.0305 27.149C33.8191 27.2362 33.6495 27.2533 33.5214 27.2001C33.3933 27.1469 33.2856 27.015 33.199 26.805L32.9066 26.0961ZM35.5694 25.7733C35.6919 25.7172 35.7762 25.6508 35.8216 25.5735C35.8672 25.4961 35.8745 25.4077 35.8439 25.3085C35.8061 25.1861 35.7324 25.1051 35.6229 25.066C35.5131 25.027 35.3764 25.0327 35.2126 25.0833L34.4084 25.3315L34.4441 25.4471L34.624 25.3916L34.9934 26.5882L34.8135 26.6437L34.8492 26.7592L35.5744 26.5354L35.5387 26.4198L35.3569 26.4759L35.1955 25.953L35.2532 25.9352C35.3074 25.9185 35.3537 25.9177 35.3916 25.9329C35.4298 25.9479 35.4844 25.9933 35.5555 26.0693L35.9129 26.4309L36.3767 26.2877L36.341 26.1722L36.1966 26.2167L35.8679 25.8827C35.8223 25.8357 35.776 25.8035 35.7283 25.7861C35.6809 25.7685 35.6281 25.7644 35.5694 25.7733ZM35.1599 25.8374L34.9876 25.2793L35.1116 25.241C35.1997 25.2138 35.2747 25.2167 35.3369 25.2501C35.399 25.2831 35.4441 25.3446 35.4718 25.4344C35.4996 25.5241 35.497 25.6007 35.4646 25.6636C35.4322 25.7269 35.3719 25.772 35.284 25.7991L35.1599 25.8374ZM37.365 26.0354L37.3401 25.9171L37.5322 25.8766L37.2775 24.6672L36.8814 24.7506L36.93 24.9816L36.7973 25.0095L36.7204 24.6442L38.1523 24.3426L38.2293 24.708L38.0986 24.7355L38.0499 24.5045L37.6518 24.5883L37.9065 25.7978L38.0986 25.7573L38.1235 25.8757L37.365 26.0354ZM38.288 25.847L38.2686 25.7277L38.3881 25.7082L38.7153 24.2635L38.9484 24.2256L39.7183 25.4915L39.8567 25.4689L39.8762 25.5883L39.1943 25.6994L39.1749 25.58L39.3174 25.5568L39.1484 25.2749L38.601 25.364L38.5283 25.6853L38.702 25.657L38.7215 25.7763L38.288 25.847ZM38.6295 25.2369L39.081 25.1633L38.7651 24.6358L38.6295 25.2369ZM41.1148 24.5002L41.24 24.4915L41.2146 24.1255C41.1083 24.0894 41.0037 24.0642 40.9003 24.0501C40.7968 24.0357 40.6927 24.0323 40.5874 24.0396C40.335 24.0571 40.1416 24.1397 40.0067 24.2874C39.872 24.4351 39.813 24.6292 39.8297 24.8691C39.8463 25.1087 39.9314 25.2925 40.0853 25.4202C40.2393 25.5478 40.4423 25.6029 40.6947 25.5854C40.8097 25.5774 40.9216 25.557 41.0299 25.5241C41.1382 25.4913 41.246 25.4451 41.3528 25.3857L41.313 24.8131L40.782 24.85L40.7904 24.9706L40.968 24.9583L40.9964 25.3672C40.9594 25.3951 40.9177 25.4169 40.8711 25.4328C40.8249 25.4487 40.7738 25.4587 40.7186 25.4625C40.5742 25.4726 40.4642 25.4271 40.3886 25.3265C40.313 25.2256 40.2672 25.0638 40.2517 24.8399C40.2361 24.6146 40.2603 24.4468 40.3243 24.3369C40.3884 24.2274 40.4965 24.1671 40.649 24.1565C40.7745 24.1479 40.8738 24.1704 40.9472 24.2245C41.0203 24.2787 41.076 24.3704 41.1148 24.5002ZM41.5626 25.4982L41.5654 25.3773L41.7536 25.3816L41.7825 24.1297L41.5942 24.1253L41.597 24.0044L42.3559 24.0219L42.3531 24.1428L42.1629 24.1384L42.1344 25.374L42.7152 25.3874L42.7206 25.1518L42.8541 25.1549L42.8455 25.5278L41.5626 25.4982ZM42.928 25.5231L42.9364 25.4024L43.1243 25.4155L43.2109 24.1661L43.0231 24.1531L43.0315 24.0325L43.7887 24.085L43.7803 24.2056L43.5905 24.1925L43.5039 25.4418L43.6937 25.4549L43.6853 25.5756L42.928 25.5231ZM43.811 25.5882L43.8249 25.4681L44.0119 25.4898L44.156 24.2458L43.969 24.2241L43.983 24.104L44.4414 24.157L45.2043 25.3105L45.3121 24.3797L45.1251 24.3581L45.139 24.2379L45.6518 24.2973L45.6378 24.4175L45.4509 24.3958L45.2928 25.7599L45.0355 25.7301L44.261 24.5533L44.1506 25.5058L44.3376 25.5275L44.3237 25.6476L43.811 25.5882ZM45.5878 25.8026L46.9029 26.0795L46.9755 25.7345L46.8429 25.7066L46.7985 25.9171L46.1726 25.7853L46.2972 25.1937L46.6755 25.2733L46.6362 25.4598L46.7689 25.4878L46.8754 24.9824L46.7426 24.9544L46.7034 25.141L46.325 25.0613L46.4239 24.592L47.032 24.72L46.9876 24.9306L47.1203 24.9586L47.1929 24.6136L45.8956 24.3404L45.8707 24.4588L46.0549 24.4976L45.7969 25.723L45.6127 25.6842L45.5878 25.8026ZM47.7349 26.3029L47.7706 26.1874L47.9504 26.2429L48.3199 25.0463L48.1399 24.9908L48.1756 24.8752L48.9009 25.0991L48.8652 25.2146L48.6834 25.1585L48.5353 25.6383L49.0962 25.8115L49.2443 25.3317L49.0644 25.2761L49.1001 25.1606L49.8253 25.3845L49.7897 25.5L49.6079 25.4439L49.2385 26.6405L49.4203 26.6966L49.3846 26.8122L48.6594 26.5883L48.695 26.4727L48.8749 26.5282L49.0557 25.9427L48.4948 25.7695L48.3141 26.3551L48.4958 26.4112L48.4602 26.5268L47.7349 26.3029ZM49.4856 26.9055L50.7281 27.4179L50.8625 27.092L50.7371 27.0403L50.655 27.2392L50.0637 26.9954L50.2942 26.4364L50.6516 26.5838L50.579 26.76L50.7043 26.8117L50.9013 26.3343L50.7759 26.2825L50.7032 26.4587L50.3458 26.3113L50.5287 25.8679L51.1032 26.1049L51.0211 26.3038L51.1465 26.3555L51.2809 26.0296L50.0552 25.5241L50.0092 25.6359L50.1832 25.7077L49.7057 26.8654L49.5317 26.7936L49.4856 26.9055ZM52.0514 27.2959C52.0992 27.331 52.1338 27.3711 52.1551 27.417C52.1766 27.463 52.1868 27.5185 52.186 27.584L52.1836 28.0526L52.3174 28.1228L52.2613 28.2299L51.8314 28.0045L51.8329 27.4961C51.836 27.392 51.8293 27.3214 51.8129 27.2838C51.7966 27.2464 51.7632 27.2142 51.713 27.1879L51.6596 27.1598L51.4054 27.6445L51.5739 27.7328L51.5177 27.8399L50.8455 27.4874L50.9017 27.3802L51.0685 27.4677L51.6501 26.3587L51.4835 26.2712L51.5396 26.1641L52.285 26.5551C52.4368 26.6347 52.5377 26.727 52.5881 26.8321C52.6382 26.9371 52.6334 27.0464 52.5739 27.1599C52.5256 27.2518 52.4581 27.3094 52.3712 27.3321C52.2844 27.3549 52.1778 27.3425 52.0514 27.2959ZM51.7157 27.0527L51.8307 27.113C51.9123 27.1558 51.9868 27.1663 52.0543 27.1442C52.1217 27.1225 52.1775 27.07 52.2211 26.9868C52.2647 26.9036 52.2761 26.8282 52.2553 26.761C52.2348 26.6935 52.1836 26.6385 52.1021 26.5957L51.987 26.5354L51.7157 27.0527ZM52.2833 28.2328L53.4109 28.9641L53.6027 28.6684L53.4889 28.5946L53.3718 28.7751L52.8352 28.427L53.1643 27.9198L53.4886 28.1302L53.3849 28.2901L53.4987 28.3639L53.7797 27.9306L53.6659 27.8567L53.5622 28.0167L53.2379 27.8063L53.4989 27.4039L54.0202 27.7421L53.9031 27.9226L54.0169 27.9964L54.2087 27.7007L53.0964 26.9792L53.0306 27.0806L53.1885 27.1831L52.5071 28.2337L52.3491 28.1313L52.2833 28.2328Z" fill="#191919"/>
<path fill-rule="evenodd" clip-rule="evenodd" d="M26.767 56.0481L26.749 55.9285L26.9452 55.8991L26.8713 55.4072L26.3247 54.726L26.2006 54.7446L26.1826 54.625L26.8829 54.5198L26.9008 54.6393L26.7387 54.6637L27.1516 55.1775L27.3932 54.5653L27.2478 54.5872L27.2298 54.4676L27.6478 54.4048L27.6658 54.5244L27.5417 54.543L27.2418 55.2986L27.3235 55.8422L27.5196 55.8127L27.5376 55.9323L26.767 56.0481ZM28.7487 55.9177C28.8731 55.9368 28.9736 55.8981 29.0507 55.8011C29.1274 55.7045 29.1828 55.5471 29.2165 55.3286C29.2502 55.1099 29.245 54.9428 29.201 54.8275C29.1568 54.7118 29.0726 54.6445 28.9482 54.6253C28.8245 54.6062 28.7239 54.6456 28.6467 54.7433C28.5692 54.8409 28.5138 54.9982 28.4804 55.2149C28.4469 55.4314 28.4523 55.5978 28.4968 55.7142C28.5409 55.8306 28.625 55.8985 28.7487 55.9177ZM28.7302 56.0372C28.4849 55.9992 28.3029 55.9017 28.1845 55.7445C28.0661 55.5872 28.0254 55.3891 28.0623 55.1504C28.099 54.9121 28.1977 54.7355 28.3584 54.621C28.5191 54.5065 28.722 54.468 28.9667 54.5058C29.212 54.5437 29.3939 54.6412 29.5123 54.7985C29.6308 54.9557 29.6715 55.1542 29.6346 55.3932C29.5977 55.6319 29.4991 55.8085 29.3384 55.9226C29.1778 56.0368 28.975 56.0749 28.7302 56.0372ZM30.2453 54.92L30.065 54.8659L30.0998 54.75L30.8267 54.9683L30.792 55.0841L30.6117 55.03L30.3967 55.7462C30.3432 55.9245 30.3333 56.0574 30.3668 56.1452C30.4003 56.233 30.4836 56.2969 30.6167 56.3369C30.7467 56.3759 30.8499 56.3676 30.9261 56.312C31.0022 56.2567 31.0668 56.1402 31.1199 55.9632L31.3348 55.247L31.1546 55.1929L31.1893 55.0771L31.6817 55.2249L31.6469 55.3407L31.4667 55.2866L31.2457 56.0227C31.1801 56.2413 31.0865 56.383 30.9652 56.4479C30.844 56.5128 30.6733 56.5122 30.4529 56.446C30.2339 56.3803 30.0916 56.2866 30.0257 56.1644C29.9599 56.0424 29.9595 55.8721 30.0249 55.6545L30.2453 54.92ZM32.529 56.3972C32.66 56.4287 32.7674 56.4285 32.8508 56.3956C32.9344 56.363 32.9947 56.2979 33.0319 56.2009C33.0777 56.0813 33.0697 55.9721 33.0077 55.8737C32.9453 55.7752 32.8343 55.6954 32.6743 55.6341L31.8883 55.333L31.845 55.4459L32.0208 55.5133L31.5729 56.6827L31.397 56.6153L31.3538 56.7283L32.0626 56.9998L32.1058 56.8868L31.9282 56.8188L32.124 56.3078L32.1803 56.3294C32.2333 56.3496 32.2702 56.3777 32.2907 56.413C32.3114 56.4483 32.3264 56.5178 32.3354 56.6214L32.3934 57.1265L32.8467 57.3002L32.8899 57.1872L32.7488 57.1331L32.6963 56.6675C32.6895 56.6024 32.673 56.5485 32.6462 56.5053C32.6197 56.4623 32.5807 56.4264 32.529 56.3972ZM32.1672 56.1949L32.3762 55.6494L32.4974 55.6959C32.5834 55.7288 32.6407 55.7774 32.669 55.8421C32.6975 55.9064 32.695 55.9826 32.6614 56.0704C32.6278 56.1581 32.5786 56.2168 32.5142 56.2462C32.4497 56.2761 32.3745 56.2743 32.2885 56.2414L32.1672 56.1949ZM33.8135 57.7131L33.8522 57.5985L34.0382 57.6613L34.433 56.4901L34.0494 56.3607L33.974 56.5845L33.8455 56.5411L33.9647 56.1873L35.3515 56.6547L35.2322 57.0086L35.1056 56.9659L35.181 56.7422L34.7955 56.6123L34.4007 57.7834L34.5867 57.8461L34.5481 57.9607L33.8135 57.7131ZM34.7625 58.0622L35.1777 58.2055L35.2172 58.0912L35.0507 58.0337L35.267 57.7853L35.7913 57.9662L35.8065 58.2945L35.67 58.2474L35.6306 58.3617L36.2837 58.587L36.3231 58.4727L36.1905 58.4269L36.1125 56.9473L35.8892 56.8703L34.9165 57.9874L34.802 57.9479L34.7625 58.0622ZM35.3524 57.6868L35.7566 57.2217L35.7848 57.836L35.3524 57.6868ZM37.8343 57.943C37.8358 57.8075 37.8097 57.7034 37.7559 57.63C37.7018 57.5566 37.6137 57.5056 37.4913 57.4767C37.3425 57.4417 37.2214 57.4672 37.1277 57.5529C37.034 57.6388 36.9612 57.7919 36.9094 58.0117C36.8579 58.2301 36.8536 58.3983 36.896 58.517C36.9384 58.6355 37.03 58.7115 37.1709 58.7447C37.2247 58.7574 37.2764 58.7629 37.3253 58.7614C37.3745 58.7601 37.4208 58.7517 37.4644 58.736L37.5584 58.337L37.3851 58.2961L37.4128 58.1784L37.931 58.3005L37.7993 58.8591C37.6797 58.8843 37.5631 58.8965 37.45 58.8958C37.3367 58.8951 37.2239 58.8814 37.1116 58.855C36.8654 58.7969 36.6878 58.6841 36.5785 58.5166C36.4694 58.3491 36.4425 58.1484 36.4976 57.9146C36.5528 57.6805 36.6665 57.5125 36.8391 57.4114C37.0116 57.3103 37.2208 57.2887 37.4671 57.3468C37.5698 57.371 37.6682 57.405 37.7627 57.4494C37.8574 57.4935 37.9498 57.5486 38.0406 57.6146L37.9565 57.9717L37.8343 57.943ZM38.0212 59.0529L39.2697 59.3496L39.356 58.9867L39.2261 58.9558L39.1715 59.1851L38.6063 59.0508L38.8922 57.8484L39.0772 57.8924L39.1052 57.7747L38.3667 57.5992L38.3388 57.7169L38.5219 57.7604L38.2324 58.9788L38.0492 58.9353L38.0212 59.0529ZM39.4024 59.3315L39.4199 59.2118L39.6062 59.239L39.7869 57.9998L39.6006 57.9726L39.618 57.853L40.3691 57.9625L40.3516 58.0821L40.1634 58.0547L39.9827 59.2939L40.171 59.3213L40.1535 59.441L39.4024 59.3315ZM40.4423 59.504L40.4446 59.3831L40.6328 59.3867L40.6567 58.1346L40.4686 58.131L40.4709 58.0101L40.9322 58.0189L41.8025 59.0937L41.8204 58.1568L41.6322 58.1532L41.6345 58.0323L42.1506 58.0422L42.1482 58.1631L41.96 58.1595L41.9338 59.5325L41.6747 59.5275L40.7908 58.4306L40.7724 59.3894L40.9606 59.393L40.9583 59.5139L40.4423 59.504ZM42.2749 59.5399L42.2705 59.419L42.4586 59.4122L42.4135 58.1607L42.2254 58.1675L42.2211 58.0467L43.546 57.9989L43.5587 58.3512L43.4232 58.3561L43.4154 58.141L42.7944 58.1634L42.8117 58.6427L43.1981 58.6288L43.1912 58.4383L43.3268 58.4334L43.3454 58.9496L43.2098 58.9545L43.203 58.764L42.8166 58.7779L42.8384 59.3821L43.4776 59.3591L43.4698 59.1441L43.6054 59.1391L43.6181 59.4915L42.2749 59.5399ZM45.619 58.1092C45.567 57.9841 45.5021 57.8987 45.4237 57.8524C45.3451 57.8062 45.244 57.7941 45.12 57.8158C44.9695 57.8421 44.8683 57.9133 44.8159 58.0289C44.7636 58.1449 44.7569 58.3142 44.7959 58.5366C44.8346 58.7577 44.8969 58.914 44.9826 59.0065C45.0682 59.0986 45.1824 59.1324 45.3249 59.1075C45.3794 59.0979 45.4291 59.0826 45.4735 59.062C45.5181 59.0414 45.5574 59.0154 45.5913 58.9838L45.5206 58.58L45.3452 58.6107L45.3243 58.4917L45.8487 58.3998L45.9477 58.9651C45.8476 59.0354 45.7452 59.0925 45.641 59.1364C45.5366 59.1803 45.4275 59.2122 45.3139 59.2321C45.0646 59.2758 44.857 59.2421 44.6907 59.1311C44.5243 59.0201 44.4206 58.8462 44.3791 58.6096C44.3377 58.3727 44.3761 58.1735 44.4948 58.0126C44.6136 57.8517 44.7974 57.7495 45.0467 57.7058C45.1507 57.6876 45.2545 57.6802 45.3589 57.6838C45.4633 57.687 45.5698 57.7013 45.6794 57.7261L45.7426 58.0876L45.619 58.1092ZM46.9487 58.7164C47.0695 58.6812 47.1442 58.6035 47.173 58.4831C47.2016 58.363 47.1851 58.197 47.1233 57.9848C47.0614 57.7723 46.9859 57.6231 46.8973 57.5372C46.8082 57.4511 46.7035 57.4258 46.5827 57.461C46.4626 57.496 46.388 57.5743 46.3594 57.6955C46.3304 57.8167 46.3468 57.9827 46.4082 58.1933C46.4695 58.4035 46.5448 58.552 46.6343 58.6386C46.7236 58.7254 46.8285 58.7514 46.9487 58.7164ZM46.9825 58.8325C47.2203 58.7632 47.3879 58.6428 47.4852 58.4714C47.5824 58.3 47.597 58.0983 47.5295 57.8664C47.4618 57.6342 47.3409 57.4716 47.1671 57.3792C46.9933 57.2868 46.7872 57.2754 46.5488 57.3449C46.3111 57.4142 46.1435 57.5349 46.0464 57.7066C45.9492 57.8784 45.9346 58.0801 46.0021 58.3117C46.0697 58.5435 46.1904 58.7058 46.3642 58.7982C46.5381 58.8905 46.7442 58.902 46.9825 58.8325ZM47.8981 58.5276L47.8576 58.4137L48.035 58.3507L47.6164 57.1705L47.4389 57.2334L47.3985 57.1195L48.648 56.6763L48.7658 57.0085L48.638 57.0539L48.5661 56.851L47.9804 57.0588L48.1408 57.5108L48.5051 57.3815L48.4414 57.2019L48.5692 57.1565L48.7419 57.6433L48.6141 57.6887L48.5504 57.509L48.186 57.6382L48.3881 58.2081L48.991 57.9943L48.919 57.7914L49.0468 57.7461L49.1647 58.0783L47.8981 58.5276ZM49.3724 57.8893C49.4762 57.8909 49.5758 57.8849 49.671 57.871C49.7666 57.8572 49.8599 57.8353 49.9512 57.8054C50.141 57.7432 50.2724 57.6588 50.3458 57.5524C50.4193 57.4461 50.4323 57.321 50.3854 57.1779C50.3452 57.0555 50.2847 56.9693 50.2031 56.9187C50.1219 56.868 50.0109 56.8476 49.8698 56.8572L49.6425 56.8738C49.5045 56.8827 49.4142 56.877 49.3714 56.8569C49.3289 56.8367 49.2979 56.7973 49.2785 56.7382C49.2574 56.6735 49.2651 56.6171 49.3016 56.5692C49.338 56.521 49.4025 56.4818 49.4952 56.4515C49.6087 56.4143 49.7033 56.4085 49.7794 56.4335C49.8555 56.4589 49.9186 56.5173 49.9689 56.609L50.0882 56.57L49.9854 56.2564C49.8811 56.2596 49.7825 56.2686 49.6894 56.2836C49.596 56.2988 49.5085 56.3199 49.4268 56.3466C49.2601 56.4013 49.1437 56.4829 49.077 56.5914C49.0103 56.6998 49 56.8244 49.0462 56.9652C49.0844 57.0818 49.1418 57.1626 49.2181 57.2073C49.2945 57.252 49.4069 57.2698 49.5557 57.2602L49.7834 57.2435C49.9001 57.2355 49.9806 57.2418 50.0257 57.2623C50.0703 57.2825 50.1022 57.3214 50.1209 57.3785C50.1445 57.4506 50.1371 57.5137 50.0984 57.5677C50.06 57.6217 49.9921 57.6648 49.895 57.6966C49.7754 57.7358 49.6732 57.7402 49.5883 57.7097C49.5034 57.6793 49.4344 57.6138 49.3812 57.5134L49.262 57.5524L49.3724 57.8893ZM51.356 57.2519L51.3092 57.1404L51.4828 57.0676L50.9987 55.9127L50.825 55.9855L50.7783 55.8739L51.4783 55.5805L51.5251 55.692L51.3496 55.7656L51.5438 56.2287L52.0851 56.0017L51.891 55.5386L51.7173 55.6114L51.6706 55.4999L52.3706 55.2064L52.4174 55.318L52.2419 55.3915L52.7261 56.5465L52.9015 56.4729L52.9483 56.5845L52.2483 56.8779L52.2015 56.7663L52.3751 56.6936L52.1382 56.1284L51.5968 56.3554L51.8337 56.9205L52.0092 56.847L52.056 56.9585L51.356 57.2519ZM53.1463 56.5617L54.4211 56.1363L54.3095 55.8019L54.1809 55.8448L54.249 56.049L53.6423 56.2514L53.4509 55.6778L53.8177 55.5555L53.878 55.7363L54.0066 55.6934L53.8431 55.2034L53.7145 55.2464L53.7748 55.4272L53.4081 55.5495L53.2563 55.0946L53.8457 54.8979L53.9138 55.102L54.0425 55.0591L53.9309 54.7247L52.6733 55.1443L52.7116 55.2591L52.8901 55.1995L53.2865 56.3874L53.1079 56.447L53.1463 56.5617ZM55.5192 55.2567C55.5784 55.2603 55.6292 55.2753 55.6719 55.3023C55.715 55.3293 55.7536 55.3704 55.7884 55.426L56.0402 55.8211L56.1908 55.8076L56.2016 55.9281L55.7181 55.9715L55.4439 55.5433C55.3902 55.4542 55.3463 55.3984 55.3121 55.3758C55.2782 55.3531 55.2327 55.3441 55.1763 55.3492L55.1161 55.3546L55.165 55.8997L55.3545 55.8827L55.3653 56.0031L54.6093 56.071L54.5985 55.9505L54.786 55.9337L54.6741 54.6864L54.4866 54.7032L54.4758 54.5827L55.3141 54.5075C55.4848 54.4922 55.6196 54.5151 55.7189 54.5762C55.8179 54.6373 55.8731 54.7318 55.8845 54.8594C55.8938 54.9628 55.8682 55.0477 55.8075 55.1139C55.747 55.18 55.6507 55.2274 55.5192 55.2567ZM55.1053 55.2341L55.2346 55.2225C55.3263 55.2143 55.3947 55.1827 55.4395 55.1276C55.4844 55.0729 55.5028 54.9985 55.4944 54.9049C55.486 54.8114 55.4547 54.7418 55.4009 54.6966C55.347 54.651 55.2742 54.6325 55.1825 54.6407L55.0531 54.6523L55.1053 55.2341ZM56.2879 55.9265L56.3019 55.8063L56.4889 55.8282L56.6345 54.5844L56.4475 54.5625L56.4616 54.4424L57.7783 54.5966L57.7374 54.9467L57.6026 54.931L57.6277 54.7172L57.0105 54.6449L56.9547 55.1213L57.3387 55.1663L57.3609 54.977L57.4956 54.9927L57.4355 55.5057L57.3008 55.4899L57.323 55.3006L56.939 55.2557L56.8687 55.8562L57.504 55.9305L57.529 55.7168L57.6637 55.7326L57.6227 56.0827L56.2879 55.9265Z" fill="#191919"/>
<defs>
<linearGradient id="paint0_linear_380_717" x1="6.66543" y1="42.0001" x2="77.3266" y2="42.0001" gradientUnits="userSpaceOnUse">
<stop stop-color="#B68339"/>
<stop offset="0.21" stop-color="#B68339"/>
<stop offset="0.48" stop-color="#FDF5A6"/>
<stop offset="0.79" stop-color="#B68339"/>
<stop offset="1" stop-color="#B68339"/>
</linearGradient>
</defs>
</svg>
